<svg xmlns="http://www.w3.org/2000/svg" xmlns:xlink="http://www.w3.org/1999/xlink" width="129" height="128" viewBox="0 0 129 128">
  <defs>
    <clipPath id="clip-path">
      <rect id="Rectangle_400938" data-name="Rectangle 400938" width="120" height="120" fill="none"/>
    </clipPath>
    <clipPath id="clip-path-2">
      <rect id="Rectangle_401139" data-name="Rectangle 401139" width="129" height="128" transform="translate(389 2749)" fill="#8f006f"/>
    </clipPath>
  </defs>
  <g id="Group_1122710" data-name="Group 1122710" transform="translate(-361 -6372)">
    <g id="Group_1122252" data-name="Group 1122252" transform="translate(-28 3623)">
      <g id="Grupo_108927" data-name="Grupo 108927" transform="translate(-1 -1718)">
        <path id="Rectángulo_36179" data-name="Rectángulo 36179" d="M0,0H129V128H0Z" transform="translate(390 4467)" fill="#0653ae"/>
      </g>
      <g id="Mask_Group_1098688" data-name="Mask Group 1098688" clip-path="url(#clip-path-2)">
        <path id="Path_878164" data-name="Path 878164" d="M195.281,0h1.95l-.293,3.327,2.755-2.1.988,1.694-3.133,1.536,3.133,1.621-.988,1.708-2.755-2.171.293,3.39h-1.95l.365-3.45L192.88,7.7,191.9,6l3.048-1.536-3.121-1.45.988-1.694,2.815,2.047Z" transform="translate(204.529 2754.341)" fill="#dbccfc"/>
        <path id="Path_878165" data-name="Path 878165" d="M207.27,0h1.95l-.293,3.327,2.755-2.1.988,1.694-3.133,1.536,3.133,1.621-.988,1.708-2.755-2.171.293,3.39h-1.95l.365-3.45L204.869,7.7,203.894,6l3.047-1.536-3.121-1.45.988-1.694,2.815,2.047Z" transform="translate(207.238 2754.341)" fill="#dbccfc"/>
        <path id="Path_878166" data-name="Path 878166" d="M219.26,0h1.95l-.293,3.327,2.755-2.1.988,1.694-3.133,1.536,3.133,1.621-.988,1.708-2.755-2.171.293,3.39h-1.95l.365-3.45L216.858,7.7,215.884,6l3.046-1.536-3.12-1.45.987-1.694,2.816,2.047Z" transform="translate(209.945 2754.341)" fill="#dbccfc"/>
        <path id="Path_878167" data-name="Path 878167" d="M231.249,0h1.95l-.293,3.327,2.755-2.1.988,1.694-3.133,1.536,3.133,1.621-.988,1.708-2.755-2.171.293,3.39h-1.95l.365-3.45L228.848,7.7,227.873,6l3.048-1.536L227.8,3.011l.988-1.694L231.6,3.364Z" transform="translate(212.654 2754.341)" fill="#dbccfc"/>
        <path id="Path_878168" data-name="Path 878168" d="M243.239,0h1.95L244.9,3.327l2.755-2.1.987,1.694-3.132,1.536,3.132,1.621-.987,1.708L244.9,5.618l.293,3.39h-1.95l.365-3.45L240.837,7.7,239.863,6l3.046-1.536-3.12-1.45.987-1.694,2.816,2.047Z" transform="translate(215.361 2754.341)" fill="#dbccfc"/>
        <path id="Path_878169" data-name="Path 878169" d="M195.281,0h1.95l-.293,3.327,2.755-2.1.988,1.694-3.133,1.536,3.133,1.621-.988,1.708-2.755-2.171.293,3.39h-1.95l.365-3.45L192.88,7.7,191.9,6l3.048-1.536-3.121-1.45.988-1.694,2.815,2.047Z" transform="translate(250.529 2861.341)" fill="#dbccfc"/>
        <path id="Path_878170" data-name="Path 878170" d="M207.27,0h1.95l-.293,3.327,2.755-2.1.988,1.694-3.133,1.536,3.133,1.621-.988,1.708-2.755-2.171.293,3.39h-1.95l.365-3.45L204.869,7.7,203.894,6l3.047-1.536-3.121-1.45.988-1.694,2.815,2.047Z" transform="translate(253.238 2861.341)" fill="#dbccfc"/>
        <path id="Path_878171" data-name="Path 878171" d="M219.26,0h1.95l-.293,3.327,2.755-2.1.988,1.694-3.133,1.536,3.133,1.621-.988,1.708-2.755-2.171.293,3.39h-1.95l.365-3.45L216.858,7.7,215.884,6l3.046-1.536-3.12-1.45.987-1.694,2.816,2.047Z" transform="translate(255.945 2861.341)" fill="#dbccfc"/>
        <path id="Path_878172" data-name="Path 878172" d="M231.249,0h1.95l-.293,3.327,2.755-2.1.988,1.694-3.133,1.536,3.133,1.621-.988,1.708-2.755-2.171.293,3.39h-1.95l.365-3.45L228.848,7.7,227.873,6l3.048-1.536L227.8,3.011l.988-1.694L231.6,3.364Z" transform="translate(258.654 2861.341)" fill="#dbccfc"/>
        <path id="Path_878173" data-name="Path 878173" d="M243.239,0h1.95L244.9,3.327l2.755-2.1.987,1.694-3.132,1.536,3.132,1.621-.987,1.708L244.9,5.618l.293,3.39h-1.95l.365-3.45L240.837,7.7,239.863,6l3.046-1.536-3.12-1.45.987-1.694,2.816,2.047Z" transform="translate(261.361 2861.341)" fill="#dbccfc"/>
      </g>
    </g>
    <g id="Group_1122253" data-name="Group 1122253" transform="translate(379.875 6389.719)">
      <rect id="Rectangle_401104" data-name="Rectangle 401104" width="92" height="94" transform="translate(0.124 -0.719)" fill="none"/>
      <g id="Group_1122553" data-name="Group 1122553" transform="translate(2.044 2.762)">
        <path id="Path_957492" data-name="Path 957492" d="M230.858,173.731v3.82a2.7,2.7,0,0,0,5.408,0v-3.82a4.6,4.6,0,1,0-5.408,0Z" transform="translate(-190.033 -137.297)" fill="#fff"/>
        <path id="Path_957493" data-name="Path 957493" d="M75.148,41.822h-11.9V25.752A6.7,6.7,0,0,0,57.344,19.1V13.814a13.814,13.814,0,0,0-27.628,0V19.1a6.7,6.7,0,0,0-5.905,6.648V41.822h-11.9a11.913,11.913,0,0,0-11.9,11.9V75.14a11.913,11.913,0,0,0,11.9,11.9H75.148a11.913,11.913,0,0,0,11.9-11.9V53.721a11.913,11.913,0,0,0-11.9-11.9Zm0,10.2a1.7,1.7,0,0,1,1.7,1.7V75.14a1.7,1.7,0,0,1-1.7,1.7H11.911a1.7,1.7,0,0,1-1.7-1.7V53.721a1.7,1.7,0,0,1,1.7-1.7ZM43.53,3.4A10.426,10.426,0,0,1,53.944,13.814v5.242h-3.4V13.814a7.014,7.014,0,1,0-14.028,0v5.242h-3.4V13.814A10.426,10.426,0,0,1,43.53,3.4Zm3.614,15.656H39.915V13.814a3.614,3.614,0,0,1,7.229,0v5.242Zm-19.933,6.7a3.3,3.3,0,0,1,3.3-3.3H56.552a3.3,3.3,0,0,1,3.3,3.3V45.325a3.3,3.3,0,0,1-3.3,3.3H30.507a3.3,3.3,0,0,1-3.3-3.3V25.752ZM83.648,75.14a8.509,8.509,0,0,1-8.5,8.5H11.911a8.509,8.509,0,0,1-8.5-8.5V53.721a8.509,8.509,0,0,1,8.5-8.5h11.9v.1a6.651,6.651,0,0,0,.871,3.3H11.911a5.106,5.106,0,0,0-5.1,5.1V75.14a5.106,5.106,0,0,0,5.1,5.1H75.148a5.106,5.106,0,0,0,5.1-5.1V53.721a5.106,5.106,0,0,0-5.1-5.1H62.378a6.654,6.654,0,0,0,.871-3.3v-.1h11.9a8.509,8.509,0,0,1,8.5,8.5Z" transform="translate(0 0)" fill="#fff"/>
        <path id="Path_957494" data-name="Path 957494" d="M88.712,397.423h8.16a1.7,1.7,0,1,0,0-3.4h-8.16a1.7,1.7,0,1,0,0,3.4Z" transform="translate(-72.211 -327.042)" fill="#fff"/>
        <path id="Path_957495" data-name="Path 957495" d="M178.712,397.423h8.16a1.7,1.7,0,1,0,0-3.4h-8.16a1.7,1.7,0,1,0,0,3.4Z" transform="translate(-146.912 -327.042)" fill="#fff"/>
        <path id="Path_957496" data-name="Path 957496" d="M268.712,397.423h8.16a1.7,1.7,0,0,0,0-3.4h-8.16a1.7,1.7,0,0,0,0,3.4Z" transform="translate(-221.612 -327.042)" fill="#fff"/>
        <path id="Path_957497" data-name="Path 957497" d="M358.712,397.423h8.16a1.7,1.7,0,0,0,0-3.4h-8.16a1.7,1.7,0,1,0,0,3.4Z" transform="translate(-296.313 -327.042)" fill="#fff"/>
      </g>
    </g>
  </g>
</svg>
