<svg xmlns="http://www.w3.org/2000/svg" xmlns:xlink="http://www.w3.org/1999/xlink" width="129" height="128" viewBox="0 0 129 128">
  <defs>
    <clipPath id="clip-path">
      <rect id="Rectangle_400938" data-name="Rectangle 400938" width="120" height="120" fill="none"/>
    </clipPath>
    <clipPath id="clip-path-2">
      <rect id="Rectangle_401139" data-name="Rectangle 401139" width="129" height="128" transform="translate(389 2749)" fill="#8f006f"/>
    </clipPath>
  </defs>
  <g id="Group_1122707" data-name="Group 1122707" transform="translate(-361 -5862)">
    <g id="Group_1099488" data-name="Group 1099488" transform="translate(-28 3113)">
      <g id="Grupo_108927" data-name="Grupo 108927" transform="translate(-1 -1718)">
        <path id="Rectángulo_36179" data-name="Rectángulo 36179" d="M0,0H129V128H0Z" transform="translate(390 4467)" fill="#0653ae"/>
      </g>
      <g id="Mask_Group_1098688" data-name="Mask Group 1098688" clip-path="url(#clip-path-2)">
        <path id="Path_878164" data-name="Path 878164" d="M195.281,0h1.95l-.293,3.327,2.755-2.1.988,1.694-3.133,1.536,3.133,1.621-.988,1.708-2.755-2.171.293,3.39h-1.95l.365-3.45L192.88,7.7,191.9,6l3.048-1.536-3.121-1.45.988-1.694,2.815,2.047Z" transform="translate(204.529 2754.341)" fill="#dbccfc"/>
        <path id="Path_878165" data-name="Path 878165" d="M207.27,0h1.95l-.293,3.327,2.755-2.1.988,1.694-3.133,1.536,3.133,1.621-.988,1.708-2.755-2.171.293,3.39h-1.95l.365-3.45L204.869,7.7,203.894,6l3.047-1.536-3.121-1.45.988-1.694,2.815,2.047Z" transform="translate(207.238 2754.341)" fill="#dbccfc"/>
        <path id="Path_878166" data-name="Path 878166" d="M219.26,0h1.95l-.293,3.327,2.755-2.1.988,1.694-3.133,1.536,3.133,1.621-.988,1.708-2.755-2.171.293,3.39h-1.95l.365-3.45L216.858,7.7,215.884,6l3.046-1.536-3.12-1.45.987-1.694,2.816,2.047Z" transform="translate(209.945 2754.341)" fill="#dbccfc"/>
        <path id="Path_878167" data-name="Path 878167" d="M231.249,0h1.95l-.293,3.327,2.755-2.1.988,1.694-3.133,1.536,3.133,1.621-.988,1.708-2.755-2.171.293,3.39h-1.95l.365-3.45L228.848,7.7,227.873,6l3.048-1.536L227.8,3.011l.988-1.694L231.6,3.364Z" transform="translate(212.654 2754.341)" fill="#dbccfc"/>
        <path id="Path_878168" data-name="Path 878168" d="M243.239,0h1.95L244.9,3.327l2.755-2.1.987,1.694-3.132,1.536,3.132,1.621-.987,1.708L244.9,5.618l.293,3.39h-1.95l.365-3.45L240.837,7.7,239.863,6l3.046-1.536-3.12-1.45.987-1.694,2.816,2.047Z" transform="translate(215.361 2754.341)" fill="#dbccfc"/>
        <path id="Path_878169" data-name="Path 878169" d="M195.281,0h1.95l-.293,3.327,2.755-2.1.988,1.694-3.133,1.536,3.133,1.621-.988,1.708-2.755-2.171.293,3.39h-1.95l.365-3.45L192.88,7.7,191.9,6l3.048-1.536-3.121-1.45.988-1.694,2.815,2.047Z" transform="translate(250.529 2861.341)" fill="#dbccfc"/>
        <path id="Path_878170" data-name="Path 878170" d="M207.27,0h1.95l-.293,3.327,2.755-2.1.988,1.694-3.133,1.536,3.133,1.621-.988,1.708-2.755-2.171.293,3.39h-1.95l.365-3.45L204.869,7.7,203.894,6l3.047-1.536-3.121-1.45.988-1.694,2.815,2.047Z" transform="translate(253.238 2861.341)" fill="#dbccfc"/>
        <path id="Path_878171" data-name="Path 878171" d="M219.26,0h1.95l-.293,3.327,2.755-2.1.988,1.694-3.133,1.536,3.133,1.621-.988,1.708-2.755-2.171.293,3.39h-1.95l.365-3.45L216.858,7.7,215.884,6l3.046-1.536-3.12-1.45.987-1.694,2.816,2.047Z" transform="translate(255.945 2861.341)" fill="#dbccfc"/>
        <path id="Path_878172" data-name="Path 878172" d="M231.249,0h1.95l-.293,3.327,2.755-2.1.988,1.694-3.133,1.536,3.133,1.621-.988,1.708-2.755-2.171.293,3.39h-1.95l.365-3.45L228.848,7.7,227.873,6l3.048-1.536L227.8,3.011l.988-1.694L231.6,3.364Z" transform="translate(258.654 2861.341)" fill="#dbccfc"/>
        <path id="Path_878173" data-name="Path 878173" d="M243.239,0h1.95L244.9,3.327l2.755-2.1.987,1.694-3.132,1.536,3.132,1.621-.987,1.708L244.9,5.618l.293,3.39h-1.95l.365-3.45L240.837,7.7,239.863,6l3.046-1.536-3.12-1.45.987-1.694,2.816,2.047Z" transform="translate(261.361 2861.341)" fill="#dbccfc"/>
      </g>
    </g>
    <g id="Group_1099484" data-name="Group 1099484" transform="translate(379.875 5879.719)">
      <rect id="Rectangle_401104" data-name="Rectangle 401104" width="92" height="94" transform="translate(0.124 -0.719)" fill="none"/>
      <path id="Path_957486" data-name="Path 957486" d="M107.45,74.28a1.25,1.25,0,1,0-1.767-1.768l-7.455,7.451a6.54,6.54,0,1,0,1.767,1.768ZM94.582,89.408a4.031,4.031,0,1,1,2.84-6.885l.005.006.006.006a4.029,4.029,0,0,1-2.852,6.874Zm24.467-28.5a1.261,1.261,0,0,0-.173-.143,34.538,34.538,0,0,0-48.587,0,1.245,1.245,0,0,0-.179.147,1.264,1.264,0,0,0-.148.18A34.493,34.493,0,0,0,59.976,85.38a1.25,1.25,0,0,0,1.25,1.25h21.21a1.25,1.25,0,0,0,0-2.5H71.458a23.155,23.155,0,0,1,46.243,0H106.723a1.25,1.25,0,0,0,0,2.5h21.21a1.25,1.25,0,0,0,1.25-1.25,34.5,34.5,0,0,0-9.99-24.3,1.261,1.261,0,0,0-.144-.174ZM68.955,84.13H62.5a31.983,31.983,0,0,1,8.524-20.539l4.559,4.562A25.559,25.559,0,0,0,68.955,84.13ZM93.332,59.753a25.559,25.559,0,0,0-15.981,6.632l-4.559-4.563A31.985,31.985,0,0,1,93.332,53.3Zm2.5,0V53.3a31.977,31.977,0,0,1,20.536,8.521l-4.559,4.563a25.552,25.552,0,0,0-15.977-6.631ZM120.2,84.13a25.562,25.562,0,0,0-6.628-15.977l4.558-4.562a31.986,31.986,0,0,1,8.523,20.54H120.2ZM71.292,55.3V50.851H62.476V68.71a1.25,1.25,0,1,1-2.5,0V49.6a1.25,1.25,0,0,1,1.25-1.25H72.542a1.25,1.25,0,0,1,1.25,1.25v5.7a1.25,1.25,0,0,1-2.5,0ZM64.739,34.621a6.2,6.2,0,0,0,5.4-9.258L80.69,18.254l.029-.021a6.192,6.192,0,0,0,8.034.367l9.813,7.251a6.2,6.2,0,1,0,10.614-1.137l9.184-12.385a6.218,6.218,0,1,0-2.009-1.489L107.3,23.047a6.187,6.187,0,0,0-7.264.783l-9.658-7.137A6.2,6.2,0,0,0,84.952,7.5a6.2,6.2,0,0,0-5.682,8.7l-10.8,7.273a6.2,6.2,0,1,0-3.733,11.153ZM120.974,3a3.7,3.7,0,1,1-3.7,3.7A3.7,3.7,0,0,1,120.974,3ZM104.208,24.717a3.7,3.7,0,1,1-3.7,3.7A3.706,3.706,0,0,1,104.208,24.717ZM84.952,10a3.707,3.707,0,0,1,3.7,3.7,3.663,3.663,0,0,1-.314,1.487,3.713,3.713,0,0,1-1.66,1.784A3.7,3.7,0,1,1,84.952,10ZM64.739,24.717a3.7,3.7,0,1,1-3.7,3.7A3.706,3.706,0,0,1,64.739,24.717Zm64.444.79v43.2a1.25,1.25,0,1,1-2.5,0V26.756h-8.816V55.3a1.25,1.25,0,0,1-2.5,0v-29.8a1.25,1.25,0,0,1,1.25-1.25h11.316a1.25,1.25,0,0,1,1.25,1.25ZM108.221,51.195v-10.3H99.4V48.27a1.25,1.25,0,1,1-2.5,0V39.641a1.25,1.25,0,0,1,1.25-1.25h11.321a1.25,1.25,0,0,1,1.25,1.25V51.195a1.25,1.25,0,0,1-2.5,0ZM89.759,48.27v-21.3H80.938V51.195a1.25,1.25,0,1,1-2.5,0V25.719a1.25,1.25,0,0,1,1.25-1.25H91.009a1.25,1.25,0,0,1,1.25,1.25V48.27a1.25,1.25,0,0,1-2.5,0Z" transform="translate(-47.737 0.077)" fill="#fff"/>
    </g>
  </g>
</svg>
