<svg xmlns="http://www.w3.org/2000/svg" xmlns:xlink="http://www.w3.org/1999/xlink" width="129" height="128" viewBox="0 0 129 128">
  <defs>
    <clipPath id="clip-path">
      <rect id="Rectangle_400938" data-name="Rectangle 400938" width="120" height="120" fill="none"/>
    </clipPath>
    <clipPath id="clip-path-2">
      <rect id="Rectangle_401139" data-name="Rectangle 401139" width="129" height="128" transform="translate(389 2749)" fill="#8f006f"/>
    </clipPath>
  </defs>
  <g id="Group_1122708" data-name="Group 1122708" transform="translate(-361 -6031)">
    <g id="Group_1103898" data-name="Group 1103898" transform="translate(-28 3282)">
      <g id="Grupo_108927" data-name="Grupo 108927" transform="translate(-1 -1718)">
        <path id="Rectángulo_36179" data-name="Rectángulo 36179" d="M0,0H129V128H0Z" transform="translate(390 4467)" fill="#0653ae"/>
      </g>
      <g id="Mask_Group_1098688" data-name="Mask Group 1098688" clip-path="url(#clip-path-2)">
        <path id="Path_878164" data-name="Path 878164" d="M195.281,0h1.95l-.293,3.327,2.755-2.1.988,1.694-3.133,1.536,3.133,1.621-.988,1.708-2.755-2.171.293,3.39h-1.95l.365-3.45L192.88,7.7,191.9,6l3.048-1.536-3.121-1.45.988-1.694,2.815,2.047Z" transform="translate(204.529 2754.341)" fill="#dbccfc"/>
        <path id="Path_878165" data-name="Path 878165" d="M207.27,0h1.95l-.293,3.327,2.755-2.1.988,1.694-3.133,1.536,3.133,1.621-.988,1.708-2.755-2.171.293,3.39h-1.95l.365-3.45L204.869,7.7,203.894,6l3.047-1.536-3.121-1.45.988-1.694,2.815,2.047Z" transform="translate(207.238 2754.341)" fill="#dbccfc"/>
        <path id="Path_878166" data-name="Path 878166" d="M219.26,0h1.95l-.293,3.327,2.755-2.1.988,1.694-3.133,1.536,3.133,1.621-.988,1.708-2.755-2.171.293,3.39h-1.95l.365-3.45L216.858,7.7,215.884,6l3.046-1.536-3.12-1.45.987-1.694,2.816,2.047Z" transform="translate(209.945 2754.341)" fill="#dbccfc"/>
        <path id="Path_878167" data-name="Path 878167" d="M231.249,0h1.95l-.293,3.327,2.755-2.1.988,1.694-3.133,1.536,3.133,1.621-.988,1.708-2.755-2.171.293,3.39h-1.95l.365-3.45L228.848,7.7,227.873,6l3.048-1.536L227.8,3.011l.988-1.694L231.6,3.364Z" transform="translate(212.654 2754.341)" fill="#dbccfc"/>
        <path id="Path_878168" data-name="Path 878168" d="M243.239,0h1.95L244.9,3.327l2.755-2.1.987,1.694-3.132,1.536,3.132,1.621-.987,1.708L244.9,5.618l.293,3.39h-1.95l.365-3.45L240.837,7.7,239.863,6l3.046-1.536-3.12-1.45.987-1.694,2.816,2.047Z" transform="translate(215.361 2754.341)" fill="#dbccfc"/>
        <path id="Path_878169" data-name="Path 878169" d="M195.281,0h1.95l-.293,3.327,2.755-2.1.988,1.694-3.133,1.536,3.133,1.621-.988,1.708-2.755-2.171.293,3.39h-1.95l.365-3.45L192.88,7.7,191.9,6l3.048-1.536-3.121-1.45.988-1.694,2.815,2.047Z" transform="translate(250.529 2861.341)" fill="#dbccfc"/>
        <path id="Path_878170" data-name="Path 878170" d="M207.27,0h1.95l-.293,3.327,2.755-2.1.988,1.694-3.133,1.536,3.133,1.621-.988,1.708-2.755-2.171.293,3.39h-1.95l.365-3.45L204.869,7.7,203.894,6l3.047-1.536-3.121-1.45.988-1.694,2.815,2.047Z" transform="translate(253.238 2861.341)" fill="#dbccfc"/>
        <path id="Path_878171" data-name="Path 878171" d="M219.26,0h1.95l-.293,3.327,2.755-2.1.988,1.694-3.133,1.536,3.133,1.621-.988,1.708-2.755-2.171.293,3.39h-1.95l.365-3.45L216.858,7.7,215.884,6l3.046-1.536-3.12-1.45.987-1.694,2.816,2.047Z" transform="translate(255.945 2861.341)" fill="#dbccfc"/>
        <path id="Path_878172" data-name="Path 878172" d="M231.249,0h1.95l-.293,3.327,2.755-2.1.988,1.694-3.133,1.536,3.133,1.621-.988,1.708-2.755-2.171.293,3.39h-1.95l.365-3.45L228.848,7.7,227.873,6l3.048-1.536L227.8,3.011l.988-1.694L231.6,3.364Z" transform="translate(258.654 2861.341)" fill="#dbccfc"/>
        <path id="Path_878173" data-name="Path 878173" d="M243.239,0h1.95L244.9,3.327l2.755-2.1.987,1.694-3.132,1.536,3.132,1.621-.987,1.708L244.9,5.618l.293,3.39h-1.95l.365-3.45L240.837,7.7,239.863,6l3.046-1.536-3.12-1.45.987-1.694,2.816,2.047Z" transform="translate(261.361 2861.341)" fill="#dbccfc"/>
      </g>
    </g>
    <g id="Group_1103899" data-name="Group 1103899" transform="translate(379.875 6048.719)">
      <rect id="Rectangle_401104" data-name="Rectangle 401104" width="92" height="94" transform="translate(0.124 -0.719)" fill="none"/>
      <g id="Group_1122549" data-name="Group 1122549" transform="translate(4.123 5.966)">
        <g id="Group_1122548" data-name="Group 1122548" transform="translate(2)">
          <path id="Path_957487" data-name="Path 957487" d="M81.766,48.145a1.574,1.574,0,0,0-1.35-.756h-.281L68.754,22.316h2.664a3.239,3.239,0,0,0,0-6.478H45.506V11.574a6.319,6.319,0,1,0-7.009,0v4.265H12.584a3.239,3.239,0,1,0,0,6.478h2.664L3.867,47.39H3.586a1.584,1.584,0,0,0-1.412,2.3l2.057,4.049a4.625,4.625,0,0,0,4.142,2.542h18.2a4.625,4.625,0,0,0,4.142-2.542l2.057-4.048a1.584,1.584,0,0,0-1.412-2.3h-.281L19.7,22.316H38.5v44.2H29.95a3.809,3.809,0,0,0-3.8,3.8v2.068H24.253a3.809,3.809,0,0,0-3.8,3.8v3.253a1.185,1.185,0,0,0,1.185,1.185H62.369a1.185,1.185,0,0,0,1.185-1.185V76.193a3.809,3.809,0,0,0-3.8-3.8H57.857V70.32a3.809,3.809,0,0,0-3.8-3.8H45.506V32.289a1.185,1.185,0,1,0-2.37,0V66.515H40.866V21.131a1.185,1.185,0,0,0-1.185-1.185h-27.1a.869.869,0,1,1,0-1.737h27.1a1.185,1.185,0,0,0,1.185-1.185V12.537c.044.008.089.014.134.021l.068.011c.076.011.153.021.229.029l.085.009c.072.007.145.012.217.017l.1.006c.09,0,.181.006.271.007h.07c.09,0,.181,0,.271-.007l.1-.006c.072,0,.145-.01.217-.017L42.7,12.6c.077-.009.153-.018.229-.029L43,12.558c.044-.007.089-.013.134-.021v4.487a1.185,1.185,0,0,0,1.185,1.185h27.1a.869.869,0,0,1,0,1.737h-27.1a1.185,1.185,0,0,0-1.185,1.185v5.54a1.185,1.185,0,0,0,2.37,0V22.316h18.8L52.924,47.39h-.281a1.584,1.584,0,0,0-1.412,2.3l2.057,4.049a4.625,4.625,0,0,0,4.142,2.542h18.2a4.625,4.625,0,0,0,4.142-2.542l2.057-4.049A1.573,1.573,0,0,0,81.766,48.145ZM54.052,68.886a1.436,1.436,0,0,1,1.434,1.434v2.068H37.352a1.185,1.185,0,1,0,0,2.37h22.4a1.436,1.436,0,0,1,1.434,1.434v2.068H22.818V76.193a1.436,1.436,0,0,1,1.434-1.434h7.6a1.185,1.185,0,0,0,0-2.37H28.516V70.32a1.436,1.436,0,0,1,1.434-1.434ZM28.6,52.667a2.265,2.265,0,0,1-2.029,1.245H8.373a2.265,2.265,0,0,1-2.029-1.245L4.867,49.76H30.078Zm-.112-5.277H6.456L17.473,23.119ZM43.752,9.857c-.043.021-.087.042-.13.062l-.067.03c-.049.021-.1.041-.149.06l-.116.042c-.041.014-.082.029-.124.042l-.114.033-.087.024-.12.028-.088.018-.118.021-.1.014-.11.014-.123.011-.089.007c-.072,0-.144.006-.217.006s-.145,0-.217-.006l-.089-.007-.123-.011-.11-.014-.1-.014-.118-.021-.088-.018-.12-.028-.087-.024-.114-.033c-.042-.013-.083-.027-.124-.042l-.116-.042c-.05-.019-.1-.039-.149-.06l-.067-.03c-.044-.02-.087-.04-.13-.062a3.949,3.949,0,1,1,3.5,0ZM66.53,23.119,77.546,47.39H55.513ZM77.658,52.667a2.265,2.265,0,0,1-2.029,1.245H57.43A2.265,2.265,0,0,1,55.4,52.667L53.924,49.76H79.135Z" transform="translate(-2 0)" fill="#fff"/>
        </g>
      </g>
    </g>
  </g>
</svg>
