<svg xmlns="http://www.w3.org/2000/svg" xmlns:xlink="http://www.w3.org/1999/xlink" width="99.458" height="166.576" viewBox="0 0 99.458 166.576">
  <defs>
    <linearGradient id="linear-gradient" x1="0.5" x2="0.5" y2="1" gradientUnits="objectBoundingBox">
      <stop offset="0" stop-color="#ddf1ff"/>
      <stop offset="1" stop-color="#fff"/>
    </linearGradient>
  </defs>
  <g id="Group_1122707" data-name="Group 1122707" transform="translate(-181 -3194.004)">
    <rect id="Rectangle_410775" data-name="Rectangle 410775" width="85" height="166.576" transform="translate(181 3194.004)" fill="#daf5fe"/>
    <g id="Group_1122248" data-name="Group 1122248" transform="translate(-62.529 -2790.622)">
      <g id="Group_1099808" data-name="Group 1099808" transform="translate(269.987 6031.414)">
        <g id="Group_1099775" data-name="Group 1099775" transform="translate(0 0)">
          <g id="Group_1099770" data-name="Group 1099770">
            <g id="Rectangle_401345" data-name="Rectangle 401345" stroke="#8f006f" stroke-width="5" fill="url(#linear-gradient)">
              <rect width="73" height="73" rx="10" stroke="none"/>
              <rect x="2.5" y="2.5" width="68" height="68" rx="7.5" fill="none"/>
            </g>
          </g>
        </g>
        <g id="Group_1099776" data-name="Group 1099776" transform="translate(12.023 11.982)">
          <g id="Group_1099618" data-name="Group 1099618" transform="translate(0 0)">
            <rect id="Rectangle_401104" data-name="Rectangle 401104" width="48.305" height="48.887" transform="translate(0)" fill="none"/>
          </g>
          <g id="XMLID_1525_" transform="translate(0 0.258)">
            <g id="XMLID_2349_" transform="translate(0 0.035)">
              <g id="XMLID_362_" transform="translate(0 0)">
                <path id="XMLID_363_" d="M294.943,154.472a.944.944,0,1,0-.667-.276A.95.95,0,0,0,294.943,154.472Z" transform="translate(-266.266 -138.194)" fill="#182e68"/>
                <path id="XMLID_364_" d="M54.943,134.523a.939.939,0,0,0,.509-.15l2.761-1.773.03.195a1.554,1.554,0,0,0,2.433,1.033l1.08-.765a1.554,1.554,0,0,0,2.047,1.079l2.619-.971a1.554,1.554,0,0,0,1.531,1.288h5.857a.943.943,0,0,0,0-1.887H68.3a1.553,1.553,0,0,0-2.088-1.335l-2.683.994a1.553,1.553,0,0,0-2.43-1.014l-1.072.759L60,131.808a1.554,1.554,0,0,0-2.375-1.073l-3.193,2.05a.943.943,0,0,0,.511,1.737Z" transform="translate(-48.904 -118.182)" fill="#182e68"/>
                <path id="XMLID_365_" d="M54.943,221.661a.94.94,0,0,0,.509-.15l2.761-1.773.03.195a1.554,1.554,0,0,0,2.433,1.033l1.08-.765A1.554,1.554,0,0,0,63.8,221.28l2.619-.971a1.554,1.554,0,0,0,1.531,1.288h9.63a.943.943,0,1,0,0-1.887H68.3a1.553,1.553,0,0,0-2.088-1.336l-2.683.994a1.553,1.553,0,0,0-2.43-1.014l-1.072.759L60,218.946a1.553,1.553,0,0,0-2.375-1.073l-3.193,2.05a.943.943,0,0,0,.511,1.737Z" transform="translate(-48.905 -197.1)" fill="#182e68"/>
                <path id="XMLID_366_" d="M54.943,308.8a.939.939,0,0,0,.509-.15l2.761-1.773.03.195a1.553,1.553,0,0,0,2.433,1.033l1.08-.765a1.554,1.554,0,0,0,2.047,1.078l2.619-.971a1.554,1.554,0,0,0,1.531,1.288H74.94a.943.943,0,0,0,0-1.887H68.3a1.553,1.553,0,0,0-2.088-1.335l-2.683.994a1.553,1.553,0,0,0-2.43-1.014l-1.072.759L60,306.081a1.553,1.553,0,0,0-2.375-1.073l-3.193,2.05a.943.943,0,0,0,.511,1.737Z" transform="translate(-48.904 -276.015)" fill="#182e68"/>
                <path id="XMLID_367_" d="M68.557,393.981H68.3a1.553,1.553,0,0,0-2.088-1.336l-2.683.994a1.553,1.553,0,0,0-2.43-1.014l-1.072.759L60,393.216a1.554,1.554,0,0,0-2.375-1.073l-3.193,2.05a.943.943,0,1,0,1.019,1.588l2.761-1.773.03.195a1.553,1.553,0,0,0,2.433,1.033l1.08-.765A1.553,1.553,0,0,0,63.8,395.55l2.619-.971a1.554,1.554,0,0,0,1.531,1.288h.606a.943.943,0,1,0,0-1.886Z" transform="translate(-48.904 -354.931)" fill="#182e68"/>
                <path id="XMLID_370_" d="M47.257,19.947a3.589,3.589,0,0,0-5.069,0l-7.85,7.85V4.752a2.833,2.833,0,0,0-2.83-2.83H29.621V.978a.943.943,0,1,0-1.887,0v.943H25.093V.978a.943.943,0,1,0-1.887,0v.943H20.565V.978a.943.943,0,1,0-1.887,0v.943H16.037V.978a.943.943,0,1,0-1.887,0v.943H11.509V.978a.943.943,0,1,0-1.887,0v.943H6.981V.978a.943.943,0,1,0-1.887,0v.943H2.83A2.833,2.833,0,0,0,0,4.752V47.39a.943.943,0,0,0,.943.943H33.394a.943.943,0,0,0,.943-.943V37.936L38.2,34.075a.943.943,0,0,0-1.334-1.334l-5.8,5.8-2.4-2.4,12.91-12.91,2.4,2.4L42.2,27.4a.943.943,0,0,0,1.334,1.334l3.722-3.722A3.589,3.589,0,0,0,47.257,19.947Zm-14.806,26.5H1.887V4.752a.944.944,0,0,1,.943-.943H5.094V6.072a.943.943,0,0,0,1.887,0V3.808H9.622V6.072a.943.943,0,1,0,1.887,0V3.808H14.15V6.072a.943.943,0,1,0,1.887,0V3.808h2.641V6.072a.943.943,0,1,0,1.887,0V3.808h2.641V6.072a.943.943,0,1,0,1.887,0V3.808h2.641V6.072a.943.943,0,1,0,1.887,0V3.808h1.887a.944.944,0,0,1,.943.943V29.684L26.66,35.474a.943.943,0,0,0-.177.245l-3.74,7.476a.943.943,0,0,0,1.266,1.266l7.475-3.74a.947.947,0,0,0,.245-.177l.721-.721v6.624Zm-4.866-8.713,1.885,1.885L25.7,41.506ZM45.923,23.682l-.617.617-2.4-2.4.617-.617a1.7,1.7,0,0,1,2.4,2.4Z" transform="translate(0 -0.035)" fill="#182e68"/>
                <path id="XMLID_426_" d="M417.092,315.525a.944.944,0,1,0,.667.276A.953.953,0,0,0,417.092,315.525Z" transform="translate(-376.892 -285.764)" fill="#182e68"/>
              </g>
            </g>
          </g>
        </g>
      </g>
    </g>
  </g>
</svg>
