<svg xmlns="http://www.w3.org/2000/svg" width="100" height="100" viewBox="0 0 100 100">
  <g id="Group_1114821" data-name="Group 1114821" transform="translate(-285.332 -8115.087)">
    <g id="Grupo_156312" data-name="Grupo 156312" transform="translate(285.332 8115.087)">
      <path id="Elipse_5845" data-name="Elipse 5845" d="M50,0A50,50,0,1,1,0,50,50,50,0,0,1,50,0Z" transform="translate(0 0)" fill="#0653ae"/>
    </g>
    <g id="Group_1098918" data-name="Group 1098918" transform="translate(305.893 8134.713)">
      <path id="Path_873216" data-name="Path 873216" d="M0,0H59.051V59.052H0Z" transform="translate(0)" fill="none"/>
      <g id="Group_1122338" data-name="Group 1122338" transform="translate(0 0.006)">
        <path id="Path_957283" data-name="Path 957283" d="M40.807,52.9V.92A.923.923,0,0,0,39.884,0H11a.928.928,0,0,0-.654.272L.268,10.411A.923.923,0,0,0,0,11.062V52.9a.923.923,0,0,0,.923.923H39.884A.923.923,0,0,0,40.807,52.9Zm-1.845-.923H1.845V11.441l8.242-8.285v6.932H4.817a.923.923,0,1,0,0,1.845H11a.923.923,0,0,0,.923-.923V1.846H38.962Z" transform="translate(0)" fill="#fff"/>
        <path id="Path_957284" data-name="Path 957284" d="M8.2,20.739a.923.923,0,0,0,.923.923H30.37a.923.923,0,0,0,0-1.845H9.116a.923.923,0,0,0-.916.923Z" transform="translate(1.887 4.561)" fill="#fff"/>
        <path id="Path_957285" data-name="Path 957285" d="M28.384,24.026H17.757a.923.923,0,0,0,0,1.845H28.384a.923.923,0,0,0,0-1.845Z" transform="translate(3.874 5.53)" fill="#fff"/>
        <path id="Path_957286" data-name="Path 957286" d="M9.118,25.871h7.349a.923.923,0,1,0,0-1.845H9.118a.923.923,0,0,0,0,1.845Z" transform="translate(1.886 5.53)" fill="#fff"/>
        <path id="Path_957287" data-name="Path 957287" d="M30.372,28.237H9.118a.923.923,0,0,0,0,1.845H30.372a.923.923,0,0,0,0-1.845Z" transform="translate(1.886 6.499)" fill="#fff"/>
        <path id="Path_957288" data-name="Path 957288" d="M27.024,32.448H23.667a.923.923,0,1,0,0,1.845h3.357a.923.923,0,0,0,0-1.845Z" transform="translate(5.234 7.468)" fill="#fff"/>
        <path id="Path_957289" data-name="Path 957289" d="M9.118,34.293h14.7a.923.923,0,0,0,0-1.845H9.118a.923.923,0,0,0,0,1.845Z" transform="translate(1.886 7.468)" fill="#fff"/>
        <path id="Path_957290" data-name="Path 957290" d="M30.372,36.658H9.118a.923.923,0,0,0,0,1.845H30.372a.923.923,0,0,0,0-1.845Z" transform="translate(1.886 8.436)" fill="#fff"/>
        <path id="Path_957291" data-name="Path 957291" d="M43.888,4.254H41.872a.923.923,0,0,0,0,1.845h1.094V56.222H5.845v-1.23a.923.923,0,0,0-1.845,0v2.149a.923.923,0,0,0,.923.923H43.888a.923.923,0,0,0,.923-.923V5.172a.923.923,0,0,0-.923-.918Z" transform="translate(0.92 0.98)" fill="#fff"/>
        <path id="Path_957292" data-name="Path 957292" d="M47.625,11.66h-1V10.481a3.369,3.369,0,0,0-3.361-3.368h0A3.368,3.368,0,0,0,39.9,10.476L39.879,39.46a.941.941,0,0,0,.037.261L42.352,48a.921.921,0,0,0,.884.662h0A.921.921,0,0,0,44.12,48l2.449-8.276a.887.887,0,0,0,.039-.261l.022-25.956h1a.4.4,0,0,1,.4.4v6.125a.923.923,0,0,0,1.845,0V13.9A2.246,2.246,0,0,0,47.625,11.66ZM42.19,9.4a1.512,1.512,0,0,1,1.074-.445h0a1.522,1.522,0,0,1,1.519,1.522v2.108L44.76,38.544H41.722l.015-17.688h1.518a.923.923,0,0,0,0-1.845H41.736l.014-8.533A1.5,1.5,0,0,1,42.19,9.4ZM43.234,44.48l-1.2-4.1h2.416Z" transform="translate(9.177 1.638)" fill="#fff"/>
        <path id="Path_957293" data-name="Path 957293" d="M13.936,14.063a8.659,8.659,0,0,0,4.452,3.656.926.926,0,0,0,.566,0,8.66,8.66,0,0,0,4.452-3.655c.556-.971.936-4.859,1.074-6.485a.924.924,0,0,0-.883-1,8.971,8.971,0,0,1-2.539-.526A10.825,10.825,0,0,1,19.2,5.019a.925.925,0,0,0-1.063,0,10.825,10.825,0,0,1-1.855,1.033,8.971,8.971,0,0,1-2.539.526.924.924,0,0,0-.883,1C13,9.205,13.38,13.094,13.936,14.063Zm3.032-6.3a11.157,11.157,0,0,0,1.7-.888,11.157,11.157,0,0,0,1.709.891h0a9.977,9.977,0,0,0,2.177.558,26.772,26.772,0,0,1-.753,4.821,6.816,6.816,0,0,1-3.137,2.706,6.732,6.732,0,0,1-3.129-2.706,26.57,26.57,0,0,1-.755-4.825A10,10,0,0,0,16.969,7.767Z" transform="translate(2.959 1.117)" fill="#fff"/>
        <path id="Path_957294" data-name="Path 957294" d="M17.383,11.585a.92.92,0,0,0,1.3,0L20.67,9.6a.923.923,0,0,0-1.3-1.3l-1.331,1.33L17.7,9.29a.923.923,0,1,0-1.3,1.3Z" transform="translate(3.705 1.853)" fill="#fff"/>
      </g>
    </g>
  </g>
</svg>
