<svg xmlns="http://www.w3.org/2000/svg" width="100" height="100" viewBox="0 0 100 100">
  <g id="Group_1114821" data-name="Group 1114821" transform="translate(-285.332 -8115.087)">
    <g id="Grupo_156312" data-name="Grupo 156312" transform="translate(285.332 8115.087)">
      <path id="Elipse_5845" data-name="Elipse 5845" d="M50,0A50,50,0,1,1,0,50,50,50,0,0,1,50,0Z" transform="translate(0 0)" fill="#0653ae"/>
    </g>
    <g id="Group_1098918" data-name="Group 1098918" transform="translate(305.893 8134.713)">
      <path id="Path_873216" data-name="Path 873216" d="M0,0H59.051V59.052H0Z" transform="translate(0)" fill="none"/>
      <g id="Outline" transform="translate(3.65 -0.681)">
        <path id="Path_957510" data-name="Path 957510" d="M6.493,17.5a.993.993,0,1,1-.993.993A.993.993,0,0,1,6.493,17.5Z" transform="translate(0 15.773)" fill="#fff" fill-rule="evenodd"/>
        <path id="Path_957511" data-name="Path 957511" d="M27.344,45.273h9.929V42.294a1.132,1.132,0,0,1,.159-.556l7.784-11.657V15.665a2.84,2.84,0,0,0-1.112.7,2.979,2.979,0,0,0-.874,2.1v7.387a.953.953,0,0,1-.377.774L32.447,37.032a.993.993,0,0,1-1.41,0,.953.953,0,0,1,0-1.39l4.607-4.607a1.013,1.013,0,0,0,.3-.715.933.933,0,0,0-.3-.7.953.953,0,0,0-1.39,0L27.92,35.939a1.986,1.986,0,0,0-.576,1.41ZM15.072,29.029a2.9,2.9,0,0,1,.576-.814,3,3,0,0,1,4.21,0l6.315,6.315.179.179.179-.179,6.315-6.315a3,3,0,0,1,4.21,0,2.9,2.9,0,0,1,.576.814l3.614-3.594v-6.97A4.945,4.945,0,0,1,46.209,13.5a.993.993,0,0,1,.993.993V30.379a1.072,1.072,0,0,1-.159.556L39.258,42.592v2.681h.993a.993.993,0,1,1,0,1.986H12.45a.993.993,0,1,1,0-1.986h.993V42.592L5.659,30.935a1.072,1.072,0,0,1-.159-.556V26.408a.993.993,0,0,1,1.986,0v3.674L15.27,41.738a1.132,1.132,0,0,1,.159.556v2.979h9.929V37.329a1.986,1.986,0,0,0-.576-1.41l-6.374-6.295a.953.953,0,0,0-1.39,0,.933.933,0,0,0-.3.7,1.013,1.013,0,0,0,.258.675l4.647,4.647a.954.954,0,0,1-1.152,1.509.556.556,0,0,1-.218-.159L9.809,26.606a1.072,1.072,0,0,1-.338-.755V18.465a2.979,2.979,0,0,0-.874-2.1,2.84,2.84,0,0,0-1.112-.7v2.8a.993.993,0,0,1-1.986,0V14.493a.993.993,0,0,1,.993-.993,4.945,4.945,0,0,1,4.964,4.964v6.97Z" transform="translate(0 11.829)" fill="#fff"/>
        <path id="Path_957512" data-name="Path 957512" d="M11.464,12.486H7.493a.993.993,0,1,1,0-1.986h3.972a.993.993,0,0,1,0,1.986Z" transform="translate(0.986 8.872)" fill="#fff"/>
        <path id="Path_957513" data-name="Path 957513" d="M12.942,8.935a.933.933,0,0,1-.7-.3l-2.82-2.78a1.011,1.011,0,1,1,1.43-1.43l2.78,2.82a.953.953,0,0,1,0,1.39.933.933,0,0,1-.7.3Z" transform="translate(3.579 2.593)" fill="#fff"/>
        <path id="Path_957514" data-name="Path 957514" d="M16.493,7.457a.993.993,0,0,1-.993-.993V2.493a.993.993,0,1,1,1.986,0V6.464A.993.993,0,0,1,16.493,7.457Z" transform="translate(9.858)" fill="#fff"/>
        <path id="Path_957515" data-name="Path 957515" d="M21.494,8.933a.933.933,0,0,1-.7-.3.953.953,0,0,1,0-1.39l2.681-2.82a1,1,0,0,1,1.41,1.41l-2.8,2.8a.933.933,0,0,1-.7.3Z" transform="translate(14.785 2.596)" fill="#fff"/>
        <path id="Path_957516" data-name="Path 957516" d="M27.464,12.486H23.493a.993.993,0,0,1,0-1.986h3.972a.993.993,0,0,1,0,1.986Z" transform="translate(16.758 8.872)" fill="#fff"/>
        <path id="Path_957517" data-name="Path 957517" d="M21.422,32.313a1.132,1.132,0,0,1-.357,0l-.913-.377A15.291,15.291,0,0,1,10.5,17.618V11.462a.973.973,0,0,1,.616-.913l9.929-3.972a.993.993,0,0,1,.755,0l9.929,3.972a.973.973,0,0,1,.616.913v6.156a15.291,15.291,0,0,1-9.651,14.258l-.913.377a1.132,1.132,0,0,1-.357,0ZM12.486,12.137v5.481a13.325,13.325,0,0,0,8.4,12.431l.536.2.516-.2a13.325,13.325,0,0,0,8.42-12.431V12.137L21.422,8.563Z" transform="translate(4.929 4.931)" fill="#fff"/>
        <path id="Path_957518" data-name="Path 957518" d="M16.474,18.438a.933.933,0,0,1-.7-.3l-1.986-1.986a.983.983,0,0,1,1.39-1.39l1.291,1.271,5.262-5.242a.983.983,0,1,1,1.39,1.39L17.169,18.14a.933.933,0,0,1-.7.3Z" transform="translate(7.891 8.877)" fill="#fff"/>
      </g>
    </g>
  </g>
</svg>
