<svg xmlns="http://www.w3.org/2000/svg" width="152" height="152" viewBox="0 0 152 152">
  <g id="Group_1109031" data-name="Group 1109031" transform="translate(-317 -4479)">
    <g id="Group_1103900" data-name="Group 1103900" transform="translate(317 4479)">
      <g id="Rectangle_401345" data-name="Rectangle 401345" transform="translate(0)" fill="#fff" stroke="#ffcff3" stroke-width="5">
        <rect width="152" height="152" rx="10" stroke="none"/>
        <rect x="2.5" y="2.5" width="147" height="147" rx="7.5" fill="none"/>
      </g>
      <g id="Group_1099758" data-name="Group 1099758" transform="translate(29.471 30.923)">
        <rect id="Rectangle_401104" data-name="Rectangle 401104" width="92.476" height="92.476" transform="translate(0 0)" fill="none"/>
        <g id="Group_1122601" data-name="Group 1122601" transform="translate(-37.28 -13.078)">
          <path id="Path_957586" data-name="Path 957586" d="M123.736,25.164l-22.22-12.072a.762.762,0,0,0-.364-.092H65.882a.762.762,0,0,0-.364.092L43.3,25.164a.762.762,0,0,0-.4.67V55.852c0,16.022,8.689,27.763,15.979,34.792,8.347,8.048,18.289,13.314,24.439,14.962a.764.764,0,0,0,.395,0c6.152-1.649,16.1-6.915,24.444-14.962,7.29-7.028,15.98-18.769,15.98-34.792V25.834a.762.762,0,0,0-.4-.67Z" fill="#8ac9fe"/>
          <path id="Path_957587" data-name="Path 957587" d="M314.89,25.164l-22.22-12.072a.762.762,0,0,0-.364-.092h-3.24a.754.754,0,0,1,.364.094l22.22,12.271a.776.776,0,0,1,.4.681V56.557c0,16.286-8.69,28.221-15.98,35.364a70.007,70.007,0,0,1-17,12.226,68.191,68.191,0,0,0,20.242-13.5c7.29-7.028,15.98-18.769,15.98-34.792V25.834a.762.762,0,0,0-.4-.67Z" transform="translate(-191.153)" fill="#60b7ff"/>
          <path id="Path_957588" data-name="Path 957588" d="M78.491,58.252V84.686c0,11.792,5.577,21.88,13.9,29.908,4.945,4.764,12.995,10.473,19.929,12.819,6.934-2.346,14.99-8.055,19.935-12.819,8.319-8.028,13.9-18.116,13.9-29.908V58.252l-17.731-9.627h-32.2Z" transform="translate(-28.807 -28.835)" fill="#60b7ff"/>
          <path id="Path_957589" data-name="Path 957589" d="M277.251,48.625H274.2l17.731,9.794V85.313c0,12-5.582,22.26-13.9,30.427a66.178,66.178,0,0,1-15.67,11.231c6.642-2.564,14.06-7.889,18.719-12.377,8.319-8.028,13.9-18.116,13.9-29.908V58.252Z" transform="translate(-177.632 -28.835)" fill="#41a8fc"/>
          <path id="Path_957590" data-name="Path 957590" d="M182.076,135.5,168.1,111.288a8.437,8.437,0,0,0-14.618,0L139.5,135.5a8.441,8.441,0,0,0,7.309,12.66h27.962a8.441,8.441,0,0,0,7.3-12.66Z" transform="translate(-77.274 -76.137)" fill="#fe646f"/>
          <path id="Path_957591" data-name="Path 957591" d="M159.761,158.059a5.392,5.392,0,0,1-4.668-8.086l13.979-24.209a5.388,5.388,0,0,1,9.335,0l13.978,24.21a5.391,5.391,0,0,1-4.662,8.086Z" transform="translate(-90.225 -89.088)" fill="#ffe177"/>
          <path id="Path_957592" data-name="Path 957592" d="M244.971,165.84a2.569,2.569,0,0,1,2.6,2.6l-.4,9.077a2.195,2.195,0,1,1-4.39,0l-.4-9.077a2.567,2.567,0,0,1,2.593-2.6Zm0,17.676a2.2,2.2,0,1,0,1.558.642,2.2,2.2,0,0,0-1.558-.642Z" transform="translate(-161.457 -123.709)" fill="#fe646f"/>
        </g>
      </g>
    </g>
  </g>
</svg>
