<svg xmlns="http://www.w3.org/2000/svg" xmlns:xlink="http://www.w3.org/1999/xlink" width="1030" height="496.271" viewBox="0 0 1030 496.271">
  <defs>
    <linearGradient id="linear-gradient" x1="0.5" x2="0.5" y2="1" gradientUnits="objectBoundingBox">
      <stop offset="0" stop-color="#daf5fe"/>
      <stop offset="1" stop-color="#ede5fe"/>
    </linearGradient>
    <clipPath id="clip-path">
      <path id="Path_611005" data-name="Path 611005" d="M0,0H1030V495H0Z" transform="translate(285 446.5)" fill="url(#linear-gradient)"/>
    </clipPath>
    <clipPath id="clip-path-2">
      <rect id="Rectangle_410736" data-name="Rectangle 410736" width="359" height="488" transform="translate(955.668 454.771)" fill="#fff" stroke="#707070" stroke-width="1"/>
    </clipPath>
    <clipPath id="clip-path-3">
      <rect id="Rectangle_416127" data-name="Rectangle 416127" width="312.642" height="395.07" fill="none"/>
    </clipPath>
    <clipPath id="clip-path-4">
      <rect id="Rectangle_403224" data-name="Rectangle 403224" width="76.843" height="76.848" fill="#c2a4ff"/>
    </clipPath>
    <clipPath id="clip-path-5">
      <rect id="Rectangle_416138" data-name="Rectangle 416138" width="641.659" height="310.952" fill="none"/>
    </clipPath>
    <clipPath id="clip-path-7">
      <rect id="Rectangle_416128" data-name="Rectangle 416128" width="56.274" height="60.53" fill="none"/>
    </clipPath>
    <clipPath id="clip-path-8">
      <rect id="Rectangle_416129" data-name="Rectangle 416129" width="40.647" height="61.608" fill="none"/>
    </clipPath>
    <clipPath id="clip-path-9">
      <rect id="Rectangle_416130" data-name="Rectangle 416130" width="34.982" height="57.823" fill="none"/>
    </clipPath>
    <clipPath id="clip-path-10">
      <rect id="Rectangle_416135" data-name="Rectangle 416135" width="75.189" height="50.895" fill="none"/>
    </clipPath>
    <clipPath id="clip-path-11">
      <rect id="Rectangle_416136" data-name="Rectangle 416136" width="53.097" height="54.099" fill="none"/>
    </clipPath>
  </defs>
  <g id="Group_1122708" data-name="Group 1122708" transform="translate(-285.332 -7696.729)">
    <g id="Group_1073696" data-name="Group 1073696" transform="translate(0.332 7250.229)">
      <g id="Group_1073695" data-name="Group 1073695">
        <path id="Path_608309" data-name="Path 608309" d="M0,0H1030V495H0Z" transform="translate(285 446.5)" fill="url(#linear-gradient)"/>
      </g>
      <g id="Mask_Group_1101320" data-name="Mask Group 1101320" clip-path="url(#clip-path-2)">
        <g id="Group_1122437" data-name="Group 1122437" transform="translate(999.668 529.454)">
          <g id="Group_1122436" data-name="Group 1122436" clip-path="url(#clip-path-3)">
            <path id="Path_957357" data-name="Path 957357" d="M193.481,494.738s38.544,1.621,88.576.322c19.657,30.052,31.538,55.9,27.842,86.465,0,0-7.81,24.733-45.98,27.058l-76.935-11.972L119,599.121s-66.188-72.488-23.719-85.189l82.039,10.627Z" transform="translate(-37.946 -231.587)" fill="#003e8d"/>
            <path id="Path_957358" data-name="Path 957358" d="M465.891,564.343a19.5,19.5,0,0,0-1.053-2.246,26.322,26.322,0,0,0-1.665-2.166c-1.132-1.452-2.275-2.9-3.455-4.312-2.433-2.913-5.035-5.7-7.64-8.461q-1.892-2.005-3.822-3.973c-1.289-1.315-2.54-2.667-3.832-3.976a32.444,32.444,0,0,0-4.213-3.639c-1.477-1.049-2.837-2.255-4.356-3.248-1.49-.974-3-1.91-4.489-2.893-.7-.462-1.362-1.016-2.083-1.437-.4-.236-.864-.382-1.283-.594a5.252,5.252,0,0,1-1.274-.952c-.072-.069-.465-.043-.379.078.2.282.467.543.639.841.128.221.209.479.323.709a4.323,4.323,0,0,0,1.474,1.409,44.872,44.872,0,0,1,3.585,2.773,31.985,31.985,0,0,1,2.765,3.376c.5.6.91,1.264,1.427,1.845.6.674,1.228,1.325,1.828,2,2.416,2.718,4.991,5.274,7.494,7.912q3.9,4.1,7.617,8.371c1.353,1.555,2.742,3.079,4.092,4.638.633.73,1.256,1.469,1.879,2.207a25.329,25.329,0,0,0,2.705,2.506,3.123,3.123,0,0,0,2.537.407c.52-.116,1.5-.454,1.177-1.174" transform="translate(-199.567 -246.411)" fill="#002861"/>
            <path id="Path_957359" data-name="Path 957359" d="M362.374,191.676l35,.731.8-38.2-35-.735s3.1,30.175-.8,38.2" transform="translate(-169.627 -71.843)" fill="#f5a58e"/>
            <path id="Path_957360" data-name="Path 957360" d="M364.866,182.081c7.947-.648,15.487-.956,23.285-3.239a46.78,46.78,0,0,0,10.31-4.282l.424-20.347-35-.736s1.719,16.744.981,28.6" transform="translate(-170.335 -71.843)" fill="#ee7d6c"/>
            <path id="Path_957361" data-name="Path 957361" d="M320.4,86.245c2.208,5.548,4.473,11.993,8.323,16.856,4.4,5.562,10.844,5.953,13.819-.987,2.792-6.53,2.7-14.6,1.49-21.315-.659-3.665-1.9-7.815-5.325-10.314a12.153,12.153,0,0,0-16.393,1.935c-3.736,4.324-3.853,8.938-1.914,13.825" transform="translate(-149.397 -31.902)" fill="#431a0b"/>
            <path id="Path_957362" data-name="Path 957362" d="M331.941,84.747a95.262,95.262,0,0,0,3.111,19.761c1.785,6.545,4.217,18.806,11.6,21.538,2.281.845,4.141.781,6.772.619,10.056-.63,20.769-7.318,27.16-14.783,11.918-13.913,11.885-47.664-.056-60.743-10.9-11.941-45.559-5.792-47.886,13.246a116.039,116.039,0,0,0-.7,20.362" transform="translate(-155.303 -21.077)" fill="#f5a58e"/>
            <path id="Path_957363" data-name="Path 957363" d="M341.383,133.3a23.8,23.8,0,0,0,2.988,1.263,16.229,16.229,0,0,0,8.6-.415c4.129-1.145,8.23-3.7,12.593-2.228a20.006,20.006,0,0,0,7.683,1.347,9.512,9.512,0,0,0,8.049-5.726c1.08-2.462,1.286-5.672,2.714-7.9a13.64,13.64,0,0,1,7.415-5.759c-.066,11.665-.5,28.5-6.381,35.359-6.391,7.465-22.576,14.293-32.627,14.922-2.632.164-4.49.224-6.773-.618-7.38-2.734-6.882-20.262-8.666-26.807-.407-1.494-.765-3-1.089-4.517a9.518,9.518,0,0,1,5.493,1.08" transform="translate(-157.23 -53.309)" fill="#5d2412"/>
            <path id="Path_957364" data-name="Path 957364" d="M430.918,106.971a5.234,5.234,0,0,0,.826-.545,1.76,1.76,0,0,0,.407-.8,5.125,5.125,0,0,1,.678-1.262,16.383,16.383,0,0,1,2-1.938c.4-.4-.068.05.138-.139.069-.063.142-.12.211-.182.17-.153-.2.1.011-.018.088-.051.178-.1.269-.141s.2-.091.3-.138c.2-.094-.446.08-.439.079-.176.022-.655.138-.83,0a.748.748,0,0,0,.213.073c.13.042.262.081.393.12-.428-.126.081.038.227.086a3.178,3.178,0,0,0,.328.087c-.341-.074.121.039.312.093a4.522,4.522,0,0,0,.571.123,3.508,3.508,0,0,0,1.521-.1H436.4c.086.02.761.173.588.122-.134-.043-.071-.018.185.074a1.189,1.189,0,0,1,.273.1,1.376,1.376,0,0,1,.5.669c.324.648.659,1.3.927,1.974.289.726.489,1.482.769,2.21s.318,1.55.649,2.229c.045.091.337.106.372,0a5.422,5.422,0,0,0,.094-1.869,11.547,11.547,0,0,0-.357-2,12.768,12.768,0,0,0-.513-1.7,12.236,12.236,0,0,0-.714-1.754v.221c.149-.472-.177-.656-.48-.956l.167.3c-.059-.25.046-.373-.129-.626-.039-.056-.206-.218-.077-.071-.1-.118-.181-.245-.3-.362a2.141,2.141,0,0,0-.721-.458c-.068-.027-.747-.187-.8-.292q.44.164.009,0a1.891,1.891,0,0,0-.386-.126,5.41,5.41,0,0,0-.727-.149,5.986,5.986,0,0,0-1.576-.007,6.175,6.175,0,0,0-2.181.753,8.267,8.267,0,0,0-2.682,2.5,6.1,6.1,0,0,0-.774,1.546,6.674,6.674,0,0,0-.21.933,1.719,1.719,0,0,0,.227,1.038c.28.7,1.883.611,2.383.309" transform="translate(-200.483 -46.736)" fill="#f0876c"/>
            <path id="Path_957365" data-name="Path 957365" d="M412.193,66.608c.447,1.671.791,9.331,1.326,10.808s3.9-.87,3.9-.87c2.371-2.5-.694-8.128,3.445-9.039,4.492-.993-2.07,27.019-1.967,30.073,3.445-3.648,15.527-22.489,18.07-35.531,1.877-9.666-.307-15.5-2.543-19.238-10.848-18.137-14.758-17-24.821-15.592-4.586.646-8.1,11.006-9.78,15.544-1.8,4.856,1.5,8.564,4.826,11.685,4.162,3.9,5.5,4.508,7.547,12.159" transform="translate(-186.917 -12.41)" fill="#431a0b"/>
            <path id="Path_957366" data-name="Path 957366" d="M439.063,102.616c4.7,4.062,2.915,17.031-5.574,21.849-2.352-2.265-2.747-8.789-3.244-11.984-.49-3.138-.806-6.154.935-8.964.536-.862,4.425-3.889,7.883-.9" transform="translate(-201.217 -47.431)" fill="#f5a58e"/>
            <path id="Path_957367" data-name="Path 957367" d="M434.137,117.774a11.292,11.292,0,0,0-.215,1.949.922.922,0,0,0,.231.585c.072.076.149.147.228.215a3.766,3.766,0,0,0,.63.439,3.211,3.211,0,0,0,3.374-.172,3.175,3.175,0,0,0,.933-1.836,12.109,12.109,0,0,0,.282-2.187c.048-.911.134-2.164-1.024-2.42l.543.346a1.256,1.256,0,0,0-1.168-.688,1.123,1.123,0,0,0-1.111.688l.543-.346a1.217,1.217,0,0,0-.943,1.079,4.434,4.434,0,0,0-.016.861,15.872,15.872,0,0,1-.046,2,7.493,7.493,0,0,1-.145.948.919.919,0,0,0-.047.191c-.007-.156.046-.147.011-.049-.01.029-.019.059-.028.088a2.7,2.7,0,0,1-.152.368c-.051.1-.115.19-.175.286-.093.149.176-.156.04-.045a1.347,1.347,0,0,0-.119.1c-.1.1.26-.156.138-.089-.022.012-.046.021-.069.032.36-.165.309-.111.215-.084-.161.047.4-.072.234-.047-.234.034.443-.013.2-.016.509.005.375.031.247.012-.177-.026.4.1.165.031-.023-.006-.046-.016-.069-.021-.159-.035.314.143.093.032-.079-.039-.157-.079-.235-.121-.143-.076-.062.024.04.029a.6.6,0,0,1-.131-.089c-.046-.032-.089-.069-.136-.1q-.1-.078.007.016c-.014-.032-.028-.065-.039-.1-.03-.138-.1-.269-.128-.4-.038-.164-.066-.332-.093-.5-.052-.33-.09-.662-.164-.988-.087-.386-.615-.474-.954-.468-.293.007-.92.07-.954.468" transform="translate(-203.114 -53.366)" fill="#ee7d6c"/>
            <path id="Path_957368" data-name="Path 957368" d="M438.4,113.753a1.291,1.291,0,0,1,.849-.553c.094-.028.189-.049.28-.081s.21-.018.083-.052a1.828,1.828,0,0,0-.281-.015c-.1.013.026.005.1.049a3.013,3.013,0,0,1,1.078,2.024,5.31,5.31,0,0,1-.278,3.007c-.183.444-.282.921-.438,1.376-.069.2-.152.4-.23.6a1.566,1.566,0,0,0-.076.636c0,.468.99.377,1.239.252a2.739,2.739,0,0,0,.871-.591c.236-.263.462-.536.673-.82a5.311,5.311,0,0,0,.919-1.793,5.91,5.91,0,0,0-.306-3.98,3.649,3.649,0,0,0-3.36-1.929c-.972.017-2.581.6-2.666,1.772-.04.548,1.348.456,1.547.1" transform="translate(-204.493 -52.37)" fill="#ee7d6c"/>
            <path id="Path_957369" data-name="Path 957369" d="M369.479,105.91c.088-.1.541-.019.709,0,.25.035.5.1.747.122a1.972,1.972,0,0,0,.863-.187,10.59,10.59,0,0,1,3.292-.581,24.944,24.944,0,0,1,4.337.254,8.442,8.442,0,0,0,1.5.018,4.164,4.164,0,0,1,1.386.3,12.542,12.542,0,0,0,1.236.519c.375.084.554-.112.712-.486a5.807,5.807,0,0,0,.158-2.742l-.069-.405q-.349-1.314.129,1.417a6.008,6.008,0,0,0-.129-1.417,2.547,2.547,0,0,0-.535-1.213,7.142,7.142,0,0,0-1.444-.891c-.416-.224-.866-.381-1.28-.6a3.913,3.913,0,0,0-1.668-.616,24.517,24.517,0,0,0-4.219.271,11.821,11.821,0,0,0-3.7,1.158,4.521,4.521,0,0,0-1.623,1.664,3.709,3.709,0,0,0-.7,1.665,4.454,4.454,0,0,0,.021,1.327c.013.07.108.618.276.428" transform="translate(-172.796 -46.521)" fill="#431a0b"/>
            <path id="Path_957370" data-name="Path 957370" d="M340.819,107.165a2.377,2.377,0,0,0-.654-1.318,2.274,2.274,0,0,0-.713-.653,3.612,3.612,0,0,0-.9-.146,17.616,17.616,0,0,0-2.247-.12,5.293,5.293,0,0,0-2.5.352,11.7,11.7,0,0,1-1.1.518c-.495.21-.957.349-1.164.883a4.35,4.35,0,0,0-.221,1.536,3.29,3.29,0,0,0,.265,1.583c.246.451.712.176,1.12.1.2-.039.4-.08.6-.1a2.99,2.99,0,0,1,.618.05,4.008,4.008,0,0,0,1.255-.2,20.1,20.1,0,0,1,2.411-.4c.382-.039.765-.068,1.149-.078a1.884,1.884,0,0,0,.935-.116c.178-.1.72-.573.96-.477.215.086.187-1.312.178-1.406" transform="translate(-155.094 -49.117)" fill="#431a0b"/>
            <path id="Path_957371" data-name="Path 957371" d="M342.6,120.171c.127,1.712-.5,3.148-1.411,3.219s-1.754-1.255-1.885-2.963.5-3.149,1.408-3.218,1.758,1.261,1.887,2.963" transform="translate(-158.818 -54.864)" fill="#6c3622"/>
            <path id="Path_957372" data-name="Path 957372" d="M378.926,119.64c.135,1.708-.5,3.148-1.407,3.219s-1.753-1.257-1.886-2.967.5-3.146,1.411-3.214,1.754,1.257,1.882,2.963" transform="translate(-175.826 -54.615)" fill="#6c3622"/>
            <path id="Path_957373" data-name="Path 957373" d="M345.688,156.98a2.965,2.965,0,0,0,.831,1.72,7.119,7.119,0,0,0,1.974,1.15,13.821,13.821,0,0,0,5.43.837,11.532,11.532,0,0,0,2.864-.467,5.048,5.048,0,0,0,2.225-1.027c.259-.245.438-.526.716-.752.3-.242.607-.471.91-.709a11.122,11.122,0,0,0,.974-.837,1.229,1.229,0,0,0,.429-1.185c-.122-1.009-2.038-.824-2.658-.539a4.807,4.807,0,0,0-1.18.646c-.247.211-.472.446-.724.653-.486.4-1.014.754-1.484,1.174a6.844,6.844,0,0,0-.529.6c-.091.1.059-.022-.13.1.144-.088.078-.02-.049.019-.322.1-.648.176-.972.265a2.133,2.133,0,0,1-.45.087c.16-.009-.251-.01-.289-.01-.18,0-.361,0-.541,0-.139,0-.279,0-.419-.005-.351-.007.018.006-.188-.012a7.53,7.53,0,0,1-1.56-.258,5.868,5.868,0,0,1-1.4-.628c-.607-.368-1.247-.663-1.824-1.083a1.666,1.666,0,0,0-1.188-.237c-.2.03-.841.177-.772.5" transform="translate(-161.814 -72.53)" fill="#ec766a"/>
            <path id="Path_957374" data-name="Path 957374" d="M347.092,117.371c0,.895.061,1.787.124,2.679a16.389,16.389,0,0,1,.124,2.587c-.148,1.6-1.714,2.954-2.585,4.19-.822,1.168-1.456,2.466-.914,3.891a4.788,4.788,0,0,0,2.91,2.446,9.978,9.978,0,0,0,5.357.513c.515-.1,1.859-.435,1.44-1.243-.383-.738-1.855-.84-2.537-.706-.171.034-.344.048-.515.08q-.338.03.144-.008c-.092,0-.184,0-.276,0-.485,0-.073.076-.013.007-.043.049-.494-.068-.564-.078.522.078-.09-.029-.2-.062-.058-.017-.5-.179-.113-.024-.17-.069-.338-.144-.5-.229-.08-.042-.158-.086-.236-.131q.206.132-.006-.012c-.975-.745-1.126-1.76-.559-3.059.7-1.6,1.881-2.938,2.31-4.661a2.91,2.91,0,0,0-.025-1.6c-.123-.484-.26-.964-.4-1.443-.3-1.044-.631-2.081-.862-3.145-.149-.689-2.1-.743-2.1,0" transform="translate(-160.858 -54.69)" fill="#ee7d6c"/>
            <path id="Path_957375" data-name="Path 957375" d="M294.33,293.9c4.688-28.569-9.672-30.05-9.672-30.05C268.508,259.708,261,284.277,261,284.277s-11.646,54.366-11.492,78.731c0,0,17.127,10.63,25.215-4.554Z" transform="translate(-116.793 -123.286)" fill="#f5a58e"/>
            <path id="Path_957376" data-name="Path 957376" d="M359.1,216.406l54.075,19.9L383.4,369.625H312.128l-19.6-130.669,41.255-22.55Z" transform="translate(-136.934 -101.3)" fill="#f5a58e"/>
            <path id="Path_957377" data-name="Path 957377" d="M333.219,216.406l-36.142,18.172,14.939,134.078c14.4,7.322,22.477,2.659,44.748,2.629,7.122-.009,28.226,3.889,31.319-3.587,1.881-4.543,7.179-14.11,7.013-18.936s5.134-12.683,5.529-17.509.3-9.616,2.665-13.944c4.4-8.07,4.334-20.019,6.333-29.082,2.036-9.2,3.415-13.757,3.42-23.219,0-5.022,4.309-10.644,5.546-15.535,1.309-5.2.571-11.459-4.556-13.8-4.557-2.086-9.747-3.384-14.468-5.134L368.5,218.722s-28.38,9.042-35.28-2.316" transform="translate(-139.062 -101.3)" fill="#0069ac"/>
            <path id="Path_957378" data-name="Path 957378" d="M287.831,329.616l8.811-47.987s12.8-27.9-9.506-42.621c0,0-24.06,3.784-28.51,26.452l-12.061,47.9s1.213,11.928,41.266,16.254" transform="translate(-115.417 -111.88)" fill="#0069ac"/>
            <path id="Path_957379" data-name="Path 957379" d="M378.857,466.55c-6.275-10.538-8.176-23.763-16.169-33.281-7.63-9.08-21.438-18.313-33.857-17.671-7.658.4-18.562,11.2-26.435,9.526-9.453-2.013-25.9,7.229-33.755,1.855-6.3-4.311,12.577-39.206,10.661-46.921a38.815,38.815,0,0,1,1.436-23.628c3.429-9.558,7.692-7.682,9.911-17.607,1.916-8.577,3.861-16.919,10.557-23.142,19.507-18.126,52.968-15.02,75.619-5.836,3.492,1.415,5.535,2.522,6.734,3.96,1.866,2.228,8.211-.86,8.317,5.367.189,10.8,2.129,9.6,2.115,20.407a175.313,175.313,0,0,0,3.106,28.432c2.254,11.145,1.286,25.093,4.287,36.1,5.313,19.483,7.149,58.387,3.856,79.062a26.666,26.666,0,0,1-26.383-16.622" transform="translate(-125.145 -141.599)" fill="#0069ac"/>
            <path id="Path_957380" data-name="Path 957380" d="M324.434,405.4c35.145-5.014,121.3,4.026,124.747-36.346,2.82-33.013-8.309-85.065-23.457-96.9-11.247-8.8-26.358-3.91-32.4,9.282-6.73,14.694,13.869,65.39,17.2,86.481,0,0-30.217,20.632-94.024,27.235Z" transform="translate(-148.153 -125.317)" fill="#f5a58e"/>
            <path id="Path_957381" data-name="Path 957381" d="M523.939,349.721l-26.086-82.906c-5.307-14-14.309-16.358-16.138-16.358-27.868,0-30.323,34.409-30.323,34.409l13.485,60.8s30.353,17.39,59.062,4.056" transform="translate(-211.297 -117.239)" fill="#0069ac"/>
            <path id="Path_957382" data-name="Path 957382" d="M288.37,510.474c-1.446-1.916-9.42-3.139-13.173-3.389a87.206,87.206,0,0,0-28.61,2.427c-3.281.844-10.391,2.724-13.416,4.39-1.845,1.018-5.442,1.852-4.837,4.137,1.438.779,9.732-.877,15.2-2.159-7.97,2.327-9.827,4.515-9.99,5.573,1.945,2.14,11.282-2.074,17.852-3.5,2.12-.461-12.47,5.038-5.342,5.633,1.548.124,11.59-2.764,16.348-3.842-.513.493-6.823,3.779-6.667,4.345.135,1.463,6.437-.089,9.584-.939,4.234-1.145,28.766-5.12,23.055-12.672" transform="translate(-106.852 -237.249)" fill="#f5a58e"/>
            <path id="Path_957383" data-name="Path 957383" d="M101.214,474.546c-1.749-1.65-9.811-1.525-13.553-1.147a87.321,87.321,0,0,0-27.811,7.151c-3.089,1.373-9.79,4.411-12.5,6.562C45.7,488.424,42.3,489.839,43.272,492c1.55.526,9.454-2.487,14.624-4.658-7.467,3.619-8.939,6.088-8.92,7.154,2.275,1.791,10.779-3.923,17.021-6.424,2.011-.8-11.461,7.043-4.33,6.443,1.541-.129,10.97-4.652,15.479-6.5-.426.571-6.1,4.857-5.855,5.387.382,1.428,6.335-1.153,9.3-2.518,3.985-1.834,27.515-9.827,20.628-16.331" transform="translate(-20.175 -221.487)" fill="#f5a58e"/>
            <path id="Path_957384" data-name="Path 957384" d="M189.884,417.867l-70.119,34.5,7.029,6.2s75.182-11.01,85.877-23.447c0,0-7.43-20.8-22.787-17.25" transform="translate(-56.062 -195.412)" fill="#f5a58e"/>
            <path id="Path_957385" data-name="Path 957385" d="M355.811,226.493c.756-.17-1.408.2.054,0a2.134,2.134,0,0,0,1.077-.421l-3.257-.432c-.323,1.3,2.27,2.54,3.137,3.01A29.1,29.1,0,0,0,361.6,230.7a26.1,26.1,0,0,0,4.941,1.006c.4.051.815.076,1.206.165-.545-.124-.091.007.025.036.318.079.644.145.966.2a19.382,19.382,0,0,0,2.912.212l-1.512-.2a14.7,14.7,0,0,0,4.2.562,13.514,13.514,0,0,0,2.295-.113c.318-.044.636-.093.953-.141.725-.112-.476-.042-.534-.018.2-.08.732.112.942.147.235.039.47.078.707.105a12.6,12.6,0,0,0,2.929-.018c.319-.037.635-.1.953-.141.159-.023.317-.043.477-.057l-.407.037q.187,0,.373-.013.539-.022,1.074-.077c.331-.042.654-.11.981-.178.6-.125,1.214-.248,1.806-.422q.361-.087-.249.044.5-.1,1-.207c.221-.054.44-.114.656-.185.609-.2,1.2-.438,1.8-.669.7-.27-.41.119.151-.053.227-.07.449-.148.678-.211.79-.219-.563.09.093-.021q.554-.057-.257.016.327-.009.654-.037a7.647,7.647,0,0,0,2.73-.632,3.814,3.814,0,0,0,1.458-1.021,3.575,3.575,0,0,0,.5-1.436c.166-.723-1.287-1.144-1.682-1.226a4.864,4.864,0,0,0-2.99.278c-.295.138-.589.28-.888.408-.166.071-.331.137-.491.218-.206.105-.923.538-.484.311.315-.163-.016.01-.1.04-.343.129.492-.157.531-.166.107-.025,1.1-.1.644-.087-.413.009-.829.037-1.24.074a15.863,15.863,0,0,0-4.505,1.327c-.662.269.461-.141-.216.077-.122.039-.248.069-.369.109-.492.163,1.223-.246-.068.021-.447.092-.883.213-1.323.331-.14.038-.279.076-.42.112l-.2.051q-.4.091.009,0c.332-.19.124-.039-.077,0l-.094.011q.829-.052.394-.034a9.113,9.113,0,0,0-1.71.148c-.314.049-.629.1-.944.157-.205.035-.581-.007.164,0l.4.036q-.239-.022-.476-.057a19.26,19.26,0,0,0-2.523-.245,15.2,15.2,0,0,0-2.747.309c-.173.03-.589.159.139.01a3.1,3.1,0,0,1-.5.012c-.323.007-.647,0-.97,0-.628,0,.081-.025.121.018-.078-.085-.34.019-.439-.052.279.2.4.082.112.015a7.527,7.527,0,0,0-1.756-.194c-.3,0-.6.015-.9.012a1.809,1.809,0,0,1-.413-.012l.373.019-.195-.025c-.305-.182-.093.019.112.026a7.767,7.767,0,0,1-.871-.2c-.411-.066-.832-.09-1.247-.126-.625-.054-1.251-.1-1.875-.165-.338-.036-.675-.079-1.011-.135-.066-.011-.526-.106-.237-.04s-.293-.08-.349-.1a25.565,25.565,0,0,1-4.1-1.453c-.751-.342-1.494-.706-2.24-1.057a19.819,19.819,0,0,1-1.78-1.109,2.561,2.561,0,0,0-2.921.378l-.024.031a.445.445,0,0,0,0,.454,1.055,1.055,0,0,1,.139.208c.3.6,1.453.5,1.949.388" transform="translate(-165.547 -105.203)" fill="#004897"/>
            <path id="Path_957386" data-name="Path 957386" d="M474.876,249.506c-.611.439-1.164.949-1.749,1.421s-1.348.7-1.958,1.211c-1.139.951-2.286,1.9-3.416,2.861a21.417,21.417,0,0,0-2.883,3.2,18.9,18.9,0,0,0-2.252,3.53c-.6,1.276-1.27,2.513-1.866,3.788a20.271,20.271,0,0,0-1.332,4.578,29.7,29.7,0,0,0-.634,4.292c-.034.619-.042,1.239-.057,1.859a12.71,12.71,0,0,1-.279,1.847,4.96,4.96,0,0,0,.285,1.764c-.057-.338-.034.047-.037.082-.014.155,0,.33,0,.488,0,.316-.017.644.006.96.055.748.235,1.506.327,2.253s.169,1.47.251,2.205c.337,3.012.964,5.958,1.562,8.927a39.958,39.958,0,0,0,1.114,4.478c.442,1.363.889,2.713,1.295,4.088s.924,2.7,1.233,4.1c.347,1.573.725,3.12,1.163,4.671.928,3.283,1.83,6.582,2.487,9.932a51.741,51.741,0,0,0,2.576,9.807c.139.339,1.338.345,1.3-.086-.237-2.939.131-5.882.047-8.824a59.945,59.945,0,0,0-1.074-8.792,58.9,58.9,0,0,1-1.279-8.87,37.576,37.576,0,0,0-.485-4.118c-.186-1.385-.481-2.8-.771-4.168-.306-1.442-.571-2.892-.828-4.344s-.594-2.895-.788-4.363-.31-2.931-.466-4.4c-.071-.665-.151-1.33-.247-1.993s-.031-1.294-.068-1.955a5.891,5.891,0,0,0-.245-1.124c-.071-.288-.015.426-.021-.12,0-.122-.017-.237-.01-.361.029-.553.22-1.083.246-1.639.063-1.362-.052-2.716.1-4.079a39.765,39.765,0,0,1,.718-4.258,18.478,18.478,0,0,1,1.524-3.895c.651-1.366,1.179-2.775,1.948-4.085a28.006,28.006,0,0,1,2.527-3.54c.886-1.083,1.695-2.277,2.477-3.437.736-1.093,1.228-2.279,1.9-3.405.257-.429-.469-.686-.744-.743a2.071,2.071,0,0,0-1.605.257" transform="translate(-214.589 -116.648)" fill="#004897"/>
            <path id="Path_957387" data-name="Path 957387" d="M331.9,227.418a13.1,13.1,0,0,1-2.371,2.122,10.079,10.079,0,0,0-2.46,2.291,19.7,19.7,0,0,0-1.786,2.94c-.565,1.049-1.18,2.056-1.681,3.137-.488,1.052-1.071,2.069-1.495,3.15a15.92,15.92,0,0,0-.566,3.809c-.3,2.427-.721,4.846-.987,7.277a19.189,19.189,0,0,0-.351,3.467c.09,1.189.363,2.329.368,3.529a50.261,50.261,0,0,1-.151,7.245,42.822,42.822,0,0,0-.127,7.5c.084,2.449.065,4.9.074,7.352,0,1.326.072,2.669.005,3.992a3.046,3.046,0,0,1-.159.836,2.956,2.956,0,0,0-.113,1.01c0,.734.071,1.481.046,2.209-.091,2.611.081,5.249-.161,7.852-.052.556,1.555.574,1.71.114.742-2.194,1.123-4.481,1.724-6.713a13.065,13.065,0,0,0,.472-1.769c.079-.646.006-1.3.035-1.954.024-.538.254-1.04.286-1.585.033-.58.014-1.166.016-1.747.009-2.476.031-4.952.028-7.428,0-2.408-.166-4.815-.08-7.224.047-1.3.292-2.556.371-3.847.071-1.166.053-2.338.057-3.506a35.2,35.2,0,0,0-.027-3.57,13.63,13.63,0,0,1-.254-3.5c.376-2.364.72-4.736,1-7.113.146-1.24.4-2.461.528-3.7a11.368,11.368,0,0,1,.237-1.787,9.429,9.429,0,0,1,.726-1.612c1.166-2.341,2.153-4.793,3.429-7.079a9.167,9.167,0,0,1,.919-1.352,9.5,9.5,0,0,0,1.034-1.2,5.666,5.666,0,0,1,.37-.692c.152-.2.3-.406.444-.615a5.191,5.191,0,0,0,.634-1.477c.21-.719-1.42-.712-1.743-.36" transform="translate(-163.901 -98.346)" fill="#004897"/>
            <path id="Path_957388" data-name="Path 957388" d="M322.775,378.134a11.3,11.3,0,0,0-.787,1.446c-.335.619-.745,1.2-1.056,1.835-.279.569-.38,1.208-.62,1.791-.248.6-.562,1.177-.8,1.79-.5,1.3-1.059,2.572-1.609,3.855a15.916,15.916,0,0,1-1.721,3.508,12.767,12.767,0,0,0-2.394,7.129c-.051,1.279-.107,2.542-.211,3.819a11.723,11.723,0,0,0,.166,2.857,12.512,12.512,0,0,0,.615,2.727c.554,1.376,2.4,1.785,3.74,1.529.482-.093,1.362-.256,1.485-.845s-.545-.844-.99-1.012c.416.157.972.8.711.29-.056-.111-.149-.205-.217-.311a4.557,4.557,0,0,1-.439-.971c-.233-.669-.365-1.33-.566-2.042a10.17,10.17,0,0,1-.271-2.938c.02-1.174.013-2.356.057-3.53a12.725,12.725,0,0,1,2.179-6.48,6.167,6.167,0,0,0,.6-1.578c.188-.607.369-1.218.555-1.825.361-1.177.748-2.338,1.052-3.531a38.255,38.255,0,0,0,1.033-3.857c.176-1.193-.13-2.436.054-3.618.033-.211-.491-.144-.57-.038" transform="translate(-233.077 -100.521) rotate(-11)" fill="#004897"/>
            <path id="Path_957389" data-name="Path 957389" d="M446.484,523.555a5.087,5.087,0,0,1,.753.843,2.31,2.31,0,0,0,.419.644,12.829,12.829,0,0,0,1.559,1.366,17.8,17.8,0,0,1,3.3,2.768,19.275,19.275,0,0,1,4.14,7.385,40.179,40.179,0,0,1,.845,8.158,23.24,23.24,0,0,0,1.1,4.791c.4,1.4.756,2.808,1.265,4.177a18.943,18.943,0,0,0,2,4.126,10.722,10.722,0,0,0,1.449,1.8,4.9,4.9,0,0,0,.973.647,3.272,3.272,0,0,0,.4.195q.235.127-.132-.1.262.233.044-.019c.9,1.128,2.675,1.34,4.029,1.121.921-.149,2.836-.662,2.288-1.974a3.918,3.918,0,0,0-1.7-1.637c-.333-.2.134.146.179.122-.018.01-.176-.157-.195-.179-.114-.129-.238-.25-.352-.38.241.274-.085-.111-.144-.185a17.2,17.2,0,0,1-1.975-3.32,34.443,34.443,0,0,1-1.658-4.258,32.026,32.026,0,0,1-1.406-4.564c-.115-.7-.113-1.409-.226-2.11a17.615,17.615,0,0,1-.269-2.111,18.2,18.2,0,0,0-.878-4.3,21.251,21.251,0,0,0-4.769-7.976,16.287,16.287,0,0,0-4.16-3.124,12.716,12.716,0,0,0-2.819-1.283c-.5-.144-1.026-.211-1.537-.308a7.763,7.763,0,0,1-1.74-.613c-.178-.079-1.116-.061-.781.3" transform="translate(-207.507 -236.872)" fill="#004897"/>
            <rect id="Rectangle_416126" data-name="Rectangle 416126" width="123.561" height="5.911" transform="translate(67.002 286.349)" fill="#a3a3a3"/>
            <path id="Path_957390" data-name="Path 957390" d="M49.993,478.029H164.981L154.9,396.856H39.9Z" transform="translate(-18.678 -185.768)" fill="#fff"/>
            <path id="Path_957391" data-name="Path 957391" d="M270.281,478.029h-4.1L256.1,396.856h4.091Z" transform="translate(-119.881 -185.768)" fill="#d2d1d1"/>
            <path id="Path_957392" data-name="Path 957392" d="M140.191,461.387a9.2,9.2,0,1,0,9.2-9.2,9.2,9.2,0,0,0-9.2,9.2" transform="translate(-65.623 -211.671)" fill="#d2d1d1"/>
            <path id="Path_957393" data-name="Path 957393" d="M259.1,663.059l26.306,10.715-6.763,20.453-26.8-9.051Z" transform="translate(-117.889 -310.378)" fill="#f39b82"/>
            <path id="Path_957394" data-name="Path 957394" d="M173.384,660.559l-28.294,2.5.451,21.538,28.272-.762Z" transform="translate(-67.916 -309.208)" fill="#f39b82"/>
            <path id="Path_957395" data-name="Path 957395" d="M99.373,673.438c-12.211,3.364-47.04.543-59.722-4.266-15.346-5.824-14.287-36.549,5.042-32.149,17.513,3.989,35.92,11.143,53.778,12.591,0,0,10.636,8.249.9,23.823" transform="translate(-13.606 -297.99)" fill="#77c7df"/>
            <path id="Path_957396" data-name="Path 957396" d="M158.963,613.974c-4.363-9-1.9-27.759-1.9-27.759L172.32,578.2c18.831-14.648,41.176-24.16,59.614-39.29,14.28-11.714,28.245-31.268,49-29.194,14.03,1.4,23.7,11.951,31.745,22.536,13.418,17.638,32.471,32.03,32.471,56.215,0,20.422-27.093,35.752-41.706,33.45-10.8-1.706-27.031-15.323-33.036-23.526L254.287,578.5s-6.406,20.875-68.638,33.975c0,0-18.492,3.956-26.686,1.494" transform="translate(-73.197 -238.525)" fill="#003e8d"/>
            <path id="Path_957397" data-name="Path 957397" d="M277.091,511.512a40.332,40.332,0,0,0-4.95,1.665,16.245,16.245,0,0,0-2.754,1.545c-.935.577-1.857,1.174-2.771,1.783-3.936,2.623-7.679,5.52-11.629,8.119-2.963,1.95-6.071,3.656-9.007,5.653-3.112,2.115-6.146,4.346-9.144,6.618-5.717,4.332-11.327,8.823-16.667,13.617a218.178,218.178,0,0,1-21.7,17.224c-3.789,2.619-7.644,5.14-11.509,7.647-1.993,1.293-3.953,2.635-5.917,3.971q-1.48,1.008-2.956,2.021-.724.5-1.447,1a4.347,4.347,0,0,0-.6.495c-.1.1-.2.2-.294.3l-.323.375q.08-.152-.038,0a3.344,3.344,0,0,0-1.012,1.495,3.193,3.193,0,0,1-.644,1.059c-.276.373.39.687.629.757a2.594,2.594,0,0,0,1.658-.1,14.216,14.216,0,0,1,2-.613,7.818,7.818,0,0,0,1.25-.4c.17-.07.338-.147.507-.221,0,0,.622-.3.43-.208-.355.176.505-.207.7-.289.165-.072.329-.147.493-.223a7.048,7.048,0,0,0,.771-.43q.82-.513,1.641-1.025,3.109-1.937,6.233-3.851c4.1-2.522,8.135-5.17,12.137-7.848a169.891,169.891,0,0,0,22.326-17.292c4.995-4.71,10.065-9.317,15.283-13.783a149.8,149.8,0,0,1,16.058-12.448,106.407,106.407,0,0,0,10.908-8.225c1.58-1.334,3.165-2.665,4.81-3.92.739-.564,1.489-1.12,2.267-1.631.631-.414,1.155-1,1.8-1.414a10.013,10.013,0,0,1,2-.954c.685-.249-.194-.536-.544-.456" transform="translate(-81.294 -239.433)" fill="#002861"/>
            <path id="Path_957398" data-name="Path 957398" d="M197.228,596.609q-.094-.121-.187-.244a.8.8,0,0,0-.089-.12c-.144-.131.016-.2-.006.131.029-.44-.506-.839-.838-.991.52.238.291.188.1.009-.072-.067-.142-.136-.215-.2-.036-.032-.071-.074-.11-.1l-.055-.053q.453.531.073.088c-.229-.15-1.255-.925-.328-.3-.076-.051-.154-.1-.23-.15-.492-.324-.983-.651-1.466-.988-1.4-.975-2.945-1.777-4.4-2.67q-.519-.318-1.037-.64l-.47-.293c-.1-.063-.518-.326-.012-.006.69.437-.38-.241-.646-.4q-1.16-.708-2.317-1.42-1.174-.726-2.341-1.462l-.663-.419c-.193-.121-.532-.34.341.217l-.265-.169q-.669-.424-1.335-.853c-3.671-2.356-7.431-4.571-11.119-6.9-.119-.075-.239-.149-.357-.226l.339.215-.569-.362q-.707-.451-1.412-.9c-1.1-.7-2.2-1.37-3.344-1.987q-1.389-.747-2.771-1.506c-.164-.09-.4-.3-.586-.322l.361.248q-.356-.231-.716-.453l-.34-.211q-.6-.373-1.205-.751l-.657-.413-.26-.164c-.386-.243.2.13.229.145-.424-.273-.852-.543-1.277-.816q-1.1-.705-2.181-1.425c-1.326-.879-2.651-1.766-3.934-2.707a102.86,102.86,0,0,1-7.832-7c-4.151-3.757-8.421-7.38-12.612-11.091-2.125-1.881-4.219-3.794-6.266-5.76-2.088-2.006-4.083-4.108-6.206-6.077-8.009-7.431-17.5-12.744-27.076-17.869l-1.82-.97a12.44,12.44,0,0,0-2.647-.913,5.3,5.3,0,0,0-3.668.232c-.772.427-1.17,1.08-.473,1.8a6.389,6.389,0,0,0,1.753,1.351q1.028.529,2.053,1.062,1.9.985,3.772,2.009c2.384,1.3,4.75,2.626,7.075,4.026q.823.495,1.637,1,.406.253.811.508c-.449-.284-.041-.024.071.047l.534.345q1.645,1.069,3.249,2.2c2.232,1.576,4.406,3.242,6.494,5,2.222,1.874,4.286,3.9,6.376,5.918,2.133,2.06,4.322,4.061,6.525,6.045,4.236,3.813,8.59,7.491,12.842,11.285,2.958,2.639,5.746,5.49,8.833,7.979,2.463,1.987,4.875,4.023,7.4,5.939,1.494,1.134,2.964,2.274,4.415,3.463a26.972,26.972,0,0,0,2.292,1.8q1.294.844,2.6,1.678c3.778,2.421,7.557,4.9,11.481,7.083,3.454,1.917,6.921,3.819,10.464,5.567,1.52.75,3.044,1.495,4.587,2.2.291.132.606.222.894.353-.914-.416-.633-.251-.415-.169.194.073.387.148.581.222.555.211,1.11.422,1.666.628.155.057.31.116.466.172.382.136-.422-.16-.388-.147.178.065,2.557.785.916.307a8.459,8.459,0,0,0,1.005.236c.177.029.52.15-.249-.121a5.981,5.981,0,0,0,1.263.36l.761.05-.462-.043c.074.017.154.019.229.029.274.036.55.066.825.1a3.635,3.635,0,0,0,2.017-.261c.3-.151.848-.584.533-.988" transform="translate(-38.37 -242.073)" fill="#002861"/>
            <path id="Path_957399" data-name="Path 957399" d="M333.97,661.237A23.16,23.16,0,0,0,329.048,655a17.644,17.644,0,0,0-3.389-2.586,11.937,11.937,0,0,0-4.312-1.312,13.7,13.7,0,0,0-2.942.01c-.157.018-.313.041-.469.068l-.155.032q-1.2.251-.534.108l.2-.043q-.18.03-.358.065c-.438.083-.874.173-1.308.276A17.213,17.213,0,0,0,311.5,653.3c-1.392.757-2.722,1.63-4.035,2.514a33.546,33.546,0,0,1-3.44,2.306c.664-.334.111-.072-.03.015q-.277.171-.556.336-.516.306-1.045.591c-.636.341-1.272.681-1.934.971-.16.07-.343.123-.5.207.863-.474.235-.087-.049.006-.343.113-.69.2-1.038.3-.681.186.917-.182.221-.04a7.055,7.055,0,0,0-1.859.542,7.741,7.741,0,0,0-1,.712.91.91,0,0,0-.305,1.142,2.372,2.372,0,0,0,1.391.887,10.2,10.2,0,0,0,6.716-.286,20.106,20.106,0,0,0,4.063-1.811c2.348-1.424,4.472-3.14,6.693-4.745.508-.366,1.024-.719,1.545-1.065.381-.254-.064.028-.11.068a3.125,3.125,0,0,1,.455-.277q.454-.27.922-.518c.5-.263,1-.523,1.514-.769.169-.081.624-.185.748-.33l-.337.126c.105-.039.212-.076.318-.112q.241-.074.473-.171.646-.243-.04.011a3.107,3.107,0,0,0,.417-.129c.412-.129-.241.049-.272.054.568-.095-.741-.009-.154,0,.1,0,.21,0,.314,0,.586-.006-.7-.1-.111,0a3.3,3.3,0,0,0,.407.059c.357.012-.629-.167-.081-.017.2.053.391.1.585.16.14.043.279.092.419.136.565.181-.419-.185.139.055.23.1.463.179.7.272-.451-.179.152.068.2.087a16.355,16.355,0,0,1,1.809.868,21.147,21.147,0,0,1,3.76,2.969,23.535,23.535,0,0,1,2.837,3.175,1.872,1.872,0,0,0,1.734.483c.352-.049,1.272-.309.985-.85" transform="translate(-138.484 -304.747)" fill="#002861"/>
            <path id="Path_957400" data-name="Path 957400" d="M19.971,511.052c-28.407,3.7-21.056,30.067-11.1,39.2,26.813,24.588,65.488,43.1,99.226,56.138,1.145.438,33.114,12.369,38.467,14.5-6.644-16.044,8.186-27.229,8.186-27.229s-37.763-18.28-63.1-44.91c0,0-37.856-44.869-71.686-37.7" transform="translate(0 -238.861)" fill="#003e8d"/>
            <path id="Path_957401" data-name="Path 957401" d="M286.627,697.451c10.679,6.809,44.8,14.359,58.332,13.5,16.385-1.049,24.411-30.726,4.646-32.207-17.912-1.342-37.609.083-55.1-3.788,0,0-12.593,4.752-7.875,22.5" transform="translate(-133.675 -315.946)" fill="#77c7df"/>
            <path id="Path_957402" data-name="Path 957402" d="M364.923,23.763c.062,5.685-11.949,18.745-17.956,18.163,1.141-2.705,1.074-5.787,1.644-8.458-5.1,3.7-12.356,9.211-18.022,11.764-2.458,1.112-9.007,3.362-11.131,1.565-1.379-1.17-.473-3.57-1.3-4.9-1.544-2.481-1.413-.994-3.817-2.39-13.208-7.7-.049-28.662,10.019-34.48C334.516-.829,350.007-1.381,361,2.4c4.669,1.606,9.537,4.216,11.9,8.59,1.947,3.59,4,15.963-1.774,17.07Z" transform="translate(-144.539 0)" fill="#431a0b"/>
          </g>
        </g>
      </g>
      <g id="Group_1101302" data-name="Group 1101302" transform="translate(999.668 645.495)">
        <g id="Group_1101301" data-name="Group 1101301" transform="translate(0 0)" clip-path="url(#clip-path-4)">
          <path id="Path_875437" data-name="Path 875437" d="M6.939,75.653a3.669,3.669,0,0,0,1.04-3.114A56.943,56.943,0,0,1,72.586,7.932,3.665,3.665,0,1,0,73.628.677a64.277,64.277,0,0,0-72.9,72.9,3.663,3.663,0,0,0,6.215,2.072" transform="translate(-0.047 0)" fill="#c2a4ff"/>
          <path id="Path_875438" data-name="Path 875438" d="M7.179,64.92a3.659,3.659,0,0,0,1-3.337,39.181,39.181,0,0,1,46.4-46.4,3.663,3.663,0,1,0,1.489-7.174A46.505,46.505,0,0,0,1,63.071,3.663,3.663,0,0,0,7.179,64.92" transform="translate(17.805 10.797)" fill="#c2a4ff"/>
          <path id="Path_875439" data-name="Path 875439" d="M40.883,21.55a3.67,3.67,0,0,0-1.352-6.038A29.457,29.457,0,0,0,1.752,53.294a3.665,3.665,0,0,0,6.9-2.485,22.127,22.127,0,0,1,28.4-28.4,3.672,3.672,0,0,0,3.837-.86" transform="translate(34.89 21.132)" fill="#c2a4ff"/>
        </g>
      </g>
      <path id="Path_912695" data-name="Path 912695" d="M80.227,0h4.687l-.7,8,6.62-5.038L93.2,7.03l-7.53,3.692,7.53,3.895-2.375,4.1L84.21,13.5l.7,8.146H80.227l.878-8.29-6.649,5.156-2.342-4.1,7.324-3.692-7.5-3.485,2.375-4.072,6.764,4.92Z" transform="translate(1218.839 509.743) rotate(180)" fill="#fff"/>
      <path id="Path_912696" data-name="Path 912696" d="M92.217,0H96.9l-.7,8,6.62-5.038,2.375,4.072-7.53,3.692,7.53,3.895-2.375,4.1L96.2,13.5l.7,8.146H92.217l.878-8.29-6.649,5.156-2.342-4.1,7.321-3.692-7.5-3.485L86.3,3.164l6.764,4.92Z" transform="translate(1195.505 509.743) rotate(180)" fill="#fff"/>
      <path id="Path_912697" data-name="Path 912697" d="M104.206,0h4.687l-.7,8,6.62-5.038,2.375,4.072-7.53,3.692,7.53,3.895-2.375,4.1-6.62-5.218.7,8.146h-4.687l.878-8.29-6.649,5.156-2.342-4.1,7.321-3.692-7.5-3.485L98.29,3.164l6.764,4.92Z" transform="translate(1172.172 509.743) rotate(180)" fill="#fff"/>
      <path id="Path_912698" data-name="Path 912698" d="M116.2,0h4.687l-.7,8,6.62-5.038,2.372,4.072-7.527,3.692,7.527,3.895-2.372,4.1-6.62-5.218.7,8.146H116.2l.878-8.29-6.649,5.156-2.342-4.1,7.321-3.692-7.5-3.485,2.372-4.072,6.767,4.92Z" transform="translate(1148.839 509.743) rotate(180)" fill="#fff"/>
      <g id="Group_1122459" data-name="Group 1122459" transform="translate(326.009 460.495)">
        <g id="Group_1122458" data-name="Group 1122458" clip-path="url(#clip-path-5)">
          <g id="Group_1122457" data-name="Group 1122457">
            <g id="Group_1122456" data-name="Group 1122456" clip-path="url(#clip-path-5)">
              <path id="Path_957403" data-name="Path 957403" d="M98.117,270.928,100.4,120.041l-.061-61.678L100.3,11.693a2.6,2.6,0,0,0-4.156-2.07L50.946,43.652,5.115,5a2.182,2.182,0,0,0-3.589,1.67L1.578,58.5l.07,70.139-.184,147.5Z" transform="translate(-0.182 -0.559)" fill="#dbccfc"/>
              <path id="Path_957404" data-name="Path 957404" d="M578.473,270.628l-.27-154.242-.061-61.678-.05-49.618a1.153,1.153,0,0,0-1.827-.935L528.926,38.228A3.98,3.98,0,0,1,524.1,38.1L477.267.343a1.538,1.538,0,0,0-2.5,1.2l.052,53.307.07,70.138.259,143.324Z" transform="translate(-59.183 0)" fill="#dbccfc"/>
              <path id="Path_957405" data-name="Path 957405" d="M716.249,270.814,715.981,118.1l-.061-61.677-.048-48.854a1.661,1.661,0,0,0-2.549-1.4L661.008,39.285a6.8,6.8,0,0,1-7.573-.2L600.8,1.78a1.541,1.541,0,0,0-2.433,1.259l.053,53.542.07,70.139.26,144.095Z" transform="translate(-74.591 -0.186)" fill="#dbccfc"/>
              <path id="Path_957406" data-name="Path 957406" d="M447.592,270.668l-.27-153.5-.061-61.678-.047-47.725a2.456,2.456,0,0,0-3.636-2.152L381.932,39.385a5.062,5.062,0,0,1-5.077-.124L313.728.547a1.511,1.511,0,0,0-2.3,1.289l.053,53.826.07,70.139.261,144.867Z" transform="translate(-38.822 -0.04)" fill="#dbccfc"/>
              <path id="Path_957407" data-name="Path 957407" d="M282.9,270.805l-.269-152.754-.061-61.678L282.52,7.651a2.012,2.012,0,0,0-2.857-1.824l-74.31,34.362a7.321,7.321,0,0,1-6.436-.143L124.737,1.666a2.145,2.145,0,0,0-3.13,1.907l.053,53,.07,70.138.259,144.1Z" transform="translate(-15.159 -0.177)" fill="#dbccfc"/>
              <path id="Path_957408" data-name="Path 957408" d="M90.911,183.266a15,15,0,0,1-3.206,4.4,6.34,6.34,0,0,1-4.327,1.466,9.306,9.306,0,0,1-5.039-1.772q-2.7-1.77-6.108-3.971a46.717,46.717,0,0,0-7.788-3.971,26.435,26.435,0,0,0-9.976-1.772q-9.672,0-14.4,4.949t-4.734,13.378a13.764,13.764,0,0,0,2.851,8.919A24.916,24.916,0,0,0,45.66,211c3.088,1.71,4.679,4.895,8.648,6.319s8.621,4.663,12.762,6.415,7.516,2.079,11.486,4.441,7.424,6.242,10.512,9.907a39.566,39.566,0,0,1,7.009,12.791,48.471,48.471,0,0,1,3.114,17.762c0,8.228,1.119,15.348-1.256,22.516A55.946,55.946,0,0,1,87.6,309.906a47.777,47.777,0,0,1-16.7,12.585,53.228,53.228,0,0,1-22.549,4.582,60.71,60.71,0,0,1-14.1-1.71,73.342,73.342,0,0,1-13.9-4.826A75.794,75.794,0,0,1,7.74,313.144q-2.4-1.737-4.548-3.637c-3.359-2.97-4.185-8.83-1.91-13.145L7.637,284.31a9.116,9.116,0,0,1,3.156-3.543,7.8,7.8,0,0,1,4.377-1.345c2.036,0,7.747.685,9.818,2.231s.752,3.349,3.366,5.222a53.388,53.388,0,0,0,9.009,5.131,28.729,28.729,0,0,0,12.012,2.321q9.366,0,14.558-4.948t5.192-15.7a16.805,16.805,0,0,0-2.85-10.141,22.72,22.72,0,0,0-7.482-6.476,61.937,61.937,0,0,0-10.537-4.52q-5.9-1.954-12.114-4.337a80.793,80.793,0,0,1-12.115-5.865,39.355,39.355,0,0,1-10.536-9.164A44.65,44.65,0,0,1,6.008,219q-2.851-8.49-2.85-20.954A58.391,58.391,0,0,1,6.518,178.5a51.631,51.631,0,0,1,9.875-16.983,48.24,48.24,0,0,1,15.983-11.913,50.325,50.325,0,0,1,21.683-4.46,68.1,68.1,0,0,1,13.285,1.283,60.73,60.73,0,0,1,12.267,3.788A62.779,62.779,0,0,1,90.453,156.2a53.306,53.306,0,0,1,4.443,3.426c2.685,2.309,3.489,6.871,1.892,10.451Z" transform="translate(0 -18.094)" fill="#182e68"/>
              <path id="Path_957409" data-name="Path 957409" d="M194.146,255.938q1.708,5.014,3.279,10.273,1.57-5.381,3.325-10.458t3.6-9.845l34.545-90.02a15.635,15.635,0,0,1,1.893-3.606,6.385,6.385,0,0,1,2.171-1.9,5.9,5.9,0,0,1,2.725-.613h27.387V327.667H249.259c-2.049,0-3.711-2.105-3.711-4.7V225.281q0-7.453.554-16.128l-35.654,91.513a14.76,14.76,0,0,1-4.48,6.476,10.154,10.154,0,0,1-6.42,2.2H195.3a10.152,10.152,0,0,1-6.42-2.2,14.753,14.753,0,0,1-4.48-6.476l-35.838-91.634q.368,4.276.554,8.491t.185,7.759V327.667H125.27c-1.93,0-3.5-1.983-3.5-4.428V154.349c0-2.527,1.617-4.575,3.611-4.575h23.777a5.91,5.91,0,0,1,2.725.613,6.391,6.391,0,0,1,2.17,1.9,15.7,15.7,0,0,1,1.894,3.606l34.637,90.386q1.847,4.651,3.557,9.664" transform="translate(-15.18 -18.67)" fill="#182e68"/>
              <path id="Path_957410" data-name="Path 957410" d="M443.762,327.65h-24.2a9.318,9.318,0,0,1-6.7-2.5,13.2,13.2,0,0,1-3.648-6.415L401.273,287.7H350.1l-7.944,31.034a13.991,13.991,0,0,1-3.6,6.171A8.808,8.808,0,0,1,332,327.65H310.355c-1.33,0-2.252-1.68-1.789-3.26l50.2-171.524a4.07,4.07,0,0,1,3.665-3.232h29.24ZM357.306,259.6h36.763l-12.377-48.75q-1.2-4.642-2.818-10.935t-3.186-13.623q-1.478,7.454-3.048,13.806t-2.956,11Z" transform="translate(-38.45 -18.653)" fill="#182e68"/>
              <path id="Path_957411" data-name="Path 957411" d="M506.7,261.8v65.856H479.914c-2.447,0-4.43-2.514-4.43-5.614V153.976c0-2.4,1.534-4.341,3.426-4.341h40.357q14.594,0,24.893,3.971a43.771,43.771,0,0,1,16.812,11.056,42.994,42.994,0,0,1,9.467,16.739,71.483,71.483,0,0,1,2.956,21.015,73.522,73.522,0,0,1-1.755,16.372,57.539,57.539,0,0,1-5.219,14.234,49.955,49.955,0,0,1-8.5,11.668,43.52,43.52,0,0,1-11.593,8.43,29.381,29.381,0,0,1,10.622,12.585l28.634,61.945H557.322q-7.852,0-11.268-7.82L523.7,268.149a11.689,11.689,0,0,0-3.464-4.888,9.268,9.268,0,0,0-5.588-1.466Zm0-28.468h12.562a25.034,25.034,0,0,0,10.853-2.138,19.638,19.638,0,0,0,7.343-5.926,24.569,24.569,0,0,0,4.156-8.858,44.129,44.129,0,0,0,1.294-10.935q0-11.729-5.773-18.327t-17.874-6.6H506.7Z" transform="translate(-59.273 -18.653)" fill="#182e68"/>
              <path id="Path_957412" data-name="Path 957412" d="M705.907,149.635v32.744H668.037V327.651H640.306c-1.927,0-3.49-1.98-3.49-4.423V182.379H601.627c-1.481,0-2.682-1.522-2.682-3.4V151.865a2.037,2.037,0,0,1,1.759-2.23Z" transform="translate(-74.663 -18.653)" fill="#182e68"/>
              <path id="Path_957413" data-name="Path 957413" d="M92.237,185.521a14.983,14.983,0,0,1-2.91,4.4,5.427,5.427,0,0,1-3.925,1.466,7.945,7.945,0,0,1-4.573-1.772q-2.447-1.77-5.542-3.971a41.154,41.154,0,0,0-7.067-3.971A22.028,22.028,0,0,0,59.17,179.9q-8.776,0-13.07,4.949t-4.3,13.378a14.718,14.718,0,0,0,2.587,8.919,23.223,23.223,0,0,0,6.788,6.11,62.6,62.6,0,0,0,9.607,4.7q5.4,2.139,11.037,4.764a87.992,87.992,0,0,1,11.039,6.17,39.05,39.05,0,0,1,9.606,9.041,44.929,44.929,0,0,1,6.789,13.38,61.346,61.346,0,0,1,2.586,19,79.824,79.824,0,0,1-3.233,23.092,57.814,57.814,0,0,1-9.375,18.754,44.038,44.038,0,0,1-15.149,12.585,44.494,44.494,0,0,1-20.459,4.582,50.248,50.248,0,0,1-12.793-1.71,62.51,62.51,0,0,1-12.608-4.827A67.636,67.636,0,0,1,16.772,315.4a54.7,54.7,0,0,1-5.693-5.23,8.656,8.656,0,0,1-1.227-9.333l6.829-14.271a8.892,8.892,0,0,1,2.863-3.543,6.624,6.624,0,0,1,3.971-1.345A8.837,8.837,0,0,1,29.1,284q2.816,2.323,6.373,5.132a47.492,47.492,0,0,0,8.174,5.131,23.991,23.991,0,0,0,10.9,2.321q8.5,0,13.209-4.948t4.71-15.7a18.08,18.08,0,0,0-2.586-10.141,21.36,21.36,0,0,0-6.789-6.476,53.611,53.611,0,0,0-9.56-4.52q-5.357-1.954-10.992-4.337A70.6,70.6,0,0,1,31.552,244.6a36.976,36.976,0,0,1-9.56-9.164,46.317,46.317,0,0,1-6.79-14.173q-2.587-8.49-2.586-20.954a63.784,63.784,0,0,1,3.048-19.549,53.086,53.086,0,0,1,8.96-16.983,44.394,44.394,0,0,1,14.5-11.913A42.086,42.086,0,0,1,58.8,147.4a56.27,56.27,0,0,1,12.054,1.283,51.448,51.448,0,0,1,11.13,3.788,55.637,55.637,0,0,1,9.837,5.986,48.92,48.92,0,0,1,5.289,4.662,7.068,7.068,0,0,1,1.214,7.353Z" transform="translate(-1.125 -18.375)" fill="#0653ae"/>
              <path id="Path_957414" data-name="Path 957414" d="M205.159,255.938q1.708,5.014,3.279,10.273,1.57-5.381,3.325-10.458t3.6-9.845l34.545-90.02a15.634,15.634,0,0,1,1.893-3.606,6.377,6.377,0,0,1,2.171-1.9,5.9,5.9,0,0,1,2.725-.613h22.924c2.464,0,4.462,2.531,4.462,5.655v165.25c0,3.859-2.469,6.989-5.516,6.989H256.561V225.281q0-7.453.554-16.128l-35.654,91.513a14.76,14.76,0,0,1-4.48,6.476,10.154,10.154,0,0,1-6.42,2.2h-4.249a10.152,10.152,0,0,1-6.42-2.2,14.753,14.753,0,0,1-4.48-6.476l-35.838-91.634q.368,4.276.554,8.491t.185,7.759v97.344c0,2.784-1.781,5.042-3.978,5.042H132.788V155.149c0-2.968,1.9-5.375,4.242-5.375h23.146a5.91,5.91,0,0,1,2.725.613,6.391,6.391,0,0,1,2.17,1.9,15.7,15.7,0,0,1,1.894,3.606L201.6,246.274q1.847,4.651,3.557,9.664" transform="translate(-16.553 -18.67)" fill="#0653ae"/>
              <path id="Path_957415" data-name="Path 957415" d="M453,321.977c.8,2.749-.8,5.673-3.114,5.673H430.456a9.318,9.318,0,0,1-6.7-2.5,13.2,13.2,0,0,1-3.648-6.415L412.168,287.7H361l-7.944,31.034a13.992,13.992,0,0,1-3.6,6.171,8.808,8.808,0,0,1-6.558,2.749H318.506l52.1-178.016h31.96ZM368.2,259.6h36.763l-12.377-48.75q-1.2-4.642-2.818-10.935t-3.186-13.623q-1.478,7.454-3.048,13.806t-2.956,11Z" transform="translate(-39.704 -18.653)" fill="#0653ae"/>
              <path id="Path_957416" data-name="Path 957416" d="M517.718,261.8v65.856H486.5V149.635H530.28q14.594,0,24.893,3.971a43.771,43.771,0,0,1,16.812,11.056,42.994,42.994,0,0,1,9.467,16.739,71.485,71.485,0,0,1,2.956,21.015,73.515,73.515,0,0,1-1.755,16.372,57.537,57.537,0,0,1-5.219,14.234,49.957,49.957,0,0,1-8.5,11.668,43.52,43.52,0,0,1-11.593,8.43,29.381,29.381,0,0,1,10.622,12.585l26.589,57.521c.906,1.959-.209,4.424-2,4.424h-24.22q-7.852,0-11.268-7.82l-22.354-51.681a11.689,11.689,0,0,0-3.464-4.888,9.268,9.268,0,0,0-5.588-1.466Zm0-28.468H530.28a25.034,25.034,0,0,0,10.853-2.138,19.638,19.638,0,0,0,7.343-5.926,24.57,24.57,0,0,0,4.156-8.858,44.132,44.132,0,0,0,1.294-10.935q0-11.729-5.773-18.327t-17.874-6.6H517.718Z" transform="translate(-60.645 -18.653)" fill="#0653ae"/>
              <path id="Path_957417" data-name="Path 957417" d="M716.921,152.856v25.131c0,2.426-1.551,4.392-3.465,4.392H679.05v140.1c0,2.855-1.826,5.169-4.079,5.169H647.829V182.379H609.958V149.635H714.379c1.4,0,2.542,1.442,2.542,3.221" transform="translate(-76.036 -18.653)" fill="#0653ae"/>
              <g id="Group_1122443" data-name="Group 1122443" transform="translate(21.59 53.681)" opacity="0.75">
                <g id="Group_1122442" data-name="Group 1122442">
                  <g id="Group_1122441" data-name="Group 1122441" clip-path="url(#clip-path-7)">
                    <path id="Path_957418" data-name="Path 957418" d="M53.838,117.747c-13.141-.174-23.957-11.88-23.957-26.091S40.7,66.294,53.838,66.8c12.974.5,23.409,12.191,23.409,26.077s-10.435,25.046-23.409,24.874m0-48.022c-11.622-.427-21.175,9.441-21.175,22s9.553,22.921,21.175,23.092c11.492.169,20.746-9.707,20.746-22.013S65.33,70.146,53.838,69.725" transform="translate(-25.315 -62.006)" fill="#8f006f"/>
                    <path id="Path_957419" data-name="Path 957419" d="M55.1,77.5c-8.3-.278-15.084,6.759-15.084,15.721s6.781,16.348,15.084,16.5c8.236.147,14.865-6.894,14.865-15.726S63.338,77.773,55.1,77.5m0,23.431a7.3,7.3,0,0,1-6.829-7.5A6.86,6.86,0,0,1,55.1,86.284a7.307,7.307,0,0,1,6.784,7.5,6.867,6.867,0,0,1-6.784,7.148" transform="translate(-26.579 -63.341)" fill="#8f006f"/>
                    <path id="Path_957420" data-name="Path 957420" d="M57.172,121.856a.574.574,0,0,1-.544-.592V61.891a.54.54,0,0,1,.544-.565.6.6,0,0,1,.544.608v59.342a.558.558,0,0,1-.544.579" transform="translate(-28.649 -61.326)" fill="#8f006f"/>
                    <path id="Path_957421" data-name="Path 957421" d="M80.408,96.992l-55.185-1.4a.6.6,0,0,1-.559-.608.56.56,0,0,1,.559-.579l55.185,1.435a.574.574,0,0,1,.53.592.538.538,0,0,1-.53.565" transform="translate(-24.665 -65.449)" fill="#8f006f"/>
                  </g>
                </g>
              </g>
              <g id="Group_1122446" data-name="Group 1122446" transform="translate(166.769 52.603)" opacity="0.75">
                <g id="Group_1122445" data-name="Group 1122445">
                  <g id="Group_1122444" data-name="Group 1122444" clip-path="url(#clip-path-8)">
                    <path id="Path_957422" data-name="Path 957422" d="M202.642,126.277l-10.614-.133a.615.615,0,0,1-.556-.654V100.243a.59.59,0,0,1,.556-.634l10.614.264a.62.62,0,0,1,.55.657V125.64a.593.593,0,0,1-.55.637" transform="translate(-190.638 -65.02)" fill="#8f006f"/>
                    <path id="Path_957423" data-name="Path 957423" d="M218.825,125.681l-10.474-.13a.611.611,0,0,1-.548-.65V94.033a.581.581,0,0,1,.548-.628l10.474.288a.618.618,0,0,1,.543.655v30.7a.588.588,0,0,1-.543.633" transform="translate(-192.674 -64.246)" fill="#8f006f"/>
                    <path id="Path_957424" data-name="Path 957424" d="M234.795,124.9l-10.336-.13a.6.6,0,0,1-.541-.645V86.388a.575.575,0,0,1,.541-.622l10.336.319a.614.614,0,0,1,.536.652v37.536a.583.583,0,0,1-.536.628" transform="translate(-194.682 -63.294)" fill="#8f006f"/>
                    <path id="Path_957425" data-name="Path 957425" d="M192.025,90.237l-.135,0a1.578,1.578,0,0,1-1.372-1.678A1.456,1.456,0,0,1,191.926,87c.206.01,20.233.642,31.589-17.017a1.2,1.2,0,0,1,1.884-.258,1.813,1.813,0,0,1,.277,2.238c-11.807,18.389-31.64,18.331-33.651,18.276" transform="translate(-190.519 -61.251)" fill="#8f006f"/>
                    <path id="Path_957426" data-name="Path 957426" d="M232.328,74.409a1.547,1.547,0,0,1-1.343-1.639V64.54l-6.55,4.712a1.262,1.262,0,0,1-1.869-.552,1.744,1.744,0,0,1,.41-2.192l8.628-6.192a1.161,1.161,0,0,1,1.367,0,1.731,1.731,0,0,1,.7,1.423V72.867a1.421,1.421,0,0,1-1.341,1.542" transform="translate(-194.487 -60.094)" fill="#8f006f"/>
                  </g>
                </g>
              </g>
              <g id="Group_1122449" data-name="Group 1122449" transform="translate(324.611 56.388)" opacity="0.75">
                <g id="Group_1122448" data-name="Group 1122448">
                  <g id="Group_1122447" data-name="Group 1122447" clip-path="url(#clip-path-9)">
                    <path id="Path_957427" data-name="Path 957427" d="M403.727,122.674l-30.721-.332a2.347,2.347,0,0,1-2.166-2.461V70.244a2.214,2.214,0,0,1,2.166-2.356l6.571.249v2.807l-6.233-.227V119.53l30.055.367V71.813l-6.085-.222V68.808l6.414.243a2.369,2.369,0,0,1,2.1,2.475V120.3a2.234,2.234,0,0,1-2.1,2.373" transform="translate(-370.839 -64.85)" fill="#8f006f"/>
                    <path id="Path_957428" data-name="Path 957428" d="M396.933,74.323l-14.6-.509a2.322,2.322,0,0,1-2.075-2.419v-4.71a2.123,2.123,0,0,1,2.075-2.265l14.6.578a2.306,2.306,0,0,1,2.042,2.405v4.666a2.111,2.111,0,0,1-2.042,2.254m-14.6-8.781a1.107,1.107,0,0,0-1.082,1.181V71.43a1.211,1.211,0,0,0,1.082,1.261l14.6.517A1.1,1.1,0,0,0,398,72.034V67.365a1.2,1.2,0,0,0-1.065-1.254Z" transform="translate(-372.013 -64.418)" fill="#8f006f"/>
                    <path id="Path_957429" data-name="Path 957429" d="M381.146,74.274l-1.044-.993-3.46-.132v43.64l24.941.368V74.1l-3.058-.116-1.345.9Z" transform="translate(-371.562 -65.506)" fill="#8f006f"/>
                    <path id="Path_957430" data-name="Path 957430" d="M388.867,102.832h-.015a1.116,1.116,0,0,1-.9-.442l-4.043-6.082a.71.71,0,0,1,.445-1.066,1.213,1.213,0,0,1,1.4.366l3.151,4.745,7.628-10.506a1.174,1.174,0,0,1,1.387-.279.718.718,0,0,1,.4,1.084l-8.542,11.783a1.091,1.091,0,0,1-.9.4" transform="translate(-372.454 -67.539)" fill="#dbccfc"/>
                  </g>
                </g>
              </g>
              <g id="Group_1122452" data-name="Group 1122452" transform="translate(429.428 63.316)" opacity="0.75">
                <g id="Group_1122451" data-name="Group 1122451">
                  <g id="Group_1122450" data-name="Group 1122450" clip-path="url(#clip-path-10)">
                    <path id="Path_957431" data-name="Path 957431" d="M514.555,98.271c-.033-14.008,12.21-25.7,27.293-25.935S569,83.418,568.757,97.431c-.242,13.871-12.482,25.239-27.289,25.468s-26.88-10.761-26.913-24.628m50.694-.786c.2-12.19-10.312-22.022-23.425-21.819S518.05,86.03,518.064,98.217c.013,12.08,10.522,21.666,23.428,21.465s23.562-10.115,23.757-22.2" transform="translate(-493.571 -72.333)" fill="#8f006f"/>
                    <path id="Path_957432" data-name="Path 957432" d="M490.583,98.643c-.033-14.008,12.21-25.7,27.293-25.935S545.029,83.79,544.785,97.8c-.242,13.871-12.482,25.239-27.289,25.468s-26.88-10.761-26.913-24.628m50.694-.786c.2-12.19-10.312-22.022-23.426-21.819S494.078,86.4,494.092,98.589c.013,12.08,10.523,21.666,23.428,21.465s23.562-10.115,23.757-22.2" transform="translate(-490.583 -72.379)" fill="#8f006f"/>
                    <rect id="Rectangle_416131" data-name="Rectangle 416131" width="1.546" height="27.881" transform="translate(33.315 7.154) rotate(-41.3)" fill="#8f006f"/>
                    <rect id="Rectangle_416132" data-name="Rectangle 416132" width="1.546" height="32.75" transform="translate(27.841 10.554) rotate(-40.224)" fill="#8f006f"/>
                    <rect id="Rectangle_416133" data-name="Rectangle 416133" width="1.546" height="32.75" transform="matrix(0.764, -0.646, 0.646, 0.764, 24.166, 16.867)" fill="#8f006f"/>
                    <rect id="Rectangle_416134" data-name="Rectangle 416134" width="1.546" height="26.052" transform="matrix(0.764, -0.646, 0.646, 0.764, 23.262, 26.007)" fill="#8f006f"/>
                  </g>
                </g>
              </g>
              <g id="Group_1122455" data-name="Group 1122455" transform="translate(557.601 60.112)" opacity="0.75">
                <g id="Group_1122454" data-name="Group 1122454">
                  <g id="Group_1122453" data-name="Group 1122453" clip-path="url(#clip-path-11)">
                    <path id="Path_957433" data-name="Path 957433" d="M663.823,122.771c-14.719-.16-26.814-12.545-26.814-27.607a26.142,26.142,0,0,1,26.814-26.477c14.557.455,26.283,12.833,26.283,27.6a26.176,26.176,0,0,1-26.283,26.489m0-50.976a23.138,23.138,0,0,0-23.7,23.434c0,13.315,10.686,24.276,23.7,24.433a23.164,23.164,0,0,0,23.288-23.443c0-13.081-10.4-24.036-23.288-24.424" transform="translate(-637.009 -68.673)" fill="#8f006f"/>
                    <path id="Path_957434" data-name="Path 957434" d="M679.376,113.343a1.269,1.269,0,0,1-.816-.333l-14.809-12.977V79.214a1.584,1.584,0,0,1,1.454-1.743,1.717,1.717,0,0,1,1.453,1.84V98.229l13.536,11.885a2.081,2.081,0,0,1,.365,2.485,1.345,1.345,0,0,1-1.183.745" transform="translate(-640.343 -69.77)" fill="#8f006f"/>
                  </g>
                </g>
              </g>
            </g>
          </g>
        </g>
      </g>
      <path id="Path_957965" data-name="Path 957965" d="M18.992,12.07h-4.5v3.047h5.281V17H12.148V5.625h7.609v1.9H14.492v2.711h4.5Zm6.586,2.594a.727.727,0,0,0-.41-.652,4.659,4.659,0,0,0-1.316-.426q-3.016-.633-3.016-2.562a2.323,2.323,0,0,1,.934-1.879,3.766,3.766,0,0,1,2.441-.754,4.053,4.053,0,0,1,2.574.758,2.388,2.388,0,0,1,.965,1.969H25.492a1.092,1.092,0,0,0-.312-.8A1.322,1.322,0,0,0,24.2,10a1.351,1.351,0,0,0-.883.258.814.814,0,0,0-.312.656.7.7,0,0,0,.355.605,3.657,3.657,0,0,0,1.2.4,9.8,9.8,0,0,1,1.422.379,2.336,2.336,0,0,1,1.789,2.273,2.2,2.2,0,0,1-.992,1.871,4.28,4.28,0,0,1-2.562.715,4.47,4.47,0,0,1-1.887-.379,3.166,3.166,0,0,1-1.293-1.039,2.414,2.414,0,0,1-.469-1.426h2.141a1.179,1.179,0,0,0,.445.922,1.766,1.766,0,0,0,1.109.32,1.635,1.635,0,0,0,.98-.246A.766.766,0,0,0,25.578,14.664Zm11.258-1.812a5.07,5.07,0,0,1-.887,3.129,2.843,2.843,0,0,1-2.395,1.176,2.633,2.633,0,0,1-2.07-.891V20.25H29.227V8.547H31.32l.078.828a2.654,2.654,0,0,1,2.141-.984,2.862,2.862,0,0,1,2.43,1.156,5.207,5.207,0,0,1,.867,3.188Zm-2.258-.164a3.327,3.327,0,0,0-.418-1.82,1.361,1.361,0,0,0-1.215-.641,1.479,1.479,0,0,0-1.461.813V14.5a1.5,1.5,0,0,0,1.477.836Q34.578,15.336,34.578,12.688Zm7.547,4.469A4.15,4.15,0,0,1,39.1,16.016a4.054,4.054,0,0,1-1.168-3.039v-.219a5.106,5.106,0,0,1,.492-2.277,3.612,3.612,0,0,1,1.395-1.547,3.914,3.914,0,0,1,2.059-.543,3.508,3.508,0,0,1,2.73,1.094,4.444,4.444,0,0,1,1,3.1v.922H40.219a2.1,2.1,0,0,0,.66,1.328,2,2,0,0,0,1.395.5,2.437,2.437,0,0,0,2.039-.945l1.109,1.242a3.389,3.389,0,0,1-1.375,1.121A4.511,4.511,0,0,1,42.125,17.156Zm-.258-6.945a1.411,1.411,0,0,0-1.09.455,2.357,2.357,0,0,0-.535,1.3h3.141v-.181a1.681,1.681,0,0,0-.406-1.165A1.456,1.456,0,0,0,41.867,10.211ZM50.4,15.336a1.481,1.481,0,0,0,1.016-.344,1.2,1.2,0,0,0,.406-.914h2.117a2.9,2.9,0,0,1-.469,1.574,3.093,3.093,0,0,1-1.262,1.109,3.949,3.949,0,0,1-1.77.395A3.67,3.67,0,0,1,47.578,16a4.56,4.56,0,0,1-1.047-3.184v-.148A4.508,4.508,0,0,1,47.57,9.555a3.627,3.627,0,0,1,2.852-1.164,3.555,3.555,0,0,1,2.543.9,3.2,3.2,0,0,1,.973,2.4H51.82a1.551,1.551,0,0,0-.406-1.072,1.51,1.51,0,0,0-2.223.163,3.333,3.333,0,0,0-.4,1.866v.235a3.375,3.375,0,0,0,.4,1.878A1.377,1.377,0,0,0,50.4,15.336ZM57.664,17H55.406V8.547h2.258ZM57,5.117h2.461L57.3,7.539H55.461ZM60.156,17V10.2H58.9V8.547h1.258V8.156a3.17,3.17,0,0,1,.98-2.457,3.945,3.945,0,0,1,2.723-.863,9.031,9.031,0,0,1,2.563.461l-.328,1.867a10,10,0,0,0-1.187-.293A5.835,5.835,0,0,0,64,6.8q-1.578,0-1.578,1.4v.344h1.664V10.2H62.422V17Zm7.32,0H65.211V8.547h2.266Zm5.383-1.664a1.481,1.481,0,0,0,1.016-.344,1.2,1.2,0,0,0,.406-.914H76.4a2.9,2.9,0,0,1-.469,1.574,3.093,3.093,0,0,1-1.262,1.109,3.949,3.949,0,0,1-1.77.395A3.67,3.67,0,0,1,70.039,16a4.56,4.56,0,0,1-1.047-3.184v-.148a4.508,4.508,0,0,1,1.039-3.117,3.627,3.627,0,0,1,2.852-1.164,3.555,3.555,0,0,1,2.543.9,3.2,3.2,0,0,1,.973,2.4H74.281a1.551,1.551,0,0,0-.406-1.072,1.51,1.51,0,0,0-2.223.163,3.333,3.333,0,0,0-.4,1.866v.235a3.375,3.375,0,0,0,.4,1.878A1.377,1.377,0,0,0,72.859,15.336ZM77.336,12.7a5.013,5.013,0,0,1,.484-2.242A3.546,3.546,0,0,1,79.215,8.93a4.069,4.069,0,0,1,2.113-.539,3.849,3.849,0,0,1,2.793,1.047,4.2,4.2,0,0,1,1.207,2.844l.016.578a4.418,4.418,0,0,1-1.086,3.121,4.209,4.209,0,0,1-5.832,0,4.5,4.5,0,0,1-1.09-3.187Zm2.258.16a3.16,3.16,0,0,0,.453,1.843,1.628,1.628,0,0,0,2.578.008,3.457,3.457,0,0,0,.461-2.015,3.128,3.128,0,0,0-.461-1.831,1.5,1.5,0,0,0-1.3-.649,1.474,1.474,0,0,0-1.281.646A3.516,3.516,0,0,0,79.594,12.856ZM15.781,34.375a11.9,11.9,0,0,1,.484-3.426,9.4,9.4,0,0,1,1.422-2.9,5.646,5.646,0,0,1,1.984-1.793l.375,1.109a5.8,5.8,0,0,0-1.785,2.551,11.424,11.424,0,0,0-.746,3.926l-.008.672a12.42,12.42,0,0,0,.668,4.223,6.224,6.224,0,0,0,1.871,2.824l-.375,1.055a5.655,5.655,0,0,1-1.988-1.8,9.4,9.4,0,0,1-1.422-2.9A12.374,12.374,0,0,1,15.781,34.375Zm11.172,1.641q.172-1.125-1.227-1.672l-.633-.234a5.912,5.912,0,0,1-2.508-1.461,2.613,2.613,0,0,1-.672-1.961,2.949,2.949,0,0,1,.66-1.707,3.85,3.85,0,0,1,1.574-1.137,5.152,5.152,0,0,1,2.078-.375,4.157,4.157,0,0,1,1.891.465,3.059,3.059,0,0,1,1.266,1.227,3.4,3.4,0,0,1,.406,1.793l-1.922-.008a1.611,1.611,0,0,0-1.75-1.9,2.524,2.524,0,0,0-1.543.43,1.719,1.719,0,0,0-.738,1.2q-.156.992,1.328,1.563l.586.211a5.688,5.688,0,0,1,2.5,1.5A2.777,2.777,0,0,1,28.875,36a3.077,3.077,0,0,1-.633,1.676,3.554,3.554,0,0,1-1.535,1.105,5.583,5.583,0,0,1-2.16.375,4.494,4.494,0,0,1-2.027-.469,3.247,3.247,0,0,1-1.84-3.133l1.93.008a1.811,1.811,0,0,0,.477,1.492,2.182,2.182,0,0,0,1.547.539,2.7,2.7,0,0,0,1.566-.4A1.673,1.673,0,0,0,26.953,36.016ZM37.844,34.8a6.959,6.959,0,0,1-.676,2.3,3.92,3.92,0,0,1-1.32,1.559,3.052,3.052,0,0,1-1.793.5,2.652,2.652,0,0,1-2.078-.937l-.758,4.023H29.359l2.031-11.7,1.7-.008-.141.875a2.927,2.927,0,0,1,2.3-1.023,2.477,2.477,0,0,1,1.4.41,2.532,2.532,0,0,1,.91,1.168,4.734,4.734,0,0,1,.34,1.7A10.386,10.386,0,0,1,37.844,34.8Zm-1.828-.164.039-.57a2.769,2.769,0,0,0-.332-1.562,1.217,1.217,0,0,0-1.066-.57,2.155,2.155,0,0,0-1.812.961l-.656,3.773a1.432,1.432,0,0,0,1.43.977,1.888,1.888,0,0,0,1.551-.719A4.5,4.5,0,0,0,36.016,34.641Zm6.555,4.516a3.541,3.541,0,0,1-1.91-.555,3.156,3.156,0,0,1-1.2-1.453,4.32,4.32,0,0,1-.293-2.055l.023-.32a5.657,5.657,0,0,1,.754-2.316A4.3,4.3,0,0,1,41.477,30.9a3.713,3.713,0,0,1,1.984-.508,2.769,2.769,0,0,1,2.379,1.182,4.337,4.337,0,0,1,.6,3l-.109.814h-5.32A2.3,2.3,0,0,0,41.414,37a1.61,1.61,0,0,0,1.313.631,2.847,2.847,0,0,0,2.2-1.039l.938.984a3.563,3.563,0,0,1-1.4,1.176A4.166,4.166,0,0,1,42.57,39.156Zm.789-7.25q-1.469-.047-2.2,2.078l3.508.008.031-.164a2.451,2.451,0,0,0,.008-.7,1.438,1.438,0,0,0-.437-.875A1.385,1.385,0,0,0,43.359,31.906Zm7.477,5.742a1.81,1.81,0,0,0,1.828-1.437l1.75-.008a2.993,2.993,0,0,1-.605,1.523,3.52,3.52,0,0,1-1.332,1.07,3.7,3.7,0,0,1-1.7.359,3.184,3.184,0,0,1-1.852-.562,3.11,3.11,0,0,1-1.117-1.512,4.836,4.836,0,0,1-.234-2.152l.023-.273a5.531,5.531,0,0,1,.715-2.223,4.173,4.173,0,0,1,1.5-1.535,3.766,3.766,0,0,1,2.047-.508,2.957,2.957,0,0,1,2.2.91,3.215,3.215,0,0,1,.82,2.285H53.148a1.889,1.889,0,0,0-.355-1.187,1.3,1.3,0,0,0-1.027-.492,1.876,1.876,0,0,0-1.711.922,5.146,5.146,0,0,0-.672,2.688Q49.328,37.617,50.836,37.648ZM57.32,39H55.469l1.469-8.453h1.852ZM57.2,28.383a1.044,1.044,0,0,1,.281-.734,1.03,1.03,0,0,1,.758-.32.985.985,0,0,1,.754.277.96.96,0,0,1,.3.715.988.988,0,0,1-.293.734,1.074,1.074,0,0,1-.746.3,1,1,0,0,1-.75-.27A.929.929,0,0,1,57.2,28.383ZM59.883,39,61.1,31.953h-1.25l.25-1.406,1.188.008.109-.633a3.769,3.769,0,0,1,1.258-2.3,3.662,3.662,0,0,1,2.508-.789,5.067,5.067,0,0,1,1.191.156q.582.148,1.16.328l-.445,1.563a4.965,4.965,0,0,0-1.859-.4,1.776,1.776,0,0,0-1.969,1.563l-.1.516,1.68-.008-.25,1.406H62.961L61.734,39ZM66.4,39H64.539l1.469-8.453h1.852Zm5.789-1.352a1.81,1.81,0,0,0,1.828-1.437l1.75-.008a2.993,2.993,0,0,1-.605,1.523,3.52,3.52,0,0,1-1.332,1.07,3.7,3.7,0,0,1-1.7.359,3.184,3.184,0,0,1-1.852-.562,3.11,3.11,0,0,1-1.117-1.512,4.836,4.836,0,0,1-.234-2.152l.023-.273a5.531,5.531,0,0,1,.715-2.223,4.173,4.173,0,0,1,1.5-1.535,3.766,3.766,0,0,1,2.047-.508,2.957,2.957,0,0,1,2.2.91,3.215,3.215,0,0,1,.82,2.285H74.5a1.889,1.889,0,0,0-.355-1.187,1.3,1.3,0,0,0-1.027-.492,1.876,1.876,0,0,0-1.711.922,5.146,5.146,0,0,0-.672,2.688Q70.68,37.617,72.188,37.648ZM81.211,34.5a11.754,11.754,0,0,1-.477,3.348,9.485,9.485,0,0,1-1.445,2.938,5.66,5.66,0,0,1-2.023,1.832l-.375-1.055a6,6,0,0,0,1.855-2.77,12.3,12.3,0,0,0,.684-4.254v-.18a12.484,12.484,0,0,0-.594-3.957,6.98,6.98,0,0,0-1.7-2.863l-.242-.219.375-1.062A5.6,5.6,0,0,1,79.2,27.977a9.326,9.326,0,0,1,1.438,2.762,11.5,11.5,0,0,1,.563,3.152Z" transform="translate(328.281 782.271)" fill="#182e68"/>
      <path id="Path_957966" data-name="Path 957966" d="M48.668,5.625l2.922,8.25L54.5,5.625h3.078V17H55.223V13.891l.234-5.367L52.387,17H50.777L47.715,8.531l.234,5.359V17H45.605V5.625Zm14.7,11.531a4.15,4.15,0,0,1-3.027-1.141,4.054,4.054,0,0,1-1.168-3.039v-.219a5.106,5.106,0,0,1,.492-2.277,3.612,3.612,0,0,1,1.395-1.547,3.914,3.914,0,0,1,2.059-.543,3.508,3.508,0,0,1,2.73,1.094,4.444,4.444,0,0,1,1,3.1v.922H61.457a2.1,2.1,0,0,0,.66,1.328,2,2,0,0,0,1.395.5,2.437,2.437,0,0,0,2.039-.945l1.109,1.242a3.389,3.389,0,0,1-1.375,1.121A4.511,4.511,0,0,1,63.363,17.156Zm-.258-6.945a1.411,1.411,0,0,0-1.09.455,2.357,2.357,0,0,0-.535,1.3h3.141v-.181a1.681,1.681,0,0,0-.406-1.165A1.456,1.456,0,0,0,63.105,10.211Zm4.664,2.5a5.094,5.094,0,0,1,.887-3.148,2.877,2.877,0,0,1,2.426-1.172,2.589,2.589,0,0,1,2.039.922V5h2.266V17H73.348l-.109-.9a2.657,2.657,0,0,1-2.172,1.055,2.869,2.869,0,0,1-2.395-1.176A5.258,5.258,0,0,1,67.77,12.711Zm2.258.168a3.337,3.337,0,0,0,.414,1.823,1.349,1.349,0,0,0,1.2.634,1.511,1.511,0,0,0,1.477-.884V11.111a1.489,1.489,0,0,0-1.461-.884Q70.027,10.227,70.027,12.879ZM79.52,17H77.254V8.547H79.52Zm-2.4-10.641a1.112,1.112,0,0,1,.34-.836,1.465,1.465,0,0,1,1.848,0,1.105,1.105,0,0,1,.344.836A1.108,1.108,0,0,1,79.3,7.2a1.448,1.448,0,0,1-1.836,0A1.108,1.108,0,0,1,77.121,6.359ZM89,12.852a5.119,5.119,0,0,1-.867,3.168,2.872,2.872,0,0,1-2.422,1.137,2.639,2.639,0,0,1-2.2-1.055l-.1.9H81.379V5h2.258V9.3a2.571,2.571,0,0,1,2.055-.914,2.9,2.9,0,0,1,2.426,1.137,5.126,5.126,0,0,1,.879,3.2Zm-2.258-.164a3.363,3.363,0,0,0-.406-1.871,1.374,1.374,0,0,0-1.211-.59,1.489,1.489,0,0,0-1.484.883v3.336a1.509,1.509,0,0,0,1.5.891,1.394,1.394,0,0,0,1.438-1.078A5.562,5.562,0,0,0,86.738,12.688ZM92.77,17H90.5V5H92.77Zm5.75.156a4.15,4.15,0,0,1-3.027-1.141,4.054,4.054,0,0,1-1.168-3.039v-.219a5.106,5.106,0,0,1,.492-2.277,3.612,3.612,0,0,1,1.395-1.547,3.914,3.914,0,0,1,2.059-.543A3.508,3.508,0,0,1,101,9.484a4.444,4.444,0,0,1,1,3.1v.922H96.613a2.1,2.1,0,0,0,.66,1.328,2,2,0,0,0,1.395.5,2.437,2.437,0,0,0,2.039-.945l1.109,1.242a3.389,3.389,0,0,1-1.375,1.121A4.511,4.511,0,0,1,98.52,17.156Zm-.258-6.945a1.411,1.411,0,0,0-1.09.455,2.357,2.357,0,0,0-.535,1.3h3.141v-.181a1.681,1.681,0,0,0-.406-1.165A1.456,1.456,0,0,0,98.262,10.211ZM27.707,34.375a11.9,11.9,0,0,1,.484-3.426,9.4,9.4,0,0,1,1.422-2.9A5.646,5.646,0,0,1,31.6,26.258l.375,1.109a5.8,5.8,0,0,0-1.785,2.551,11.424,11.424,0,0,0-.746,3.926l-.008.672a12.42,12.42,0,0,0,.668,4.223,6.224,6.224,0,0,0,1.871,2.824L31.6,42.617a5.655,5.655,0,0,1-1.988-1.8,9.4,9.4,0,0,1-1.422-2.9A12.374,12.374,0,0,1,27.707,34.375Zm9.313-6.75,1.664,8.7,4.68-8.7h2.531L43.926,39H42l.664-3.852,1.008-4.742L38.988,39H37.6l-1.742-8.852-.711,5.2L34.512,39H32.59l1.977-11.375ZM49.9,39.156a3.541,3.541,0,0,1-1.91-.555,3.156,3.156,0,0,1-1.2-1.453,4.32,4.32,0,0,1-.293-2.055l.023-.32a5.657,5.657,0,0,1,.754-2.316A4.3,4.3,0,0,1,48.809,30.9a3.713,3.713,0,0,1,1.984-.508,2.769,2.769,0,0,1,2.379,1.182,4.337,4.337,0,0,1,.6,3l-.109.814H48.34A2.3,2.3,0,0,0,48.746,37a1.61,1.61,0,0,0,1.313.631,2.847,2.847,0,0,0,2.2-1.039l.938.984a3.563,3.563,0,0,1-1.4,1.176A4.166,4.166,0,0,1,49.9,39.156Zm.789-7.25q-1.469-.047-2.2,2.078L52,33.992l.031-.164a2.451,2.451,0,0,0,.008-.7,1.438,1.438,0,0,0-.437-.875A1.385,1.385,0,0,0,50.691,31.906ZM59.5,39a2.507,2.507,0,0,1-.078-.789,3.134,3.134,0,0,1-2.258.945,2.589,2.589,0,0,1-1.824-.707,2.18,2.18,0,0,1-.676-1.754,2.588,2.588,0,0,1,1.156-2.1,5.034,5.034,0,0,1,2.938-.766l1.2.016.109-.578a1.744,1.744,0,0,0,0-.57,1.017,1.017,0,0,0-1.117-.867,1.685,1.685,0,0,0-1.043.3,1.3,1.3,0,0,0-.551.848l-1.852.016a2.318,2.318,0,0,1,.555-1.371,3.289,3.289,0,0,1,1.328-.918,4.5,4.5,0,0,1,1.75-.312,2.956,2.956,0,0,1,2.156.832,2.466,2.466,0,0,1,.641,2.074l-.648,3.961-.062.7a2.5,2.5,0,0,0,.117.9L61.34,39ZM57.6,37.641a2.041,2.041,0,0,0,1.086-.27,2.861,2.861,0,0,0,.852-.738l.289-1.6-.883-.008a3.1,3.1,0,0,0-1.672.395,1.447,1.447,0,0,0-.711,1.082.957.957,0,0,0,.23.824A1.127,1.127,0,0,0,57.6,37.641Zm10.414-.984q.133-.773-1-1.074a12.763,12.763,0,0,1-1.551-.48A2.138,2.138,0,0,1,63.9,33.008a2.378,2.378,0,0,1,1.035-1.887,3.794,3.794,0,0,1,2.387-.73,3.266,3.266,0,0,1,2.191.758,2.417,2.417,0,0,1,.832,1.945l-1.836-.008a1.185,1.185,0,0,0-.32-.918,1.307,1.307,0,0,0-.922-.348,1.817,1.817,0,0,0-1.059.3,1.135,1.135,0,0,0-.512.8q-.109.711,1,.988a10.975,10.975,0,0,1,1.641.512,2.14,2.14,0,0,1,1.492,2.125,2.336,2.336,0,0,1-.527,1.4A3.077,3.077,0,0,1,68,38.863a4.477,4.477,0,0,1-1.742.293,3.437,3.437,0,0,1-2.293-.8,2.512,2.512,0,0,1-.895-2.023l1.789.008a1.361,1.361,0,0,0,.406,1.031,1.57,1.57,0,0,0,1.07.359,2.126,2.126,0,0,0,1.145-.285A1.094,1.094,0,0,0,68.012,36.656Zm8.258,1.508a3.066,3.066,0,0,1-2.406.992A2.355,2.355,0,0,1,72.5,38.75a2.113,2.113,0,0,1-.773-1.09,3.99,3.99,0,0,1-.137-1.645l.914-5.469h1.852l-.922,5.492a2.911,2.911,0,0,0-.008.563.95.95,0,0,0,.977,1.008,2.236,2.236,0,0,0,1.984-.984l1.063-6.078H79.3L77.84,39H76.105Zm9.008-5.883a3.411,3.411,0,0,0-.727-.078,2.168,2.168,0,0,0-1.937,1.008L81.6,39H79.746l1.461-8.453,1.758-.008-.187.961a2.419,2.419,0,0,1,2-1.125,3.039,3.039,0,0,1,.711.117ZM90.066,39a2.507,2.507,0,0,1-.078-.789,3.134,3.134,0,0,1-2.258.945,2.589,2.589,0,0,1-1.824-.707A2.18,2.18,0,0,1,85.23,36.7a2.588,2.588,0,0,1,1.156-2.1,5.034,5.034,0,0,1,2.938-.766l1.2.016.109-.578a1.744,1.744,0,0,0,0-.57,1.017,1.017,0,0,0-1.117-.867,1.685,1.685,0,0,0-1.043.3,1.3,1.3,0,0,0-.551.848l-1.852.016a2.318,2.318,0,0,1,.555-1.371,3.289,3.289,0,0,1,1.328-.918,4.5,4.5,0,0,1,1.75-.312,2.956,2.956,0,0,1,2.156.832A2.466,2.466,0,0,1,92.5,33.3l-.648,3.961-.062.7a2.5,2.5,0,0,0,.117.9L91.9,39ZM88.16,37.641a2.041,2.041,0,0,0,1.086-.27,2.861,2.861,0,0,0,.852-.738l.289-1.6-.883-.008a3.1,3.1,0,0,0-1.672.395,1.447,1.447,0,0,0-.711,1.082.957.957,0,0,0,.23.824A1.127,1.127,0,0,0,88.16,37.641Zm13.289-2.828a6.878,6.878,0,0,1-.691,2.332,3.826,3.826,0,0,1-1.328,1.543,3.133,3.133,0,0,1-1.785.477,2.485,2.485,0,0,1-2.133-1.086l-.3.922h-1.7L95.6,27h1.859l-.844,4.367a2.872,2.872,0,0,1,2.242-.977,2.4,2.4,0,0,1,1.918.9,3.878,3.878,0,0,1,.73,2.375A10.892,10.892,0,0,1,101.449,34.813Zm-1.781-1.047a2.218,2.218,0,0,0-.352-1.332,1.22,1.22,0,0,0-1.016-.5,2.178,2.178,0,0,0-1.891,1.078l-.609,3.5a1.475,1.475,0,0,0,1.477,1.1A1.841,1.841,0,0,0,98.82,36.9,4.075,4.075,0,0,0,99.6,34.8Q99.66,34.141,99.668,33.766ZM104.3,39h-1.852l2.086-12h1.852Zm5.9.156a3.541,3.541,0,0,1-1.91-.555,3.156,3.156,0,0,1-1.2-1.453,4.32,4.32,0,0,1-.293-2.055l.023-.32a5.657,5.657,0,0,1,.754-2.316,4.3,4.3,0,0,1,1.527-1.559,3.713,3.713,0,0,1,1.984-.508,2.769,2.769,0,0,1,2.379,1.182,4.337,4.337,0,0,1,.6,3l-.109.814h-5.32A2.3,2.3,0,0,0,109.043,37a1.61,1.61,0,0,0,1.313.631,2.847,2.847,0,0,0,2.2-1.039l.938.984a3.563,3.563,0,0,1-1.4,1.176A4.166,4.166,0,0,1,110.2,39.156Zm.789-7.25q-1.469-.047-2.2,2.078l3.508.008.031-.164a2.451,2.451,0,0,0,.008-.7,1.437,1.437,0,0,0-.437-.875A1.385,1.385,0,0,0,110.988,31.906Zm8.3,2.594a11.754,11.754,0,0,1-.477,3.348,9.485,9.485,0,0,1-1.445,2.938,5.66,5.66,0,0,1-2.023,1.832l-.375-1.055a6,6,0,0,0,1.855-2.77,12.3,12.3,0,0,0,.684-4.254v-.18a12.484,12.484,0,0,0-.594-3.957,6.98,6.98,0,0,0-1.7-2.863l-.242-.219.375-1.062a5.6,5.6,0,0,1,1.938,1.719,9.326,9.326,0,0,1,1.438,2.762,11.5,11.5,0,0,1,.563,3.152Z" transform="translate(441.668 782.271)" fill="#182e68"/>
      <path id="Path_957967" data-name="Path 957967" d="M34.684,14.656H30.574L29.793,17H27.3L31.535,5.625h2.172L37.965,17H35.473Zm-3.477-1.9h2.844L32.621,8.5ZM41.262,17H39V5h2.266Zm5.375-1.664a1.481,1.481,0,0,0,1.016-.344,1.2,1.2,0,0,0,.406-.914h2.117a2.9,2.9,0,0,1-.469,1.574,3.093,3.093,0,0,1-1.262,1.109,3.949,3.949,0,0,1-1.77.395A3.67,3.67,0,0,1,43.816,16,4.56,4.56,0,0,1,42.77,12.82v-.148a4.508,4.508,0,0,1,1.039-3.117A3.627,3.627,0,0,1,46.66,8.391a3.555,3.555,0,0,1,2.543.9,3.2,3.2,0,0,1,.973,2.4H48.059a1.551,1.551,0,0,0-.406-1.072,1.51,1.51,0,0,0-2.223.163,3.333,3.333,0,0,0-.4,1.866v.235a3.375,3.375,0,0,0,.4,1.878A1.377,1.377,0,0,0,46.637,15.336ZM56.363,17a2.507,2.507,0,0,1-.227-.758A2.732,2.732,0,0,1,54,17.156a3,3,0,0,1-2.059-.719,2.312,2.312,0,0,1-.816-1.812,2.389,2.389,0,0,1,1-2.062A4.915,4.915,0,0,1,55,11.836h1.039v-.484a1.393,1.393,0,0,0-.3-.937,1.183,1.183,0,0,0-.949-.352,1.345,1.345,0,0,0-.895.273.929.929,0,0,0-.324.75H51.316a2.268,2.268,0,0,1,.453-1.359,3,3,0,0,1,1.281-.98,4.669,4.669,0,0,1,1.859-.355,3.689,3.689,0,0,1,2.48.785,2.747,2.747,0,0,1,.918,2.207v3.664a4.041,4.041,0,0,0,.336,1.82V17ZM54.5,15.43a1.945,1.945,0,0,0,.922-.223,1.462,1.462,0,0,0,.625-.6V13.156H55.2q-1.7,0-1.8,1.172l-.008.133a.9.9,0,0,0,.3.7A1.153,1.153,0,0,0,54.5,15.43Zm7.625-6.883.07.977a2.951,2.951,0,0,1,2.43-1.133,2.453,2.453,0,0,1,2,.789,3.682,3.682,0,0,1,.672,2.359V17H65.035V11.594a1.465,1.465,0,0,0-.312-1.043,1.4,1.4,0,0,0-1.039-.324,1.553,1.553,0,0,0-1.43.813V17H60V8.547ZM71.6,15.18H75.73V17H68.715V15.625l3.977-5.258H68.832V8.547h6.773v1.33ZM82.043,17a2.507,2.507,0,0,1-.227-.758,2.732,2.732,0,0,1-2.133.914,3,3,0,0,1-2.059-.719,2.312,2.312,0,0,1-.816-1.812,2.389,2.389,0,0,1,1-2.062,4.915,4.915,0,0,1,2.879-.727h1.039v-.484a1.393,1.393,0,0,0-.3-.937,1.183,1.183,0,0,0-.949-.352,1.345,1.345,0,0,0-.895.273.929.929,0,0,0-.324.75H77a2.268,2.268,0,0,1,.453-1.359,3,3,0,0,1,1.281-.98,4.669,4.669,0,0,1,1.859-.355,3.689,3.689,0,0,1,2.48.785,2.747,2.747,0,0,1,.918,2.207v3.664a4.041,4.041,0,0,0,.336,1.82V17Zm-1.867-1.57a1.945,1.945,0,0,0,.922-.223,1.462,1.462,0,0,0,.625-.6V13.156h-.844q-1.7,0-1.8,1.172l-.008.133a.9.9,0,0,0,.3.7A1.153,1.153,0,0,0,80.176,15.43ZM93.34,12.852a5.119,5.119,0,0,1-.867,3.168,2.872,2.872,0,0,1-2.422,1.137,2.639,2.639,0,0,1-2.2-1.055l-.1.9H85.723V5H87.98V9.3a2.571,2.571,0,0,1,2.055-.914,2.9,2.9,0,0,1,2.426,1.137,5.126,5.126,0,0,1,.879,3.2Zm-2.258-.164a3.363,3.363,0,0,0-.406-1.871,1.374,1.374,0,0,0-1.211-.59,1.489,1.489,0,0,0-1.484.883v3.336a1.509,1.509,0,0,0,1.5.891,1.394,1.394,0,0,0,1.438-1.078A5.562,5.562,0,0,0,91.082,12.688ZM97.113,17H94.848V5h2.266Zm5.75.156a4.15,4.15,0,0,1-3.027-1.141,4.054,4.054,0,0,1-1.168-3.039v-.219a5.106,5.106,0,0,1,.492-2.277,3.612,3.612,0,0,1,1.395-1.547,3.914,3.914,0,0,1,2.059-.543,3.508,3.508,0,0,1,2.73,1.094,4.444,4.444,0,0,1,1,3.1v.922h-5.383a2.1,2.1,0,0,0,.66,1.328,2,2,0,0,0,1.395.5,2.437,2.437,0,0,0,2.039-.945l1.109,1.242a3.389,3.389,0,0,1-1.375,1.121A4.511,4.511,0,0,1,102.863,17.156Zm-.258-6.945a1.411,1.411,0,0,0-1.09.455,2.357,2.357,0,0,0-.535,1.3h3.141v-.181a1.681,1.681,0,0,0-.406-1.165A1.456,1.456,0,0,0,102.605,10.211ZM23.879,34.375a11.9,11.9,0,0,1,.484-3.426,9.4,9.4,0,0,1,1.422-2.9,5.646,5.646,0,0,1,1.984-1.793l.375,1.109a5.8,5.8,0,0,0-1.785,2.551,11.424,11.424,0,0,0-.746,3.926l-.008.672a12.42,12.42,0,0,0,.668,4.223,6.224,6.224,0,0,0,1.871,2.824l-.375,1.055a5.655,5.655,0,0,1-1.988-1.8,9.4,9.4,0,0,1-1.422-2.9A12.374,12.374,0,0,1,23.879,34.375Zm11.555,1.977H31.176L29.816,39H27.738l6.141-11.375h1.734L37.816,39H35.879Zm-3.445-1.594h3.188l-.773-4.7Zm10.688,2.891A1.81,1.81,0,0,0,44.5,36.211l1.75-.008a2.993,2.993,0,0,1-.605,1.523,3.52,3.52,0,0,1-1.332,1.07,3.7,3.7,0,0,1-1.7.359,3.184,3.184,0,0,1-1.852-.562,3.11,3.11,0,0,1-1.117-1.512,4.836,4.836,0,0,1-.234-2.152l.023-.273a5.531,5.531,0,0,1,.715-2.223,4.173,4.173,0,0,1,1.5-1.535,3.766,3.766,0,0,1,2.047-.508,2.957,2.957,0,0,1,2.2.91,3.215,3.215,0,0,1,.82,2.285H44.988a1.889,1.889,0,0,0-.355-1.187,1.3,1.3,0,0,0-1.027-.492,1.876,1.876,0,0,0-1.711.922,5.146,5.146,0,0,0-.672,2.688Q41.168,37.617,42.676,37.648Zm7.57-6.172a3.124,3.124,0,0,1,2.4-1.078,2.062,2.062,0,0,1,1.785.852,3.381,3.381,0,0,1,.434,2.313L53.957,39H52.105l.922-5.461a3.191,3.191,0,0,0,.016-.625,1.012,1.012,0,0,0-1.125-.977,2.284,2.284,0,0,0-1.844,1.016L49.02,39H47.168l2.078-12h1.859ZM57.855,39H56l1.469-8.453h1.852Zm-.117-10.617a1.044,1.044,0,0,1,.281-.734,1.03,1.03,0,0,1,.758-.32.985.985,0,0,1,.754.277.96.96,0,0,1,.3.715.988.988,0,0,1-.293.734,1.074,1.074,0,0,1-.746.3,1,1,0,0,1-.75-.27A.929.929,0,0,1,57.738,28.383Zm6.016,10.773a3.541,3.541,0,0,1-1.91-.555,3.156,3.156,0,0,1-1.2-1.453,4.32,4.32,0,0,1-.293-2.055l.023-.32a5.657,5.657,0,0,1,.754-2.316A4.3,4.3,0,0,1,62.66,30.9a3.713,3.713,0,0,1,1.984-.508,2.769,2.769,0,0,1,2.379,1.182,4.337,4.337,0,0,1,.6,3l-.109.814h-5.32A2.3,2.3,0,0,0,62.6,37a1.61,1.61,0,0,0,1.313.631,2.847,2.847,0,0,0,2.2-1.039l.938.984a3.563,3.563,0,0,1-1.4,1.176A4.166,4.166,0,0,1,63.754,39.156Zm.789-7.25q-1.469-.047-2.2,2.078l3.508.008.031-.164a2.451,2.451,0,0,0,.008-.7,1.437,1.437,0,0,0-.437-.875A1.385,1.385,0,0,0,64.543,31.906Zm7.016,4.664,2.672-6.023h1.977L72.043,39H70.434l-1.547-8.453h1.859ZM80.895,39a2.507,2.507,0,0,1-.078-.789,3.134,3.134,0,0,1-2.258.945,2.589,2.589,0,0,1-1.824-.707,2.18,2.18,0,0,1-.676-1.754,2.588,2.588,0,0,1,1.156-2.1,5.034,5.034,0,0,1,2.938-.766l1.2.016.109-.578a1.744,1.744,0,0,0,0-.57,1.017,1.017,0,0,0-1.117-.867,1.685,1.685,0,0,0-1.043.3,1.3,1.3,0,0,0-.551.848l-1.852.016a2.318,2.318,0,0,1,.555-1.371,3.289,3.289,0,0,1,1.328-.918,4.5,4.5,0,0,1,1.75-.312,2.956,2.956,0,0,1,2.156.832,2.466,2.466,0,0,1,.641,2.074l-.648,3.961-.062.7a2.5,2.5,0,0,0,.117.9L82.73,39Zm-1.906-1.359a2.041,2.041,0,0,0,1.086-.27,2.861,2.861,0,0,0,.852-.738l.289-1.6-.883-.008a3.1,3.1,0,0,0-1.672.395,1.447,1.447,0,0,0-.711,1.082.957.957,0,0,0,.23.824A1.127,1.127,0,0,0,78.988,37.641Zm13.289-2.828a6.878,6.878,0,0,1-.691,2.332,3.826,3.826,0,0,1-1.328,1.543,3.133,3.133,0,0,1-1.785.477,2.485,2.485,0,0,1-2.133-1.086l-.3.922h-1.7l2.078-12h1.859l-.844,4.367a2.872,2.872,0,0,1,2.242-.977,2.4,2.4,0,0,1,1.918.9,3.878,3.878,0,0,1,.73,2.375A10.892,10.892,0,0,1,92.277,34.813ZM90.5,33.766a2.218,2.218,0,0,0-.352-1.332,1.22,1.22,0,0,0-1.016-.5,2.178,2.178,0,0,0-1.891,1.078l-.609,3.5a1.475,1.475,0,0,0,1.477,1.1,1.841,1.841,0,0,0,1.543-.719,4.075,4.075,0,0,0,.777-2.094Q90.488,34.141,90.5,33.766ZM95.129,39H93.277l2.086-12h1.852Zm5.9.156a3.541,3.541,0,0,1-1.91-.555,3.156,3.156,0,0,1-1.2-1.453,4.32,4.32,0,0,1-.293-2.055l.023-.32a5.657,5.657,0,0,1,.754-2.316A4.3,4.3,0,0,1,99.934,30.9a3.713,3.713,0,0,1,1.984-.508,2.769,2.769,0,0,1,2.379,1.182,4.337,4.337,0,0,1,.6,3l-.109.814h-5.32A2.3,2.3,0,0,0,99.871,37a1.61,1.61,0,0,0,1.313.631,2.847,2.847,0,0,0,2.2-1.039l.938.984a3.563,3.563,0,0,1-1.4,1.176A4.166,4.166,0,0,1,101.027,39.156Zm.789-7.25q-1.469-.047-2.2,2.078l3.508.008.031-.164a2.451,2.451,0,0,0,.008-.7,1.437,1.437,0,0,0-.437-.875A1.385,1.385,0,0,0,101.816,31.906Zm8.3,2.594a11.754,11.754,0,0,1-.477,3.348,9.485,9.485,0,0,1-1.445,2.938,5.66,5.66,0,0,1-2.023,1.832l-.375-1.055a6,6,0,0,0,1.855-2.77,12.3,12.3,0,0,0,.684-4.254v-.18a12.484,12.484,0,0,0-.594-3.957,6.98,6.98,0,0,0-1.7-2.863l-.242-.219.375-1.062a5.6,5.6,0,0,1,1.938,1.719,9.326,9.326,0,0,1,1.438,2.762,11.5,11.5,0,0,1,.563,3.152Z" transform="translate(599.668 782.271)" fill="#182e68"/>
      <path id="Path_957968" data-name="Path 957968" d="M22.621,12.836H20.754V17H18.41V5.625h4.227a4.778,4.778,0,0,1,3.109.9A3.1,3.1,0,0,1,26.84,9.063a3.5,3.5,0,0,1-.5,1.941,3.437,3.437,0,0,1-1.527,1.238l2.461,4.648V17H24.754Zm-1.867-1.9h1.891a1.936,1.936,0,0,0,1.367-.449A1.606,1.606,0,0,0,24.5,9.25a1.719,1.719,0,0,0-.457-1.266,1.9,1.9,0,0,0-1.4-.461H20.754Zm11.609,6.219a4.15,4.15,0,0,1-3.027-1.141,4.054,4.054,0,0,1-1.168-3.039v-.219a5.106,5.106,0,0,1,.492-2.277,3.612,3.612,0,0,1,1.395-1.547,3.914,3.914,0,0,1,2.059-.543,3.508,3.508,0,0,1,2.73,1.094,4.444,4.444,0,0,1,1,3.1v.922H30.457a2.1,2.1,0,0,0,.66,1.328,2,2,0,0,0,1.395.5,2.437,2.437,0,0,0,2.039-.945l1.109,1.242a3.389,3.389,0,0,1-1.375,1.121A4.511,4.511,0,0,1,32.363,17.156Zm-.258-6.945a1.411,1.411,0,0,0-1.09.455,2.357,2.357,0,0,0-.535,1.3h3.141v-.181a1.681,1.681,0,0,0-.406-1.165A1.456,1.456,0,0,0,32.105,10.211ZM39.5,17H37.238V5H39.5Zm5.75.156a4.15,4.15,0,0,1-3.027-1.141,4.054,4.054,0,0,1-1.168-3.039v-.219a5.106,5.106,0,0,1,.492-2.277,3.612,3.612,0,0,1,1.395-1.547A3.914,3.914,0,0,1,45,8.391a3.508,3.508,0,0,1,2.73,1.094,4.444,4.444,0,0,1,1,3.1v.922H43.348a2.1,2.1,0,0,0,.66,1.328,2,2,0,0,0,1.395.5,2.437,2.437,0,0,0,2.039-.945l1.109,1.242a3.389,3.389,0,0,1-1.375,1.121A4.511,4.511,0,0,1,45.254,17.156ZM45,10.211a1.411,1.411,0,0,0-1.09.455,2.357,2.357,0,0,0-.535,1.3h3.141v-.181a1.681,1.681,0,0,0-.406-1.165A1.456,1.456,0,0,0,45,10.211Zm8.078,4.031,1.57-5.7H57L54.152,17H52L49.145,8.547H51.5ZM62.777,17a2.507,2.507,0,0,1-.227-.758,2.732,2.732,0,0,1-2.133.914,3,3,0,0,1-2.059-.719,2.312,2.312,0,0,1-.816-1.812,2.389,2.389,0,0,1,1-2.062,4.915,4.915,0,0,1,2.879-.727h1.039v-.484a1.393,1.393,0,0,0-.3-.937,1.183,1.183,0,0,0-.949-.352,1.345,1.345,0,0,0-.895.273.929.929,0,0,0-.324.75H57.73a2.268,2.268,0,0,1,.453-1.359,3,3,0,0,1,1.281-.98,4.669,4.669,0,0,1,1.859-.355,3.689,3.689,0,0,1,2.48.785,2.747,2.747,0,0,1,.918,2.207v3.664a4.041,4.041,0,0,0,.336,1.82V17ZM60.91,15.43a1.945,1.945,0,0,0,.922-.223,1.462,1.462,0,0,0,.625-.6V13.156h-.844q-1.7,0-1.8,1.172l-.008.133a.9.9,0,0,0,.3.7A1.153,1.153,0,0,0,60.91,15.43Zm7.625-6.883.07.977a2.951,2.951,0,0,1,2.43-1.133,2.453,2.453,0,0,1,2,.789,3.682,3.682,0,0,1,.672,2.359V17H71.449V11.594a1.465,1.465,0,0,0-.312-1.043,1.4,1.4,0,0,0-1.039-.324,1.553,1.553,0,0,0-1.43.813V17H66.41V8.547Zm9.586-2.078V8.547h1.445V10.2H78.121v4.219a1.007,1.007,0,0,0,.18.672.9.9,0,0,0,.688.2,3.6,3.6,0,0,0,.664-.055v1.711a4.648,4.648,0,0,1-1.367.2,2.156,2.156,0,0,1-2.422-2.4V10.2H74.629V8.547h1.234V6.469Zm6.594,10.688a4.15,4.15,0,0,1-3.027-1.141,4.054,4.054,0,0,1-1.168-3.039v-.219a5.106,5.106,0,0,1,.492-2.277,3.612,3.612,0,0,1,1.395-1.547,3.914,3.914,0,0,1,2.059-.543A3.508,3.508,0,0,1,87.2,9.484a4.444,4.444,0,0,1,1,3.1v.922H82.809a2.1,2.1,0,0,0,.66,1.328,2,2,0,0,0,1.395.5,2.437,2.437,0,0,0,2.039-.945l1.109,1.242a3.389,3.389,0,0,1-1.375,1.121A4.511,4.511,0,0,1,84.715,17.156Zm-.258-6.945a1.411,1.411,0,0,0-1.09.455,2.357,2.357,0,0,0-.535,1.3h3.141v-.181a1.681,1.681,0,0,0-.406-1.165A1.456,1.456,0,0,0,84.457,10.211ZM18.1,34.375a11.9,11.9,0,0,1,.484-3.426A9.4,9.4,0,0,1,20,28.051a5.646,5.646,0,0,1,1.984-1.793l.375,1.109a5.8,5.8,0,0,0-1.785,2.551,11.424,11.424,0,0,0-.746,3.926l-.008.672a12.42,12.42,0,0,0,.668,4.223,6.224,6.224,0,0,0,1.871,2.824l-.375,1.055A5.655,5.655,0,0,1,20,40.816a9.4,9.4,0,0,1-1.422-2.9A12.374,12.374,0,0,1,18.1,34.375Zm9.75.25H25.676L24.91,39H22.98l1.977-11.375,3.586.008a4.085,4.085,0,0,1,2.836.891A2.83,2.83,0,0,1,32.23,31a3.405,3.405,0,0,1-.734,1.912,4.274,4.274,0,0,1-1.82,1.271l1.68,4.7L31.348,39H29.3Zm-1.906-1.594,1.867.016a2.653,2.653,0,0,0,1.684-.527,2.08,2.08,0,0,0,.793-1.434,1.612,1.612,0,0,0-.312-1.355,1.768,1.768,0,0,0-1.3-.5l-2.062-.008Zm10.453,6.125a3.541,3.541,0,0,1-1.91-.555,3.156,3.156,0,0,1-1.2-1.453A4.32,4.32,0,0,1,33,35.094l.023-.32a5.657,5.657,0,0,1,.754-2.316A4.3,4.3,0,0,1,35.3,30.9a3.713,3.713,0,0,1,1.984-.508,2.769,2.769,0,0,1,2.379,1.182,4.337,4.337,0,0,1,.6,3l-.109.814h-5.32A2.3,2.3,0,0,0,35.238,37a1.61,1.61,0,0,0,1.313.631,2.847,2.847,0,0,0,2.2-1.039l.938.984a3.563,3.563,0,0,1-1.4,1.176A4.166,4.166,0,0,1,36.395,39.156Zm.789-7.25q-1.469-.047-2.2,2.078l3.508.008.031-.164a2.451,2.451,0,0,0,.008-.7,1.438,1.438,0,0,0-.437-.875A1.385,1.385,0,0,0,37.184,31.906ZM42.941,39H41.09l2.086-12h1.852Zm5.9.156a3.541,3.541,0,0,1-1.91-.555,3.156,3.156,0,0,1-1.2-1.453,4.32,4.32,0,0,1-.293-2.055l.023-.32a5.657,5.657,0,0,1,.754-2.316A4.3,4.3,0,0,1,47.746,30.9a3.713,3.713,0,0,1,1.984-.508,2.769,2.769,0,0,1,2.379,1.182,4.337,4.337,0,0,1,.6,3l-.109.814h-5.32A2.3,2.3,0,0,0,47.684,37,1.61,1.61,0,0,0,49,37.633a2.847,2.847,0,0,0,2.2-1.039l.938.984a3.563,3.563,0,0,1-1.4,1.176A4.166,4.166,0,0,1,48.84,39.156Zm.789-7.25q-1.469-.047-2.2,2.078l3.508.008.031-.164a2.451,2.451,0,0,0,.008-.7,1.438,1.438,0,0,0-.437-.875A1.385,1.385,0,0,0,49.629,31.906Zm7.016,4.664,2.672-6.023h1.977L57.129,39H55.52l-1.547-8.453h1.859ZM65.98,39a2.507,2.507,0,0,1-.078-.789,3.134,3.134,0,0,1-2.258.945,2.589,2.589,0,0,1-1.824-.707,2.18,2.18,0,0,1-.676-1.754,2.588,2.588,0,0,1,1.156-2.1,5.034,5.034,0,0,1,2.938-.766l1.2.016.109-.578a1.744,1.744,0,0,0,0-.57,1.017,1.017,0,0,0-1.117-.867,1.685,1.685,0,0,0-1.043.3,1.3,1.3,0,0,0-.551.848l-1.852.016a2.318,2.318,0,0,1,.555-1.371,3.289,3.289,0,0,1,1.328-.918,4.5,4.5,0,0,1,1.75-.312,2.956,2.956,0,0,1,2.156.832,2.466,2.466,0,0,1,.641,2.074l-.648,3.961-.062.7a2.5,2.5,0,0,0,.117.9L67.816,39Zm-1.906-1.359a2.041,2.041,0,0,0,1.086-.27,2.861,2.861,0,0,0,.852-.738l.289-1.6-.883-.008a3.1,3.1,0,0,0-1.672.395,1.447,1.447,0,0,0-.711,1.082.957.957,0,0,0,.23.824A1.127,1.127,0,0,0,64.074,37.641Zm8.539-7.1-.187.992a3.226,3.226,0,0,1,2.508-1.141,2.044,2.044,0,0,1,1.758.848,3.383,3.383,0,0,1,.422,2.3L76.2,39H74.348l.922-5.484a2.806,2.806,0,0,0,.008-.625,1,1,0,0,0-1.109-.953,2.25,2.25,0,0,0-1.852,1.039L71.262,39H69.41l1.461-8.453Zm9.68-2.047-.359,2.055h1.445l-.242,1.406H81.684l-.8,4.734a1.619,1.619,0,0,0-.008.352q.047.508.625.531a3.529,3.529,0,0,0,.656-.07l-.125,1.484a4.245,4.245,0,0,1-1.164.164,1.729,1.729,0,0,1-1.449-.66,2.389,2.389,0,0,1-.379-1.707l.789-4.828H78.48l.25-1.406h1.344l.359-2.055Zm5.6,6.008a11.754,11.754,0,0,1-.477,3.348,9.485,9.485,0,0,1-1.445,2.938,5.66,5.66,0,0,1-2.023,1.832l-.375-1.055a6,6,0,0,0,1.855-2.77,12.3,12.3,0,0,0,.684-4.254v-.18A12.484,12.484,0,0,0,85.52,30.4a6.98,6.98,0,0,0-1.7-2.863l-.242-.219.375-1.062a5.6,5.6,0,0,1,1.938,1.719,9.326,9.326,0,0,1,1.438,2.762,11.5,11.5,0,0,1,.563,3.152Z" transform="translate(742.668 782.271)" fill="#182e68"/>
      <path id="Path_957969" data-name="Path 957969" d="M29.836,15.117h4.977V17h-7.32V5.625h2.344ZM38.391,17H36.125V8.547h2.266Zm-2.4-10.641a1.112,1.112,0,0,1,.34-.836,1.465,1.465,0,0,1,1.848,0,1.105,1.105,0,0,1,.344.836,1.108,1.108,0,0,1-.348.844,1.448,1.448,0,0,1-1.836,0A1.108,1.108,0,0,1,35.992,6.359Zm6.375,2.188.07.945a2.971,2.971,0,0,1,2.43-1.1A2.255,2.255,0,0,1,47.109,9.68a2.9,2.9,0,0,1,2.539-1.289,2.521,2.521,0,0,1,2.047.8,3.681,3.681,0,0,1,.672,2.41V17H50.1V11.609a1.61,1.61,0,0,0-.281-1.051,1.246,1.246,0,0,0-.992-.332,1.409,1.409,0,0,0-1.406.969L47.43,17H45.172V11.617a1.59,1.59,0,0,0-.289-1.062,1.259,1.259,0,0,0-.984-.328,1.463,1.463,0,0,0-1.391.8V17H40.25V8.547ZM56.484,17H54.219V8.547h2.266Zm-2.4-10.641a1.112,1.112,0,0,1,.34-.836,1.465,1.465,0,0,1,1.848,0,1.105,1.105,0,0,1,.344.836,1.108,1.108,0,0,1-.348.844,1.448,1.448,0,0,1-1.836,0A1.108,1.108,0,0,1,54.086,6.359Zm6.961.109V8.547h1.445V10.2H61.047v4.219a1.007,1.007,0,0,0,.18.672.9.9,0,0,0,.688.2,3.6,3.6,0,0,0,.664-.055v1.711a4.648,4.648,0,0,1-1.367.2,2.156,2.156,0,0,1-2.422-2.4V10.2H57.555V8.547h1.234V6.469ZM68.648,17a2.507,2.507,0,0,1-.227-.758,2.732,2.732,0,0,1-2.133.914,3,3,0,0,1-2.059-.719,2.312,2.312,0,0,1-.816-1.812,2.389,2.389,0,0,1,1-2.062,4.915,4.915,0,0,1,2.879-.727h1.039v-.484a1.393,1.393,0,0,0-.3-.937,1.183,1.183,0,0,0-.949-.352,1.345,1.345,0,0,0-.895.273.929.929,0,0,0-.324.75H63.6a2.268,2.268,0,0,1,.453-1.359,3,3,0,0,1,1.281-.98A4.669,4.669,0,0,1,67.2,8.391a3.689,3.689,0,0,1,2.48.785,2.747,2.747,0,0,1,.918,2.207v3.664a4.041,4.041,0,0,0,.336,1.82V17Zm-1.867-1.57a1.945,1.945,0,0,0,.922-.223,1.462,1.462,0,0,0,.625-.6V13.156h-.844q-1.7,0-1.8,1.172l-.008.133a.9.9,0,0,0,.3.7A1.153,1.153,0,0,0,66.781,15.43Zm5.2-2.719a5.094,5.094,0,0,1,.887-3.148,2.877,2.877,0,0,1,2.426-1.172,2.589,2.589,0,0,1,2.039.922V5h2.266V17H77.555l-.109-.9a2.657,2.657,0,0,1-2.172,1.055,2.869,2.869,0,0,1-2.395-1.176A5.258,5.258,0,0,1,71.977,12.711Zm2.258.168a3.337,3.337,0,0,0,.414,1.823,1.349,1.349,0,0,0,1.2.634,1.511,1.511,0,0,0,1.477-.884V11.111a1.489,1.489,0,0,0-1.461-.884Q74.234,10.227,74.234,12.879Zm6.758-.184a5.013,5.013,0,0,1,.484-2.242A3.546,3.546,0,0,1,82.871,8.93a4.069,4.069,0,0,1,2.113-.539,3.849,3.849,0,0,1,2.793,1.047,4.2,4.2,0,0,1,1.207,2.844l.016.578a4.418,4.418,0,0,1-1.086,3.121,4.209,4.209,0,0,1-5.832,0,4.5,4.5,0,0,1-1.09-3.187Zm2.258.16A3.16,3.16,0,0,0,83.7,14.7a1.628,1.628,0,0,0,2.578.008,3.457,3.457,0,0,0,.461-2.015,3.128,3.128,0,0,0-.461-1.831,1.5,1.5,0,0,0-1.3-.649,1.474,1.474,0,0,0-1.281.646A3.516,3.516,0,0,0,83.25,12.856Zm-64.828,26.3a4.15,4.15,0,0,1-3.027-1.141,4.054,4.054,0,0,1-1.168-3.039v-.219a5.106,5.106,0,0,1,.492-2.277,3.612,3.612,0,0,1,1.395-1.547,3.914,3.914,0,0,1,2.059-.543,3.508,3.508,0,0,1,2.73,1.094,4.444,4.444,0,0,1,1,3.1v.922H16.516a2.1,2.1,0,0,0,.66,1.328,2,2,0,0,0,1.395.5,2.437,2.437,0,0,0,2.039-.945l1.109,1.242a3.389,3.389,0,0,1-1.375,1.121A4.511,4.511,0,0,1,18.422,39.156Zm-.258-6.945a1.411,1.411,0,0,0-1.09.455,2.357,2.357,0,0,0-.535,1.3H19.68v-.181a1.681,1.681,0,0,0-.406-1.165A1.456,1.456,0,0,0,18.164,32.211Zm7.094-1.664.07.977a2.951,2.951,0,0,1,2.43-1.133,2.453,2.453,0,0,1,2,.789,3.682,3.682,0,0,1,.672,2.359V39H28.172V33.594a1.465,1.465,0,0,0-.312-1.043,1.4,1.4,0,0,0-1.039-.324,1.553,1.553,0,0,0-1.43.813V39H23.133V30.547Zm14.758,8.609a4.15,4.15,0,0,1-3.027-1.141,4.054,4.054,0,0,1-1.168-3.039v-.219a5.106,5.106,0,0,1,.492-2.277,3.612,3.612,0,0,1,1.395-1.547,3.914,3.914,0,0,1,2.059-.543,3.508,3.508,0,0,1,2.73,1.094,4.444,4.444,0,0,1,1,3.1v.922H38.109a2.1,2.1,0,0,0,.66,1.328,2,2,0,0,0,1.395.5,2.437,2.437,0,0,0,2.039-.945l1.109,1.242a3.389,3.389,0,0,1-1.375,1.121A4.511,4.511,0,0,1,40.016,39.156Zm-.258-6.945a1.411,1.411,0,0,0-1.09.455,2.357,2.357,0,0,0-.535,1.3h3.141v-.181a1.681,1.681,0,0,0-.406-1.165A1.456,1.456,0,0,0,39.758,32.211ZM47.156,39H44.891V27h2.266ZM55.7,28.469v2.078h1.445V32.2H55.7v4.219a1.007,1.007,0,0,0,.18.672.9.9,0,0,0,.688.2,3.6,3.6,0,0,0,.664-.055v1.711a4.648,4.648,0,0,1-1.367.2,2.156,2.156,0,0,1-2.422-2.4V32.2H52.211V30.547h1.234V28.469ZM60.789,39H58.523V30.547h2.266Zm-2.4-10.641a1.112,1.112,0,0,1,.34-.836,1.465,1.465,0,0,1,1.848,0,1.193,1.193,0,0,1,0,1.68,1.448,1.448,0,0,1-1.836,0A1.108,1.108,0,0,1,58.391,28.359Zm8.148,10.8a4.15,4.15,0,0,1-3.027-1.141,4.054,4.054,0,0,1-1.168-3.039v-.219a5.106,5.106,0,0,1,.492-2.277,3.612,3.612,0,0,1,1.395-1.547,3.914,3.914,0,0,1,2.059-.543,3.508,3.508,0,0,1,2.73,1.094,4.444,4.444,0,0,1,1,3.1v.922H64.633a2.1,2.1,0,0,0,.66,1.328,2,2,0,0,0,1.395.5,2.437,2.437,0,0,0,2.039-.945l1.109,1.242a3.389,3.389,0,0,1-1.375,1.121A4.511,4.511,0,0,1,66.539,39.156Zm-.258-6.945a1.411,1.411,0,0,0-1.09.455,2.357,2.357,0,0,0-.535,1.3H67.8v-.181a1.681,1.681,0,0,0-.406-1.165A1.456,1.456,0,0,0,66.281,32.211Zm7.133-1.664.07.945a2.971,2.971,0,0,1,2.43-1.1,2.255,2.255,0,0,1,2.242,1.289A2.9,2.9,0,0,1,80.7,30.391a2.521,2.521,0,0,1,2.047.8,3.681,3.681,0,0,1,.672,2.41V39H81.148V33.609a1.61,1.61,0,0,0-.281-1.051,1.246,1.246,0,0,0-.992-.332,1.409,1.409,0,0,0-1.406.969l.008,5.8H76.219V33.617a1.59,1.59,0,0,0-.289-1.062,1.259,1.259,0,0,0-.984-.328,1.463,1.463,0,0,0-1.391.8V39H71.3V30.547Zm19.344,4.3a5.07,5.07,0,0,1-.887,3.129,2.843,2.843,0,0,1-2.395,1.176,2.633,2.633,0,0,1-2.07-.891V42.25H85.148v-11.7h2.094l.078.828a2.654,2.654,0,0,1,2.141-.984,2.862,2.862,0,0,1,2.43,1.156,5.207,5.207,0,0,1,.867,3.188ZM90.5,34.688a3.327,3.327,0,0,0-.418-1.82,1.361,1.361,0,0,0-1.215-.641,1.478,1.478,0,0,0-1.461.813V36.5a1.5,1.5,0,0,0,1.477.836Q90.5,37.336,90.5,34.688Zm3.3.008a5.013,5.013,0,0,1,.484-2.242,3.546,3.546,0,0,1,1.395-1.523,4.069,4.069,0,0,1,2.113-.539,3.849,3.849,0,0,1,2.793,1.047,4.2,4.2,0,0,1,1.207,2.844l.016.578a4.418,4.418,0,0,1-1.086,3.121,4.209,4.209,0,0,1-5.832,0A4.5,4.5,0,0,1,93.8,34.8Zm2.258.16a3.16,3.16,0,0,0,.453,1.843,1.628,1.628,0,0,0,2.578.008,3.457,3.457,0,0,0,.461-2.015,3.128,3.128,0,0,0-.461-1.831,1.5,1.5,0,0,0-1.3-.649,1.474,1.474,0,0,0-1.281.646A3.516,3.516,0,0,0,96.063,34.856ZM11.051,56.375a11.9,11.9,0,0,1,.484-3.426,9.4,9.4,0,0,1,1.422-2.9,5.646,5.646,0,0,1,1.984-1.793l.375,1.109a5.8,5.8,0,0,0-1.785,2.551,11.424,11.424,0,0,0-.746,3.926l-.008.672a12.42,12.42,0,0,0,.668,4.223,6.224,6.224,0,0,0,1.871,2.824l-.375,1.055a5.655,5.655,0,0,1-1.988-1.8,9.4,9.4,0,0,1-1.422-2.9A12.374,12.374,0,0,1,11.051,56.375Zm14.563-5.156H22.176L20.48,61H18.559l1.7-9.781H16.848l.281-1.594h8.766ZM27.223,61H25.371l1.469-8.453h1.852Zm-.117-10.617a1.044,1.044,0,0,1,.281-.734,1.03,1.03,0,0,1,.758-.32.985.985,0,0,1,.754.277.96.96,0,0,1,.3.715.988.988,0,0,1-.293.734,1.074,1.074,0,0,1-.746.3,1,1,0,0,1-.75-.27A.929.929,0,0,1,27.105,50.383Zm5.383,2.156-.164.9a3.259,3.259,0,0,1,2.5-1.047,2.427,2.427,0,0,1,1.324.367,1.738,1.738,0,0,1,.715.93,3.406,3.406,0,0,1,2.688-1.3,2.195,2.195,0,0,1,1.832.848,3.235,3.235,0,0,1,.449,2.285L40.918,61H39.066l.922-5.492A2.879,2.879,0,0,0,40,54.875a1.034,1.034,0,0,0-1.156-.937A1.949,1.949,0,0,0,37.027,55.2L37,55.367,36.035,61H34.176l.922-5.469a2.806,2.806,0,0,0,.008-.625,1.043,1.043,0,0,0-1.156-.969,2.042,2.042,0,0,0-1.734.93L31.145,61H29.293l1.461-8.453Zm14.219,8.617A3.541,3.541,0,0,1,44.8,60.6a3.156,3.156,0,0,1-1.2-1.453,4.32,4.32,0,0,1-.293-2.055l.023-.32a5.657,5.657,0,0,1,.754-2.316A4.3,4.3,0,0,1,45.613,52.9a3.713,3.713,0,0,1,1.984-.508,2.769,2.769,0,0,1,2.379,1.182,4.337,4.337,0,0,1,.6,3l-.109.814h-5.32A2.3,2.3,0,0,0,45.551,59a1.61,1.61,0,0,0,1.313.631,2.847,2.847,0,0,0,2.2-1.039l.938.984a3.563,3.563,0,0,1-1.4,1.176A4.166,4.166,0,0,1,46.707,61.156Zm.789-7.25q-1.469-.047-2.2,2.078l3.508.008.031-.164a2.451,2.451,0,0,0,.008-.7,1.438,1.438,0,0,0-.437-.875A1.385,1.385,0,0,0,47.5,53.906Zm8.078,3.023H51.582l.273-1.531h3.992Zm8.813-.117a6.878,6.878,0,0,1-.691,2.332,3.826,3.826,0,0,1-1.328,1.543,3.133,3.133,0,0,1-1.785.477,2.485,2.485,0,0,1-2.133-1.086l-.3.922h-1.7l2.078-12h1.859l-.844,4.367a2.872,2.872,0,0,1,2.242-.977,2.4,2.4,0,0,1,1.918.9,3.878,3.878,0,0,1,.73,2.375A10.892,10.892,0,0,1,64.387,56.813Zm-1.781-1.047a2.218,2.218,0,0,0-.352-1.332,1.22,1.22,0,0,0-1.016-.5,2.178,2.178,0,0,0-1.891,1.078l-.609,3.5a1.475,1.475,0,0,0,1.477,1.1,1.841,1.841,0,0,0,1.543-.719,4.075,4.075,0,0,0,.777-2.094Q62.6,56.141,62.605,55.766Zm3.109.977a5.562,5.562,0,0,1,.73-2.258,4.335,4.335,0,0,1,1.535-1.57,3.794,3.794,0,0,1,2.078-.523,3.139,3.139,0,0,1,3.027,2.117,4.887,4.887,0,0,1,.254,2.172,5.665,5.665,0,0,1-.73,2.375,4.319,4.319,0,0,1-1.547,1.582,3.848,3.848,0,0,1-2.09.52,3.136,3.136,0,0,1-3.016-2.105,4.824,4.824,0,0,1-.266-2.145Zm1.82,1.07a2.232,2.232,0,0,0,.434,1.316,1.387,1.387,0,0,0,1.1.52,1.948,1.948,0,0,0,1.6-.734,3.863,3.863,0,0,0,.809-2.07l.047-.766a2.7,2.7,0,0,0-.4-1.57,1.4,1.4,0,0,0-1.156-.6A2.024,2.024,0,0,0,68.09,55.07a4.349,4.349,0,0,0-.523,1.672A6.541,6.541,0,0,0,67.535,57.813ZM79.41,60.164A3.066,3.066,0,0,1,77,61.156a2.355,2.355,0,0,1-1.363-.406,2.113,2.113,0,0,1-.773-1.09,3.99,3.99,0,0,1-.137-1.645l.914-5.469H77.5l-.922,5.492a2.911,2.911,0,0,0-.008.563.95.95,0,0,0,.977,1.008,2.236,2.236,0,0,0,1.984-.984l1.063-6.078h1.852L80.98,61H79.246Zm6.656-7.625-.187.992a3.226,3.226,0,0,1,2.508-1.141,2.044,2.044,0,0,1,1.758.848,3.383,3.383,0,0,1,.422,2.3L89.652,61H87.8l.922-5.484a2.806,2.806,0,0,0,.008-.625,1,1,0,0,0-1.109-.953,2.25,2.25,0,0,0-1.852,1.039L84.715,61H82.863l1.461-8.453ZM92,56.766a6.7,6.7,0,0,1,.7-2.344,3.968,3.968,0,0,1,1.352-1.551,3.121,3.121,0,0,1,1.789-.488,2.5,2.5,0,0,1,2.016.961L98.676,49h1.859L98.449,61H96.793l.125-.875a2.946,2.946,0,0,1-2.312,1.039,2.325,2.325,0,0,1-1.887-.91,3.975,3.975,0,0,1-.762-2.379,6.316,6.316,0,0,1,.023-.945Zm1.8.727a2.6,2.6,0,0,0,.3,1.539,1.2,1.2,0,0,0,1.059.586,2.175,2.175,0,0,0,1.852-1.039l.633-3.633a1.445,1.445,0,0,0-1.422-1.008,1.9,1.9,0,0,0-1.711.938A5,5,0,0,0,93.8,57.492Zm11.141-.992a11.754,11.754,0,0,1-.477,3.348,9.485,9.485,0,0,1-1.445,2.938A5.66,5.66,0,0,1,101,64.617l-.375-1.055a6,6,0,0,0,1.855-2.77,12.3,12.3,0,0,0,.684-4.254v-.18a12.484,12.484,0,0,0-.594-3.957,6.98,6.98,0,0,0-1.7-2.863l-.242-.219L101,48.258a5.6,5.6,0,0,1,1.938,1.719,9.326,9.326,0,0,1,1.438,2.762,11.5,11.5,0,0,1,.563,3.152Z" transform="translate(850.668 782.271)" fill="#182e68"/>
    </g>
  </g>
</svg>
