<svg xmlns="http://www.w3.org/2000/svg" width="52" height="44" viewBox="0 0 52 44">
  <g id="Group_1122707" data-name="Group 1122707" transform="translate(-180 -6985)">
    <rect id="Rectangle_401217" data-name="Rectangle 401217" width="52" height="44" rx="8" transform="translate(180 6985)" fill="#c2a4ff"/>
    <path id="Path_878175" data-name="Path 878175" d="M35.941,3.758a.878.878,0,0,0-.634-.724l-10.79-3a.877.877,0,0,0-.47,0l-10.79,3a.877.877,0,0,0-.634.724c-.063.45-1.49,11.083,2.172,16.373a17.227,17.227,0,0,0,9.282,6.692.88.88,0,0,0,.412,0,17.227,17.227,0,0,0,9.282-6.692C37.431,14.841,36,4.208,35.941,3.758Zm-4.7,6.208-7.36,7.36a.877.877,0,0,1-1.241,0l-4.551-4.551a.877.877,0,0,1,0-1.241l.9-.9a.877.877,0,0,1,1.241,0l3.027,3.027L29.1,7.821a.877.877,0,0,1,1.241,0l.9.9A.877.877,0,0,1,31.24,9.966Z" transform="translate(181.703 6993.999)" fill="#182e68"/>
  </g>
</svg>
