<svg xmlns="http://www.w3.org/2000/svg" xmlns:xlink="http://www.w3.org/1999/xlink" width="99.458" height="166.576" viewBox="0 0 99.458 166.576">
  <defs>
    <linearGradient id="linear-gradient" x1="0.5" x2="0.5" y2="1" gradientUnits="objectBoundingBox">
      <stop offset="0" stop-color="#ddf1ff"/>
      <stop offset="1" stop-color="#fff"/>
    </linearGradient>
  </defs>
  <g id="Group_1122708" data-name="Group 1122708" transform="translate(-810.917 -3194.004)">
    <rect id="Rectangle_404540" data-name="Rectangle 404540" width="85" height="166.576" transform="translate(810.917 3194.004)" fill="#daf5fe"/>
    <g id="Group_1109035" data-name="Group 1109035" transform="translate(567.388 -2790.622)">
      <g id="Group_1099808" data-name="Group 1099808" transform="translate(269.987 6031.414)">
        <g id="Group_1099775" data-name="Group 1099775" transform="translate(0 0)">
          <g id="Group_1099770" data-name="Group 1099770">
            <g id="Rectangle_401345" data-name="Rectangle 401345" stroke="#8f006f" stroke-width="5" fill="url(#linear-gradient)">
              <rect width="73" height="73" rx="10" stroke="none"/>
              <rect x="2.5" y="2.5" width="68" height="68" rx="7.5" fill="none"/>
            </g>
          </g>
        </g>
        <g id="Group_1099776" data-name="Group 1099776" transform="translate(12.023 11.982)">
          <g id="Group_1099618" data-name="Group 1099618" transform="translate(0 0)">
            <rect id="Rectangle_401104" data-name="Rectangle 401104" width="48.305" height="48.887" transform="translate(0)" fill="none"/>
          </g>
          <path id="Path_957823" data-name="Path 957823" d="M20.152,30.625V24.81a.575.575,0,0,1,.574-.574h3.685a.574.574,0,0,1,0,1.148H21.3v4.668h4.667V27.619a.574.574,0,1,1,1.148,0v3.007a.575.575,0,0,1-.574.574H20.726a.575.575,0,0,1-.574-.575Zm6.029-5.891-2.621,2.743-.519-.519a.574.574,0,0,0-.813.812l.934.934a.573.573,0,0,0,.406.168h.007a.579.579,0,0,0,.409-.177l3.028-3.168a.574.574,0,0,0-.831-.793ZM29.911,26.7H41.193a.574.574,0,0,0,0-1.148H29.911a.574.574,0,1,0,0,1.148Zm0,3.186H44.029a.574.574,0,1,0,0-1.148H29.911a.574.574,0,0,0,0,1.148ZM20.726,41.945h5.815a.575.575,0,0,0,.574-.574V38.363a.574.574,0,1,0-1.148,0V40.8H21.3V36.128h3.111a.574.574,0,0,0,0-1.148H20.726a.575.575,0,0,0-.574.574V41.37A.574.574,0,0,0,20.726,41.945Zm5.454-6.466-2.621,2.743-.519-.519a.574.574,0,0,0-.812.812l.934.934a.571.571,0,0,0,.406.168h.007a.579.579,0,0,0,.409-.177l3.027-3.168a.574.574,0,0,0-.831-.793Zm.361,13.056a.575.575,0,0,0-.574.574v2.433H21.3V46.874h3.111a.574.574,0,1,0,0-1.148H20.726a.575.575,0,0,0-.574.574v5.816a.575.575,0,0,0,.574.574h5.815a.575.575,0,0,0,.574-.574V49.108A.574.574,0,0,0,26.542,48.534Zm-.361-2.31-2.621,2.743-.519-.519a.574.574,0,1,0-.812.812l.934.934a.571.571,0,0,0,.406.168h.007a.579.579,0,0,0,.409-.177l3.027-3.168a.574.574,0,0,0-.831-.793ZM61.526,58.488a3.18,3.18,0,0,1-3.913,2.549,2.767,2.767,0,0,1-1.782-1.359l-4.088-7.538a9.7,9.7,0,0,1-1.64.4v5.025a.575.575,0,0,1-.574.574H16.114a.575.575,0,0,1-.574-.574V22.044h0a.574.574,0,0,1,.167-.406l6.47-6.47A.571.571,0,0,1,22.583,15v0H49.529a.575.575,0,0,1,.574.574V33.13a9.812,9.812,0,0,1,5.675,16.409L61,56.308a2.767,2.767,0,0,1,.522,2.179Zm-7.117-22.1a8.666,8.666,0,1,0,2.863,5.984A8.617,8.617,0,0,0,54.409,36.388ZM17.5,21.47h4.509V16.961ZM48.954,56.986V52.642c-.117,0-.234.007-.349.007a9.727,9.727,0,0,1-4.826-1.274H29.911a.574.574,0,1,1,0-1.148H42.165c-.035-.031-.072-.06-.106-.091a9.882,9.882,0,0,1-1.671-1.947H29.911a.574.574,0,1,1,0-1.148h9.833a9.864,9.864,0,0,1-.692-6.41H29.911a.574.574,0,1,1,0-1.148h9.482a9.8,9.8,0,0,1,1.027-2.038H29.911a.574.574,0,0,1,0-1.148H41.193a.61.61,0,0,1,.1.01,9.783,9.783,0,0,1,6.8-3.271q.434-.023.862-.009V16.148h-25.8v5.9a.575.575,0,0,1-.574.574h-5.9V56.987H48.954Zm11.14.024-5.153-6.677A9.814,9.814,0,0,1,52.815,51.7l4.025,7.423a1.63,1.63,0,0,0,1.055.793,2.028,2.028,0,0,0,2.5-1.627A1.634,1.634,0,0,0,60.095,57.01ZM48.215,35.324a7.521,7.521,0,1,1,.8,15.021c-.136.008-.272.011-.407.011a7.521,7.521,0,0,1-.4-15.032Zm.062,1.147a6.373,6.373,0,1,0,6.7,6.023,6.329,6.329,0,0,0-6.7-6.023ZM47.3,45.59a.574.574,0,0,0,.393.156h.017a.576.576,0,0,0,.4-.181l4.473-4.756a.574.574,0,1,0-.836-.787l-4.08,4.337L45.378,42.2a.574.574,0,1,0-.787.836Z" transform="translate(-14.402 -13.623)" fill="#182e68"/>
        </g>
      </g>
    </g>
  </g>
</svg>
