<svg xmlns="http://www.w3.org/2000/svg" width="90.184" height="90.184" viewBox="0 0 90.184 90.184">
  <g id="Group_1122693" data-name="Group 1122693" transform="translate(-758 -2681)">
    <g id="Group_1099868" data-name="Group 1099868" transform="translate(758 2681)">
      <g id="Group_1073526" data-name="Group 1073526" transform="translate(0 0)">
        <g id="Group_1072785" data-name="Group 1072785" transform="translate(0 0)">
          <path id="Path_608385" data-name="Path 608385" d="M45.092,0A45.092,45.092,0,1,1,0,45.092,45.092,45.092,0,0,1,45.092,0Z" transform="translate(0 0)" fill="none"/>
        </g>
        <g id="Group_1073383" data-name="Group 1073383" transform="translate(0 0)">
          <path id="Path_608385-2" data-name="Path 608385" d="M45.092,0A45.092,45.092,0,1,1,0,45.092,45.092,45.092,0,0,1,45.092,0Z" transform="translate(0 0)" fill="#fff"/>
        </g>
      </g>
    </g>
    <g id="Group_1099872" data-name="Group 1099872" transform="translate(355.863 -3345.469)">
      <rect id="Rectangle_401104" data-name="Rectangle 401104" width="59" height="59" transform="translate(418.137 6042.469)" fill="none"/>
      <g id="Group_1122642" data-name="Group 1122642" transform="translate(392.527 6029.217)">
        <path id="Path_957798" data-name="Path 957798" d="M76.906,50.813H72.4c2.818,0,4.567-2.187,5.34-4.675l3.76-.8a.979.979,0,0,0,.776-.958V35.646a.979.979,0,0,0-.776-.958l-4.906-1.042-1.744-4.212,2.732-4.208A.979.979,0,0,0,77.45,24l-6.178-6.174a.979.979,0,0,0-1.226-.129l-4.208,2.732L61.63,18.686l-1.045-4.91A.979.979,0,0,0,59.627,13H50.892a.979.979,0,0,0-.958.776l-1.042,4.91L44.68,20.429,40.472,17.7a.979.979,0,0,0-1.226.129L33.072,24a.979.979,0,0,0-.129,1.226l2.732,4.208-1.743,4.212-4.91,1.042a.979.979,0,0,0-.776.958v8.735a.979.979,0,0,0,.776.958l3.437.729c.762,2.517,2.516,4.744,5.363,4.744H33.309A6.036,6.036,0,0,0,27.082,56.6v7.894h12.36V72.5H70.777V64.491h12.36V56.6a6.037,6.037,0,0,0-6.231-5.784Zm-9.8-10.12a5.781,5.781,0,0,0-.52,2.4c0,.208.008.421.022.637a12,12,0,0,1-23-.009c.014-.214.021-.424.021-.628a5.785,5.785,0,0,0-.517-2.395c0-.139-.008-.278-.008-.418a12,12,0,0,1,24.008,0C67.113,40.42,67.11,40.557,67.106,40.693Z" transform="translate(0 0)" fill="#484868"/>
        <path id="Path_957799" data-name="Path 957799" d="M83.137,327.625a6.037,6.037,0,0,0-6.231-5.784H67.883a6.484,6.484,0,0,0-4.168,1.494l0,.005a9.7,9.7,0,0,0-2.023-.215H48.526a9.679,9.679,0,0,0-2.013.213l-.008,0a6.484,6.484,0,0,0-4.168-1.494H33.309a6.036,6.036,0,0,0-6.227,5.784v7.894h12.36v8.012H70.777v-8.012h12.36Z" transform="translate(0 -271.028)" fill="#eae8e8"/>
        <path id="Path_957800" data-name="Path 957800" d="M292.386,332.333h-2.422c5,0,9.087,3.793,9.087,8.435v11.971h2.422V340.768C301.473,336.126,297.383,332.333,292.386,332.333Z" transform="translate(-230.696 -280.236)" fill="#ddd7d7"/>
        <path id="Path_957801" data-name="Path 957801" d="M181.154,419.256v-10.2a.923.923,0,1,0-1.846,0v10.2Z" transform="translate(-133.589 -346.753)" fill="#ddd7d7"/>
        <path id="Path_957802" data-name="Path 957802" d="M319.435,419.256v-10.2a.923.923,0,1,0-1.846,0v10.2Z" transform="translate(-254.939 -346.753)" fill="#ddd7d7"/>
        <path id="Path_957803" data-name="Path 957803" d="M355.541,211.365a5.809,5.809,0,0,1,5.807,5.808c0,3.4-1.849,7.718-5.808,7.718-4.084,0-5.811-4.51-5.811-7.718A5.81,5.81,0,0,1,355.541,211.365Z" transform="translate(-283.144 -174.078)" fill="#ffddab"/>
        <path id="Path_957804" data-name="Path 957804" d="M73.176,211.363a5.807,5.807,0,0,0-5.808,5.809c0,3.4,1.846,7.717,5.808,7.717,4.084,0,5.808-4.51,5.808-7.718a5.807,5.807,0,0,0-5.809-5.808Z" transform="translate(-35.354 -174.077)" fill="#ffddab"/>
        <path id="Path_957805" data-name="Path 957805" d="M389.726,211.365a5.842,5.842,0,0,0-1.039.094,5.81,5.81,0,0,1,4.77,5.713c0,3.093-1.527,6.935-4.774,7.613a5.1,5.1,0,0,0,1.042.105c3.959,0,5.808-4.314,5.808-7.718A5.809,5.809,0,0,0,389.726,211.365Z" transform="translate(-317.329 -174.078)" fill="#f9ce95"/>
        <path id="Path_957806" data-name="Path 957806" d="M107.365,211.365a5.834,5.834,0,0,0-1.038.094,5.808,5.808,0,0,1,4.77,5.713c0,2.921-1.429,6.919-4.766,7.613a5.057,5.057,0,0,0,1.034.105c4.084,0,5.808-4.51,5.808-7.718a5.807,5.807,0,0,0-5.809-5.808Z" transform="translate(-69.543 -174.078)" fill="#f9ce95"/>
        <path id="Path_957807" data-name="Path 957807" d="M233.232,352.737l-3.174-3.242,1.951-13.74a2.084,2.084,0,0,1-.842-.943,2.812,2.812,0,0,1,.091-1.89,1.291,1.291,0,0,1,1.1-.592H234.1a1.282,1.282,0,0,1,1.1.592,2.793,2.793,0,0,1,.095,1.89,2.11,2.11,0,0,1-.845.943l1.954,13.739Z" transform="translate(-178.125 -280.234)" fill="#ad1e1e"/>
        <path id="Path_957808" data-name="Path 957808" d="M189.87,171c2.955,0,5.511-2.539,6.748-6.231,2.066-.213,3.391-5.183,1.721-5.7a1.088,1.088,0,0,0-.94.115c1.423-6.007.26-7.082-1.616-7.877a8.369,8.369,0,0,0-5.913-2.816,8.192,8.192,0,0,0-7.529,10.693,1.085,1.085,0,0,0-.94-.115c-1.667.517-.345,5.487,1.724,5.7,1.234,3.692,3.793,6.231,6.744,6.231Z" transform="translate(-134.762 -118.904)" fill="#ffddab"/>
        <path id="Path_957809" data-name="Path 957809" d="M339.462,321.841h-9.023a6.484,6.484,0,0,0-4.168,1.494l0,.005a8.63,8.63,0,0,1,7.064,8.22v3.959h12.36v-7.893a6.037,6.037,0,0,0-6.231-5.784Z" transform="translate(-262.555 -271.028)" fill="#7da8ff"/>
        <path id="Path_957810" data-name="Path 957810" d="M39.442,331.564a8.631,8.631,0,0,1,7.07-8.222l-.008,0a6.484,6.484,0,0,0-4.168-1.494H33.309a6.036,6.036,0,0,0-6.227,5.784v7.894h12.36Z" transform="translate(0 -271.031)" fill="#7da8ff"/>
        <path id="Path_957811" data-name="Path 957811" d="M110.667,344.726v-3.959a8.631,8.631,0,0,1,7.07-8.222l-.008,0c-.086-.072-.176-.142-.266-.21h-.135c-5,0-9.084,3.8-9.084,8.435v3.959Z" transform="translate(-71.225 -280.236)" fill="#5090ef"/>
        <path id="Path_957812" data-name="Path 957812" d="M333.29,344.726v-3.959a8.631,8.631,0,0,0-7.07-8.222l.008,0c.086-.072.176-.142.266-.21h.135c5,0,9.084,3.8,9.084,8.435v3.959Z" transform="translate(-262.513 -280.236)" fill="#5090ef"/>
        <path id="Path_957813" data-name="Path 957813" d="M242.382,334.812a2.793,2.793,0,0,0-.095-1.89,1.283,1.283,0,0,0-1.1-.592H239.44a1.291,1.291,0,0,0-1.1.592,2.812,2.812,0,0,0-.091,1.89,2.084,2.084,0,0,0,.842.943h2.448A2.111,2.111,0,0,0,242.382,334.812Z" transform="translate(-185.205 -280.234)" fill="#d22e2e"/>
        <path id="Path_957814" data-name="Path 957814" d="M204.989,151.309a8.369,8.369,0,0,0-5.913-2.816,8.192,8.192,0,0,0-7.529,10.693c3.063-3.972,9.71-1.63,12.44-4.509a7.79,7.79,0,0,0,2.618,4.509C208.027,153.178,206.865,152.1,204.989,151.309Z" transform="translate(-143.968 -118.904)" fill="#7c6359"/>
        <path id="Path_957815" data-name="Path 957815" d="M257.844,224.576a1.187,1.187,0,0,0-.58-.035c-.117.054-.237.105-.36.15a8.172,8.172,0,0,1-1.4-1.554,18.063,18.063,0,0,1-1.228,7.139c-1.106,3.3-3.267,5.679-5.825,6.145a5.126,5.126,0,0,0,.922.086c2.955,0,5.51-2.539,6.748-6.231C258.189,230.063,259.515,225.093,257.844,224.576Z" transform="translate(-194.268 -184.409)" fill="#f9ce95"/>
        <path id="Path_957816" data-name="Path 957816" d="M317.478,234.753c.123-.045.243-.1.36-.15A.952.952,0,0,0,317.478,234.753Z" transform="translate(-254.842 -194.471)" fill="#604c42"/>
        <path id="Path_957817" data-name="Path 957817" d="M255.229,151.309a8.369,8.369,0,0,0-5.913-2.816,6.319,6.319,0,0,0-.931.072,8.635,8.635,0,0,1,5,2.744c1.1.466,1.983,3.1,2.063,6.323a8.173,8.173,0,0,0,1.4,1.554c1.423-6.008.26-7.083-1.616-7.877Z" transform="translate(-194.209 -118.904)" fill="#604c42"/>
        <g id="Group_1122641" data-name="Group 1122641" transform="translate(41.271 13)">
          <path id="Path_957818" data-name="Path 957818" d="M274.092,13.776l1.045,4.91,5.686,2.355.943-.612-4.209-1.743-1.045-4.91a.98.98,0,0,0-.958-.775h-2.42a.98.98,0,0,1,.958.776Z" transform="translate(-257.198 -13)" fill="#3d3d54"/>
          <path id="Path_957819" data-name="Path 957819" d="M383.7,67.224,378.8,66.182l-1.744-4.212,2.732-4.208a.979.979,0,0,0-.129-1.226l-6.177-6.174a.98.98,0,0,0-1.226-.129l-.8.521,5.785,5.782a.98.98,0,0,1,.129,1.226l-2.732,4.208,1.744,4.212,4.906,1.042a.979.979,0,0,1,.776.958v8.735a.979.979,0,0,1-.776.958l-1.187.252c-.047.186-.1.371-.155.554l0-.008,3.76-.8a.98.98,0,0,0,.776-.958V68.182a.979.979,0,0,0-.776-.958Z" transform="translate(-343.476 -45.536)" fill="#3d3d54"/>
          <path id="Path_957820" data-name="Path 957820" d="M168.814,135.746c0,.139,0,.277-.009.415a5.83,5.83,0,0,1,1.844-2.276,13.963,13.963,0,0,0-27.677,0,5.826,5.826,0,0,1,1.844,2.282c0-.14-.01-.28-.01-.421a12,12,0,0,1,24.008,0Z" transform="translate(-142.971 -108.464)" fill="#3d3d54"/>
          <path id="Path_957821" data-name="Path 957821" d="M156.69,263.89a10.454,10.454,0,0,1-.751,3.254,14.068,14.068,0,0,0,4.873,5.159c.262-.022.526-.033.795-.033h4.458A12.042,12.042,0,0,1,156.69,263.89Z" transform="translate(-154.351 -233.172)" fill="#3d3d54"/>
          <path id="Path_957822" data-name="Path 957822" d="M282.735,263.961a12.042,12.042,0,0,1-9.372,8.371h4.455q.4,0,.8.034a14.069,14.069,0,0,0,4.872-5.157A10.439,10.439,0,0,1,282.735,263.961Z" transform="translate(-257.399 -233.235)" fill="#3d3d54"/>
        </g>
      </g>
    </g>
  </g>
</svg>
