<svg xmlns="http://www.w3.org/2000/svg" xmlns:xlink="http://www.w3.org/1999/xlink" width="400" height="128.841" viewBox="0 0 400 128.841">
  <defs>
    <clipPath id="clip-path">
      <rect id="Rectangle_416192" data-name="Rectangle 416192" width="330.475" height="125" fill="none"/>
    </clipPath>
    <clipPath id="clip-path-3">
      <rect id="Rectangle_416188" data-name="Rectangle 416188" width="118.287" height="93.188" transform="translate(0 0.345)" fill="none"/>
    </clipPath>
    <clipPath id="clip-path-4">
      <rect id="Rectangle_416189" data-name="Rectangle 416189" width="49.199" height="98.354" transform="translate(122.703 23.59)" fill="none"/>
    </clipPath>
  </defs>
  <g id="Group_1122240" data-name="Group 1122240" transform="translate(-285 -4405.787)">
    <rect id="Rectangle_401121" data-name="Rectangle 401121" width="400" height="75.682" rx="10" transform="translate(285 4458.946)" fill="#8f006f"/>
    <g id="Group_1122611" data-name="Group 1122611" transform="translate(318 4405.787)">
      <g id="Group_1122610" data-name="Group 1122610" clip-path="url(#clip-path)">
        <g id="Group_1122609" data-name="Group 1122609">
          <g id="Group_1122608" data-name="Group 1122608" clip-path="url(#clip-path)">
            <path id="Path_957593" data-name="Path 957593" d="M130,118c0,3.866-22.38,7-49.986,7s-49.986-3.134-49.986-7,22.379-7,49.986-7S130,114.134,130,118" fill="#007cad"/>
            <rect id="Rectangle_416186" data-name="Rectangle 416186" width="155.24" height="93.188" rx="5.576" transform="translate(0 0.346)" fill="#003986"/>
            <rect id="Rectangle_416187" data-name="Rectangle 416187" width="142.301" height="78.908" transform="translate(6.47 7.485)" fill="#000032"/>
            <g id="Group_1122604" data-name="Group 1122604" style="mix-blend-mode: soft-light;isolation: isolate">
              <g id="Group_1122603" data-name="Group 1122603">
                <g id="Group_1122602" data-name="Group 1122602" clip-path="url(#clip-path-3)">
                  <path id="Path_957594" data-name="Path 957594" d="M68.587.345H5.577A5.578,5.578,0,0,0,0,5.921V87.957a5.578,5.578,0,0,0,5.577,5.576h112.71Z" fill="#fff"/>
                </g>
              </g>
            </g>
            <path id="Path_957595" data-name="Path 957595" d="M100.879,112.578C94,109.842,94.471,93.534,94.471,93.534H65.552s.471,16.308-6.408,19.044Z" fill="#000032"/>
            <path id="Path_957596" data-name="Path 957596" d="M104.827,112.578H55.194c-4.1,0-5.08,5.471-5.08,5.471h59.794s-.977-5.471-5.081-5.471" fill="#165798"/>
            <path id="Path_957597" data-name="Path 957597" d="M221.057,72.767A49.177,49.177,0,1,1,171.88,23.59a49.177,49.177,0,0,1,49.177,49.177" fill="#0067ae"/>
            <path id="Path_957598" data-name="Path 957598" d="M208.634,72.767A36.754,36.754,0,1,1,171.88,36.012a36.754,36.754,0,0,1,36.754,36.755" fill="#fff"/>
            <path id="Path_957599" data-name="Path 957599" d="M198.1,72.767a26.224,26.224,0,1,1-26.224-26.224A26.223,26.223,0,0,1,198.1,72.767" fill="#0067ae"/>
            <path id="Path_957600" data-name="Path 957600" d="M185.231,72.767a13.35,13.35,0,1,1-13.35-13.351,13.35,13.35,0,0,1,13.35,13.351" fill="#fff"/>
            <g id="Group_1122607" data-name="Group 1122607" style="mix-blend-mode: multiply;isolation: isolate">
              <g id="Group_1122606" data-name="Group 1122606">
                <g id="Group_1122605" data-name="Group 1122605" clip-path="url(#clip-path-4)">
                  <path id="Path_957601" data-name="Path 957601" d="M171.9,23.59h-.021a49.177,49.177,0,1,0,0,98.355h.021Z" fill="#4cb1da"/>
                </g>
              </g>
            </g>
            <path id="Path_957602" data-name="Path 957602" d="M228.14,19.357,205.534,40.818,199.56,22.766a5.722,5.722,0,0,1,1.2-7.556L214.564,2.1s5.28-5.022,7.8,1.9Z" fill="#044894"/>
            <path id="Path_957603" data-name="Path 957603" d="M228.14,19.357,205.534,40.818l17.717,6.9a5.724,5.724,0,0,0,7.609-.805l13.8-13.1s5.289-5.012-1.5-7.886Z" fill="#033978"/>
            <path id="Path_957604" data-name="Path 957604" d="M173.826,72.438a1.518,1.518,0,0,1-1.045-2.619L231.126,14.43a1.518,1.518,0,0,1,2.091,2.2L174.871,72.021a1.513,1.513,0,0,1-1.045.417" fill="#00295b"/>
            <path id="Path_957605" data-name="Path 957605" d="M173.419,65.934l-1.538,6.833,6.938-1.145Z" fill="#00295b"/>
            <path id="Path_957606" data-name="Path 957606" d="M282.519,80.324s11.765.5,27.037.1c6,9.173,9.626,17.062,8.5,26.393,0,0-2.384,7.549-14.035,8.259l-23.483-3.654-20.75.766s-20.2-22.126-7.24-26l25.041,3.244Z" fill="#004798"/>
            <path id="Path_957607" data-name="Path 957607" d="M316.336,97.046a5.875,5.875,0,0,0-.322-.686,7.847,7.847,0,0,0-.508-.661c-.345-.443-.694-.885-1.054-1.316-.743-.889-1.538-1.74-2.332-2.583q-.578-.612-1.167-1.213c-.393-.4-.775-.814-1.17-1.213a9.783,9.783,0,0,0-1.286-1.111c-.45-.32-.865-.688-1.329-.992s-.917-.582-1.37-.883c-.213-.141-.416-.31-.636-.438-.124-.072-.264-.117-.392-.181a1.627,1.627,0,0,1-.389-.291c-.022-.021-.142-.013-.115.024.061.086.142.165.2.257.039.067.064.146.1.216a1.328,1.328,0,0,0,.451.43,13.765,13.765,0,0,1,1.094.847,9.859,9.859,0,0,1,.844,1.03c.152.183.277.386.435.563.184.206.375.4.558.611.738.83,1.524,1.61,2.288,2.415q1.189,1.252,2.325,2.555c.413.475.837.94,1.249,1.416q.289.334.574.673a7.676,7.676,0,0,0,.826.765.953.953,0,0,0,.774.124c.159-.035.459-.138.359-.358" fill="#002b68"/>
            <path id="Path_957608" data-name="Path 957608" d="M293.878,36.578l10.684.223.245-11.658-10.684-.225s.946,9.211-.245,11.66" fill="#f79e86"/>
            <path id="Path_957609" data-name="Path 957609" d="M294.423,33.649a34.4,34.4,0,0,0,7.108-.989,14.261,14.261,0,0,0,3.146-1.307l.13-6.211-10.683-.224a66.013,66.013,0,0,1,.3,8.731" fill="#f27b6a"/>
            <path id="Path_957610" data-name="Path 957610" d="M287.24,16.588a20.328,20.328,0,0,0,2.541,5.145c1.342,1.7,3.31,1.817,4.218-.3a11.832,11.832,0,0,0,.454-6.506,4.74,4.74,0,0,0-1.625-3.148,3.71,3.71,0,0,0-5,.59,3.8,3.8,0,0,0-.584,4.22" fill="#421404"/>
            <path id="Path_957611" data-name="Path 957611" d="M288.961,19.435a29.079,29.079,0,0,0,.949,6.032c.545,2,1.288,5.74,3.541,6.574a4.6,4.6,0,0,0,2.067.189,12.986,12.986,0,0,0,8.29-4.512c3.638-4.247,3.628-14.549-.017-18.541-3.326-3.645-13.906-1.768-14.616,4.043a35.356,35.356,0,0,0-.214,6.215" fill="#f79e86"/>
            <path id="Path_957612" data-name="Path 957612" d="M291.255,24.418a7.334,7.334,0,0,0,.912.386,4.955,4.955,0,0,0,2.625-.127c1.26-.35,2.512-1.129,3.844-.68a6.1,6.1,0,0,0,2.345.411,2.9,2.9,0,0,0,2.457-1.748,17.74,17.74,0,0,1,.828-2.412,4.166,4.166,0,0,1,2.264-1.758c-.02,3.561-.152,8.7-1.948,10.793-1.951,2.279-6.891,4.363-9.959,4.555a4.624,4.624,0,0,1-2.067-.188c-2.253-.835-2.1-6.185-2.646-8.183-.124-.456-.233-.916-.332-1.379a2.909,2.909,0,0,1,1.677.33" fill="#581f0f"/>
            <path id="Path_957613" data-name="Path 957613" d="M305.382,18.386a1.637,1.637,0,0,0,.252-.166.539.539,0,0,0,.124-.245,1.579,1.579,0,0,1,.207-.386,5.021,5.021,0,0,1,.612-.591c.122-.124-.021.015.042-.043.021-.019.044-.036.065-.055.052-.047-.06.031,0-.006l.082-.043c.03-.015.062-.028.092-.042.063-.029-.136.025-.133.024-.054.007-.2.042-.254,0a.238.238,0,0,0,.065.022l.12.037c-.13-.039.025.011.069.026a.88.88,0,0,0,.1.026c-.105-.022.037.012.1.029a1.457,1.457,0,0,0,.174.038,1.086,1.086,0,0,0,.464-.031h-.506c.026.006.232.052.18.037s-.022-.006.056.022a.348.348,0,0,1,.083.032.415.415,0,0,1,.153.2c.1.2.2.4.283.6s.149.452.235.674.1.473.2.681c.013.027.1.032.113,0a1.656,1.656,0,0,0,.029-.571,3.53,3.53,0,0,0-.109-.61,3.91,3.91,0,0,0-.157-.521A3.66,3.66,0,0,0,307.9,17v.068c.046-.145-.054-.2-.146-.293l.051.093c-.018-.077.014-.114-.04-.191-.011-.017-.062-.067-.023-.022-.032-.036-.055-.075-.091-.111a.651.651,0,0,0-.22-.14c-.021-.008-.228-.057-.245-.089.09.034.091.034,0,0a.6.6,0,0,0-.118-.039,1.68,1.68,0,0,0-.222-.045,1.8,1.8,0,0,0-.481,0,1.872,1.872,0,0,0-.665.229,2.515,2.515,0,0,0-.819.764,1.883,1.883,0,0,0-.237.472,2.139,2.139,0,0,0-.064.285.522.522,0,0,0,.07.317c.085.214.574.186.727.094" fill="#f4836a"/>
            <path id="Path_957614" data-name="Path 957614" d="M303.807,16.544c.136.51.242,2.848.4,3.3s1.189-.266,1.189-.266c.724-.763-.211-2.481,1.052-2.758,1.371-.3-.632,8.247-.6,9.179,1.052-1.114,4.74-6.865,5.516-10.845a7.863,7.863,0,0,0-.776-5.873c-3.311-5.536-4.505-5.188-7.576-4.759-1.4.2-2.474,3.36-2.986,4.745-.55,1.482.459,2.614,1.474,3.567a5.671,5.671,0,0,1,2.3,3.711" fill="#421404"/>
            <path id="Path_957615" data-name="Path 957615" d="M307.644,16.845c1.435,1.24.89,5.2-1.7,6.669-.717-.691-.838-2.682-.99-3.658a3.8,3.8,0,0,1,.286-2.736,1.718,1.718,0,0,1,2.406-.275" fill="#f79e86"/>
            <path id="Path_957616" data-name="Path 957616" d="M305.561,19.66a3.429,3.429,0,0,0-.066.595.287.287,0,0,0,.071.179c.022.023.046.044.07.065a1.16,1.16,0,0,0,.192.134.836.836,0,0,0,1.315-.613,3.735,3.735,0,0,0,.086-.667c.015-.278.041-.661-.313-.739l.166.106a.384.384,0,0,0-.357-.21.342.342,0,0,0-.339.21l.166-.106a.373.373,0,0,0-.288.33,1.348,1.348,0,0,0-.005.262,4.79,4.79,0,0,1-.014.611,2.168,2.168,0,0,1-.044.289.245.245,0,0,0-.014.058c0-.047.014-.044,0-.014l-.009.026a.654.654,0,0,1-.046.113c-.016.03-.035.058-.053.087-.029.045.053-.048.012-.014a.363.363,0,0,0-.036.031c-.029.03.079-.047.042-.027l-.021.01c.11-.051.094-.034.065-.026-.049.015.123-.022.072-.014-.072.01.135,0,.062-.005.156,0,.115.009.076,0-.054-.008.123.029.05.009a.164.164,0,0,0-.021-.006c-.049-.011.1.043.028.01l-.071-.037c-.044-.024-.019.007.012.009a.18.18,0,0,1-.04-.028c-.014-.01-.027-.021-.041-.03s-.019-.014,0,.005a.189.189,0,0,1-.012-.03c-.009-.042-.03-.082-.039-.123s-.021-.1-.029-.153c-.016-.1-.027-.2-.05-.3-.026-.118-.188-.145-.291-.143s-.281.022-.291.143" fill="#f27b6a"/>
            <path id="Path_957617" data-name="Path 957617" d="M306.443,18.737a.4.4,0,0,1,.259-.169c.029-.008.058-.015.086-.024s.064-.006.025-.016a.611.611,0,0,0-.086,0c-.031,0,.008,0,.03.015a.924.924,0,0,1,.329.618,1.626,1.626,0,0,1-.085.918c-.056.135-.087.281-.134.42-.021.061-.046.121-.07.182a.454.454,0,0,0-.023.194c0,.142.3.114.378.076a.846.846,0,0,0,.266-.18c.071-.08.141-.164.2-.25a1.625,1.625,0,0,0,.281-.547,1.807,1.807,0,0,0-.094-1.216,1.114,1.114,0,0,0-1.025-.588c-.3,0-.788.184-.814.541-.013.167.411.139.472.031" fill="#f27b6a"/>
            <path id="Path_957618" data-name="Path 957618" d="M295.079,18.128c.027-.031.165-.006.216,0,.077.01.152.029.228.037a.6.6,0,0,0,.264-.057,3.22,3.22,0,0,1,1.005-.177,7.6,7.6,0,0,1,1.323.077,2.606,2.606,0,0,0,.459.006,1.288,1.288,0,0,1,.423.09,3.839,3.839,0,0,0,.378.159c.114.025.169-.034.217-.149a1.768,1.768,0,0,0,.048-.837l-.021-.123c-.071-.268-.057-.123.04.432a1.843,1.843,0,0,0-.04-.432.766.766,0,0,0-.163-.371,2.235,2.235,0,0,0-.441-.272c-.127-.068-.264-.116-.391-.184a1.2,1.2,0,0,0-.509-.188,7.39,7.39,0,0,0-1.287.083,3.614,3.614,0,0,0-1.131.353,1.39,1.39,0,0,0-.5.508,1.133,1.133,0,0,0-.213.508,1.374,1.374,0,0,0,.007.405c0,.022.033.189.084.131" fill="#421404"/>
            <path id="Path_957619" data-name="Path 957619" d="M291.735,17.719a.72.72,0,0,0-.2-.4.69.69,0,0,0-.217-.2,1.1,1.1,0,0,0-.275-.044,5.418,5.418,0,0,0-.686-.037,1.621,1.621,0,0,0-.762.108,3.639,3.639,0,0,1-.334.158c-.151.064-.293.107-.356.27a1.324,1.324,0,0,0-.067.468,1,1,0,0,0,.081.484c.075.137.217.053.342.029.06-.012.122-.024.183-.031a.861.861,0,0,1,.189.015,1.2,1.2,0,0,0,.383-.062,6.139,6.139,0,0,1,.736-.122c.116-.012.233-.021.351-.024a.582.582,0,0,0,.285-.035c.054-.031.22-.175.293-.146s.057-.4.054-.429" fill="#421404"/>
            <path id="Path_957620" data-name="Path 957620" d="M291.14,19.935c.039.523-.153.961-.431.982s-.535-.383-.575-.9.153-.961.43-.982.537.385.576.9" fill="#673927"/>
            <path id="Path_957621" data-name="Path 957621" d="M297.038,19.848c.041.521-.153.961-.429.982s-.536-.383-.576-.905.153-.96.43-.981.536.383.575.9" fill="#673927"/>
            <path id="Path_957622" data-name="Path 957622" d="M291.17,25.778a.9.9,0,0,0,.254.525,2.164,2.164,0,0,0,.6.351,4.232,4.232,0,0,0,1.658.256,3.556,3.556,0,0,0,.874-.143,1.53,1.53,0,0,0,.679-.314c.079-.074.134-.16.219-.229s.185-.144.277-.217a3.289,3.289,0,0,0,.3-.255.374.374,0,0,0,.131-.361c-.038-.309-.622-.252-.812-.165a1.464,1.464,0,0,0-.36.2c-.075.064-.144.136-.221.2-.148.123-.309.231-.453.359a1.97,1.97,0,0,0-.161.183c-.028.031.018-.006-.04.029.044-.027.024-.005-.015.006-.1.03-.2.054-.3.081a.676.676,0,0,1-.137.027c.049,0-.077,0-.088,0-.055,0-.11,0-.165,0l-.128,0c-.108,0,.005,0-.058,0a2.282,2.282,0,0,1-.476-.079,1.791,1.791,0,0,1-.426-.192c-.185-.112-.381-.2-.557-.33a.51.51,0,0,0-.362-.073c-.062.009-.257.054-.236.152" fill="#f17568"/>
            <path id="Path_957623" data-name="Path 957623" d="M291.89,19.133c0,.273.019.546.038.818a4.967,4.967,0,0,1,.038.789c-.045.487-.523.9-.789,1.279a1.251,1.251,0,0,0-.279,1.188,1.463,1.463,0,0,0,.888.747,3.041,3.041,0,0,0,1.635.156c.157-.031.568-.132.44-.379-.117-.225-.566-.257-.775-.216-.052.011-.105.015-.157.025-.069.006-.054,0,.044,0l-.084,0c-.148,0-.022.023,0,0-.013.015-.151-.021-.172-.024.159.024-.028-.009-.061-.019s-.152-.054-.035-.007c-.052-.021-.1-.044-.153-.07l-.072-.04c.042.027.041.025,0,0a.7.7,0,0,1-.17-.934,9.365,9.365,0,0,0,.7-1.423.886.886,0,0,0-.008-.487c-.038-.147-.079-.294-.122-.44-.092-.319-.192-.635-.263-.96-.045-.21-.641-.227-.642,0" fill="#f27b6a"/>
            <path id="Path_957624" data-name="Path 957624" d="M289.236,52.077c1.431-8.72-2.953-9.173-2.953-9.173-4.93-1.262-7.223,6.237-7.223,6.237s-3.553,16.6-3.507,24.032c0,0,5.227,3.245,7.7-1.39Z" fill="#f79e86"/>
            <path id="Path_957625" data-name="Path 957625" d="M302.857,35.135l16.506,6.074L310.275,81.9H288.52l-5.982-39.885,12.593-6.883Z" fill="#f79e86"/>
            <path id="Path_957626" data-name="Path 957626" d="M294.309,35.135l-11.033,5.547,4.56,40.926c4.4,2.235,6.861.811,13.659.8,2.174,0,8.616,1.187,9.56-1.1.574-1.387,2.191-4.307,2.14-5.78s1.567-3.871,1.688-5.344a10.251,10.251,0,0,1,.814-4.256c1.342-2.464,1.323-6.111,1.933-8.877a27.529,27.529,0,0,0,1.044-7.088c0-1.533,1.316-3.249,1.692-4.742.4-1.586.175-3.5-1.391-4.213-1.39-.637-2.975-1.033-4.416-1.567l-9.482-3.606s-8.663,2.76-10.768-.707" fill="#006eb0"/>
            <path id="Path_957627" data-name="Path 957627" d="M287.672,66.462l2.69-14.648s3.908-8.516-2.9-13.009c0,0-7.344,1.155-8.7,8.074L275.076,61.5s.37,3.641,12.6,4.961" fill="#006eb0"/>
            <path id="Path_957628" data-name="Path 957628" d="M312.487,99.188c-1.915-3.217-2.5-7.253-4.935-10.159-2.329-2.771-6.544-5.59-10.335-5.394-2.337.121-5.666,3.418-8.069,2.908-2.885-.614-7.9,2.207-10.3.567-1.924-1.316,3.839-11.968,3.254-14.323a11.847,11.847,0,0,1,.438-7.212c1.047-2.917,2.348-2.345,3.025-5.374.585-2.618,1.179-5.165,3.223-7.064,5.954-5.533,16.168-4.585,23.082-1.781a5.124,5.124,0,0,1,2.055,1.208c.57.68,2.507-.262,2.539,1.639.058,3.3.65,2.93.646,6.229a53.454,53.454,0,0,0,.948,8.678c.688,3.4.392,7.659,1.308,11.019,1.622,5.947,2.182,17.822,1.177,24.133a8.141,8.141,0,0,1-8.053-5.074" fill="#006eb0"/>
            <path id="Path_957629" data-name="Path 957629" d="M288.852,85.493c10.728-1.53,37.027,1.229,38.078-11.094.86-10.077-2.536-25.965-7.16-29.578-3.433-2.686-8.046-1.194-9.89,2.833-2.054,4.485,4.233,19.959,5.25,26.4,0,0-9.224,6.3-28.7,8.313Z" fill="#f79e86"/>
            <path id="Path_957630" data-name="Path 957630" d="M330.475,70.963l-7.962-25.306c-1.62-4.274-4.368-4.993-4.926-4.993-8.507,0-9.256,10.5-9.256,10.5l4.116,18.558s9.265,5.308,18.028,1.238" fill="#006eb0"/>
            <path id="Path_957631" data-name="Path 957631" d="M290.451,83.4c-.441-.585-2.875-.958-4.021-1.034a26.6,26.6,0,0,0-8.733.74,23.681,23.681,0,0,0-4.1,1.34c-.563.311-1.661.566-1.476,1.263.438.238,2.97-.267,4.638-.659-2.433.711-3,1.378-3.049,1.7.594.653,3.444-.633,5.449-1.069.647-.141-3.806,1.538-1.63,1.719.472.038,3.537-.843,4.989-1.172-.156.15-2.082,1.153-2.035,1.326.041.446,1.965-.028,2.926-.287,1.292-.349,8.78-1.563,7.037-3.868" fill="#f79e86"/>
            <path id="Path_957632" data-name="Path 957632" d="M259.78,77.244c-.534-.5-2.995-.465-4.137-.35a26.669,26.669,0,0,0-8.489,2.183,23.434,23.434,0,0,0-3.815,2c-.5.4-1.543.832-1.245,1.491.473.16,2.886-.759,4.463-1.422-2.279,1.1-2.728,1.858-2.722,2.183.694.547,3.29-1.2,5.195-1.961.614-.245-3.5,2.15-1.321,1.967.47-.039,3.348-1.42,4.724-1.985-.13.174-1.862,1.483-1.787,1.645.117.435,1.934-.352,2.838-.769,1.216-.56,8.4-3,6.3-4.985" fill="#f79e86"/>
            <path id="Path_957633" data-name="Path 957633" d="M275.892,67.9l-21.4,10.531,2.145,1.891s22.949-3.36,26.213-7.157c0,0-2.268-6.35-6.955-5.265" fill="#f79e86"/>
            <path id="Path_957634" data-name="Path 957634" d="M293.12,37.023c.231-.052-.43.062.016,0a.653.653,0,0,0,.329-.129l-.994-.132c-.1.4.693.776.957.919a8.89,8.89,0,0,0,1.458.625,8,8,0,0,0,1.509.307,3.537,3.537,0,0,1,.368.051c-.167-.038-.028,0,.007.011.1.024.2.044.3.062a5.88,5.88,0,0,0,.889.064l-.461-.061a4.505,4.505,0,0,0,1.282.172,4.1,4.1,0,0,0,.7-.035c.1-.013.194-.028.291-.043.221-.034-.145-.013-.163-.005.06-.025.223.034.288.044s.143.024.216.033A3.874,3.874,0,0,0,301,38.9c.1-.011.193-.03.29-.043.049-.007.1-.013.146-.018l-.125.012c.038,0,.076,0,.114,0,.11-.005.219-.013.328-.024s.2-.034.3-.054c.184-.038.37-.076.551-.129.073-.018.048-.013-.076.013l.305-.063c.067-.016.134-.035.2-.056.186-.06.367-.134.549-.205.212-.082-.125.037.046-.016.069-.021.137-.045.207-.064.241-.067-.172.027.028-.007.113-.011.087-.01-.078.005.066,0,.133-.005.2-.011a2.329,2.329,0,0,0,.834-.193,1.161,1.161,0,0,0,.445-.312,1.081,1.081,0,0,0,.153-.438c.051-.221-.393-.349-.513-.374a1.488,1.488,0,0,0-.913.085c-.09.042-.18.085-.271.124-.051.022-.1.042-.15.067s-.282.164-.148.1c.1-.05,0,0-.029.012-.1.039.15-.048.162-.051.033-.007.336-.029.2-.026s-.253.011-.379.022a4.845,4.845,0,0,0-1.375.4c-.2.082.141-.043-.066.023-.037.012-.076.021-.113.034-.15.049.374-.076-.02.006-.137.028-.27.065-.4.1l-.128.034-.062.016q-.121.027,0,0c.1-.058.038-.012-.023,0l-.029,0c.169-.011.209-.014.12-.01a2.762,2.762,0,0,0-.522.045q-.144.022-.288.048c-.062.011-.177,0,.051,0l.12.011c-.048,0-.1-.01-.145-.017a5.853,5.853,0,0,0-.77-.075,4.647,4.647,0,0,0-.839.094c-.052.009-.179.049.043,0a.958.958,0,0,1-.151,0c-.1,0-.2,0-.3,0-.192,0,.024-.007.037.006-.024-.026-.1.006-.134-.016.085.061.121.025.034,0a2.259,2.259,0,0,0-.536-.06c-.092,0-.183,0-.275,0a.537.537,0,0,1-.126,0l.114.006-.06-.008c-.093-.055-.028.006.034.008a2.518,2.518,0,0,1-.265-.059c-.126-.021-.255-.028-.381-.039-.191-.017-.382-.03-.572-.05-.1-.012-.206-.025-.309-.042-.02,0-.16-.032-.072-.012s-.09-.024-.107-.029a7.735,7.735,0,0,1-1.252-.444c-.23-.1-.456-.215-.684-.322a5.862,5.862,0,0,1-.543-.339.781.781,0,0,0-.892.116l-.007.009a.134.134,0,0,0,0,.139.383.383,0,0,1,.042.063c.091.185.444.153.6.119" fill="#0052a2"/>
            <path id="Path_957635" data-name="Path 957635" d="M314.494,40.554c-.187.134-.355.29-.534.434s-.411.214-.6.369c-.347.291-.7.58-1.042.874a6.468,6.468,0,0,0-.88.975,5.763,5.763,0,0,0-.688,1.078c-.182.389-.387.767-.569,1.156a6.188,6.188,0,0,0-.407,1.4,9.052,9.052,0,0,0-.193,1.31c-.011.189-.013.378-.018.568a3.946,3.946,0,0,1-.085.563,1.5,1.5,0,0,0,.087.539c-.017-.1-.01.014-.011.025a1.234,1.234,0,0,0,0,.149c0,.1-.006.2,0,.293.016.228.071.46.1.688s.052.448.077.673c.1.919.294,1.818.477,2.725a12.129,12.129,0,0,0,.34,1.367c.135.416.271.827.395,1.247s.282.825.377,1.253c.1.48.221.952.355,1.425.283,1,.558,2.009.759,3.032a15.741,15.741,0,0,0,.786,2.993c.042.1.408.106.4-.026-.073-.9.04-1.8.014-2.693a18.219,18.219,0,0,0-.328-2.684,17.971,17.971,0,0,1-.39-2.708,11.581,11.581,0,0,0-.148-1.257c-.057-.423-.147-.855-.235-1.272-.094-.44-.174-.883-.253-1.326s-.181-.884-.24-1.332-.1-.9-.143-1.342c-.022-.2-.046-.406-.075-.608s-.01-.4-.021-.6a1.784,1.784,0,0,0-.075-.343c-.021-.088,0,.13-.006-.037,0-.037,0-.072,0-.11.009-.169.067-.331.075-.5.019-.416-.016-.83.031-1.245a11.866,11.866,0,0,1,.219-1.3,5.612,5.612,0,0,1,.465-1.189c.2-.417.36-.847.6-1.247a8.542,8.542,0,0,1,.771-1.08c.27-.331.517-.695.756-1.05.225-.333.375-.695.58-1.039.078-.131-.143-.209-.227-.227a.632.632,0,0,0-.49.079" fill="#0052a2"/>
            <path id="Path_957636" data-name="Path 957636" d="M307.544,85.051a1.555,1.555,0,0,1,.23.257.687.687,0,0,0,.128.2,3.873,3.873,0,0,0,.476.417,5.439,5.439,0,0,1,1.008.845,5.881,5.881,0,0,1,1.264,2.254,12.29,12.29,0,0,1,.258,2.49,7.073,7.073,0,0,0,.334,1.462c.122.429.231.857.386,1.275a5.8,5.8,0,0,0,.611,1.26,3.213,3.213,0,0,0,.442.549,1.478,1.478,0,0,0,.3.2,1.074,1.074,0,0,0,.123.06c.047.025.034.015-.041-.031.053.048.058.046.013-.006a1.334,1.334,0,0,0,1.23.343c.281-.046.866-.2.7-.6a1.208,1.208,0,0,0-.52-.5c-.1-.06.041.045.054.037-.005,0-.053-.048-.059-.054-.035-.04-.073-.076-.107-.116.073.084-.026-.034-.044-.057a5.232,5.232,0,0,1-.6-1.013,10.407,10.407,0,0,1-.506-1.3,9.616,9.616,0,0,1-.429-1.393c-.036-.213-.035-.43-.069-.644a5.175,5.175,0,0,1-.082-.644,5.585,5.585,0,0,0-.269-1.312,6.488,6.488,0,0,0-1.455-2.435,4.947,4.947,0,0,0-1.27-.953,3.839,3.839,0,0,0-.86-.392c-.153-.044-.313-.065-.469-.094a2.345,2.345,0,0,1-.531-.187c-.055-.024-.341-.019-.239.09" fill="#0052a2"/>
            <rect id="Rectangle_416190" data-name="Rectangle 416190" width="37.716" height="1.804" transform="translate(255.496 87.406)" fill="#96999c"/>
            <path id="Path_957637" data-name="Path 957637" d="M244.6,89.21h35.1l-3.078-24.777h-35.1Z" fill="#fff"/>
            <path id="Path_957638" data-name="Path 957638" d="M280.952,89.21H279.7l-3.077-24.777h1.248Z" fill="#c7c9cb"/>
            <path id="Path_957639" data-name="Path 957639" d="M257.8,76.224a2.808,2.808,0,1,0,2.808-2.807,2.808,2.808,0,0,0-2.808,2.807" fill="#c7c9cb"/>
            <path id="Path_957640" data-name="Path 957640" d="M278.148,107.652l8.03,3.271-2.065,6.243-8.18-2.763Z" fill="#f6957c"/>
            <path id="Path_957641" data-name="Path 957641" d="M267.237,107.246l-8.637.764.138,6.574,8.63-.233Z" fill="#f6957c"/>
            <path id="Path_957642" data-name="Path 957642" d="M261.223,114.6c-3.727,1.027-14.358.166-18.23-1.3-4.684-1.778-4.36-11.156,1.54-9.813,5.345,1.218,10.964,3.4,16.415,3.843,0,0,3.246,2.518.275,7.272" fill="#66c7dc"/>
            <path id="Path_957643" data-name="Path 957643" d="M261.223,114.6c-1.332-2.746-.58-8.473-.58-8.473l4.657-2.447c5.748-4.472,12.569-7.375,18.2-11.993,4.359-3.576,8.621-9.544,14.956-8.911,4.283.428,7.235,3.648,9.69,6.878,4.1,5.384,9.911,9.777,9.911,17.159,0,6.234-8.27,10.913-12.73,10.21-3.3-.52-8.251-4.677-10.084-7.181l-4.92-6.069s-1.956,6.372-20.951,10.371c0,0-5.645,1.208-8.146.456" fill="#004798"/>
            <path id="Path_957644" data-name="Path 957644" d="M294.809,83.05a12.244,12.244,0,0,0-1.511.508,4.968,4.968,0,0,0-.841.472q-.428.264-.845.544c-1.2.8-2.344,1.685-3.55,2.478-.9.6-1.853,1.116-2.749,1.726-.95.645-1.876,1.326-2.791,2.02-1.746,1.322-3.458,2.693-5.088,4.156a66.514,66.514,0,0,1-6.623,5.258c-1.157.8-2.334,1.569-3.513,2.334-.609.394-1.207.8-1.806,1.212q-.451.307-.9.617l-.441.3a1.257,1.257,0,0,0-.182.151c-.03.03-.061.06-.09.091l-.1.115c.017-.031.013-.031-.011,0a1.013,1.013,0,0,0-.309.456.972.972,0,0,1-.2.323c-.084.114.12.21.192.232a.8.8,0,0,0,.506-.032,4.394,4.394,0,0,1,.611-.188,2.33,2.33,0,0,0,.382-.123c.052-.021.1-.045.155-.067l.131-.064c-.108.054.154-.063.213-.088l.15-.068a2.163,2.163,0,0,0,.235-.131l.5-.313q.949-.591,1.9-1.176c1.252-.77,2.483-1.578,3.7-2.395a51.9,51.9,0,0,0,6.814-5.278c1.525-1.438,3.073-2.844,4.665-4.207a45.655,45.655,0,0,1,4.9-3.8,32.341,32.341,0,0,0,3.329-2.511c.483-.407.967-.813,1.469-1.2.225-.172.454-.342.692-.5.192-.126.352-.305.549-.431a3.006,3.006,0,0,1,.611-.292c.209-.076-.059-.163-.166-.139" fill="#002b68"/>
            <path id="Path_957645" data-name="Path 957645" d="M283.534,108.219c-.02-.025-.039-.049-.057-.075a.343.343,0,0,0-.028-.036c-.044-.04.005-.062,0,.04.009-.135-.155-.256-.256-.3.159.073.089.057.03,0-.022-.02-.043-.042-.065-.061a.348.348,0,0,0-.034-.032l-.017-.016c.093.108.1.117.023.027-.069-.046-.383-.283-.1-.09l-.072-.046c-.15-.1-.3-.2-.447-.3-.425-.3-.9-.542-1.343-.814l-.317-.2-.143-.089c-.031-.019-.158-.1,0,0,.211.134-.116-.074-.2-.123-.236-.144-.473-.288-.708-.433s-.477-.3-.714-.447c-.069-.042-.136-.085-.2-.128s-.163-.1.1.067c-.026-.018-.054-.035-.081-.052l-.408-.26c-1.119-.72-2.268-1.4-3.394-2.107l-.108-.069s.242.154.1.065l-.174-.11-.431-.276c-.334-.215-.671-.418-1.02-.607-.283-.152-.564-.305-.847-.459a.654.654,0,0,0-.178-.1l.111.076q-.109-.07-.219-.138l-.1-.064-.368-.23q-.1-.062-.2-.126l-.078-.05c-.119-.074.061.04.07.045l-.391-.25c-.222-.143-.445-.288-.665-.435-.406-.268-.81-.539-1.2-.826a31.2,31.2,0,0,1-2.389-2.136c-1.267-1.147-2.572-2.252-3.851-3.385q-.974-.861-1.912-1.758c-.638-.613-1.246-1.254-1.895-1.856A38.63,38.63,0,0,0,251.09,84.6l-.555-.3a3.784,3.784,0,0,0-.808-.278,1.618,1.618,0,0,0-1.12.07c-.235.13-.358.33-.144.549a1.943,1.943,0,0,0,.534.412l.627.324q.579.3,1.151.614c.729.395,1.45.8,2.161,1.228q.25.151.5.306c.084.051.166.1.248.155l.022.014.163.106q.5.326.992.671c.681.481,1.344.99,1.981,1.528.68.572,1.31,1.191,1.948,1.806s1.319,1.24,1.991,1.845c1.293,1.164,2.621,2.287,3.919,3.445.9.806,1.754,1.676,2.7,2.436.751.606,1.488,1.228,2.257,1.812.456.346.9.694,1.348,1.057a8.186,8.186,0,0,0,.7.549l.793.512c1.154.739,2.306,1.5,3.5,2.162,1.055.585,2.113,1.165,3.194,1.7.464.229.93.456,1.4.671.09.04.185.067.273.107-.278-.127-.194-.076-.127-.051l.177.067c.169.065.34.129.509.192l.142.052c.117.042-.129-.048-.117-.045.053.02.78.24.278.094a2.5,2.5,0,0,0,.308.072c.053.009.158.046-.077-.037a1.751,1.751,0,0,0,.386.11l.232.016-.14-.014c.022.005.046.006.069.009.083.011.168.02.252.029a1.106,1.106,0,0,0,.615-.079c.091-.046.259-.179.164-.3" fill="#002b68"/>
            <path id="Path_957646" data-name="Path 957646" d="M294.714,108.815a7.092,7.092,0,0,0-1.5-1.9,5.387,5.387,0,0,0-1.035-.789,3.63,3.63,0,0,0-1.316-.4,4.148,4.148,0,0,0-.9,0c-.048.005-.1.012-.143.021l-.047.009q-.367.077-.163.033l.061-.013-.11.02q-.2.038-.4.084a5.276,5.276,0,0,0-1.3.513c-.425.232-.831.5-1.232.768a10.286,10.286,0,0,1-1.05.7c.2-.1.034-.022-.009.005s-.113.069-.17.1c-.105.063-.211.123-.319.181-.194.1-.388.208-.59.3-.049.022-.105.038-.152.063.264-.144.072-.026-.014,0-.105.035-.211.062-.317.091-.208.057.28-.055.067-.012a2.16,2.16,0,0,0-.567.166,2.377,2.377,0,0,0-.307.217.279.279,0,0,0-.093.349.725.725,0,0,0,.425.27,3.112,3.112,0,0,0,2.05-.087,6.12,6.12,0,0,0,1.24-.553c.717-.434,1.365-.958,2.043-1.448.155-.112.312-.219.472-.325.116-.077-.02.008-.034.021a.891.891,0,0,1,.139-.085c.092-.055.186-.108.281-.158.153-.08.307-.16.462-.235.052-.024.191-.056.229-.1l-.1.038.1-.034a1.45,1.45,0,0,0,.144-.052q.2-.073-.012,0a.977.977,0,0,0,.127-.039c.126-.039-.073.015-.083.016.173-.028-.226,0-.047,0h.1c.179,0-.214-.03-.034,0a.881.881,0,0,0,.124.018c.109,0-.192-.05-.024,0,.059.016.119.031.178.049l.128.041c.172.056-.128-.056.042.017.071.03.142.055.214.083-.138-.054.046.021.06.027a4.751,4.751,0,0,1,.552.265,6.4,6.4,0,0,1,1.148.906,7.172,7.172,0,0,1,.866.969.57.57,0,0,0,.529.147c.108-.014.389-.094.3-.259" fill="#002b68"/>
            <path id="Path_957647" data-name="Path 957647" d="M241.14,83.084c-8.671,1.13-6.427,9.178-3.388,11.967,8.184,7.5,19.99,13.156,30.288,17.135.349.134,10.108,3.776,11.742,4.427-2.029-4.9,2.5-8.312,2.5-8.312s-11.526-5.579-19.259-13.708c0,0-11.555-13.7-21.881-11.509" fill="#004798"/>
            <path id="Path_957648" data-name="Path 957648" d="M281.731,116.451c3.26,2.078,13.676,4.383,17.805,4.12,5-.32,7.452-9.379,1.418-9.831-5.467-.41-11.479.025-16.819-1.156,0,0-3.844,1.45-2.4,6.867" fill="#66c7dc"/>
            <path id="Path_957649" data-name="Path 957649" d="M302.314,7.254c.019,1.735-3.647,5.722-5.481,5.544a13.684,13.684,0,0,0,.5-2.582,37.182,37.182,0,0,1-5.5,3.591c-.751.34-2.75,1.026-3.4.478-.421-.357-.144-1.09-.4-1.495-.471-.757-.431-.3-1.165-.729-4.031-2.351-.015-8.749,3.058-10.525a14.749,14.749,0,0,1,11.183-.8,6.312,6.312,0,0,1,3.634,2.622c.594,1.1,1.222,4.872-.542,5.21Z" fill="#421404"/>
          </g>
        </g>
      </g>
    </g>
  </g>
</svg>
