<svg xmlns="http://www.w3.org/2000/svg" width="151" height="151" viewBox="0 0 151 151">
  <g id="Group_1122690" data-name="Group 1122690" transform="translate(-406 -906)">
    <g id="Group_1122689" data-name="Group 1122689" transform="translate(224.432 -6469.496)">
      <g id="Group_1099775" data-name="Group 1099775" transform="translate(181.568 7375.496)">
        <g id="Group_1099770" data-name="Group 1099770" transform="translate(0 0)">
          <g id="Rectangle_401345" data-name="Rectangle 401345" transform="translate(0 0)" fill="#fff" stroke="#daf5fe" stroke-width="5">
            <rect width="151" height="151" rx="10" stroke="none"/>
            <rect x="2.5" y="2.5" width="146" height="146" rx="7.5" fill="none"/>
          </g>
        </g>
      </g>
    </g>
    <g id="Group_1099484" data-name="Group 1099484" transform="translate(429.436 929.14)">
      <rect id="Rectangle_401104" data-name="Rectangle 401104" width="104" height="108" transform="translate(0.564 -1.139)" fill="none"/>
      <g id="Group_1122562" data-name="Group 1122562" transform="translate(5.825 6.121)">
        <g id="Group_1122559" data-name="Group 1122559" transform="translate(22.102 25.84)">
          <g id="Group_1122556" data-name="Group 1122556">
            <g id="Group_1122555" data-name="Group 1122555">
              <path id="Path_957505" data-name="Path 957505" d="M123.508,144.8a1.83,1.83,0,1,1,1.8-1.472,1.845,1.845,0,0,1-1.8,1.472Z" transform="translate(-121.681 -141.147)" fill="#182e68"/>
            </g>
          </g>
          <g id="Group_1122558" data-name="Group 1122558" transform="translate(33.456 37.594)">
            <g id="Group_1122557" data-name="Group 1122557">
              <path id="Path_957506" data-name="Path 957506" d="M306.257,350.149a1.83,1.83,0,1,1,1.808-1.544A1.847,1.847,0,0,1,306.257,350.149Z" transform="translate(-304.427 -346.494)" fill="#182e68"/>
            </g>
          </g>
        </g>
        <g id="Group_1122561" data-name="Group 1122561" transform="translate(0 0)">
          <g id="Group_1122560" data-name="Group 1122560" transform="translate(0 0)">
            <path id="Path_957507" data-name="Path 957507" d="M94.227,13.61a1.83,1.83,0,0,0-1.58-1.189l-9.981-.747-.747-9.98A1.831,1.831,0,0,0,78.8.537L70.822,8.514a7.35,7.35,0,0,0-2.155,4.945c0,.033,0,.066,0,.1l.109,6.113a41.705,41.705,0,1,0,5.97,5.906l6.042.1h.1a7.352,7.352,0,0,0,4.945-2.155L93.8,15.542a1.831,1.831,0,0,0,.422-1.931ZM73.411,11.1l5.155-5.155.5,6.735-6.64,6.65-.1-5.785A3.7,3.7,0,0,1,73.411,11.1ZM42.618,90.074A38,38,0,1,1,67.973,23.795l-4.24,4.24a31.983,31.983,0,0,0-31.964-6.078A1.831,1.831,0,0,0,33.013,25.4a28.326,28.326,0,0,1,28.126,5.227l-4.247,4.247a22.356,22.356,0,1,0-4.113,37.115,1.831,1.831,0,1,0-1.669-3.259,18.458,18.458,0,0,1-8.491,2.042,18.7,18.7,0,1,1,11.671-33.3l-4.271,4.271a12.726,12.726,0,1,0,2.638,2.54l4.255-4.255a18.68,18.68,0,0,1,3.459,17.923,1.831,1.831,0,0,0,3.475,1.154,22.342,22.342,0,0,0-4.337-21.674L63.75,33.2a28.35,28.35,0,1,1-44.04,2.2,1.831,1.831,0,0,0-2.957-2.16A32.013,32.013,0,1,0,66.341,30.6l4.237-4.237a37.979,37.979,0,0,1-27.96,63.706Zm9.049-38a9.056,9.056,0,1,1-4.285-7.69l-5.84,5.839a1.831,1.831,0,1,0,2.589,2.589l5.909-5.909A9,9,0,0,1,51.667,52.075ZM83.238,20.93a3.7,3.7,0,0,1-2.446,1.083l-5.765-.093L78.544,18.4c.039-.039.076-.08.111-.122l3.005-3.01,6.733.5Z" transform="translate(-0.956 -0.001)" fill="#0653ae"/>
          </g>
        </g>
      </g>
    </g>
    <path id="Path_878169" data-name="Path 878169" d="M194.822,0h1.691l-.254,2.884,2.388-1.817.857,1.469-2.716,1.332,2.716,1.4-.857,1.48-2.388-1.882.254,2.939h-1.691l.317-2.991-2.4,1.86L191.9,5.2l2.642-1.332L191.831,2.61l.857-1.469,2.44,1.775Z" transform="translate(298.668 1039.539)" fill="#0653ae"/>
    <path id="Path_957951" data-name="Path 957951" d="M194.822,0h1.691l-.254,2.884,2.388-1.817.857,1.469-2.716,1.332,2.716,1.4-.857,1.48-2.388-1.882.254,2.939h-1.691l.317-2.991-2.4,1.86L191.9,5.2l2.642-1.332L191.831,2.61l.857-1.469,2.44,1.775Z" transform="translate(224.53 915.191)" fill="#0653ae"/>
    <path id="Path_878170" data-name="Path 878170" d="M206.811,0H208.5l-.254,2.884,2.388-1.817.857,1.469-2.716,1.332,2.716,1.4-.857,1.48-2.388-1.882.254,2.939h-1.691l.317-2.991-2.4,1.86L203.885,5.2l2.642-1.332L203.821,2.61l.857-1.469,2.44,1.775Z" transform="translate(299.422 1039.539)" fill="#0653ae"/>
    <path id="Path_957952" data-name="Path 957952" d="M206.811,0H208.5l-.254,2.884,2.388-1.817.857,1.469-2.716,1.332,2.716,1.4-.857,1.48-2.388-1.882.254,2.939h-1.691l.317-2.991-2.4,1.86L203.885,5.2l2.642-1.332L203.821,2.61l.857-1.469,2.44,1.775Z" transform="translate(225.284 915.191)" fill="#0653ae"/>
    <path id="Path_878171" data-name="Path 878171" d="M218.8,0h1.691l-.254,2.884,2.388-1.817.857,1.469-2.716,1.332,2.716,1.4-.857,1.48-2.388-1.882.254,2.939H218.8l.317-2.991-2.4,1.86L215.874,5.2l2.641-1.332-2.7-1.257.856-1.469,2.441,1.775Z" transform="translate(300.173 1039.539)" fill="#0653ae"/>
    <path id="Path_957953" data-name="Path 957953" d="M218.8,0h1.691l-.254,2.884,2.388-1.817.857,1.469-2.716,1.332,2.716,1.4-.857,1.48-2.388-1.882.254,2.939H218.8l.317-2.991-2.4,1.86L215.874,5.2l2.641-1.332-2.7-1.257.856-1.469,2.441,1.775Z" transform="translate(226.035 915.191)" fill="#0653ae"/>
    <path id="Path_878172" data-name="Path 878172" d="M230.79,0h1.691l-.254,2.884,2.388-1.817.857,1.469-2.716,1.332,2.716,1.4-.857,1.48-2.388-1.882.254,2.939H230.79l.317-2.991-2.4,1.86L227.864,5.2l2.642-1.332L227.8,2.61l.857-1.469,2.44,1.775Z" transform="translate(300.926 1039.539)" fill="#0653ae"/>
    <path id="Path_957954" data-name="Path 957954" d="M230.79,0h1.691l-.254,2.884,2.388-1.817.857,1.469-2.716,1.332,2.716,1.4-.857,1.48-2.388-1.882.254,2.939H230.79l.317-2.991-2.4,1.86L227.864,5.2l2.642-1.332L227.8,2.61l.857-1.469,2.44,1.775Z" transform="translate(226.788 915.191)" fill="#0653ae"/>
    <path id="Path_878173" data-name="Path 878173" d="M242.78,0h1.691l-.254,2.884L246.6,1.067l.855,1.469-2.715,1.332,2.715,1.4-.855,1.48-2.388-1.882.254,2.939H242.78l.317-2.991-2.4,1.86L239.853,5.2l2.641-1.332-2.7-1.257.856-1.469,2.441,1.775Z" transform="translate(301.678 1039.539)" fill="#0653ae"/>
    <path id="Path_957955" data-name="Path 957955" d="M242.78,0h1.691l-.254,2.884L246.6,1.067l.855,1.469-2.715,1.332,2.715,1.4-.855,1.48-2.388-1.882.254,2.939H242.78l.317-2.991-2.4,1.86L239.853,5.2l2.641-1.332-2.7-1.257.856-1.469,2.441,1.775Z" transform="translate(227.54 915.191)" fill="#0653ae"/>
  </g>
</svg>
