<svg xmlns="http://www.w3.org/2000/svg" width="152" height="152" viewBox="0 0 152 152">
  <g id="Group_1109029" data-name="Group 1109029" transform="translate(-317 -4479)">
    <g id="Group_1103900" data-name="Group 1103900" transform="translate(317 4479)">
      <g id="Rectangle_401345" data-name="Rectangle 401345" transform="translate(0)" fill="#fff" stroke="#ffcff3" stroke-width="5">
        <rect width="152" height="152" rx="10" stroke="none"/>
        <rect x="2.5" y="2.5" width="147" height="147" rx="7.5" fill="none"/>
      </g>
      <g id="Group_1099758" data-name="Group 1099758" transform="translate(29.471 30.923)">
        <rect id="Rectangle_401104" data-name="Rectangle 401104" width="92.476" height="92.476" transform="translate(0 0)" fill="none"/>
        <g id="Group_1122600" data-name="Group 1122600" transform="translate(-25.999 -26.573)">
          <path id="Path_957563" data-name="Path 957563" d="M130.586,107.42H103.708a1.014,1.014,0,0,1-1.006-1.006,14.444,14.444,0,0,1,28.888,0,1.012,1.012,0,0,1-1.005,1.005Z" transform="translate(-61.283 -52.14)" fill="#79735f" fill-rule="evenodd"/>
          <path id="Path_957564" data-name="Path 957564" d="M128.793,114.612H103.708a1.014,1.014,0,0,1-1.006-1.006,14.425,14.425,0,0,1,5.234-11.117,14.446,14.446,0,0,1,20.857,12.123Z" transform="translate(-61.283 -59.332)" fill="#857e66" fill-rule="evenodd"/>
          <path id="Path_957565" data-name="Path 957565" d="M290.188,107.42H263.309a1.015,1.015,0,0,1-1.007-1.006,14.444,14.444,0,0,1,28.888,0,1.013,1.013,0,0,1-1.005,1.005Z" transform="translate(-188.798 -52.14)" fill="#d9b667" fill-rule="evenodd"/>
          <path id="Path_957566" data-name="Path 957566" d="M288.393,114.611H263.309A1.015,1.015,0,0,1,262.3,113.6a14.411,14.411,0,0,1,5.232-11.112,14.439,14.439,0,0,1,20.859,12.118Z" transform="translate(-188.798 -59.331)" fill="#ffd46d" fill-rule="evenodd"/>
          <path id="Path_957567" data-name="Path 957567" d="M53.863,195.52H27.006A1,1,0,0,1,26,194.514a14.434,14.434,0,1,1,28.869,0,1.012,1.012,0,0,1-1.005,1.005Z" transform="translate(0 -122.529)" fill="#6ea0c2" fill-rule="evenodd"/>
          <path id="Path_957568" data-name="Path 957568" d="M52.071,202.71H27.006A1,1,0,0,1,26,201.7a14.418,14.418,0,0,1,5.233-11.116A14.429,14.429,0,0,1,52.071,202.71Z" transform="translate(0 -129.719)" fill="#75b5e2" fill-rule="evenodd"/>
          <path id="Path_957569" data-name="Path 957569" d="M211.984,195.52H185.105a1.014,1.014,0,0,1-1.005-1.006,14.444,14.444,0,0,1,28.889,0,1.012,1.012,0,0,1-1,1.005Z" transform="translate(-126.317 -122.529)" fill="#cf515a" fill-rule="evenodd"/>
          <path id="Path_957570" data-name="Path 957570" d="M210.192,202.711H185.105A1.014,1.014,0,0,1,184.1,201.7a14.415,14.415,0,0,1,5.233-11.112,14.439,14.439,0,0,1,20.859,12.118Z" transform="translate(-126.317 -129.72)" fill="#ef525f" fill-rule="evenodd"/>
          <path id="Path_957571" data-name="Path 957571" d="M370.184,195.52H343.306a1.014,1.014,0,0,1-1.006-1.006,14.444,14.444,0,0,1,28.889,0,1.012,1.012,0,0,1-1.006,1.005Z" transform="translate(-252.714 -122.529)" fill="#5ca882" fill-rule="evenodd"/>
          <path id="Path_957572" data-name="Path 957572" d="M368.392,202.71H343.306A1.014,1.014,0,0,1,342.3,201.7a13.056,13.056,0,1,1,26.092,1.006Z" transform="translate(-252.714 -129.719)" fill="#60c090" fill-rule="evenodd"/>
          <path id="Path_957573" data-name="Path 957573" d="M83.1,41.846a7.565,7.565,0,1,1,7.579-7.565A7.576,7.576,0,0,1,83.1,41.846ZM67.681,59.558a7.565,7.565,0,1,1,7.558-7.566,7.581,7.581,0,0,1-7.558,7.566Zm63.587,0a7.565,7.565,0,1,1,7.579-7.566A7.575,7.575,0,0,1,131.267,59.558Zm-31.782,0a7.565,7.565,0,1,1,7.557-7.566,7.582,7.582,0,0,1-7.557,7.566Zm15.723-17.712a7.565,7.565,0,1,1,7.555-7.565,7.581,7.581,0,0,1-7.555,7.565Z" transform="translate(-27.246 0)" fill="#d0af97" fill-rule="evenodd"/>
          <path id="Path_957574" data-name="Path 957574" d="M83.1,44.723a7.564,7.564,0,0,1-3.918-14.031A7.564,7.564,0,0,1,85.47,44.343a7.571,7.571,0,0,1-2.37.379ZM63.745,48.406A7.564,7.564,0,0,1,70.03,62.058a7.517,7.517,0,0,1-2.35.376h0a7.561,7.561,0,0,1-3.936-14.028Zm63.607,0a7.564,7.564,0,0,1,6.285,13.652A7.563,7.563,0,0,1,127.352,48.4Zm-31.8,0a7.564,7.564,0,0,1,6.286,13.652,7.516,7.516,0,0,1-2.351.376h0a7.561,7.561,0,0,1-3.936-14.028Zm15.719-17.711a7.564,7.564,0,0,1,6.286,13.652,7.512,7.512,0,0,1-2.349.375h0a7.561,7.561,0,0,1-3.94-14.028Z" transform="translate(-27.246 -2.876)" fill="#f3cbab" fill-rule="evenodd"/>
          <path id="Path_957575" data-name="Path 957575" d="M185.847,328.783a2.62,2.62,0,0,1-2.613,4.542l1.183.689c2.973,1.731.356,6.271-2.637,4.529l-1.487-.866c2.982,1.744.345,6.265-2.642,4.526l-1.185-.69c2.965,1.735.348,6.267-2.642,4.526-4.347-2.531-21.478-12.53-22.525-13.832l-4.44-5.544a.711.711,0,0,1-.072-.815l7.431-12.871a.712.712,0,0,1,.877-.354l6.466,2.31C166.723,316.768,180.276,325.558,185.847,328.783Zm-5.557,8.893" transform="translate(-96.428 -228.395)" fill="#d0af97" fill-rule="evenodd"/>
          <path id="Path_957576" data-name="Path 957576" d="M180.858,341.809l-5.374-3.124a.711.711,0,0,0-.712,1.23l4.076,2.369c1.186,1.635-.573,3.366-2.672,2.632-5.281-3.079-20.8-12.436-21.8-13.673l-4.44-5.544a.711.711,0,0,1-.072-.815l6.812-11.91a.713.713,0,0,1,.877-.354l6.466,2.31a33.328,33.328,0,0,1,3.909,1.8c6.251,3.4,14.918,8.947,19.1,11.366a2.646,2.646,0,0,1-.567,4.8c-.081.025-4.516-2.589-5.037-2.887a.711.711,0,0,0-.712,1.23l6.05,3.468a2.334,2.334,0,0,1-2.2,3.265l-6.107-3.628a.711.711,0,0,0-.712,1.23l4.96,2.947C183.522,341.155,181.519,341.633,180.858,341.809Z" transform="translate(-98.889 -228.394)" fill="#f3cbab" fill-rule="evenodd"/>
          <path id="Path_957577" data-name="Path 957577" d="M172.332,391.952a3.348,3.348,0,0,1,.341.683,3.067,3.067,0,0,1,2.8-.691,3.628,3.628,0,0,1,2.187,1.539,3.1,3.1,0,0,1,.488,2.191,3.286,3.286,0,0,1,1.054.077,3.627,3.627,0,0,1,2.188,1.54,3.115,3.115,0,0,1-.054,3.54,3.358,3.358,0,0,1,.639.088,3.626,3.626,0,0,1,2.187,1.539,3.129,3.129,0,0,1-.126,3.646l-1.313,1.866a3.128,3.128,0,0,1-3.388,1.353,3.629,3.629,0,0,1-2.187-1.539,3.331,3.331,0,0,1-.376-.785,3.07,3.07,0,0,1-2.553.492,3.626,3.626,0,0,1-2.187-1.539,3.229,3.229,0,0,1-.49-1.26,3.141,3.141,0,0,1-1.832.1,3.626,3.626,0,0,1-2.187-1.539,3.077,3.077,0,0,1-.424-2.493,3.314,3.314,0,0,1-.9-.087,3.627,3.627,0,0,1-2.187-1.54,3.129,3.129,0,0,1,.126-3.646l2.618-3.722a3.128,3.128,0,0,1,3.386-1.353,3.625,3.625,0,0,1,2.188,1.539Z" transform="translate(-109.85 -290.51)" fill="#cdb7a6" fill-rule="evenodd"/>
          <path id="Path_957578" data-name="Path 957578" d="M172.651,394.954l.022.06q.056-.05.113-.1a3.2,3.2,0,0,1,1.491,0,3.628,3.628,0,0,1,2.187,1.539,3.1,3.1,0,0,1,.488,2.191,3.279,3.279,0,0,1,1.054.077,3.627,3.627,0,0,1,2.188,1.54,3.114,3.114,0,0,1-.055,3.54,3.359,3.359,0,0,1,.639.088,3.628,3.628,0,0,1,2.187,1.539,3.129,3.129,0,0,1-.126,3.646l-1.313,1.866a3.728,3.728,0,0,1-.7.758,3.2,3.2,0,0,1-1.492,0,3.628,3.628,0,0,1-2.187-1.539,3.33,3.33,0,0,1-.376-.785,3.07,3.07,0,0,1-2.553.492,3.627,3.627,0,0,1-2.187-1.539,3.228,3.228,0,0,1-.49-1.26,3.141,3.141,0,0,1-1.832.1,3.627,3.627,0,0,1-2.187-1.539,3.077,3.077,0,0,1-.424-2.493,3.309,3.309,0,0,1-.9-.087,3.627,3.627,0,0,1-2.187-1.54,3.129,3.129,0,0,1,.126-3.646l2.618-3.722a3.724,3.724,0,0,1,.7-.758,3.2,3.2,0,0,1,1.49,0,3.627,3.627,0,0,1,2.189,1.539,3.346,3.346,0,0,1,.341.683,3.06,3.06,0,0,1,1.174-.658Z" transform="translate(-109.85 -292.888)" fill="#efd4bf" fill-rule="evenodd"/>
          <path id="Path_957579" data-name="Path 957579" d="M182.662,398.253a3.342,3.342,0,0,1,.307.63,3.037,3.037,0,0,1,1.531-.74l-7.2,9.887a3,3,0,0,1,.091-1.022,3.311,3.311,0,0,1-.9-.087l-.122-.031Zm5.6,2.057-7.66,10.815a3.053,3.053,0,0,0,1.239-.187,3.1,3.1,0,0,0,.176.649l6.853-9.676a3.174,3.174,0,0,0-.422.01A3.014,3.014,0,0,0,188.259,400.31Zm3.849,4.166a3.145,3.145,0,0,1-.475,2.6c.108,0,.215.014.321.029l-4.735,6.519a3.21,3.21,0,0,1-.151-.38,3,3,0,0,1-1.752.581Z" transform="translate(-120.145 -296.757)" fill="#cdb7a6" fill-rule="evenodd"/>
          <path id="Path_957580" data-name="Path 957580" d="M228.917,323.774a2.147,2.147,0,0,1-2.119-.018l-13.764-7.967c-1.323-.766-2.963.146-4.182.727l-.177.084-.4.827c-.725,1.536-1.558,3.392-3.119,4.234q-.307.166-.628.3a4.279,4.279,0,0,1-3.975.052,3.147,3.147,0,0,1-1.281-2.942l.288-6.072a2.148,2.148,0,0,1,.644-1.434c1.934-1.895,4.22-4.5,6.616-5.736a8.826,8.826,0,0,1,6.323-.522,20.591,20.591,0,0,0,10.7-.175,2.148,2.148,0,0,1,2.474.983l7.344,12.72.008.016a2.146,2.146,0,0,1-.9,2.954Z" transform="translate(-138.432 -222.317)" fill="#cdb7a6" fill-rule="evenodd"/>
          <path id="Path_957581" data-name="Path 957581" d="M199.264,319.318q0-.121.006-.243l.288-6.072a2.148,2.148,0,0,1,.644-1.434c1.934-1.895,4.22-4.5,6.616-5.736a8.827,8.827,0,0,1,6.323-.522,20.591,20.591,0,0,0,10.7-.175,2.148,2.148,0,0,1,2.474.983l6.989,12.106a2.129,2.129,0,0,1-1.136,1.532l-3.849,1.965a2.147,2.147,0,0,1-2.119-.019l-13.764-7.967c-1.323-.766-2.963.146-4.182.727l-.177.084-.4.827c-.725,1.536-1.558,3.392-3.119,4.234q-.307.166-.628.3a4.279,4.279,0,0,1-3.975.052A2.624,2.624,0,0,1,199.264,319.318Z" transform="translate(-138.433 -222.317)" fill="#efd4bf" fill-rule="evenodd"/>
          <path id="Path_957582" data-name="Path 957582" d="M321.8,278.717l5.04-2.91a2.976,2.976,0,0,1,4.036,1.044c.009.014.019.029.027.043l8.846,15.322a2.977,2.977,0,0,1-1.09,4.063l-4.981,2.876a.706.706,0,0,1-.11.064,2.979,2.979,0,0,1-3.981-1.069.706.706,0,0,1-.055-.094l-8.82-15.276a2.976,2.976,0,0,1,1.044-4.036Z" transform="translate(-235.149 -198.697)" fill="#6ea0c2" fill-rule="evenodd"/>
          <path id="Path_957583" data-name="Path 957583" d="M324.079,278.717l5.04-2.91a2.976,2.976,0,0,1,4.036,1.044c.009.014.019.029.027.043l8.846,15.322a.715.715,0,0,1-.748,1.156l-4.981,2.876a.7.7,0,0,1-.109.064,2.979,2.979,0,0,1-3.981-1.069.707.707,0,0,1-.055-.094l-8.82-15.277a2.977,2.977,0,0,1-.167-.336,2.966,2.966,0,0,1,.868-.793Z" transform="translate(-237.427 -198.697)" fill="#75b5e2" fill-rule="evenodd"/>
          <path id="Path_957584" data-name="Path 957584" d="M106.274,275.807l5.04,2.91.043.027a2.976,2.976,0,0,1,1.044,4.036l-8.82,15.276a.733.733,0,0,1-.055.094,2.979,2.979,0,0,1-3.981,1.069.7.7,0,0,1-.11-.064l-4.981-2.876a2.977,2.977,0,0,1-1.09-4.063l8.846-15.322c.009-.015.018-.029.027-.043a2.977,2.977,0,0,1,4.036-1.044Z" transform="translate(-53.505 -198.698)" fill="#cf515a" fill-rule="evenodd"/>
          <path id="Path_957585" data-name="Path 957585" d="M106.459,275.807l5.04,2.91.043.027a.849.849,0,0,1,.36,1.557l-8.82,15.277a.717.717,0,0,1-.055.094,2.979,2.979,0,0,1-3.981,1.069.7.7,0,0,1-.109-.064L93.957,293.8a.866.866,0,0,1-.406-1.584l8.846-15.322c.009-.015.018-.029.027-.043a2.977,2.977,0,0,1,4.036-1.044Z" transform="translate(-53.69 -198.698)" fill="#ef525f" fill-rule="evenodd"/>
        </g>
      </g>
    </g>
  </g>
</svg>
