<svg xmlns="http://www.w3.org/2000/svg" width="152" height="152" viewBox="0 0 152 152">
  <g id="Group_1109027" data-name="Group 1109027" transform="translate(-317 -4479)">
    <g id="Group_1103900" data-name="Group 1103900" transform="translate(317 4479)">
      <g id="Rectangle_401345" data-name="Rectangle 401345" transform="translate(0)" fill="#fff" stroke="#ffcff3" stroke-width="5">
        <rect width="152" height="152" rx="10" stroke="none"/>
        <rect x="2.5" y="2.5" width="147" height="147" rx="7.5" fill="none"/>
      </g>
      <g id="Group_1099758" data-name="Group 1099758" transform="translate(29.471 30.923)">
        <rect id="Rectangle_401104" data-name="Rectangle 401104" width="92.476" height="92.476" transform="translate(0 0)" fill="none"/>
        <g id="Group_1122599" data-name="Group 1122599" transform="translate(0 -33.239)">
          <g id="Group_1122594" data-name="Group 1122594" transform="translate(1.355 40.565)">
            <path id="Path_957519" data-name="Path 957519" d="M42,316.784a5.394,5.394,0,0,1,3.6-4.192l7.564-2.545,1.551-1.569a.636.636,0,0,1,.449-.188H64.74a.629.629,0,0,1,.429.168l1.717,1.59,7.56,2.544a5.394,5.394,0,0,1,3.6,4.192l.552,3.174h24.627l-3.819-13.9a2.709,2.709,0,0,0-2.612-1.991H23.256a2.709,2.709,0,0,0-2.612,1.991l-3.819,13.9H41.451Z" transform="translate(-15.14 -256.472)" fill="#cbe5e8"/>
            <path id="Path_957520" data-name="Path 957520" d="M24.049,319.96l3.819-13.9a2.709,2.709,0,0,1,2.612-1.991H23.256a2.709,2.709,0,0,0-2.612,1.991l-3.819,13.9Z" transform="translate(-15.14 -256.473)" fill="#a8d3d8"/>
            <g id="Group_1122569" data-name="Group 1122569" transform="translate(59.513 51.205)">
              <g id="Group_1122564" data-name="Group 1122564">
                <circle id="Ellipse_13561" data-name="Ellipse 13561" cx="1.355" cy="1.355" r="1.355" fill="#fff"/>
              </g>
              <g id="Group_1122565" data-name="Group 1122565" transform="translate(4.696)">
                <circle id="Ellipse_13562" data-name="Ellipse 13562" cx="1.355" cy="1.355" r="1.355" fill="#8ebac5"/>
              </g>
              <g id="Group_1122566" data-name="Group 1122566" transform="translate(9.392)">
                <circle id="Ellipse_13563" data-name="Ellipse 13563" cx="1.355" cy="1.355" r="1.355" fill="#fff"/>
              </g>
              <g id="Group_1122567" data-name="Group 1122567" transform="translate(14.088)">
                <circle id="Ellipse_13564" data-name="Ellipse 13564" cx="1.355" cy="1.355" r="1.355" fill="#8ebac5"/>
              </g>
              <g id="Group_1122568" data-name="Group 1122568" transform="translate(18.784)">
                <circle id="Ellipse_13565" data-name="Ellipse 13565" cx="1.355" cy="1.355" r="1.355" fill="#8ebac5"/>
              </g>
            </g>
            <g id="Group_1122575" data-name="Group 1122575" transform="translate(60.958 55.54)">
              <g id="Group_1122570" data-name="Group 1122570">
                <circle id="Ellipse_13566" data-name="Ellipse 13566" cx="1.355" cy="1.355" r="1.355" fill="#fff"/>
              </g>
              <g id="Group_1122571" data-name="Group 1122571" transform="translate(4.696)">
                <circle id="Ellipse_13567" data-name="Ellipse 13567" cx="1.355" cy="1.355" r="1.355" fill="#8ebac5"/>
              </g>
              <g id="Group_1122572" data-name="Group 1122572" transform="translate(9.392)">
                <circle id="Ellipse_13568" data-name="Ellipse 13568" cx="1.355" cy="1.355" r="1.355" fill="#8ebac5"/>
              </g>
              <g id="Group_1122573" data-name="Group 1122573" transform="translate(14.088)">
                <circle id="Ellipse_13569" data-name="Ellipse 13569" cx="1.355" cy="1.355" r="1.355" fill="#fff"/>
              </g>
              <g id="Group_1122574" data-name="Group 1122574" transform="translate(18.784)">
                <circle id="Ellipse_13570" data-name="Ellipse 13570" cx="1.355" cy="1.355" r="1.355" fill="#8ebac5"/>
              </g>
            </g>
            <path id="Path_957521" data-name="Path 957521" d="M189.294,54.565h24.1V69.487h-24.1Z" transform="translate(-156.459 -52.036)" fill="#c8effe"/>
            <path id="Path_957522" data-name="Path 957522" d="M287.295,63.091l6.4,6.4h0V54.565h-6.4Z" transform="translate(-236.759 -52.036)" fill="#dff6fd"/>
            <path id="Path_957523" data-name="Path 957523" d="M189.294,54.565h3.379V69.487h-3.379Z" transform="translate(-156.459 -52.036)" fill="#99e6fc"/>
            <path id="Path_957524" data-name="Path 957524" d="M213.39,108.166l-6.4-6.4h-17.7v6.4Z" transform="translate(-156.459 -90.715)" fill="#ffe177"/>
            <path id="Path_957525" data-name="Path 957525" d="M189.294,101.77h3.379v6.4h-3.379Z" transform="translate(-156.459 -90.715)" fill="#ffd15b"/>
            <g id="Group_1122576" data-name="Group 1122576" transform="translate(30.306)">
              <path id="Path_957526" data-name="Path 957526" d="M202.19,60.544H177.552a2.26,2.26,0,0,1-2.258-2.258V42.823a2.26,2.26,0,0,1,2.258-2.258H202.19a2.26,2.26,0,0,1,2.258,2.258V58.286A2.26,2.26,0,0,1,202.19,60.544ZM178,57.835h23.735V43.274H178Z" transform="translate(-175.294 -40.565)" fill="#678d98"/>
            </g>
            <path id="Path_957527" data-name="Path 957527" d="M364.589,54.565h24.1V69.487h-24.1Z" transform="translate(-300.093 -52.036)" fill="#c8effe"/>
            <path id="Path_957528" data-name="Path 957528" d="M364.589,54.565h3.432V69.487h-3.432Z" transform="translate(-300.093 -52.036)" fill="#99e6fc"/>
            <path id="Path_957529" data-name="Path 957529" d="M364.589,106.065h24.1v5.62h-24.1Z" transform="translate(-300.093 -94.235)" fill="#8ebac5"/>
            <path id="Path_957530" data-name="Path 957530" d="M364.589,106.065h3.432v5.62h-3.432Z" transform="translate(-300.093 -94.235)" fill="#7ca1b1"/>
            <g id="Group_1122578" data-name="Group 1122578" transform="translate(1.174 24.949)">
              <path id="Path_957531" data-name="Path 957531" d="M14,178.7H38.1v14.922H14Z" transform="translate(-14 -178.696)" fill="#c8effe"/>
              <path id="Path_957532" data-name="Path 957532" d="M90.537,178.7H78v8.556l6.024,6.366h6.513Z" transform="translate(-66.441 -178.696)" fill="#dff6fd"/>
              <path id="Path_957533" data-name="Path 957533" d="M14,178.7h3.357v14.922H14Z" transform="translate(-14 -178.696)" fill="#99e6fc"/>
              <path id="Path_957534" data-name="Path 957534" d="M31.583,232.431l-6.024-6.366H14v6.366Z" transform="translate(-14 -217.509)" fill="#ffe177"/>
              <g id="Group_1122577" data-name="Group 1122577" transform="translate(17.339)">
                <path id="Path_957535" data-name="Path 957535" d="M110,178.7h2.709v14.922H110Z" transform="translate(-110 -178.696)" fill="#8ebac5"/>
              </g>
              <path id="Path_957536" data-name="Path 957536" d="M14,226.065h3.357v6.366H14Z" transform="translate(-14 -217.509)" fill="#ffd15b"/>
              <path id="Path_957537" data-name="Path 957537" d="M364.589,178.7h24.1v14.922h-24.1Z" transform="translate(-301.267 -178.696)" fill="#ffe177"/>
              <path id="Path_957538" data-name="Path 957538" d="M432,178.7h11.921v7.472H432Z" transform="translate(-356.502 -178.696)" fill="#7ca1b1"/>
              <path id="Path_957539" data-name="Path 957539" d="M376.764,178.7H364.589v14.922h.643l11.532-7.45Z" transform="translate(-301.267 -178.696)" fill="#8ebac5"/>
              <path id="Path_957540" data-name="Path 957540" d="M368.095,178.7h-3.506v14.922h.643l2.863-1.849Z" transform="translate(-301.267 -178.696)" fill="#7ca1b1"/>
            </g>
            <g id="Group_1122579" data-name="Group 1122579" transform="translate(0 63.306)">
              <path id="Path_957541" data-name="Path 957541" d="M384.092,391.065H358.653l1.507,8.67h23.932a.9.9,0,0,0,.9-.9v-6.863A.9.9,0,0,0,384.092,391.065Z" transform="translate(-295.229 -391.065)" fill="#8ebac5"/>
              <path id="Path_957542" data-name="Path 957542" d="M33.842,391.065H8.4a.9.9,0,0,0-.9.9v6.863a.9.9,0,0,0,.9.9H32.335Z" transform="translate(-7.5 -391.065)" fill="#8ebac5"/>
            </g>
            <g id="Group_1122580" data-name="Group 1122580" transform="translate(0 63.306)">
              <path id="Path_957543" data-name="Path 957543" d="M14.815,398.831v-6.863a.9.9,0,0,1,.9-.9H8.4a.9.9,0,0,0-.9.9v6.863a.9.9,0,0,0,.9.9h7.315A.9.9,0,0,1,14.815,398.831Z" transform="translate(-7.5 -391.065)" fill="#7ca1b1"/>
            </g>
            <g id="Group_1122581" data-name="Group 1122581" transform="translate(3.251 66.286)">
              <path id="Path_957544" data-name="Path 957544" d="M382.74,407.565H361.522l.471,2.709H382.74a1.355,1.355,0,0,0,0-2.709Z" transform="translate(-300.831 -407.565)" fill="#678d98"/>
              <path id="Path_957545" data-name="Path 957545" d="M48.073,407.565H26.855a1.355,1.355,0,0,0,0,2.709H47.6Z" transform="translate(-25.5 -407.565)" fill="#678d98"/>
            </g>
            <g id="Group_1122588" data-name="Group 1122588" transform="translate(23.932 23.775)">
              <path id="Path_957546" data-name="Path 957546" d="M209.676,252.17h-.337l-2.677,1.7a9.242,9.242,0,0,0-3.092,3.268l-.716,1.277a1.628,1.628,0,0,1-1.418.831H195.49a1.618,1.618,0,0,1-1.371-.753l-1.142-1.795a9.163,9.163,0,0,0-2.554-2.646l-2.742-1.885h-.319a3.122,3.122,0,0,0-1.513,2.677V255.9a3.124,3.124,0,0,0,3.124,3.124h.881a5.584,5.584,0,0,0,3.812,4.534.9.9,0,0,1,.631.86v1.355h8.447v-1.355a.9.9,0,0,1,.631-.86,5.584,5.584,0,0,0,3.812-4.534h.881a3.124,3.124,0,0,0,3.124-3.124v-1.049a3.121,3.121,0,0,0-1.512-2.677Z" transform="translate(-177.567 -237.725)" fill="#ffcebf"/>
              <g id="Group_1122582" data-name="Group 1122582" transform="translate(9.794)">
                <path id="Path_957547" data-name="Path 957547" d="M209.848,172.2h-8.932a6.692,6.692,0,0,0-6.692,6.692v7.753l2.959,2.033a9.032,9.032,0,0,1,2.5,2.594l1.142,1.795a1.806,1.806,0,0,0,1.524.836H208.3a1.806,1.806,0,0,0,1.576-.923l.716-1.277a9.029,9.029,0,0,1,3.031-3.2l2.917-1.855v-7.753A6.692,6.692,0,0,0,209.848,172.2Z" transform="translate(-194.224 -172.196)" fill="#bb5d4c"/>
              </g>
              <g id="Group_1122583" data-name="Group 1122583" transform="translate(9.794 0)">
                <path id="Path_957548" data-name="Path 957548" d="M206.929,193.064l-1.142-1.795a9.027,9.027,0,0,0-2.5-2.594l-1.784-1.226a2.709,2.709,0,0,1-1.175-2.233v-6.327a6.692,6.692,0,0,1,6.692-6.692h-6.1a6.692,6.692,0,0,0-6.692,6.692v7.753l2.959,2.033a9.032,9.032,0,0,1,2.5,2.594l1.142,1.795a1.807,1.807,0,0,0,1.524.836H208.3c.025,0,.05,0,.075-.005A1.8,1.8,0,0,1,206.929,193.064Z" transform="translate(-194.224 -172.197)" fill="#a44f3e"/>
              </g>
              <path id="Path_957549" data-name="Path 957549" d="M181.879,350.8l-2.73-15.7a5.579,5.579,0,0,0-3.717-4.332l-7.524-2.532-1.688-1.564a.812.812,0,0,0-.552-.216h-9.576a.812.812,0,0,0-.578.241l-1.521,1.539-7.524,2.532a5.579,5.579,0,0,0-3.717,4.332l-2.73,15.7a1.572,1.572,0,0,0,1.549,1.842h6.332v-9.408a3.743,3.743,0,0,1,3.739-3.739h18.614A3.743,3.743,0,0,1,174,343.239v9.408h6.332A1.573,1.573,0,0,0,181.879,350.8Z" transform="translate(-140 -298.599)" fill="#60b7ff"/>
              <g id="Group_1122585" data-name="Group 1122585" transform="translate(0 27.863)">
                <g id="Group_1122584" data-name="Group 1122584">
                  <path id="Path_957550" data-name="Path 957550" d="M155.515,326.7l-1.521,1.539-7.524,2.532a5.579,5.579,0,0,0-3.717,4.332l-2.73,15.7a1.572,1.572,0,0,0,1.549,1.842h2.978l2.537-14.594a5.579,5.579,0,0,1,3.717-4.332l7.524-2.532,4.713-4.727h-6.949a.811.811,0,0,0-.577.241Z" transform="translate(-140 -326.463)" fill="#26a6fe"/>
                </g>
              </g>
              <g id="Group_1122586" data-name="Group 1122586" transform="translate(7.725 40.72)">
                <path id="Path_957551" data-name="Path 957551" d="M209.222,410.973H182.768v-9.408a3.92,3.92,0,0,1,3.92-3.92H205.3a3.92,3.92,0,0,1,3.92,3.92v9.408Z" transform="translate(-182.768 -397.646)" fill="#fd5426"/>
              </g>
              <g id="Group_1122587" data-name="Group 1122587" transform="translate(7.724 40.72)">
                <path id="Path_957552" data-name="Path 957552" d="M194.315,397.647h-7.628a3.92,3.92,0,0,0-3.92,3.92v9.408h7.628v-9.408A3.92,3.92,0,0,1,194.315,397.647Z" transform="translate(-182.767 -397.647)" fill="#ef4424"/>
              </g>
            </g>
            <g id="Group_1122589" data-name="Group 1122589" transform="translate(9.031 51.114)">
              <path id="Path_957553" data-name="Path 957553" d="M70.414,326.274H58.855a1.355,1.355,0,0,1,0-2.709H70.414a1.355,1.355,0,0,1,0,2.709Z" transform="translate(-57.5 -323.565)" fill="#8ebac5"/>
            </g>
            <g id="Group_1122590" data-name="Group 1122590" transform="translate(24.744 51.114)">
              <path id="Path_957554" data-name="Path 957554" d="M149.106,326.274h-3.251a1.355,1.355,0,0,1,0-2.709h3.251a1.355,1.355,0,1,1,0,2.709Z" transform="translate(-144.5 -323.565)" fill="#8ebac5"/>
            </g>
            <g id="Group_1122591" data-name="Group 1122591" transform="translate(8.308 55.449)">
              <path id="Path_957555" data-name="Path 957555" d="M66.414,350.274H54.855a1.355,1.355,0,1,1,0-2.709H66.414a1.355,1.355,0,1,1,0,2.709Z" transform="translate(-53.5 -347.565)" fill="#8ebac5"/>
            </g>
            <g id="Group_1122593" data-name="Group 1122593" transform="translate(1.174 2.529)">
              <path id="Path_957556" data-name="Path 957556" d="M14,54.565H38.1V69.487H14Z" transform="translate(-14 -54.565)" fill="#c8effe"/>
              <path id="Path_957557" data-name="Path 957557" d="M14,54.565h3.357V69.487H14Z" transform="translate(-14 -54.565)" fill="#99e6fc"/>
              <g id="Group_1122592" data-name="Group 1122592" transform="translate(0 0)">
                <path id="Path_957558" data-name="Path 957558" d="M35.124,62.151V54.565H32.415v7.586H29.977V54.565H27.267v7.586H24.829V54.565H22.12v7.586H19.681V54.565H16.972v7.586H14V64.86H38.1V62.151Z" transform="translate(-14 -54.565)" fill="#8ebac5"/>
              </g>
            </g>
          </g>
          <g id="Group_1122595" data-name="Group 1122595" transform="translate(63.322 62.985)">
            <path id="Path_957559" data-name="Path 957559" d="M377.485,184.676H352.847a2.26,2.26,0,0,1-2.258-2.258V166.955a2.26,2.26,0,0,1,2.258-2.258h24.638a2.26,2.26,0,0,1,2.258,2.258v15.463A2.26,2.26,0,0,1,377.485,184.676ZM353.3,181.967h23.735v-14.56H353.3Z" transform="translate(-350.589 -164.697)" fill="#678d98"/>
          </g>
          <g id="Group_1122596" data-name="Group 1122596" transform="translate(63.322 40.565)">
            <path id="Path_957560" data-name="Path 957560" d="M377.485,60.544H352.847a2.26,2.26,0,0,1-2.258-2.258V42.823a2.26,2.26,0,0,1,2.258-2.258h24.638a2.26,2.26,0,0,1,2.258,2.258V58.286A2.26,2.26,0,0,1,377.485,60.544ZM353.3,57.835h23.735V43.274H353.3Z" transform="translate(-350.589 -40.565)" fill="#678d98"/>
          </g>
          <g id="Group_1122597" data-name="Group 1122597" transform="translate(0 40.565)">
            <path id="Path_957561" data-name="Path 957561" d="M26.9,60.544H2.258A2.26,2.26,0,0,1,0,58.286V42.823a2.26,2.26,0,0,1,2.258-2.258H26.9a2.26,2.26,0,0,1,2.258,2.258V58.286A2.26,2.26,0,0,1,26.9,60.544ZM2.709,57.835H26.444V43.274H2.709Z" transform="translate(0 -40.565)" fill="#678d98"/>
          </g>
          <g id="Group_1122598" data-name="Group 1122598" transform="translate(0 62.985)">
            <path id="Path_957562" data-name="Path 957562" d="M26.9,184.676H2.258A2.26,2.26,0,0,1,0,182.418V166.955A2.26,2.26,0,0,1,2.258,164.7H26.9a2.26,2.26,0,0,1,2.258,2.258v15.463A2.26,2.26,0,0,1,26.9,184.676ZM2.709,181.967H26.444v-14.56H2.709Z" transform="translate(0 -164.697)" fill="#678d98"/>
          </g>
        </g>
      </g>
    </g>
  </g>
</svg>
