<svg xmlns="http://www.w3.org/2000/svg" width="151" height="151" viewBox="0 0 151 151">
  <g id="Group_1122707" data-name="Group 1122707" transform="translate(-1035 -906)">
    <g id="Group_1122691" data-name="Group 1122691" transform="translate(629)">
      <g id="Group_1122689" data-name="Group 1122689" transform="translate(224.432 -6469.496)">
        <g id="Group_1099775" data-name="Group 1099775" transform="translate(181.568 7375.496)">
          <g id="Group_1099770" data-name="Group 1099770" transform="translate(0 0)">
            <g id="Path_957956" data-name="Path 957956" transform="translate(0 0)" fill="#fff">
              <path d="M 141 148.5 L 10 148.5 C 5.864479064941406 148.5 2.5 145.1355133056641 2.5 141 L 2.5 10 C 2.5 5.864479064941406 5.864479064941406 2.5 10 2.5 L 141 2.5 C 145.1355133056641 2.5 148.5 5.864479064941406 148.5 10 L 148.5 141 C 148.5 145.1355133056641 145.1355133056641 148.5 141 148.5 Z" stroke="none"/>
              <path d="M 10 5 C 7.242996215820312 5 5 7.242996215820312 5 10 L 5 141 C 5 143.7570037841797 7.242996215820312 146 10 146 L 141 146 C 143.7570037841797 146 146 143.7570037841797 146 141 L 146 10 C 146 7.242996215820312 143.7570037841797 5 141 5 L 10 5 M 10 0 L 141 0 C 146.5228271484375 0 151 4.477142333984375 151 10 L 151 141 C 151 146.5228271484375 146.5228271484375 151 141 151 L 10 151 C 4.477142333984375 151 0 146.5228271484375 0 141 L 0 10 C 0 4.477142333984375 4.477142333984375 0 10 0 Z" stroke="none" fill="#ffcff3"/>
            </g>
          </g>
        </g>
      </g>
      <path id="Path_878169" data-name="Path 878169" d="M194.822,0h1.691l-.254,2.884,2.388-1.817.857,1.469-2.716,1.332,2.716,1.4-.857,1.48-2.388-1.882.254,2.939h-1.691l.317-2.991-2.4,1.86L191.9,5.2l2.642-1.332L191.831,2.61l.857-1.469,2.44,1.775Z" transform="translate(298.668 1039.539)" fill="#0653ae"/>
      <path id="Path_957951" data-name="Path 957951" d="M194.822,0h1.691l-.254,2.884,2.388-1.817.857,1.469-2.716,1.332,2.716,1.4-.857,1.48-2.388-1.882.254,2.939h-1.691l.317-2.991-2.4,1.86L191.9,5.2l2.642-1.332L191.831,2.61l.857-1.469,2.44,1.775Z" transform="translate(224.53 915.191)" fill="#0653ae"/>
      <path id="Path_878170" data-name="Path 878170" d="M206.811,0H208.5l-.254,2.884,2.388-1.817.857,1.469-2.716,1.332,2.716,1.4-.857,1.48-2.388-1.882.254,2.939h-1.691l.317-2.991-2.4,1.86L203.885,5.2l2.642-1.332L203.821,2.61l.857-1.469,2.44,1.775Z" transform="translate(299.422 1039.539)" fill="#0653ae"/>
      <path id="Path_957952" data-name="Path 957952" d="M206.811,0H208.5l-.254,2.884,2.388-1.817.857,1.469-2.716,1.332,2.716,1.4-.857,1.48-2.388-1.882.254,2.939h-1.691l.317-2.991-2.4,1.86L203.885,5.2l2.642-1.332L203.821,2.61l.857-1.469,2.44,1.775Z" transform="translate(225.284 915.191)" fill="#0653ae"/>
      <path id="Path_878171" data-name="Path 878171" d="M218.8,0h1.691l-.254,2.884,2.388-1.817.857,1.469-2.716,1.332,2.716,1.4-.857,1.48-2.388-1.882.254,2.939H218.8l.317-2.991-2.4,1.86L215.874,5.2l2.641-1.332-2.7-1.257.856-1.469,2.441,1.775Z" transform="translate(300.173 1039.539)" fill="#0653ae"/>
      <path id="Path_957953" data-name="Path 957953" d="M218.8,0h1.691l-.254,2.884,2.388-1.817.857,1.469-2.716,1.332,2.716,1.4-.857,1.48-2.388-1.882.254,2.939H218.8l.317-2.991-2.4,1.86L215.874,5.2l2.641-1.332-2.7-1.257.856-1.469,2.441,1.775Z" transform="translate(226.035 915.191)" fill="#0653ae"/>
      <path id="Path_878172" data-name="Path 878172" d="M230.79,0h1.691l-.254,2.884,2.388-1.817.857,1.469-2.716,1.332,2.716,1.4-.857,1.48-2.388-1.882.254,2.939H230.79l.317-2.991-2.4,1.86L227.864,5.2l2.642-1.332L227.8,2.61l.857-1.469,2.44,1.775Z" transform="translate(300.926 1039.539)" fill="#0653ae"/>
      <path id="Path_957954" data-name="Path 957954" d="M230.79,0h1.691l-.254,2.884,2.388-1.817.857,1.469-2.716,1.332,2.716,1.4-.857,1.48-2.388-1.882.254,2.939H230.79l.317-2.991-2.4,1.86L227.864,5.2l2.642-1.332L227.8,2.61l.857-1.469,2.44,1.775Z" transform="translate(226.788 915.191)" fill="#0653ae"/>
      <path id="Path_878173" data-name="Path 878173" d="M242.78,0h1.691l-.254,2.884L246.6,1.067l.855,1.469-2.715,1.332,2.715,1.4-.855,1.48-2.388-1.882.254,2.939H242.78l.317-2.991-2.4,1.86L239.853,5.2l2.641-1.332-2.7-1.257.856-1.469,2.441,1.775Z" transform="translate(301.678 1039.539)" fill="#0653ae"/>
      <path id="Path_957955" data-name="Path 957955" d="M242.78,0h1.691l-.254,2.884L246.6,1.067l.855,1.469-2.715,1.332,2.715,1.4-.855,1.48-2.388-1.882.254,2.939H242.78l.317-2.991-2.4,1.86L239.853,5.2l2.641-1.332-2.7-1.257.856-1.469,2.441,1.775Z" transform="translate(227.54 915.191)" fill="#0653ae"/>
    </g>
    <g id="Group_1103899" data-name="Group 1103899" transform="translate(1058.876 928.719)">
      <rect id="Rectangle_401104" data-name="Rectangle 401104" width="104" height="106.261" transform="translate(0.124 -0.719)" fill="none"/>
      <g id="Group_1122563" data-name="Group 1122563" transform="translate(5.126 5.283)">
        <path id="Path_957508" data-name="Path 957508" d="M92.163,90.578h-.829l-28.986-56.6a4.162,4.162,0,0,0-1.4-1.6,3.667,3.667,0,0,0-3.025-.513A4.025,4.025,0,0,0,55.386,34l-.022.044-3.257-6.565A4.164,4.164,0,0,0,50.7,25.861q-.118-.079-.239-.149V21.136H71.573A1.841,1.841,0,0,0,73.2,18.443l-3.152-6.059L73.2,6.34a1.841,1.841,0,0,0-1.627-2.694H50.46V1.841a1.836,1.836,0,1,0-3.672,0V25.694a4,4,0,0,0-1.5,1.677l-10.927,22L33.205,47.31a4.265,4.265,0,0,0-1.547-1.588,4.122,4.122,0,0,0-3.207-.443,4.207,4.207,0,0,0-2.593,2.038l-.015.027L2.7,90.578h-.86a1.841,1.841,0,0,0,0,3.682H92.163a1.841,1.841,0,0,0,0-3.682Zm-27.919,0L49.827,63.419l2.468-2.659L56.2,64.972a1.832,1.832,0,0,0,2.688,0L62.8,60.759l3.909,4.213a1.832,1.832,0,0,0,2.688,0l3.025-3.26L87.206,90.578Zm4.3-83.25-2.191,4.2a1.845,1.845,0,0,0,0,1.7l2.2,4.219H50.46V7.328ZM48.573,29.01a.794.794,0,0,1,.061-.1l.028.017a.477.477,0,0,1,.158.19l4.9,9.878a1.836,1.836,0,0,0,1.643,1.021h0a1.836,1.836,0,0,0,1.644-1.02l1.667-3.357c.085-.172.179-.214.2-.216a.125.125,0,0,1,.037.019.48.48,0,0,1,.157.188l.012.024L70.64,58.229l-2.586,2.787L64.145,56.8a1.832,1.832,0,0,0-2.688,0l-3.909,4.213L53.638,56.8a1.832,1.832,0,0,0-2.688,0L48,59.981l-3.25-6.122-.018-.032a4.268,4.268,0,0,0-1.547-1.587A4.122,4.122,0,0,0,39.98,51.8a4.205,4.205,0,0,0-2.592,2.036l-.272.486-.588-1.053ZM29.07,49.1a.557.557,0,0,1,.337-.269.479.479,0,0,1,.379.054.589.589,0,0,1,.215.217l5.513,9.878a1.835,1.835,0,0,0,1.6.942h0a1.835,1.835,0,0,0,1.6-.941l1.875-3.357a.559.559,0,0,1,.342-.278.48.48,0,0,1,.379.054.591.591,0,0,1,.209.205L60.085,90.578H6.864Z" transform="translate(0 0)" fill="#0653ae"/>
        <path id="Path_957509" data-name="Path 957509" d="M237.161,399.337l-4.582-8.607a1.6,1.6,0,1,0-2.827,1.505l4.582,8.607a1.6,1.6,0,1,0,2.827-1.505Z" transform="translate(-186.853 -315.179)" fill="#fff"/>
      </g>
    </g>
  </g>
</svg>
