<svg xmlns="http://www.w3.org/2000/svg" width="90.184" height="90.184" viewBox="0 0 90.184 90.184">
  <g id="Group_1122694" data-name="Group 1122694" transform="translate(-1179 -2681)">
    <g id="Group_1099869" data-name="Group 1099869" transform="translate(1179 2681)">
      <g id="Group_1073526" data-name="Group 1073526" transform="translate(0 0)">
        <g id="Group_1072785" data-name="Group 1072785" transform="translate(0 0)">
          <path id="Path_608385" data-name="Path 608385" d="M45.092,0A45.092,45.092,0,1,1,0,45.092,45.092,45.092,0,0,1,45.092,0Z" transform="translate(0 0)" fill="none"/>
        </g>
        <g id="Group_1073383" data-name="Group 1073383" transform="translate(0 0)">
          <path id="Path_608385-2" data-name="Path 608385" d="M45.092,0A45.092,45.092,0,1,1,0,45.092,45.092,45.092,0,0,1,45.092,0Z" transform="translate(0 0)" fill="#fff"/>
        </g>
      </g>
    </g>
    <g id="Group_1099873" data-name="Group 1099873" transform="translate(776.863 -3345.469)">
      <rect id="Rectangle_401104" data-name="Rectangle 401104" width="59" height="59" transform="translate(418.137 6042.469)" fill="none"/>
      <g id="Page-1" transform="translate(418.137 6042.47)">
        <g id="_090---Entreprenuerial-Studies" data-name="090---Entreprenuerial-Studies" transform="translate(0 -0.001)">
          <path id="Path" d="M14.485,32.582H11.042A5.389,5.389,0,0,1,5.65,27.189V16.019A14.888,14.888,0,0,1,20.06,1,14.667,14.667,0,0,1,34.927,15.634V27.189a4.908,4.908,0,0,1-.152,1.229Z" transform="translate(0.087 -0.999)" fill="#cb8252" fill-rule="evenodd"/>
          <path id="Path-2" data-name="Path" d="M23.688,34.473a10.612,10.612,0,0,1-7.088.01C14,33.56,14,32.432,14,32.432c.122-.1.234-.183.345-.284a4.874,4.874,0,0,0,1.9-3.087l6.9-.061Z" transform="translate(0.217 -0.565)" fill="#f9c795" fill-rule="evenodd"/>
          <path id="Path-3" data-name="Path" d="M26.4,59.412H3.046A3.046,3.046,0,0,1,0,56.366V48.242q0-.579.03-1.127A15.029,15.029,0,0,1,9.881,34l4.326-1.625h.01s0,1.127,2.6,2.051a10.612,10.612,0,0,0,7.088-.01Z" transform="translate(0 -0.513)" fill="#67b9cc" fill-rule="evenodd"/>
          <path id="Path-4" data-name="Path" d="M25.486,28.3a7.849,7.849,0,0,0,.711-.731,7.538,7.538,0,0,0,1.381-2.478l1.137-3.412a3.072,3.072,0,1,0,0-6.144s-1.544-3.1-3.849-3.1c-8.479,0-10.023-3.849-10.023-3.849a4.109,4.109,0,0,1-3.077,3.849v3.1a3.072,3.072,0,1,0,0,6.144L12.9,25.092a7.7,7.7,0,0,0,1.371,2.478,11.468,11.468,0,0,0,2.661,2.193,6.878,6.878,0,0,0,3.3,1.168,4,4,0,0,0,1.005-.142Z" transform="translate(0.135 -0.881)" fill="#fdd7ad" fill-rule="evenodd"/>
          <rect id="Rectangle" width="38.643" height="5.683" rx="2" transform="translate(20.357 53.318)" fill="#7f8c8d"/>
          <path id="Path-5" data-name="Path" d="M8.031,47.015V59.2H6V47.015a1.015,1.015,0,0,1,2.031,0Z" transform="translate(0.093 -0.302)" fill="#2fa8cc" fill-rule="evenodd"/>
          <path id="Path-6" data-name="Path" d="M23.549,53.387l-2.529-22A3.046,3.046,0,0,1,24.046,28H54.511a3.046,3.046,0,0,1,3.026,3.392l-2.529,22Z" transform="translate(0.325 -0.58)" fill="#95a5a5" fill-rule="evenodd"/>
          <circle id="Oval" cx="5.115" cy="5.115" r="5.115" transform="translate(33.995 36.269)" fill="#ecf0f1"/>
        </g>
      </g>
    </g>
  </g>
</svg>
