<svg xmlns="http://www.w3.org/2000/svg" width="94" height="96" viewBox="0 0 94 96">
  <g id="Group_1115809" data-name="Group 1115809" transform="translate(-200.217 -497)">
    <rect id="Rectangle_412256" data-name="Rectangle 412256" width="94" height="96" rx="5" transform="translate(200.217 497)" fill="#c2a4ff"/>
    <g id="Group_1122327" data-name="Group 1122327" transform="translate(209.974 506.716)">
      <g id="Group_1122332" data-name="Group 1122332" transform="translate(0.643 0.673)">
        <g id="Group_1122327-2" data-name="Group 1122327" transform="translate(0 13.153)">
          <path id="Path_957260" data-name="Path 957260" d="M318.181,199.843l-.014-15.592c0-2.926.221-5.676,1.478-7.635a84.2,84.2,0,0,0,5.908-9.5c.866-1.35,2.173-1.425,3,0a5.645,5.645,0,0,1,0,5.184l.667-1.42a12.6,12.6,0,0,0,1.167-5.512l-.033-15.011c-.026-11.669,4.926-8.434,4.991-4.5l.453,27.634a12.523,12.523,0,0,1-1.527,6.546l-7.227,12.5v7.3c0,1.4-.662,2.549-1.474,2.549h-5.913c-.811,0-1.472-1.143-1.474-2.545Z" transform="translate(-262.464 -142.247)" fill="#f6dccd" fill-rule="evenodd"/>
          <path id="Path_957261" data-name="Path 957261" d="M376.723,286.689a2.14,2.14,0,0,1-.315,2.61c-1.179,1.187-2.366,2.366-3.549,3.549a.811.811,0,0,1-1.147-1.147Z" transform="translate(-310.321 -259.323)" fill="#f1cbbc" fill-rule="evenodd"/>
          <path id="Path_957262" data-name="Path 957262" d="M318.181,327.69l-.014-9.015c0-1.692.221-3.282,1.478-4.414.749-.676,1.827-1.537,2.967-2.547v17.448h-2.957A1.476,1.476,0,0,1,318.181,327.69Z" transform="translate(-270.114 -269.02)" fill="#f1cbbc" fill-rule="evenodd"/>
          <path id="Path_957263" data-name="Path 957263" d="M293.724,449.331l12.56.108a1.107,1.107,0,0,1,1.095,1.114l-.021,2.418a1.108,1.108,0,0,1-1.114,1.095l-12.56-.108a1.107,1.107,0,0,1-1.095-1.114l.021-2.418A1.108,1.108,0,0,1,293.724,449.331Z" transform="translate(-239.501 -392.569)" fill="#d1d1d6" fill-rule="evenodd"/>
          <path id="Path_957264" data-name="Path 957264" d="M302.283,450.269l2.223.019,2.2.019a1.108,1.108,0,0,1,1.095,1.11l.007-.864a1.107,1.107,0,0,0-1.095-1.114l-2.206-.019-4.429-.038-4.434-.038-1.491-.013a1.108,1.108,0,0,0-1.086.858l2.582.022,4.429.038,2.206.019Z" transform="translate(-239.929 -392.57)" fill="#b1b1b5" fill-rule="evenodd"/>
          <path id="Path_957265" data-name="Path 957265" d="M38.3,199.843l.014-15.592c0-2.926-.221-5.676-1.478-7.635a84.194,84.194,0,0,1-5.908-9.5c-.866-1.35-2.173-1.425-3,0a5.645,5.645,0,0,0,0,5.184l-.667-1.42a12.6,12.6,0,0,1-1.167-5.512l.033-15.011c.026-11.669-4.926-8.434-4.991-4.5l-.453,27.634a12.523,12.523,0,0,0,1.527,6.546l7.227,12.5v7.3c0,1.4.662,2.549,1.474,2.549h5.913C37.636,202.389,38.3,201.246,38.3,199.843Z" transform="translate(-20.683 -142.247)" fill="#f6dccd" fill-rule="evenodd"/>
          <path id="Path_957266" data-name="Path 957266" d="M85.739,286.689a2.14,2.14,0,0,0,.315,2.61c1.179,1.187,2.366,2.366,3.549,3.549a.811.811,0,1,0,1.147-1.147Z" transform="translate(-78.808 -259.323)" fill="#f1cbbc" fill-rule="evenodd"/>
          <path id="Path_957267" data-name="Path 957267" d="M154.093,327.69l.014-9.015c0-1.692-.221-3.282-1.478-4.414-.749-.676-1.827-1.537-2.967-2.547v17.448h2.957A1.477,1.477,0,0,0,154.093,327.69Z" transform="translate(-128.827 -269.02)" fill="#f1cbbc" fill-rule="evenodd"/>
          <path id="Path_957268" data-name="Path 957268" d="M87.706,449.331l-12.56.108a1.108,1.108,0,0,0-1.095,1.114l.021,2.418a1.107,1.107,0,0,0,1.114,1.095l12.56-.108a1.107,1.107,0,0,0,1.095-1.114l-.021-2.418A1.108,1.108,0,0,0,87.706,449.331Z" transform="translate(-68.596 -392.569)" fill="#d1d1d6" fill-rule="evenodd"/>
          <path id="Path_957269" data-name="Path 957269" d="M79.575,450.269l-2.223.019-2.2.019a1.107,1.107,0,0,0-1.095,1.11l-.007-.864a1.108,1.108,0,0,1,1.095-1.114l2.206-.019,4.429-.038,4.434-.038,1.491-.013a1.108,1.108,0,0,1,1.086.858l-2.582.022-4.429.038-2.206.019Z" transform="translate(-68.596 -392.57)" fill="#b1b1b5" fill-rule="evenodd"/>
        </g>
        <g id="Group_1122328" data-name="Group 1122328" transform="translate(18.958 0.605)">
          <path id="Path_957270" data-name="Path 957270" d="M105.863,19.5h6.316a2.406,2.406,0,0,1,2.128,1.227l2.264,3.917h12.51a2.163,2.163,0,0,1,2.162,2.162V39.173a2.162,2.162,0,0,1-2.162,2.155H105.863a2.162,2.162,0,0,1-2.162-2.155V21.654A2.162,2.162,0,0,1,105.863,19.5Z" transform="translate(-103.701 -19.499)" fill="#ffd064" fill-rule="evenodd"/>
          <path id="Path_957271" data-name="Path 957271" d="M170.592,19.5h1.64a2.406,2.406,0,0,1,2.128,1.227l2.264,3.917h-1.64l-2.264-3.917A2.406,2.406,0,0,0,170.592,19.5Zm16.9,5.144h1.64A2.163,2.163,0,0,1,191.3,26.8V39.173a2.162,2.162,0,0,1-2.162,2.155h-1.64a2.162,2.162,0,0,0,2.162-2.155V26.8A2.163,2.163,0,0,0,187.494,24.643Z" transform="translate(-163.754 -19.499)" fill="#ffc338" fill-rule="evenodd"/>
          <path id="Path_957272" data-name="Path 957272" d="M129.081,69.816a2.163,2.163,0,0,1,2.162,2.162V84.346a2.162,2.162,0,0,1-2.162,2.155H105.863a2.162,2.162,0,0,1-2.162-2.155V69.816Z" transform="translate(-103.701 -64.672)" fill="#ffe177" fill-rule="evenodd"/>
          <path id="Path_957273" data-name="Path 957273" d="M130.025,70.347a2.158,2.158,0,0,1,1.694,2.108V84.823a2.162,2.162,0,0,1-2.162,2.155H106.34a2.159,2.159,0,0,1-2.108-1.687,2.108,2.108,0,0,0,.468.047h23.218a2.162,2.162,0,0,0,2.162-2.155V70.815A2.105,2.105,0,0,0,130.025,70.347Z" transform="translate(-104.178 -65.149)" fill="#ffd064" fill-rule="evenodd"/>
        </g>
        <g id="Group_1122330" data-name="Group 1122330" transform="translate(28.242 16.243)">
          <path id="Path_957274" data-name="Path 957274" d="M206.316,105.492h2.741V101.4a5.988,5.988,0,1,0-11.975,0v4.094h2.743V101.4a3.245,3.245,0,1,1,6.491,0Z" transform="translate(-194.645 -95.409)" fill="#d1d1d6" fill-rule="evenodd"/>
          <g id="Group_1122329" data-name="Group 1122329" transform="translate(0 8.504)">
            <path id="Path_957275" data-name="Path 957275" d="M174.342,178.6H189a1.1,1.1,0,0,1,1.093,1.093v11.653A1.093,1.093,0,0,1,189,192.437H174.342a1.1,1.1,0,0,1-1.1-1.093V179.691A1.1,1.1,0,0,1,174.342,178.6Z" transform="translate(-173.247 -178.598)" fill="#837683" fill-rule="evenodd"/>
            <path id="Path_957276" data-name="Path 957276" d="M312.8,178.6h1.489a1.1,1.1,0,0,1,1.093,1.093v11.653a1.093,1.093,0,0,1-1.093,1.093H312.8a1.093,1.093,0,0,0,1.093-1.093V179.691A1.1,1.1,0,0,0,312.8,178.6Z" transform="translate(-298.537 -178.598)" fill="#685e68" fill-rule="evenodd"/>
          </g>
          <path id="Path_957277" data-name="Path 957277" d="M236.939,205.608a2.133,2.133,0,0,1,1.118,3.948v3.251a1.118,1.118,0,0,1-2.236,0v-3.251a2.132,2.132,0,0,1,1.118-3.948Z" transform="translate(-228.514 -194.343)" fill="#eceff1" fill-rule="evenodd"/>
        </g>
        <g id="Group_1122331" data-name="Group 1122331" transform="translate(57.352)">
          <path id="Path_957278" data-name="Path 957278" d="M339.076,35.931a.27.27,0,0,0,.4,0l2.163-2.323V32.73l-1.2-1.09a.27.27,0,0,1,0-.4l.982-.89a.27.27,0,0,0,0-.4l-.983-.891a.27.27,0,0,1,0-.4l1.2-1.09V22.954a4.983,4.983,0,1,0-4.72,0V33.607Z" transform="translate(-334.291 -13.583)" fill="#9facba" fill-rule="evenodd"/>
          <path id="Path_957279" data-name="Path 957279" d="M377.477,35.931a.27.27,0,0,0,.4,0l2.163-2.323V32.73l-1.2-1.09a.27.27,0,0,1,0-.4l.982-.89a.27.27,0,0,0,0-.4l-.983-.891a.27.27,0,0,1,0-.4l1.2-1.09V22.954a4.983,4.983,0,0,0-2.361-9.371,4.87,4.87,0,0,0-.61.037,4.983,4.983,0,0,1,1.749,9.334V27.57l-1.2,1.09a.27.27,0,0,0,0,.4l1.2,1.091-1.2,1.09a.27.27,0,0,0,0,.4l1.2,1.09v.878l-1.749,1.88Z" transform="translate(-372.691 -13.583)" fill="#8d9ca8" fill-rule="evenodd"/>
          <path id="Path_957280" data-name="Path 957280" d="M368.738,36.778a1.481,1.481,0,1,0,2.024-.542A1.481,1.481,0,0,0,368.738,36.778Z" transform="translate(-365.038 -33.742)" fill="#eceff1" fill-rule="evenodd"/>
          <path id="Path_957281" data-name="Path 957281" d="M368.738,36.773a1.48,1.48,0,0,0,1.677,2.168,1.481,1.481,0,0,1,0-2.855A1.481,1.481,0,0,0,368.738,36.773Z" transform="translate(-365.038 -33.737)" fill="#d1d1d6" fill-rule="evenodd"/>
        </g>
      </g>
      <path id="Path_957282" data-name="Path 957282" d="M26.849,38.672V12.556a4.478,4.478,0,0,1,4.5-4.444h9.5a4.832,4.832,0,0,1,4.276,2.43l0,0,3.047,5.233H60.3a1.232,1.232,0,1,1,0,2.464H29.335V38.672a2,2,0,0,0,2.009,1.981h4.52a1.232,1.232,0,1,1,0,2.464h-4.52a4.478,4.478,0,0,1-4.5-4.444ZM45.3,15.78l-2.33-4a2.4,2.4,0,0,0-2.125-1.2h-9.5a2,2,0,0,0-2.009,1.981V15.78ZM61.5,32.371h.7a2.8,2.8,0,0,1,2.812,2.787v16.63a2.8,2.8,0,0,1-2.812,2.787H41.08a2.8,2.8,0,0,1-2.816-2.787V35.157a2.808,2.808,0,0,1,2.816-2.787h.693V30.008a9.862,9.862,0,0,1,19.724,0Zm-17.247,0h1.475V30.008a5.913,5.913,0,0,1,11.825,0v2.363H59.02V30.008a7.386,7.386,0,0,0-14.771,0Zm3.951,0h6.872V30.008a3.436,3.436,0,0,0-6.872,0ZM41.08,34.825a.337.337,0,0,0-.339.333v16.63a.336.336,0,0,0,.339.333H62.194a.334.334,0,0,0,.336-.333V35.157a.335.335,0,0,0-.336-.333Zm10.557,1.486a4.289,4.289,0,0,1,4.306,4.27,4.238,4.238,0,0,1-1.457,3.2v4.026a2.849,2.849,0,0,1-5.7,0V43.785a4.238,4.238,0,0,1-1.461-3.2,4.293,4.293,0,0,1,4.309-4.27Zm0,2.454a1.813,1.813,0,0,0-.96,3.363,1.225,1.225,0,0,1,.588,1.044v4.639a.372.372,0,0,0,.744,0V43.172a1.224,1.224,0,0,1,.588-1.044,1.814,1.814,0,0,0-.96-3.363ZM75.764,73.741l1.7.014h.013a2.9,2.9,0,0,1,2.862,2.895v.012s-.035,3.577-.035,3.575a2.88,2.88,0,0,1-2.92,2.836l-18.768-.158a2.887,2.887,0,0,1-2.882-2.877v-.012s.035-3.577.035-3.575a2.908,2.908,0,0,1,2.9-2.854h.011l1.352.011-.014-9.316v0c0-2.852.476-5.533,2.623-7.442C64.7,55,68.466,52.214,71.366,48.821a1.212,1.212,0,0,1,.115-.117,4.49,4.49,0,0,1,6.185.039,5.093,5.093,0,0,1,.517.587,6.026,6.026,0,0,0,.119-1.206l-.053-12.865h0c-.017-4.722,1.6-6.941,3.277-7.759a4.606,4.606,0,0,1,4.411.3,4.475,4.475,0,0,1,2.247,3.554l.691,23.683s0,0,0,.006a8.654,8.654,0,0,1-2.643,6.51l-.006.006L75.764,71.91Zm-17.1,2.31H58.66a.42.42,0,0,0-.419.406s0,.008,0,.012-.035,3.573-.035,3.578a.417.417,0,0,0,.409.415h.011l18.781.158h.014a.4.4,0,0,0,.4-.388v-.012s.035-3.573.035-3.578a.439.439,0,0,0-.429-.432Zm3.139,1.793a1.362,1.362,0,0,1-2.534,1,1.335,1.335,0,0,1,.762-1.756A1.362,1.362,0,0,1,61.805,77.844Zm.7-4.214,10.78.091V71.4a1.221,1.221,0,0,1,.363-.868L84.477,59.823A6.285,6.285,0,0,0,86.4,55.106l-.691-23.679v0a2,2,0,0,0-1.067-1.53c-1.695-1.031-3.935-.027-3.916,5.356l.053,12.868v.005a8.369,8.369,0,0,1-2.031,5.5l0,0-.886,1.071-.028.033h0c-1.718,1.933-3.559,3.566-5.474,5.463a1.247,1.247,0,0,1-1.751,0,1.22,1.22,0,0,1,0-1.735c1.865-1.848,3.662-3.436,5.336-5.315a1.885,1.885,0,0,0-.014-2.652l-.007-.006a2.007,2.007,0,0,0-2.721-.005c-2.972,3.456-6.79,6.3-8.895,8.193l-.005,0c-1.607,1.427-1.8,3.484-1.8,5.616Zm-35,.111V71.91L17.044,61.56l-.006-.006a8.654,8.654,0,0,1-2.643-6.51s0,0,0-.006l.691-23.683A4.475,4.475,0,0,1,17.333,27.8a4.606,4.606,0,0,1,4.411-.3c1.678.817,3.294,3.037,3.277,7.759h0l-.053,12.865a6.026,6.026,0,0,0,.119,1.206,5.093,5.093,0,0,1,.517-.587,4.49,4.49,0,0,1,6.185-.039,1.209,1.209,0,0,1,.115.117c2.9,3.393,6.663,6.175,8.726,8.028,2.147,1.909,2.623,4.59,2.623,7.442v0l-.014,9.316,1.352-.011H44.6a2.908,2.908,0,0,1,2.9,2.854s.035,3.575.035,3.575v.012a2.887,2.887,0,0,1-2.882,2.877l-18.768.158a2.88,2.88,0,0,1-2.92-2.836s-.035-3.575-.035-3.575V76.65A2.9,2.9,0,0,1,25.8,73.755h.013Zm13.256-.111.014-9.339c0-2.133-.2-4.19-1.8-5.616l-.005,0c-2.1-1.891-5.922-4.737-8.895-8.193a2.007,2.007,0,0,0-2.721.005l-.006.006a1.885,1.885,0,0,0-.014,2.652c1.674,1.879,3.471,3.467,5.336,5.315a1.22,1.22,0,0,1,0,1.735,1.247,1.247,0,0,1-1.751,0c-1.915-1.9-3.756-3.53-5.474-5.463h0l-.028-.033-.886-1.071,0,0a8.369,8.369,0,0,1-2.031-5.5v-.005l.053-12.868c.019-5.382-2.221-6.386-3.916-5.356a2,2,0,0,0-1.067,1.53v0l-.691,23.679a6.285,6.285,0,0,0,1.923,4.718L29.619,70.532a1.221,1.221,0,0,1,.363.868V73.72ZM44.6,76.051l-18.764.158a.439.439,0,0,0-.429.432c0,.005.035,3.578.035,3.578v.012a.4.4,0,0,0,.4.388h.014l18.781-.158h.011a.417.417,0,0,0,.409-.415s-.035-3.578-.035-3.578,0-.008,0-.012a.42.42,0,0,0-.419-.406Zm-3.139,1.792a1.362,1.362,0,0,1,1.772-.755A1.335,1.335,0,0,1,44,78.845a1.362,1.362,0,0,1-2.534-1Zm28.9-35.123-3.552-3.783a1.221,1.221,0,0,1-.332-.836v-15.2a8.742,8.742,0,1,1,9.582,0V29.1a1.222,1.222,0,0,1-.407.909L74.525,31.02l1.13,1.013a1.22,1.22,0,0,1,0,1.819l-1.131,1.016,1.131,1.016a1.222,1.222,0,0,1,.407.909V38.1a1.221,1.221,0,0,1-.332.836l-3.554,3.783a1.246,1.246,0,0,1-1.813,0Zm.907-2.637,2.315-2.465v-.281l-1.737-1.56a1.22,1.22,0,0,1,0-1.819l1.131-1.015-1.13-1.013a1.22,1.22,0,0,1,0-1.819l1.737-1.56V22.21a1.226,1.226,0,0,1,.651-1.08,6.265,6.265,0,1,0-5.93,0,1.225,1.225,0,0,1,.651,1.08V37.619ZM67.8,13.864A3.469,3.469,0,1,1,71.27,17.3,3.453,3.453,0,0,1,67.8,13.864Zm2.477,0a.992.992,0,1,0,.991-.984A.987.987,0,0,0,70.279,13.864Z" transform="translate(-14.392 -7)" fill-rule="evenodd"/>
    </g>
  </g>
</svg>
