<svg xmlns="http://www.w3.org/2000/svg" xmlns:xlink="http://www.w3.org/1999/xlink" width="129" height="128" viewBox="0 0 129 128">
  <defs>
    <clipPath id="clip-path">
      <rect id="Rectangle_400938" data-name="Rectangle 400938" width="120" height="120" fill="none"/>
    </clipPath>
    <clipPath id="clip-path-2">
      <rect id="Rectangle_401139" data-name="Rectangle 401139" width="129" height="128" transform="translate(389 2749)" fill="#8f006f"/>
    </clipPath>
  </defs>
  <g id="Group_1122709" data-name="Group 1122709" transform="translate(-361 -6203)">
    <g id="Group_1122250" data-name="Group 1122250" transform="translate(-28 3454)">
      <g id="Grupo_108927" data-name="Grupo 108927" transform="translate(-1 -1718)">
        <path id="Rectángulo_36179" data-name="Rectángulo 36179" d="M0,0H129V128H0Z" transform="translate(390 4467)" fill="#0653ae"/>
      </g>
      <g id="Mask_Group_1098688" data-name="Mask Group 1098688" clip-path="url(#clip-path-2)">
        <path id="Path_878164" data-name="Path 878164" d="M195.281,0h1.95l-.293,3.327,2.755-2.1.988,1.694-3.133,1.536,3.133,1.621-.988,1.708-2.755-2.171.293,3.39h-1.95l.365-3.45L192.88,7.7,191.9,6l3.048-1.536-3.121-1.45.988-1.694,2.815,2.047Z" transform="translate(204.529 2754.341)" fill="#dbccfc"/>
        <path id="Path_878165" data-name="Path 878165" d="M207.27,0h1.95l-.293,3.327,2.755-2.1.988,1.694-3.133,1.536,3.133,1.621-.988,1.708-2.755-2.171.293,3.39h-1.95l.365-3.45L204.869,7.7,203.894,6l3.047-1.536-3.121-1.45.988-1.694,2.815,2.047Z" transform="translate(207.238 2754.341)" fill="#dbccfc"/>
        <path id="Path_878166" data-name="Path 878166" d="M219.26,0h1.95l-.293,3.327,2.755-2.1.988,1.694-3.133,1.536,3.133,1.621-.988,1.708-2.755-2.171.293,3.39h-1.95l.365-3.45L216.858,7.7,215.884,6l3.046-1.536-3.12-1.45.987-1.694,2.816,2.047Z" transform="translate(209.945 2754.341)" fill="#dbccfc"/>
        <path id="Path_878167" data-name="Path 878167" d="M231.249,0h1.95l-.293,3.327,2.755-2.1.988,1.694-3.133,1.536,3.133,1.621-.988,1.708-2.755-2.171.293,3.39h-1.95l.365-3.45L228.848,7.7,227.873,6l3.048-1.536L227.8,3.011l.988-1.694L231.6,3.364Z" transform="translate(212.654 2754.341)" fill="#dbccfc"/>
        <path id="Path_878168" data-name="Path 878168" d="M243.239,0h1.95L244.9,3.327l2.755-2.1.987,1.694-3.132,1.536,3.132,1.621-.987,1.708L244.9,5.618l.293,3.39h-1.95l.365-3.45L240.837,7.7,239.863,6l3.046-1.536-3.12-1.45.987-1.694,2.816,2.047Z" transform="translate(215.361 2754.341)" fill="#dbccfc"/>
        <path id="Path_878169" data-name="Path 878169" d="M195.281,0h1.95l-.293,3.327,2.755-2.1.988,1.694-3.133,1.536,3.133,1.621-.988,1.708-2.755-2.171.293,3.39h-1.95l.365-3.45L192.88,7.7,191.9,6l3.048-1.536-3.121-1.45.988-1.694,2.815,2.047Z" transform="translate(250.529 2861.341)" fill="#dbccfc"/>
        <path id="Path_878170" data-name="Path 878170" d="M207.27,0h1.95l-.293,3.327,2.755-2.1.988,1.694-3.133,1.536,3.133,1.621-.988,1.708-2.755-2.171.293,3.39h-1.95l.365-3.45L204.869,7.7,203.894,6l3.047-1.536-3.121-1.45.988-1.694,2.815,2.047Z" transform="translate(253.238 2861.341)" fill="#dbccfc"/>
        <path id="Path_878171" data-name="Path 878171" d="M219.26,0h1.95l-.293,3.327,2.755-2.1.988,1.694-3.133,1.536,3.133,1.621-.988,1.708-2.755-2.171.293,3.39h-1.95l.365-3.45L216.858,7.7,215.884,6l3.046-1.536-3.12-1.45.987-1.694,2.816,2.047Z" transform="translate(255.945 2861.341)" fill="#dbccfc"/>
        <path id="Path_878172" data-name="Path 878172" d="M231.249,0h1.95l-.293,3.327,2.755-2.1.988,1.694-3.133,1.536,3.133,1.621-.988,1.708-2.755-2.171.293,3.39h-1.95l.365-3.45L228.848,7.7,227.873,6l3.048-1.536L227.8,3.011l.988-1.694L231.6,3.364Z" transform="translate(258.654 2861.341)" fill="#dbccfc"/>
        <path id="Path_878173" data-name="Path 878173" d="M243.239,0h1.95L244.9,3.327l2.755-2.1.987,1.694-3.132,1.536,3.132,1.621-.987,1.708L244.9,5.618l.293,3.39h-1.95l.365-3.45L240.837,7.7,239.863,6l3.046-1.536-3.12-1.45.987-1.694,2.816,2.047Z" transform="translate(261.361 2861.341)" fill="#dbccfc"/>
      </g>
    </g>
    <g id="Group_1122255" data-name="Group 1122255" transform="translate(379.875 6220.719)">
      <rect id="Rectangle_401104" data-name="Rectangle 401104" width="92" height="94" transform="translate(0.124 -0.719)" fill="none"/>
      <g id="Group_1122552" data-name="Group 1122552" transform="translate(0.124 -1.785)">
        <path id="Path_957489" data-name="Path 957489" d="M84.741,77.582H82.726V40.962a6.808,6.808,0,0,0-6.8-6.8H66.936V29.155l8.343-11.547a3.256,3.256,0,0,1-.079,3.7L69.813,28.77a1.261,1.261,0,0,0,2.042,1.476l5.388-7.458a5.786,5.786,0,0,0-.431-7.3l2.536-3.509a5.5,5.5,0,0,0-8.916-6.442L59.263,20.992a9.056,9.056,0,0,0-1.322-.1H27.556a9.005,9.005,0,0,0-9,9v4.274H10.076a6.808,6.808,0,0,0-6.8,6.8V63.346a1.26,1.26,0,0,0,2.52,0V40.962a4.286,4.286,0,0,1,4.281-4.281h8.485v3H9.574a1.26,1.26,0,0,0-1.26,1.26V77.582H5.795V70.065a1.26,1.26,0,0,0-2.52,0v7.517H1.26A1.26,1.26,0,0,0,0,78.842v3.084a6.245,6.245,0,0,0,6.238,6.238h62.63a1.26,1.26,0,0,0,0-2.52H6.238A3.723,3.723,0,0,1,2.52,81.926V80.1H36.282v.018a4.1,4.1,0,0,0,4.1,4.1h5.243a4.1,4.1,0,0,0,4.1-4.1V80.1H83.482v1.824a3.723,3.723,0,0,1-3.719,3.719h-3.84a1.26,1.26,0,0,0,0,2.52h3.84A6.245,6.245,0,0,0,86,81.926V78.842A1.26,1.26,0,0,0,84.741,77.582ZM51.3,38.254l2.992,2.161-3.068,1.1Zm5.387.784-4.832-3.491L68.53,12.468l4.832,3.491ZM72.474,7.01A2.98,2.98,0,0,1,77.305,10.5l-2.468,3.416-4.832-3.491ZM47.2,80.119A1.58,1.58,0,0,1,45.622,81.7H40.379A1.58,1.58,0,0,1,38.8,80.119V80.1h8.4v.018ZM10.834,77.582V42.2h7.727v5.646A9.009,9.009,0,0,0,26.3,56.75v9.578a1.26,1.26,0,0,0,2.151.891L38.828,56.837H51.4a1.26,1.26,0,0,0,0-2.52H38.306a1.261,1.261,0,0,0-.891.369l-8.6,8.6V55.577a1.26,1.26,0,0,0-1.26-1.26,6.483,6.483,0,0,1-6.476-6.476V29.887a6.483,6.483,0,0,1,6.476-6.476H57.515l-8.44,11.681a1.3,1.3,0,0,0-.238.708l-.175,7.483A1.277,1.277,0,0,0,50.346,44.5l7.049-2.516a1.273,1.273,0,0,0,.6-.449l6.425-8.893v15.2a6.483,6.483,0,0,1-6.476,6.476,1.26,1.26,0,0,0,0,2.52,9.005,9.005,0,0,0,9-9V42.2h8.231V77.582Zm66.852,0V40.936a1.26,1.26,0,0,0-1.26-1.26h-9.49v-3h8.989a4.286,4.286,0,0,1,4.281,4.281v36.62Z" transform="translate(0 0)" fill="#fff"/>
        <path id="Path_957490" data-name="Path 957490" d="M183.7,234.225H169.76a1.26,1.26,0,0,0,0,2.52H183.7a1.26,1.26,0,0,0,0-2.52Z" transform="translate(-140.197 -192.172)" fill="#fff"/>
        <path id="Path_957491" data-name="Path 957491" d="M183.7,181.252H169.76a1.26,1.26,0,0,0,0,2.52H183.7a1.26,1.26,0,0,0,0-2.52Z" transform="translate(-140.197 -148.097)" fill="#fff"/>
      </g>
    </g>
  </g>
</svg>
