<svg xmlns="http://www.w3.org/2000/svg" xmlns:xlink="http://www.w3.org/1999/xlink" width="129" height="128" viewBox="0 0 129 128">
  <defs>
    <clipPath id="clip-path">
      <rect id="Rectangle_400938" data-name="Rectangle 400938" width="120" height="120" fill="none"/>
    </clipPath>
    <clipPath id="clip-path-2">
      <rect id="Rectangle_401139" data-name="Rectangle 401139" width="129" height="128" transform="translate(389 2749)" fill="#8f006f"/>
    </clipPath>
  </defs>
  <g id="Group_1122712" data-name="Group 1122712" transform="translate(-361 -6372)">
    <g id="Group_1122252" data-name="Group 1122252" transform="translate(-28 3623)">
      <g id="Grupo_108927" data-name="Grupo 108927" transform="translate(-1 -1718)">
        <path id="Rectángulo_36179" data-name="Rectángulo 36179" d="M0,0H129V128H0Z" transform="translate(390 4467)" fill="#0653ae"/>
      </g>
      <g id="Mask_Group_1098688" data-name="Mask Group 1098688" clip-path="url(#clip-path-2)">
        <path id="Path_878164" data-name="Path 878164" d="M195.281,0h1.95l-.293,3.327,2.755-2.1.988,1.694-3.133,1.536,3.133,1.621-.988,1.708-2.755-2.171.293,3.39h-1.95l.365-3.45L192.88,7.7,191.9,6l3.048-1.536-3.121-1.45.988-1.694,2.815,2.047Z" transform="translate(204.529 2754.341)" fill="#dbccfc"/>
        <path id="Path_878165" data-name="Path 878165" d="M207.27,0h1.95l-.293,3.327,2.755-2.1.988,1.694-3.133,1.536,3.133,1.621-.988,1.708-2.755-2.171.293,3.39h-1.95l.365-3.45L204.869,7.7,203.894,6l3.047-1.536-3.121-1.45.988-1.694,2.815,2.047Z" transform="translate(207.238 2754.341)" fill="#dbccfc"/>
        <path id="Path_878166" data-name="Path 878166" d="M219.26,0h1.95l-.293,3.327,2.755-2.1.988,1.694-3.133,1.536,3.133,1.621-.988,1.708-2.755-2.171.293,3.39h-1.95l.365-3.45L216.858,7.7,215.884,6l3.046-1.536-3.12-1.45.987-1.694,2.816,2.047Z" transform="translate(209.945 2754.341)" fill="#dbccfc"/>
        <path id="Path_878167" data-name="Path 878167" d="M231.249,0h1.95l-.293,3.327,2.755-2.1.988,1.694-3.133,1.536,3.133,1.621-.988,1.708-2.755-2.171.293,3.39h-1.95l.365-3.45L228.848,7.7,227.873,6l3.048-1.536L227.8,3.011l.988-1.694L231.6,3.364Z" transform="translate(212.654 2754.341)" fill="#dbccfc"/>
        <path id="Path_878168" data-name="Path 878168" d="M243.239,0h1.95L244.9,3.327l2.755-2.1.987,1.694-3.132,1.536,3.132,1.621-.987,1.708L244.9,5.618l.293,3.39h-1.95l.365-3.45L240.837,7.7,239.863,6l3.046-1.536-3.12-1.45.987-1.694,2.816,2.047Z" transform="translate(215.361 2754.341)" fill="#dbccfc"/>
        <path id="Path_878169" data-name="Path 878169" d="M195.281,0h1.95l-.293,3.327,2.755-2.1.988,1.694-3.133,1.536,3.133,1.621-.988,1.708-2.755-2.171.293,3.39h-1.95l.365-3.45L192.88,7.7,191.9,6l3.048-1.536-3.121-1.45.988-1.694,2.815,2.047Z" transform="translate(250.529 2861.341)" fill="#dbccfc"/>
        <path id="Path_878170" data-name="Path 878170" d="M207.27,0h1.95l-.293,3.327,2.755-2.1.988,1.694-3.133,1.536,3.133,1.621-.988,1.708-2.755-2.171.293,3.39h-1.95l.365-3.45L204.869,7.7,203.894,6l3.047-1.536-3.121-1.45.988-1.694,2.815,2.047Z" transform="translate(253.238 2861.341)" fill="#dbccfc"/>
        <path id="Path_878171" data-name="Path 878171" d="M219.26,0h1.95l-.293,3.327,2.755-2.1.988,1.694-3.133,1.536,3.133,1.621-.988,1.708-2.755-2.171.293,3.39h-1.95l.365-3.45L216.858,7.7,215.884,6l3.046-1.536-3.12-1.45.987-1.694,2.816,2.047Z" transform="translate(255.945 2861.341)" fill="#dbccfc"/>
        <path id="Path_878172" data-name="Path 878172" d="M231.249,0h1.95l-.293,3.327,2.755-2.1.988,1.694-3.133,1.536,3.133,1.621-.988,1.708-2.755-2.171.293,3.39h-1.95l.365-3.45L228.848,7.7,227.873,6l3.048-1.536L227.8,3.011l.988-1.694L231.6,3.364Z" transform="translate(258.654 2861.341)" fill="#dbccfc"/>
        <path id="Path_878173" data-name="Path 878173" d="M243.239,0h1.95L244.9,3.327l2.755-2.1.987,1.694-3.132,1.536,3.132,1.621-.987,1.708L244.9,5.618l.293,3.39h-1.95l.365-3.45L240.837,7.7,239.863,6l3.046-1.536-3.12-1.45.987-1.694,2.816,2.047Z" transform="translate(261.361 2861.341)" fill="#dbccfc"/>
      </g>
    </g>
    <g id="Group_1122253" data-name="Group 1122253" transform="translate(379.875 6389.719)">
      <rect id="Rectangle_401104" data-name="Rectangle 401104" width="92" height="94" transform="translate(0.124 -0.719)" fill="none"/>
      <g id="Group_1122554" data-name="Group 1122554" transform="translate(2.388 2.543)">
        <path id="Path_957499" data-name="Path 957499" d="M269.509,250.592a3.952,3.952,0,0,0,2.851-1.2l6.716-6.886a3.982,3.982,0,0,0-5.7-5.56l-3.94,4.039-.69-.671a3.982,3.982,0,1,0-5.552,5.71l3.541,3.443A3.962,3.962,0,0,0,269.509,250.592Zm-4.555-8.411a1.416,1.416,0,0,1,2-.028l1.609,1.565a1.284,1.284,0,0,0,1.814-.024l4.835-4.957a1.414,1.414,0,0,1,2.025,1.974l-6.716,6.886a1.421,1.421,0,0,1-2,.027l-3.541-3.443a1.416,1.416,0,0,1-.028-2Z" transform="translate(-217.227 -195.467)" fill="#fff"/>
        <path id="Path_957500" data-name="Path 957500" d="M221.628,205.415a1.284,1.284,0,0,0-2.05,1.547,16.927,16.927,0,0,0,1.537,1.766,16.7,16.7,0,1,0-4.1-6.722,1.284,1.284,0,0,0,2.446-.781,14.158,14.158,0,1,1,3.473,5.688A14.374,14.374,0,0,1,221.628,205.415Z" transform="translate(-179.272 -149.416)" fill="#fff"/>
        <path id="Path_957501" data-name="Path 957501" d="M85.709,70.95l-8.1-8.1a1.285,1.285,0,0,0-1.816,0l-.05.05-3.118-3.117a22.557,22.557,0,0,0,3.59-10.86,1.284,1.284,0,0,0-2.563-.162A20.011,20.011,0,0,1,53.682,67.51H53.56A20.017,20.017,0,1,1,73.376,43.942a1.284,1.284,0,0,0,2.528-.453A22.61,22.61,0,0,0,64.268,27.541V17.193a1.3,1.3,0,0,0-.376-.908L47.98.376A1.3,1.3,0,0,0,47.072,0H3.851A3.856,3.856,0,0,0,0,3.852V14.643a1.284,1.284,0,0,0,2.568,0V3.852A1.285,1.285,0,0,1,3.851,2.568H45.788V14.626a3.856,3.856,0,0,0,3.852,3.852H61.7v7.9a22.689,22.689,0,0,0-7.792-1.465.279.279,0,0,0-.038,0H25.2a1.284,1.284,0,1,0,0,2.568H43.179a22.506,22.506,0,0,0-5.122,3.678H25.2a1.284,1.284,0,1,0,0,2.568H35.746a22.349,22.349,0,0,0-4.214,9.18H25.2a1.284,1.284,0,1,0,0,2.568h5.956q-.089,1-.09,2.024,0,.836.06,1.663H25.2a1.284,1.284,0,1,0,0,2.568h6.26A22.348,22.348,0,0,0,35.75,61.27H25.2a1.284,1.284,0,1,0,0,2.568H38.062a22.5,22.5,0,0,0,5.114,3.672H25.2a1.284,1.284,0,1,0,0,2.568H53.662A22.7,22.7,0,0,0,61.7,68.609V83.625a1.286,1.286,0,0,1-1.284,1.284H3.851a1.286,1.286,0,0,1-1.284-1.284V19.78A1.284,1.284,0,0,0,0,19.78V83.625a3.856,3.856,0,0,0,3.852,3.851H60.416a3.856,3.856,0,0,0,3.852-3.852V67.445q.86-.456,1.686-.992l3.117,3.116a1.3,1.3,0,0,0-.05,1.865l8.1,8.1a6.071,6.071,0,0,0,8.587-8.586ZM49.64,15.91a1.286,1.286,0,0,1-1.284-1.284V4.384L59.884,15.91ZM68.048,64.917q.822-.679,1.593-1.447t1.447-1.592l2.838,2.838-3.039,3.039Zm15.844,12.8a3.52,3.52,0,0,1-4.955,0l-7.193-7.192L76.7,65.573l7.193,7.192A3.519,3.519,0,0,1,83.893,77.72Z" fill="#fff"/>
        <path id="Path_957502" data-name="Path 957502" d="M54.265,149.67h5.618a2.875,2.875,0,0,0,2.872-2.872v-5.617a2.875,2.875,0,0,0-2.872-2.872H54.265a2.875,2.875,0,0,0-2.872,2.872V146.8a2.875,2.875,0,0,0,2.872,2.872Zm-.3-8.489a.3.3,0,0,1,.3-.3h5.618a.3.3,0,0,1,.3.3V146.8a.3.3,0,0,1-.3.3H54.265a.3.3,0,0,1-.3-.3Z" transform="translate(-42.613 -114.679)" fill="#fff"/>
        <path id="Path_957503" data-name="Path 957503" d="M51.393,252.167a2.875,2.875,0,0,0,2.872,2.872h5.618a2.875,2.875,0,0,0,2.872-2.872V246.55a2.875,2.875,0,0,0-2.872-2.872H54.265a2.875,2.875,0,0,0-2.872,2.872Zm2.568-5.617a.3.3,0,0,1,.3-.3h5.618a.3.3,0,0,1,.3.3v5.617a.3.3,0,0,1-.3.3H54.265a.3.3,0,0,1-.3-.3Z" transform="translate(-42.613 -202.045)" fill="#fff"/>
        <path id="Path_957504" data-name="Path 957504" d="M51.393,359.674a2.875,2.875,0,0,0,2.872,2.872h5.618a2.875,2.875,0,0,0,2.872-2.872v-5.617a2.875,2.875,0,0,0-2.872-2.872H54.265a2.875,2.875,0,0,0-2.872,2.872Zm2.568-5.617a.3.3,0,0,1,.3-.3h5.618a.3.3,0,0,1,.3.3v5.617a.3.3,0,0,1-.3.3H54.265a.3.3,0,0,1-.3-.3Z" transform="translate(-42.613 -291.184)" fill="#fff"/>
      </g>
    </g>
  </g>
</svg>
