<svg xmlns="http://www.w3.org/2000/svg" xmlns:xlink="http://www.w3.org/1999/xlink" width="99.458" height="166.576" viewBox="0 0 99.458 166.576">
  <defs>
    <linearGradient id="linear-gradient" x1="0.5" x2="0.5" y2="1" gradientUnits="objectBoundingBox">
      <stop offset="0" stop-color="#ddf1ff"/>
      <stop offset="1" stop-color="#fff"/>
    </linearGradient>
  </defs>
  <g id="Group_1122710" data-name="Group 1122710" transform="translate(-810.917 -3393.567)">
    <rect id="Rectangle_416158" data-name="Rectangle 416158" width="85" height="166.576" transform="translate(810.917 3393.567)" fill="#daf5fe"/>
    <g id="Group_1122504" data-name="Group 1122504" transform="translate(567.388 -2591.059)">
      <g id="Group_1099808" data-name="Group 1099808" transform="translate(269.987 6031.414)">
        <g id="Group_1099775" data-name="Group 1099775" transform="translate(0 0)">
          <g id="Group_1099770" data-name="Group 1099770">
            <g id="Rectangle_401345" data-name="Rectangle 401345" stroke="#8f006f" stroke-width="5" fill="url(#linear-gradient)">
              <rect width="73" height="73" rx="10" stroke="none"/>
              <rect x="2.5" y="2.5" width="68" height="68" rx="7.5" fill="none"/>
            </g>
          </g>
        </g>
        <g id="Group_1099776" data-name="Group 1099776" transform="translate(12.023 11.982)">
          <g id="Group_1099618" data-name="Group 1099618" transform="translate(0 0)">
            <rect id="Rectangle_401104" data-name="Rectangle 401104" width="48.305" height="48.887" transform="translate(0)" fill="none"/>
          </g>
          <g id="Group_1122675" data-name="Group 1122675" transform="translate(-0.5 -0.209)">
            <path id="Path_957848" data-name="Path 957848" d="M46.541,8.2H32.5a4.548,4.548,0,0,0-3.849-3.774C26.992,1.179,24.124.5,20.728.5c-1.359,0-5.963.226-8.6,3.623-1.962,2.491-2.491,6.038-1.51,10.642-1.132.6-1.208,1.887-.83,3.095.226,1.132.981,4.6,2.868,4.981a13.525,13.525,0,0,0,1.66,3.849v3.774l-9.51,3.7A6.718,6.718,0,0,0,.5,40.427V48.05a.713.713,0,0,0,.755.755h40a.713.713,0,0,0,.755-.755V43.522h4.529a2.224,2.224,0,0,0,2.264-2.264V10.463A2.271,2.271,0,0,0,46.541,8.2ZM13.633,21.483c-.83-.528-.83,1.283-2.34-4-.453-1.585.377-1.434.3-1.434a.8.8,0,0,0,.755-.906c-1.132-4.453-.755-7.85.981-10.038,1.811-2.264,5.208-3.246,7.85-3.095h.075c4.755-.226,6.189,3.246,6.189,3.321.377.981,1.66-.075,2.944,1.66.755,1.057,1.359,3.321-.151,8a1.066,1.066,0,0,0,.075.679c.453.6,1.434-.151.906,1.736,0,.075-.83,3.925-1.811,3.925a.95.95,0,0,0-.6.075.635.635,0,0,0-.3.528c-.075.3-1.434,7.321-7.321,7.548-5.887-.226-7.246-7.246-7.321-7.548.075-.151-.075-.3-.226-.453ZM24.351,47.3H18.237l2.189-6.416c.226-.679-.377-.83-1.887-2.944l2.793-.755,2.717.755C21.558,42.012,21.256,37.861,24.351,47.3ZM14.765,31.9l4.906,4.151-4.68,1.283-1.962-4.755Zm8.076,4.151,4.831-4.227,1.66.679-2.038,4.831Zm3.925-7.4v2.038l-5.51,4.755-5.51-4.6V28.653A7.511,7.511,0,0,0,26.766,28.653ZM2.01,40.427A5.247,5.247,0,0,1,5.331,35.6L11.6,33.182l2.264,5.359a.725.725,0,0,0,.679.453h.226l2.189-.6L18.841,40.8,16.577,47.3H2.01ZM40.5,47.3H25.936L23.671,40.8l1.887-2.415,1.962.528h.226a.66.66,0,0,0,.679-.453l2.264-5.434,6.416,2.491a5.247,5.247,0,0,1,3.321,4.831V47.3ZM47.3,41.258a.713.713,0,0,1-.755.755H42.012v-1.66a6.8,6.8,0,0,0-4.3-6.265l-9.435-3.623V26.69a16.166,16.166,0,0,0,1.66-3.849c1.811-.377,2.642-3.849,2.868-4.981.377-1.208.3-2.415-.755-3.095a17.566,17.566,0,0,0,.83-5.132H46.692a.713.713,0,0,1,.755.755v30.87Z" fill="#182e68"/>
            <path id="Path_957849" data-name="Path 957849" d="M57.274,17.3H54.255a.755.755,0,0,0,0,1.51h3.019a.755.755,0,0,0,0-1.51Z" transform="translate(-12.997 -4.12)" fill="#182e68"/>
            <path id="Path_957850" data-name="Path 957850" d="M57.274,25.3H54.255a.755.755,0,0,0,0,1.51h3.019a.755.755,0,0,0,0-1.51Z" transform="translate(-12.997 -6.082)" fill="#182e68"/>
            <path id="Path_957851" data-name="Path 957851" d="M57.274,33.3H54.255a.755.755,0,0,0,0,1.51h3.019a.755.755,0,0,0,0-1.51Z" transform="translate(-12.997 -8.044)" fill="#182e68"/>
            <path id="Path_957852" data-name="Path 957852" d="M48.77,17.3h-1.51a.755.755,0,0,0,0,1.51h1.51a.755.755,0,0,0,0-1.51Z" transform="translate(-11.287 -4.12)" fill="#182e68"/>
            <path id="Path_957853" data-name="Path 957853" d="M48.764,25.291c-.679.075-2.264-.377-2.264.755a.713.713,0,0,0,.755.755h1.51a.755.755,0,1,0,0-1.51Z" transform="translate(-11.281 -6.073)" fill="#182e68"/>
            <path id="Path_957854" data-name="Path 957854" d="M48.764,33.3h-1.51a.755.755,0,0,0,0,1.51h1.51a.755.755,0,1,0,0-1.51Z" transform="translate(-11.281 -8.044)" fill="#182e68"/>
            <path id="Path_957855" data-name="Path 957855" d="M57.274,41.2H54.255a.755.755,0,0,0,0,1.51h3.019a.755.755,0,0,0,0-1.51Z" transform="translate(-12.997 -9.981)" fill="#182e68"/>
          </g>
        </g>
      </g>
    </g>
  </g>
</svg>
