<svg xmlns="http://www.w3.org/2000/svg" xmlns:xlink="http://www.w3.org/1999/xlink" width="99.458" height="166.576" viewBox="0 0 99.458 166.576">
  <defs>
    <linearGradient id="linear-gradient" x1="0.5" x2="0.5" y2="1" gradientUnits="objectBoundingBox">
      <stop offset="0" stop-color="#ddf1ff"/>
      <stop offset="1" stop-color="#fff"/>
    </linearGradient>
  </defs>
  <g id="Group_1122709" data-name="Group 1122709" transform="translate(-181 -3393.567)">
    <rect id="Rectangle_416159" data-name="Rectangle 416159" width="85" height="166.576" transform="translate(181 3393.567)" fill="#daf5fe"/>
    <g id="Group_1122505" data-name="Group 1122505" transform="translate(-62.529 -2591.059)">
      <g id="Group_1099808" data-name="Group 1099808" transform="translate(269.987 6031.414)">
        <g id="Group_1099775" data-name="Group 1099775" transform="translate(0 0)">
          <g id="Group_1099770" data-name="Group 1099770">
            <g id="Rectangle_401345" data-name="Rectangle 401345" stroke="#8f006f" stroke-width="5" fill="url(#linear-gradient)">
              <rect width="73" height="73" rx="10" stroke="none"/>
              <rect x="2.5" y="2.5" width="68" height="68" rx="7.5" fill="none"/>
            </g>
          </g>
        </g>
        <g id="Group_1099776" data-name="Group 1099776" transform="translate(12.023 11.982)">
          <g id="Group_1099618" data-name="Group 1099618" transform="translate(0 0)">
            <rect id="Rectangle_401104" data-name="Rectangle 401104" width="48.305" height="48.887" transform="translate(0)" fill="none"/>
          </g>
          <g id="Group_1122674" data-name="Group 1122674" transform="translate(-1.447 -0.994)">
            <g id="Group_1122644" data-name="Group 1122644" transform="translate(1.447 7.491)">
              <path id="Path_957824" data-name="Path 957824" d="M9.888,51.884A3.6,3.6,0,0,1,7.6,51.121,3.733,3.733,0,0,1,6.146,48.6L1.487,14.311a3.784,3.784,0,0,1,3.207-4.277L8.59,9.5a.823.823,0,0,1,.611.153.867.867,0,0,1,.229.611V41.422a2.283,2.283,0,0,0,2.215,2.291H35.318a2.713,2.713,0,0,0,.764-.153.742.742,0,0,1,.687.076.7.7,0,0,1,.305.611V44.4a3.779,3.779,0,0,1-3.207,4.2L10.422,51.884H9.888ZM7.9,11.1l-2.978.458a2.24,2.24,0,0,0-1.909,2.52L7.75,48.371A2.166,2.166,0,0,0,8.666,49.9a2.186,2.186,0,0,0,1.68.458l23.445-3.207A2.268,2.268,0,0,0,35.7,45.24H11.8a3.765,3.765,0,0,1-3.742-3.818V11.1Z" transform="translate(-1.447 -9.5)" fill="#182e68"/>
            </g>
            <g id="Group_1122645" data-name="Group 1122645" transform="translate(7.826 1)">
              <path id="Path_957825" data-name="Path 957825" d="M37.292,43.155H13.618A3.829,3.829,0,0,1,9.8,39.337V4.818A3.829,3.829,0,0,1,13.618,1H37.292a3.773,3.773,0,0,1,3.742,3.131.779.779,0,1,1-1.527.305,2.164,2.164,0,0,0-2.215-1.909H13.618a2.3,2.3,0,0,0-2.291,2.291V39.413A2.3,2.3,0,0,0,13.618,41.7H37.292a2.3,2.3,0,0,0,2.291-2.291V32.387a.764.764,0,1,1,1.527,0v7.026A3.765,3.765,0,0,1,37.292,43.155Zm3.131-16.19a.722.722,0,0,1-.764-.764V15.586a.764.764,0,0,1,1.527,0V26.2A.821.821,0,0,1,40.424,26.965Z" transform="translate(-9.8 -1)" fill="#182e68"/>
            </g>
            <g id="Group_1122646" data-name="Group 1122646" transform="translate(34.555 2.298)">
              <path id="Path_957826" data-name="Path 957826" d="M52.36,17.821a8.358,8.358,0,0,1-3.818-.993l-2.826.458a.616.616,0,0,1-.687-.229,1.066,1.066,0,0,1-.229-.687l.611-3.207a7.548,7.548,0,1,1,14.51-2.9A7.529,7.529,0,0,1,52.36,17.821Zm-3.589-2.6a.583.583,0,0,1,.382.153,6.037,6.037,0,1,0-2.826-5.117,5.755,5.755,0,0,0,.535,2.52.969.969,0,0,1,.076.458l-.458,2.367,2.062-.382Z" transform="translate(-44.8 -2.7)" fill="#182e68"/>
            </g>
            <g id="Group_1122647" data-name="Group 1122647" transform="translate(37.571 6.136)">
              <path id="Path_957827" data-name="Path 957827" d="M52.072,15.266a2.2,2.2,0,0,1-1.375-.535l-1.375-1.375a1.936,1.936,0,0,1,0-2.749,1.845,1.845,0,0,1,2.673,0L54.363,8.24a2.091,2.091,0,0,1,2.749,0,1.84,1.84,0,0,1,.535,1.375,2.2,2.2,0,0,1-.535,1.375L53.37,14.732a1.711,1.711,0,0,1-1.3.535Zm-1.3-3.666a.3.3,0,0,0-.305.153.369.369,0,0,0,0,.535l1.375,1.375a.369.369,0,0,0,.535,0L56.12,9.921a.369.369,0,0,0,0-.535.579.579,0,0,0-.305-.153c-.076,0-.153,0-.305.153l-2.9,2.9a.738.738,0,0,1-1.069,0L51,11.753c-.076-.153-.153-.153-.229-.153Z" transform="translate(-48.75 -7.725)" fill="#182e68"/>
            </g>
            <g id="Group_1122651" data-name="Group 1122651" transform="translate(28.9 18.355)">
              <g id="Group_1122648" data-name="Group 1122648" transform="translate(1.454)">
                <path id="Path_957828" data-name="Path 957828" d="M42.813,43.027a.693.693,0,0,1-.535-.229l-2.749-2.749a.738.738,0,0,1,0-1.069L54.268,24.24a1.8,1.8,0,0,1,2.52,0l1.375,1.375a1.8,1.8,0,0,1,.535,1.222,1.519,1.519,0,0,1-.535,1.222L43.348,42.8a.825.825,0,0,1-.535.229Zm-1.68-3.513,1.68,1.68,14.2-14.2a.237.237,0,0,0,.076-.153c0-.076,0-.076-.076-.153L55.643,25.31c-.153-.153-.229-.153-.305,0Z" transform="translate(-39.3 -23.725)" fill="#182e68"/>
              </g>
              <g id="Group_1122649" data-name="Group 1122649" transform="translate(0 14.978)">
                <path id="Path_957829" data-name="Path 957829" d="M38.163,49.036a.693.693,0,0,1-.535-.229.608.608,0,0,1-.153-.764l1.375-4.2a.773.773,0,1,1,1.451.535l-.916,2.749,2.749-.916a.773.773,0,0,1,.535,1.451l-4.2,1.375h-.305Z" transform="translate(-37.396 -43.337)" fill="#182e68"/>
              </g>
              <g id="Group_1122650" data-name="Group 1122650" transform="translate(14.284 2.196)">
                <path id="Path_957830" data-name="Path 957830" d="M59.613,30.877a.693.693,0,0,1-.535-.229L56.329,27.9A.756.756,0,0,1,57.4,26.829l2.749,2.749a.738.738,0,0,1,0,1.069A.825.825,0,0,1,59.613,30.877Z" transform="translate(-56.1 -26.6)" fill="#182e68"/>
              </g>
            </g>
            <g id="Group_1122652" data-name="Group 1122652" transform="translate(11.721 4.895)">
              <path id="Path_957831" data-name="Path 957831" d="M17.344,11.751a.693.693,0,0,1-.535-.229l-1.68-1.68A.756.756,0,0,1,16.2,8.773l1.146,1.146,3.589-3.589A.756.756,0,0,1,22,7.4l-4.124,4.124C17.726,11.751,17.573,11.751,17.344,11.751Z" transform="translate(-14.9 -6.1)" fill="#182e68"/>
            </g>
            <g id="Group_1122653" data-name="Group 1122653" transform="translate(12.561 12.073)">
              <path id="Path_957832" data-name="Path 957832" d="M16.764,21.151a.693.693,0,0,1-.535-.229.738.738,0,0,1,0-1.069l4.124-4.124A.756.756,0,1,1,21.422,16.8L17.3,20.922A.693.693,0,0,1,16.764,21.151Z" transform="translate(-16 -15.5)" fill="#182e68"/>
            </g>
            <g id="Group_1122654" data-name="Group 1122654" transform="translate(12.561 12.073)">
              <path id="Path_957833" data-name="Path 957833" d="M20.888,21.151a.693.693,0,0,1-.535-.229L16.229,16.8A.756.756,0,1,1,17.3,15.729l4.124,4.124a.738.738,0,0,1,0,1.069.6.6,0,0,1-.535.229Z" transform="translate(-16 -15.5)" fill="#182e68"/>
            </g>
            <g id="Group_1122655" data-name="Group 1122655" transform="translate(12.561 26.431)">
              <path id="Path_957834" data-name="Path 957834" d="M16.764,39.951a.693.693,0,0,1-.535-.229.738.738,0,0,1,0-1.069l4.124-4.124A.756.756,0,0,1,21.422,35.6L17.3,39.722A.693.693,0,0,1,16.764,39.951Z" transform="translate(-16 -34.3)" fill="#182e68"/>
            </g>
            <g id="Group_1122656" data-name="Group 1122656" transform="translate(12.561 26.431)">
              <path id="Path_957835" data-name="Path 957835" d="M20.888,39.951a.693.693,0,0,1-.535-.229L16.229,35.6A.756.756,0,0,1,17.3,34.529l4.124,4.124a.738.738,0,0,1,0,1.069.6.6,0,0,1-.535.229Z" transform="translate(-16 -34.3)" fill="#182e68"/>
            </g>
            <g id="Group_1122657" data-name="Group 1122657" transform="translate(11.721 19.252)">
              <path id="Path_957836" data-name="Path 957836" d="M17.344,30.551a.693.693,0,0,1-.535-.229l-1.68-1.68A.756.756,0,0,1,16.2,27.573l1.146,1.146,3.589-3.589A.756.756,0,0,1,22,26.2l-4.124,4.124A.693.693,0,0,1,17.344,30.551Z" transform="translate(-14.9 -24.9)" fill="#182e68"/>
            </g>
            <g id="Group_1122658" data-name="Group 1122658" transform="translate(11.721 33.609)">
              <path id="Path_957837" data-name="Path 957837" d="M17.344,49.351a.693.693,0,0,1-.535-.229l-1.68-1.68A.756.756,0,0,1,16.2,46.373l1.146,1.146,3.589-3.589A.756.756,0,0,1,22,45l-4.124,4.124A.693.693,0,0,1,17.344,49.351Z" transform="translate(-14.9 -43.7)" fill="#182e68"/>
            </g>
            <g id="Group_1122661" data-name="Group 1122661" transform="translate(20.656 5.353)">
              <g id="Group_1122659" data-name="Group 1122659" transform="translate(0.076)">
                <path id="Path_957838" data-name="Path 957838" d="M33.191,8.227H27.464a.722.722,0,0,1-.764-.764.722.722,0,0,1,.764-.764h5.728a.722.722,0,0,1,.764.764A.765.765,0,0,1,33.191,8.227Z" transform="translate(-26.7 -6.7)" fill="#182e68"/>
              </g>
              <g id="Group_1122660" data-name="Group 1122660" transform="translate(0 3.284)">
                <path id="Path_957839" data-name="Path 957839" d="M36.833,12.527h-9.47a.764.764,0,1,1,0-1.527h9.47a.722.722,0,0,1,.764.764A.765.765,0,0,1,36.833,12.527Z" transform="translate(-26.6 -11)" fill="#182e68"/>
              </g>
            </g>
            <g id="Group_1122664" data-name="Group 1122664" transform="translate(20.656 12.532)">
              <g id="Group_1122662" data-name="Group 1122662" transform="translate(0.076)">
                <path id="Path_957840" data-name="Path 957840" d="M33.191,17.627H27.464a.764.764,0,0,1,0-1.527h5.728a.722.722,0,0,1,.764.764A.765.765,0,0,1,33.191,17.627Z" transform="translate(-26.7 -16.1)" fill="#182e68"/>
              </g>
              <g id="Group_1122663" data-name="Group 1122663" transform="translate(0 3.284)">
                <path id="Path_957841" data-name="Path 957841" d="M36.833,21.927h-9.47a.764.764,0,1,1,0-1.527h9.47a.722.722,0,0,1,.764.764A.765.765,0,0,1,36.833,21.927Z" transform="translate(-26.6 -20.4)" fill="#182e68"/>
              </g>
            </g>
            <g id="Group_1122667" data-name="Group 1122667" transform="translate(20.656 19.71)">
              <g id="Group_1122665" data-name="Group 1122665" transform="translate(0.076)">
                <path id="Path_957842" data-name="Path 957842" d="M33.191,27.027H27.464a.764.764,0,0,1,0-1.527h5.728a.722.722,0,0,1,.764.764A.765.765,0,0,1,33.191,27.027Z" transform="translate(-26.7 -25.5)" fill="#182e68"/>
              </g>
              <g id="Group_1122666" data-name="Group 1122666" transform="translate(0 3.284)">
                <path id="Path_957843" data-name="Path 957843" d="M40.423,31.327H27.364a.764.764,0,1,1,0-1.527H40.423a.764.764,0,0,1,0,1.527Z" transform="translate(-26.6 -29.8)" fill="#182e68"/>
              </g>
            </g>
            <g id="Group_1122670" data-name="Group 1122670" transform="translate(20.732 26.889)">
              <g id="Group_1122668" data-name="Group 1122668" transform="translate(0)">
                <path id="Path_957844" data-name="Path 957844" d="M33.191,36.427H27.464a.764.764,0,0,1,0-1.527h5.728a.722.722,0,0,1,.764.764A.765.765,0,0,1,33.191,36.427Z" transform="translate(-26.7 -34.9)" fill="#182e68"/>
              </g>
              <g id="Group_1122669" data-name="Group 1122669" transform="translate(0 3.284)">
                <path id="Path_957845" data-name="Path 957845" d="M35.024,40.727h-7.56a.764.764,0,1,1,0-1.527h7.56a.722.722,0,0,1,.764.764A.765.765,0,0,1,35.024,40.727Z" transform="translate(-26.7 -39.2)" fill="#182e68"/>
              </g>
            </g>
            <g id="Group_1122673" data-name="Group 1122673" transform="translate(20.732 34.067)">
              <g id="Group_1122671" data-name="Group 1122671" transform="translate(0)">
                <path id="Path_957846" data-name="Path 957846" d="M33.191,45.827H27.464a.764.764,0,0,1,0-1.527h5.728a.722.722,0,0,1,.764.764A.765.765,0,0,1,33.191,45.827Z" transform="translate(-26.7 -44.3)" fill="#182e68"/>
              </g>
              <g id="Group_1122672" data-name="Group 1122672" transform="translate(0 3.284)">
                <path id="Path_957847" data-name="Path 957847" d="M31.969,50.127H27.464a.764.764,0,1,1,0-1.527h4.506a.722.722,0,0,1,.764.764A.765.765,0,0,1,31.969,50.127Z" transform="translate(-26.7 -48.6)" fill="#182e68"/>
              </g>
            </g>
          </g>
        </g>
      </g>
    </g>
  </g>
</svg>
