<svg xmlns="http://www.w3.org/2000/svg" xmlns:xlink="http://www.w3.org/1999/xlink" width="129" height="128" viewBox="0 0 129 128">
  <defs>
    <clipPath id="clip-path">
      <rect id="Rectangle_400938" data-name="Rectangle 400938" width="120" height="120" fill="none"/>
    </clipPath>
    <clipPath id="clip-path-2">
      <rect id="Rectangle_401139" data-name="Rectangle 401139" width="129" height="128" transform="translate(389 2749)" fill="#8f006f"/>
    </clipPath>
  </defs>
  <g id="Group_1122711" data-name="Group 1122711" transform="translate(-361 -6203)">
    <g id="Group_1122250" data-name="Group 1122250" transform="translate(-28 3454)">
      <g id="Grupo_108927" data-name="Grupo 108927" transform="translate(-1 -1718)">
        <path id="Rectángulo_36179" data-name="Rectángulo 36179" d="M0,0H129V128H0Z" transform="translate(390 4467)" fill="#0653ae"/>
      </g>
      <g id="Mask_Group_1098688" data-name="Mask Group 1098688" clip-path="url(#clip-path-2)">
        <path id="Path_878164" data-name="Path 878164" d="M195.281,0h1.95l-.293,3.327,2.755-2.1.988,1.694-3.133,1.536,3.133,1.621-.988,1.708-2.755-2.171.293,3.39h-1.95l.365-3.45L192.88,7.7,191.9,6l3.048-1.536-3.121-1.45.988-1.694,2.815,2.047Z" transform="translate(204.529 2754.341)" fill="#dbccfc"/>
        <path id="Path_878165" data-name="Path 878165" d="M207.27,0h1.95l-.293,3.327,2.755-2.1.988,1.694-3.133,1.536,3.133,1.621-.988,1.708-2.755-2.171.293,3.39h-1.95l.365-3.45L204.869,7.7,203.894,6l3.047-1.536-3.121-1.45.988-1.694,2.815,2.047Z" transform="translate(207.238 2754.341)" fill="#dbccfc"/>
        <path id="Path_878166" data-name="Path 878166" d="M219.26,0h1.95l-.293,3.327,2.755-2.1.988,1.694-3.133,1.536,3.133,1.621-.988,1.708-2.755-2.171.293,3.39h-1.95l.365-3.45L216.858,7.7,215.884,6l3.046-1.536-3.12-1.45.987-1.694,2.816,2.047Z" transform="translate(209.945 2754.341)" fill="#dbccfc"/>
        <path id="Path_878167" data-name="Path 878167" d="M231.249,0h1.95l-.293,3.327,2.755-2.1.988,1.694-3.133,1.536,3.133,1.621-.988,1.708-2.755-2.171.293,3.39h-1.95l.365-3.45L228.848,7.7,227.873,6l3.048-1.536L227.8,3.011l.988-1.694L231.6,3.364Z" transform="translate(212.654 2754.341)" fill="#dbccfc"/>
        <path id="Path_878168" data-name="Path 878168" d="M243.239,0h1.95L244.9,3.327l2.755-2.1.987,1.694-3.132,1.536,3.132,1.621-.987,1.708L244.9,5.618l.293,3.39h-1.95l.365-3.45L240.837,7.7,239.863,6l3.046-1.536-3.12-1.45.987-1.694,2.816,2.047Z" transform="translate(215.361 2754.341)" fill="#dbccfc"/>
        <path id="Path_878169" data-name="Path 878169" d="M195.281,0h1.95l-.293,3.327,2.755-2.1.988,1.694-3.133,1.536,3.133,1.621-.988,1.708-2.755-2.171.293,3.39h-1.95l.365-3.45L192.88,7.7,191.9,6l3.048-1.536-3.121-1.45.988-1.694,2.815,2.047Z" transform="translate(250.529 2861.341)" fill="#dbccfc"/>
        <path id="Path_878170" data-name="Path 878170" d="M207.27,0h1.95l-.293,3.327,2.755-2.1.988,1.694-3.133,1.536,3.133,1.621-.988,1.708-2.755-2.171.293,3.39h-1.95l.365-3.45L204.869,7.7,203.894,6l3.047-1.536-3.121-1.45.988-1.694,2.815,2.047Z" transform="translate(253.238 2861.341)" fill="#dbccfc"/>
        <path id="Path_878171" data-name="Path 878171" d="M219.26,0h1.95l-.293,3.327,2.755-2.1.988,1.694-3.133,1.536,3.133,1.621-.988,1.708-2.755-2.171.293,3.39h-1.95l.365-3.45L216.858,7.7,215.884,6l3.046-1.536-3.12-1.45.987-1.694,2.816,2.047Z" transform="translate(255.945 2861.341)" fill="#dbccfc"/>
        <path id="Path_878172" data-name="Path 878172" d="M231.249,0h1.95l-.293,3.327,2.755-2.1.988,1.694-3.133,1.536,3.133,1.621-.988,1.708-2.755-2.171.293,3.39h-1.95l.365-3.45L228.848,7.7,227.873,6l3.048-1.536L227.8,3.011l.988-1.694L231.6,3.364Z" transform="translate(258.654 2861.341)" fill="#dbccfc"/>
        <path id="Path_878173" data-name="Path 878173" d="M243.239,0h1.95L244.9,3.327l2.755-2.1.987,1.694-3.132,1.536,3.132,1.621-.987,1.708L244.9,5.618l.293,3.39h-1.95l.365-3.45L240.837,7.7,239.863,6l3.046-1.536-3.12-1.45.987-1.694,2.816,2.047Z" transform="translate(261.361 2861.341)" fill="#dbccfc"/>
      </g>
    </g>
    <path id="Path_957498" data-name="Path 957498" d="M93.589,44.943a8.283,8.283,0,0,1-5.853-14.132,4.092,4.092,0,0,0,0-5.779L81.643,18.94a4.087,4.087,0,0,0-5.779,0,8.283,8.283,0,0,1-14.132-5.853A4.091,4.091,0,0,0,57.646,9H49.03a4.091,4.091,0,0,0-4.086,4.086A8.283,8.283,0,0,1,30.812,18.94a4.087,4.087,0,0,0-5.779,0L18.94,25.032a4.087,4.087,0,0,0,0,5.779,8.283,8.283,0,0,1-5.853,14.132A4.091,4.091,0,0,0,9,49.03v8.616a4.091,4.091,0,0,0,4.086,4.086A8.283,8.283,0,0,1,18.94,75.864a4.087,4.087,0,0,0,0,5.78l6.093,6.093a4.087,4.087,0,0,0,5.78,0,8.278,8.278,0,0,1,14.132,5.853,4.091,4.091,0,0,0,4.086,4.086h8.616a4.091,4.091,0,0,0,4.086-4.086,8.283,8.283,0,0,1,14.132-5.853,4.087,4.087,0,0,0,5.78,0l6.093-6.093a4.092,4.092,0,0,0,0-5.779,8.283,8.283,0,0,1,5.853-14.132,4.091,4.091,0,0,0,4.086-4.086V49.03a4.091,4.091,0,0,0-4.087-4.086Zm1.573,12.7a1.575,1.575,0,0,1-1.573,1.573,10.8,10.8,0,0,0-7.631,18.422,1.575,1.575,0,0,1,0,2.225l-6.093,6.092a1.574,1.574,0,0,1-2.225,0,10.8,10.8,0,0,0-18.422,7.63,1.575,1.575,0,0,1-1.573,1.573H49.03a1.575,1.575,0,0,1-1.573-1.573,10.624,10.624,0,0,0-6.662-9.97,10.951,10.951,0,0,0-4.2-.849,10.643,10.643,0,0,0-7.562,3.188,1.574,1.574,0,0,1-2.225,0l-6.093-6.093a1.574,1.574,0,0,1,0-2.225,10.8,10.8,0,0,0-7.631-18.422,1.575,1.575,0,0,1-1.573-1.573V49.03a1.575,1.575,0,0,1,1.573-1.573,10.8,10.8,0,0,0,7.631-18.422,1.574,1.574,0,0,1,0-2.225l6.093-6.093a1.574,1.574,0,0,1,2.225,0,10.8,10.8,0,0,0,18.422-7.63,1.575,1.575,0,0,1,1.573-1.573h8.616a1.575,1.575,0,0,1,1.573,1.573,10.8,10.8,0,0,0,18.422,7.63,1.574,1.574,0,0,1,2.225,0l6.093,6.093a1.575,1.575,0,0,1,0,2.225,10.8,10.8,0,0,0,7.63,18.422,1.575,1.575,0,0,1,1.573,1.573ZM53.337,26.957A26.381,26.381,0,1,0,79.719,53.338,26.411,26.411,0,0,0,53.337,26.957Zm0,50.249A23.868,23.868,0,1,1,77.206,53.338,23.895,23.895,0,0,1,53.337,77.206Zm0-31.774a7.906,7.906,0,1,0,7.906,7.906A7.915,7.915,0,0,0,53.338,45.432Zm0,13.3a5.393,5.393,0,1,1,5.393-5.393A5.4,5.4,0,0,1,53.338,58.73ZM48.975,39.781A1.257,1.257,0,0,1,50.752,38l1.329,1.329v-6.8a1.257,1.257,0,0,1,2.513,0v6.8L55.923,38A1.257,1.257,0,0,1,57.7,39.781l-3.474,3.474a1.257,1.257,0,0,1-1.777,0ZM43.255,52.449a1.257,1.257,0,0,1,0,1.777L39.781,57.7A1.257,1.257,0,0,1,38,55.923l1.329-1.329h-6.8a1.257,1.257,0,1,1,0-2.513h6.8L38,50.752a1.257,1.257,0,0,1,1.777-1.777ZM57.7,66.894a1.256,1.256,0,1,1-1.777,1.777l-1.329-1.329v6.8a1.257,1.257,0,1,1-2.513,0v-6.8l-1.329,1.329a1.257,1.257,0,0,1-1.777-1.777l3.474-3.474a1.257,1.257,0,0,1,1.777,0Zm9.642-14.813h6.8a1.257,1.257,0,1,1,0,2.513h-6.8l1.329,1.329A1.257,1.257,0,0,1,66.894,57.7L63.42,54.226a1.257,1.257,0,0,1,0-1.777l3.474-3.474a1.257,1.257,0,0,1,1.777,1.777Z" transform="translate(372.663 6213.662)" fill="#fff"/>
  </g>
</svg>
