<svg xmlns="http://www.w3.org/2000/svg" xmlns:xlink="http://www.w3.org/1999/xlink" width="109" height="109" viewBox="0 0 109 109">
  <defs>
    <linearGradient id="linear-gradient" x1="0.5" x2="0.5" y2="1" gradientUnits="objectBoundingBox">
      <stop offset="0" stop-color="#ddf1ff"/>
      <stop offset="1" stop-color="#fff"/>
    </linearGradient>
  </defs>
  <g id="Group_1122711" data-name="Group 1122711" transform="translate(5 5)">
    <g id="Group_1099775" data-name="Group 1099775">
      <g id="Group_1099770" data-name="Group 1099770">
        <g id="Rectangle_401345" data-name="Rectangle 401345" stroke="#614c8d" stroke-width="5" fill="url(#linear-gradient)">
          <rect width="99" height="99" rx="10" stroke="none"/>
          <rect x="-2.5" y="-2.5" width="104" height="104" rx="12.5" fill="none"/>
        </g>
      </g>
    </g>
    <g id="Group_1099776" data-name="Group 1099776" transform="translate(11.22 11.103)">
      <g id="Group_1099618" data-name="Group 1099618" transform="translate(0 0)">
        <rect id="Rectangle_401104" data-name="Rectangle 401104" width="75.681" height="76.593" transform="translate(0)" fill="none"/>
      </g>
      <g id="Group_1122613" data-name="Group 1122613" transform="translate(1.655 2.11)">
        <g id="Page-1" transform="translate(0 0)">
          <g id="_x30_01---Password-Stealing" transform="translate(0 0)">
            <path id="Shape" d="M68.754,7.237H50.661V4.222a4.222,4.222,0,0,0-8.444,0V7.237H3.619A3.618,3.618,0,0,0,0,10.856V59.1a3.619,3.619,0,0,0,3.619,3.619H27.5a3.726,3.726,0,0,1-3.476,2.412H21.712a4.825,4.825,0,0,0-4.825,4.825A2.412,2.412,0,0,0,19.3,72.372H53.073a2.412,2.412,0,0,0,2.412-2.412,4.825,4.825,0,0,0-4.825-4.825H48.349a3.725,3.725,0,0,1-3.479-2.412H68.753A3.619,3.619,0,0,0,72.372,59.1V10.856a3.618,3.618,0,0,0-3.618-3.619ZM2.412,19.3H39.8v7.237H15.681a9.65,9.65,0,0,0,0,19.3H25.4a10.913,10.913,0,0,0,3.377,6.731c.192.179.393.343.6.507H2.412ZM36.766,53.051A8.346,8.346,0,0,1,30.431,50.8a8.481,8.481,0,0,1-2.689-6.173V34.98a.913.913,0,0,1,.021-.194.637.637,0,0,1,.469-.509.923.923,0,0,1,.925.205L33.279,38.6H31.361A1.206,1.206,0,0,0,30.155,39.8v4.62a2.372,2.372,0,0,0,.016.31,6.02,6.02,0,0,0,11.919,1.1h2.393a8.6,8.6,0,0,1-7.716,7.216Zm-3.935-7.215h6.746a3.564,3.564,0,0,1-6.746,0Zm8.179-2.412H32.568V41.011h.712a2.412,2.412,0,0,0,1.7-4.122l-4.113-4.113a3.306,3.306,0,0,0-3.377-.794,3,3,0,0,0-2.1,2.374,3.243,3.243,0,0,0-.059.624v8.443h-9.65a7.237,7.237,0,1,1,0-14.474H56.692a7.237,7.237,0,0,1,0,14.474Zm2.2-28.93a1.185,1.185,0,0,1,.985.267,1.206,1.206,0,0,1,.431.92V26.537H42.217V15.826a1.3,1.3,0,0,1,1-1.332Zm3.714,31.342h9.764a9.65,9.65,0,0,0,0-19.3h-9.65V19.3H69.96V53.073H42.874A11.349,11.349,0,0,0,46.927,45.836ZM69.96,10.856v6.031H47.042V15.681a3.542,3.542,0,0,0-2.412-3.389V9.65H68.754a1.206,1.206,0,0,1,1.206,1.206ZM44.63,4.222a1.809,1.809,0,1,1,3.619,0V7.237H44.63ZM3.619,9.65h38.6v2.622A3.775,3.775,0,0,0,39.8,15.825v1.061H2.412V10.856A1.206,1.206,0,0,1,3.619,9.65Zm44.731,57.9h2.311a2.412,2.412,0,0,1,2.412,2.412H19.3a2.412,2.412,0,0,1,2.412-2.412h2.311a6.152,6.152,0,0,0,5.995-4.825H42.35A6.158,6.158,0,0,0,48.35,67.547ZM69.96,59.1a1.206,1.206,0,0,1-1.206,1.206H3.619A1.206,1.206,0,0,1,2.412,59.1V55.485H69.96Z" transform="translate(0 0)" fill="#182e68"/>
            <g id="Group_1122612" data-name="Group 1122612" transform="translate(4.825 12.062)">
              <path id="Path" d="M114.14,266.591a1.206,1.206,0,0,0-1.648-.441l-1.327.765v-1.529a1.206,1.206,0,0,0-2.412,0v1.529l-1.327-.765a1.206,1.206,0,0,0-1.206,2.089l1.329.765-1.327.765a1.206,1.206,0,1,0,1.206,2.089l1.327-.765v1.53a1.206,1.206,0,0,0,2.412,0v-1.53l1.327.765a1.206,1.206,0,1,0,1.206-2.089L112.374,269l1.327-.765A1.206,1.206,0,0,0,114.14,266.591Z" transform="translate(-97.899 -244.88)" fill="#182e68" fill-rule="evenodd"/>
              <path id="Path_1_" d="M436.311,271.093l1.327.765a1.206,1.206,0,0,0,1.206-2.089L437.517,269l1.327-.765a1.206,1.206,0,0,0-1.206-2.089l-1.327.765v-1.529a1.206,1.206,0,1,0-2.412,0v1.529l-1.327-.765a1.206,1.206,0,1,0-1.206,2.089l1.327.765-1.327.765a1.206,1.206,0,1,0,1.206,2.089l1.327-.765v1.529a1.206,1.206,0,1,0,2.412,0Z" transform="translate(-384.444 -244.88)" fill="#182e68" fill-rule="evenodd"/>
              <path id="Path_2_" d="M337.676,266.591a1.206,1.206,0,0,0-1.648-.441l-1.327.765v-1.529a1.206,1.206,0,1,0-2.412,0v1.529l-1.327-.765a1.206,1.206,0,0,0-1.206,2.089l1.329.765-1.327.765a1.206,1.206,0,1,0,1.206,2.089l1.327-.765v1.53a1.206,1.206,0,0,0,2.413,0v-1.53l1.327.765a1.206,1.206,0,1,0,1.206-2.089L335.91,269l1.327-.765A1.206,1.206,0,0,0,337.676,266.591Z" transform="translate(-294.899 -244.88)" fill="#182e68" fill-rule="evenodd"/>
              <circle id="Oval" cx="1.206" cy="1.206" r="1.206" fill="#182e68"/>
              <circle id="Oval_1_" cx="1.206" cy="1.206" r="1.206" transform="translate(4.825)" fill="#182e68"/>
              <circle id="Oval_2_" cx="1.206" cy="1.206" r="1.206" transform="translate(9.65)" fill="#182e68"/>
            </g>
          </g>
        </g>
      </g>
    </g>
  </g>
</svg>
