<svg xmlns="http://www.w3.org/2000/svg" xmlns:xlink="http://www.w3.org/1999/xlink" width="109" height="109" viewBox="0 0 109 109">
  <defs>
    <linearGradient id="linear-gradient" x1="0.5" x2="0.5" y2="1" gradientUnits="objectBoundingBox">
      <stop offset="0" stop-color="#ddf1ff"/>
      <stop offset="1" stop-color="#fff"/>
    </linearGradient>
  </defs>
  <g id="Group_1122479" data-name="Group 1122479" transform="translate(-950.878 -9141.342)">
    <g id="Group_1099855" data-name="Group 1099855" transform="translate(955.878 9146.342)">
      <g id="Group_1099808" data-name="Group 1099808" transform="translate(0 0)">
        <g id="Group_1099775" data-name="Group 1099775" transform="translate(0 0)">
          <g id="Group_1099770" data-name="Group 1099770">
            <g id="Rectangle_401345" data-name="Rectangle 401345" stroke="#614c8d" stroke-width="5" fill="url(#linear-gradient)">
              <rect width="99" height="99" rx="10" stroke="none"/>
              <rect x="-2.5" y="-2.5" width="104" height="104" rx="12.5" fill="none"/>
            </g>
          </g>
        </g>
        <g id="Group_1099776" data-name="Group 1099776" transform="translate(11.22 11.103)">
          <g id="Group_1099618" data-name="Group 1099618" transform="translate(0 0)">
            <rect id="Rectangle_401104" data-name="Rectangle 401104" width="75.681" height="76.593" transform="translate(0)" fill="none"/>
          </g>
          <g id="Group_1122618" data-name="Group 1122618" transform="translate(0 0.456)">
            <path id="Path_957663" data-name="Path 957663" d="M18.523,53.443a3.79,3.79,0,0,1,2.523-3.567V69.84h2.523V38.307a3.788,3.788,0,0,1,3.784-3.784H61.408V32H27.352a6.314,6.314,0,0,0-6.307,6.307v8.956A6.317,6.317,0,0,0,16,53.443V68.579h2.523Z" transform="translate(-13.477 -26.955)" fill="#182e68"/>
            <path id="Path_957664" data-name="Path 957664" d="M74.419,274.488H73.158V248H70.635v26.488H48.453a5.531,5.531,0,0,0-3.937,1.631,3.025,3.025,0,0,1-2.153.892H33.317a3.025,3.025,0,0,1-2.153-.892,5.531,5.531,0,0,0-3.937-1.631H5.045v-5.045H2.523v5.045H1.261A1.261,1.261,0,0,0,0,275.75v3.784a5.051,5.051,0,0,0,5.045,5.045h65.59a5.051,5.051,0,0,0,5.045-5.045V275.75A1.261,1.261,0,0,0,74.419,274.488Zm-1.261,5.045a2.526,2.526,0,0,1-2.523,2.523H5.045a2.526,2.526,0,0,1-2.523-2.523v-2.523h24.7a3.025,3.025,0,0,1,2.153.892,5.531,5.531,0,0,0,3.932,1.631h9.056A5.531,5.531,0,0,0,46.3,277.9a3.026,3.026,0,0,1,2.153-.892h24.7Z" transform="translate(0 -208.898)" fill="#182e68"/>
            <path id="Path_957665" data-name="Path 957665" d="M416,248h2.523v23.966H416Z" transform="translate(-350.41 -208.898)" fill="#182e68"/>
            <path id="Path_957666" data-name="Path 957666" d="M48,384h2.523v2.523H48Z" transform="translate(-40.432 -323.455)" fill="#182e68"/>
            <path id="Path_957667" data-name="Path 957667" d="M88,64h2.523v2.523H88Z" transform="translate(-74.121 -53.909)" fill="#182e68"/>
            <path id="Path_957668" data-name="Path 957668" d="M119.995,64h2.523v2.523h-2.523Z" transform="translate(-101.076 -53.909)" fill="#182e68"/>
            <path id="Path_957669" data-name="Path 957669" d="M151.995,64h2.523v2.523h-2.523Z" transform="translate(-128.03 -53.909)" fill="#182e68"/>
            <path id="Path_957670" data-name="Path 957670" d="M88,96h31.534v2.523H88Z" transform="translate(-74.125 -80.864)" fill="#182e68"/>
            <path id="Path_957671" data-name="Path 957671" d="M192.723,132.6a12.632,12.632,0,0,1,12.514,1.147l1.452-2.063a15.117,15.117,0,0,0-17.41,0l1.452,2.063A12.628,12.628,0,0,1,192.723,132.6Z" transform="translate(-159.436 -108.597)" fill="#182e68"/>
            <path id="Path_957672" data-name="Path 957672" d="M283.024,344.93a31.4,31.4,0,0,0,6.508-10.025l-2.338-.947a28.886,28.886,0,0,1-5.988,9.223Z" transform="translate(-236.869 -281.303)" fill="#182e68"/>
            <path id="Path_957673" data-name="Path 957673" d="M200.7,15.136h-1.261V11.352a11.352,11.352,0,0,0-22.7,0A1.261,1.261,0,0,0,178,12.613h5.045a1.261,1.261,0,0,0,1.261-1.261,3.784,3.784,0,1,1,7.568,0v3.784h-16.4a1.261,1.261,0,0,0-1.261,1.261v11.47a22.227,22.227,0,0,0-10.293-2.489h-.177a20.909,20.909,0,0,0-11.8,3.636l1.418,2.086a18.4,18.4,0,0,1,10.378-3.2h.177a19.614,19.614,0,0,1,10.293,2.862V33.8a17.091,17.091,0,0,0-10.291-3.381h-.177a16.159,16.159,0,0,0-13.22,6.961l-.606.87,2.071,1.441.6-.869a13.635,13.635,0,0,1,11.15-5.881h.177a14.12,14.12,0,0,1,11.6,5.772,13.432,13.432,0,0,1,1.975,4.162,13.147,13.147,0,0,1,0,7.205l2.428.685a15.659,15.659,0,0,0,0-8.576,15.937,15.937,0,0,0-2.342-4.932c-.165-.234-.338-.461-.515-.684H200.7a1.261,1.261,0,0,0,1.261-1.261V16.4a1.261,1.261,0,0,0-1.261-1.261ZM188.09,5.045a6.318,6.318,0,0,0-6.181,5.045H179.35a8.829,8.829,0,0,1,17.569,1.261v3.784H194.4V11.352A6.314,6.314,0,0,0,188.09,5.045Zm11.352,29.011h-22.7v-16.4h22.7Z" transform="translate(-126.284)" fill="#182e68"/>
            <path id="Path_957674" data-name="Path 957674" d="M361.912,132.919a3.705,3.705,0,0,0,.179-1.135,3.784,3.784,0,1,0-7.568,0,3.7,3.7,0,0,0,.179,1.135,6.275,6.275,0,0,0-2.7,5.172,1.261,1.261,0,0,0,1.261,1.261h10.091a1.261,1.261,0,0,0,1.261-1.261A6.275,6.275,0,0,0,361.912,132.919Zm-7.174,3.91a3.775,3.775,0,0,1,2.142-2.239,1.261,1.261,0,0,0,.479-1.991,1.245,1.245,0,0,1-.313-.815,1.261,1.261,0,0,1,2.523,0,1.246,1.246,0,0,1-.313.815,1.261,1.261,0,0,0,.479,1.991,3.775,3.775,0,0,1,2.142,2.239Z" transform="translate(-296.501 -107.818)" fill="#182e68"/>
            <path id="Path_957675" data-name="Path 957675" d="M1.261,247.514H26.823l-.155.155,1.784,1.784,1.939-1.939h3.559l-3.536,3.535,1.784,1.784,6.342-6.342a21.527,21.527,0,0,0,5.321-8.725,5.864,5.864,0,0,0-.879-5.284,5.986,5.986,0,0,0-4.877-2.475h-.643a6.108,6.108,0,0,0-5.709,4.172c-.085.25-.179.489-.282.722H28.585a6.32,6.32,0,0,0,.786-1.544,8.615,8.615,0,0,1,8.091-5.873h.643a8.591,8.591,0,0,1,6.9,3.494,8.363,8.363,0,0,1,1.253,7.542,24.09,24.09,0,0,1-5.932,9.754l-4.654,4.654,1.784,1.784,4.654-4.654a26.618,26.618,0,0,0,6.554-10.777,10.861,10.861,0,0,0-1.623-9.794,11.124,11.124,0,0,0-8.938-4.526h-.643a11.138,11.138,0,0,0-10.476,7.573,3.955,3.955,0,0,1-.923,1.474l-.892.892H1.261A1.261,1.261,0,0,0,0,236.162v10.091a1.261,1.261,0,0,0,1.261,1.261Zm36.2-14.985h.643a3.489,3.489,0,0,1,2.842,1.443A3.366,3.366,0,0,1,41.456,237a18.7,18.7,0,0,1-3.616,6.532v-4.468a16.234,16.234,0,0,0,1.362-3.373.315.315,0,0,0-.224-.386l-.029-.006-2.371-.4h-2.4A3.525,3.525,0,0,1,37.462,232.529ZM2.523,237.423H35.318v7.568H2.523Z" transform="translate(0 -189.492)" fill="#182e68"/>
            <path id="Path_957676" data-name="Path 957676" d="M32,320h2.523v2.523H32Z" transform="translate(-26.955 -269.546)" fill="#182e68"/>
            <path id="Path_957677" data-name="Path 957677" d="M64,320h2.523v2.523H64Z" transform="translate(-53.909 -269.546)" fill="#182e68"/>
            <path id="Path_957678" data-name="Path 957678" d="M96,320h2.523v2.523H96Z" transform="translate(-80.864 -269.546)" fill="#182e68"/>
            <path id="Path_957679" data-name="Path 957679" d="M128,320h2.523v2.523H128Z" transform="translate(-107.819 -269.546)" fill="#182e68"/>
          </g>
        </g>
      </g>
    </g>
  </g>
</svg>
