<svg xmlns="http://www.w3.org/2000/svg" xmlns:xlink="http://www.w3.org/1999/xlink" width="109" height="109" viewBox="0 0 109 109">
  <defs>
    <linearGradient id="linear-gradient" x1="0.5" x2="0.5" y2="1" gradientUnits="objectBoundingBox">
      <stop offset="0" stop-color="#ddf1ff"/>
      <stop offset="1" stop-color="#fff"/>
    </linearGradient>
  </defs>
  <g id="Group_1122473" data-name="Group 1122473" transform="translate(-950.878 -9141.342)">
    <g id="Group_1099855" data-name="Group 1099855" transform="translate(955.878 9146.342)">
      <g id="Group_1099808" data-name="Group 1099808" transform="translate(0 0)">
        <g id="Group_1099775" data-name="Group 1099775" transform="translate(0 0)">
          <g id="Group_1099770" data-name="Group 1099770">
            <g id="Rectangle_401345" data-name="Rectangle 401345" stroke="#614c8d" stroke-width="5" fill="url(#linear-gradient)">
              <rect width="99" height="99" rx="10" stroke="none"/>
              <rect x="-2.5" y="-2.5" width="104" height="104" rx="12.5" fill="none"/>
            </g>
          </g>
        </g>
        <g id="Group_1099776" data-name="Group 1099776" transform="translate(11.22 11.103)">
          <g id="Group_1099618" data-name="Group 1099618" transform="translate(0 0)">
            <rect id="Rectangle_401104" data-name="Rectangle 401104" width="75.681" height="76.593" transform="translate(0)" fill="none"/>
          </g>
          <g id="Group_1122617" data-name="Group 1122617" transform="translate(-0.251 0.416)">
            <g id="Page-1_28_" transform="translate(0.251 0.001)">
              <g id="_x30_29---Digital-Signature">
                <path id="Path_110_" d="M444.824,89.065a1.261,1.261,0,0,0,1.594-.8l1.681-5.045a1.263,1.263,0,0,0-2.4-.8l-1.681,5.045a1.262,1.262,0,0,0,.8,1.6Z" transform="translate(-378.371 -69.652)" fill="#182e68" fill-rule="evenodd"/>
                <path id="Shape_115_" d="M72.391,22.411l3.29-10a3.678,3.678,0,0,0-1.218-4.026l.814-2.471A3.681,3.681,0,1,0,68.289,3.6l-.815,2.475A3.644,3.644,0,0,0,64.1,8.6L59.937,21.257H7.819A7.576,7.576,0,0,0,.251,28.826V69.189a7.576,7.576,0,0,0,7.568,7.568H68.364a7.576,7.576,0,0,0,7.568-7.568V28.825a7.583,7.583,0,0,0-3.542-6.414ZM52.248,50.7a3.658,3.658,0,0,0,2.074,3.084l-.788,2.4a1.261,1.261,0,0,0,2.4.788l.787-2.4a3.587,3.587,0,0,0,3.5-1.242l2.833-3.377a3.681,3.681,0,0,0,.679-1.216L67.1,38.48V69.189H9.08V28.825H57.447l-5.3,16.089a3.588,3.588,0,0,0-.179,1.388ZM70.684,4.394a1.157,1.157,0,0,1,2.2.725l-.733,2.248-1.336-.442-.863-.286ZM66.5,9.379a1.154,1.154,0,0,1,1.458-.735l1.924.631,2.663.883h.014a1.159,1.159,0,0,1,.725,1.463L67.205,30.1v.016L61.331,47.949a1.127,1.127,0,0,1-.213.378l-2.833,3.378a1.146,1.146,0,0,1-1.246.353l-.739-.243h-.006l-.735-.242a1.15,1.15,0,0,1-.792-1.029l-.276-4.4a1.105,1.105,0,0,1,.057-.433l5.8-17.65v-.009Zm6.91,59.81a5.045,5.045,0,0,1-5.045,5.045H7.819a5.045,5.045,0,0,1-5.045-5.045V28.825A5.045,5.045,0,0,1,7.819,23.78H59.107L58.274,26.3H9.08a2.523,2.523,0,0,0-2.523,2.523V69.189A2.523,2.523,0,0,0,9.08,71.712H67.1a2.523,2.523,0,0,0,2.523-2.523V30.812l1.937-5.889a5.054,5.054,0,0,1,1.847,3.9Z" transform="translate(-0.251 -1.001)" fill="#182e68"/>
                <path id="Shape_114_" d="M120.9,259.357h-2.523a6.366,6.366,0,0,1-5.676-2.707,2.552,2.552,0,0,0-2.08-1.143,2.635,2.635,0,0,0-2.066,1.046l-4.128,5.737a14.23,14.23,0,0,0-8.754-4.127v-7.635H98.2a5.045,5.045,0,1,0-5.045-5.045v2.467a5.678,5.678,0,0,1-2.92-.864,1.261,1.261,0,0,0-1.756,1.811c.242.242,1.514,1.345,4.676,1.584V258.1H90.629a5.045,5.045,0,1,0,5.045,5.045V260.7a11.718,11.718,0,0,1,6.916,3.315,2.529,2.529,0,0,0,2.042.815,2.473,2.473,0,0,0,1.857-1.037l4.12-5.743a8.78,8.78,0,0,0,7.77,3.831H120.9a1.262,1.262,0,0,0,0-2.523ZM95.675,245.482a2.523,2.523,0,1,1,2.523,2.523H95.675Zm-2.523,17.659a2.523,2.523,0,1,1-2.523-2.523h2.523Z" transform="translate(-72.97 -205.045)" fill="#182e68"/>
              </g>
            </g>
          </g>
        </g>
      </g>
    </g>
  </g>
</svg>
