<svg xmlns="http://www.w3.org/2000/svg" xmlns:xlink="http://www.w3.org/1999/xlink" width="109" height="109" viewBox="0 0 109 109">
  <defs>
    <linearGradient id="linear-gradient" x1="0.5" x2="0.5" y2="1" gradientUnits="objectBoundingBox">
      <stop offset="0" stop-color="#ddf1ff"/>
      <stop offset="1" stop-color="#fff"/>
    </linearGradient>
  </defs>
  <g id="Group_1122712" data-name="Group 1122712" transform="translate(5 5)">
    <g id="Group_1099775" data-name="Group 1099775">
      <g id="Group_1099770" data-name="Group 1099770">
        <g id="Rectangle_401345" data-name="Rectangle 401345" stroke="#614c8d" stroke-width="5" fill="url(#linear-gradient)">
          <rect width="99" height="99" rx="10" stroke="none"/>
          <rect x="-2.5" y="-2.5" width="104" height="104" rx="12.5" fill="none"/>
        </g>
      </g>
    </g>
    <g id="Group_1099776" data-name="Group 1099776" transform="translate(11.22 11.103)">
      <g id="Group_1099618" data-name="Group 1099618" transform="translate(0 0)">
        <rect id="Rectangle_401104" data-name="Rectangle 401104" width="75.681" height="76.593" transform="translate(0)" fill="none"/>
      </g>
      <g id="Group_1122614" data-name="Group 1122614" transform="translate(-0.098 -23.67)">
        <path id="Path_957650" data-name="Path 957650" d="M75.815,61.56a17.23,17.23,0,0,0-4.248-9.743,16.338,16.338,0,0,0-8.034-5.063,15.714,15.714,0,0,0-2.079-11.46A14.939,14.939,0,0,0,51.6,28.461a19.912,19.912,0,0,0-11.918,1.817,18.709,18.709,0,0,0-8.98,9.588,11.614,11.614,0,0,0-1.419-.087,11.472,11.472,0,0,0-9.746,5.374q-.316-.018-.627-.018a11.527,11.527,0,0,0-11.271,13.9A9.5,9.5,0,0,0,9.5,77.858h6.215a22.314,22.314,0,0,0,43.733,0h2.442a13.225,13.225,0,0,0,10.02-4.329A15.883,15.883,0,0,0,75.815,61.56Zm-38.23,31.2A19.348,19.348,0,1,1,56.931,73.41,19.372,19.372,0,0,1,37.585,92.76ZM69.725,71.527a10.332,10.332,0,0,1-7.834,3.367H59.844c.032-.491.051-.985.051-1.484a22.312,22.312,0,0,0-44.624,0c0,.5.018.993.051,1.484H9.5a6.54,6.54,0,0,1,0-13.079h.067a1.482,1.482,0,0,0,1.378-2.026,8.558,8.558,0,0,1,7.96-11.69,8.715,8.715,0,0,1,1.227.09,1.483,1.483,0,0,0,1.528-.791,8.527,8.527,0,0,1,7.617-4.656,8.649,8.649,0,0,1,2.008.237,1.482,1.482,0,0,0,1.738-.939C36.45,32.545,45.709,30.465,51.1,31.383a11.936,11.936,0,0,1,7.848,5.49,12.962,12.962,0,0,1,1.369,10.609,1.482,1.482,0,0,0,1.2,1.872A13.987,13.987,0,0,1,72.862,61.82,12.873,12.873,0,0,1,69.725,71.527Z" transform="translate(0 0)" fill="#182e68"/>
        <path id="Path_957651" data-name="Path 957651" d="M203.052,323.231a1.485,1.485,0,0,0-1.1.281l-3.546,2.659a1.482,1.482,0,0,0,1.778,2.371l.516-.387a9.436,9.436,0,0,1-16.774,1.563,1.482,1.482,0,0,0-2.509,1.579,12.4,12.4,0,0,0,22.341-2.9l.55.735a1.482,1.482,0,1,0,2.373-1.777l-2.655-3.546A1.483,1.483,0,0,0,203.052,323.231Z" transform="translate(-154.339 -251.288)" fill="#182e68"/>
        <path id="Path_957652" data-name="Path 957652" d="M160.565,260.475a1.482,1.482,0,0,0-1.776-2.373l-.518.388a9.437,9.437,0,0,1,16.775-1.563,1.482,1.482,0,1,0,2.509-1.579,12.4,12.4,0,0,0-22.341,2.9l-.551-.735a1.482,1.482,0,1,0-2.372,1.777l2.655,3.546a1.482,1.482,0,0,0,2.074.3Z" transform="translate(-129.469 -188.533)" fill="#182e68"/>
      </g>
    </g>
  </g>
</svg>
