<svg xmlns="http://www.w3.org/2000/svg" xmlns:xlink="http://www.w3.org/1999/xlink" width="109" height="109" viewBox="0 0 109 109">
  <defs>
    <linearGradient id="linear-gradient" x1="0.5" x2="0.5" y2="1" gradientUnits="objectBoundingBox">
      <stop offset="0" stop-color="#ddf1ff"/>
      <stop offset="1" stop-color="#fff"/>
    </linearGradient>
  </defs>
  <g id="Group_1122478" data-name="Group 1122478" transform="translate(-950.878 -9141.342)">
    <g id="Group_1099855" data-name="Group 1099855" transform="translate(955.878 9146.342)">
      <g id="Group_1099808" data-name="Group 1099808" transform="translate(0 0)">
        <g id="Group_1099775" data-name="Group 1099775" transform="translate(0 0)">
          <g id="Group_1099770" data-name="Group 1099770">
            <g id="Rectangle_401345" data-name="Rectangle 401345" stroke="#614c8d" stroke-width="5" fill="url(#linear-gradient)">
              <rect width="99" height="99" rx="10" stroke="none"/>
              <rect x="-2.5" y="-2.5" width="104" height="104" rx="12.5" fill="none"/>
            </g>
          </g>
        </g>
        <g id="Group_1099776" data-name="Group 1099776" transform="translate(11.22 11.103)">
          <g id="Group_1099618" data-name="Group 1099618" transform="translate(0 0)">
            <rect id="Rectangle_401104" data-name="Rectangle 401104" width="75.681" height="76.593" transform="translate(0)" fill="none"/>
          </g>
          <g id="XMLID_2147_" transform="translate(0 -16.589)">
            <g id="XMLID_529_" transform="translate(0 20)">
              <path id="XMLID_1481_" d="M68.29,20h-23.8a1.478,1.478,0,1,0,0,2.956h23.8a4.439,4.439,0,0,1,4.434,4.434V61.275H43.751a17.833,17.833,0,1,0-29.716-3.067l-3.18,3.18h-7.9v-34a4.439,4.439,0,0,1,4.434-4.434h23.8a1.478,1.478,0,1,0,0-2.956H7.391A7.4,7.4,0,0,0,0,27.391V67.6a7.421,7.421,0,0,0,1.016,3.736,5.451,5.451,0,0,0,8.29,7.023l3.368-3.368h14.3l-1.378,5.321H23.946a4.73,4.73,0,1,0,0,9.46H51.735a4.73,4.73,0,1,0,0-9.46H50.089l-1.378-5.321H68.29A7.4,7.4,0,0,0,75.681,67.6V27.391A7.4,7.4,0,0,0,68.29,20ZM29.9,35.176a14.88,14.88,0,1,1-14.88,14.88A14.9,14.9,0,0,1,29.9,35.176ZM7.9,64.344l-4.7,4.7A4.427,4.427,0,0,1,2.956,67.6V64.344Zm-.683,11.92a2.495,2.495,0,1,1-3.528-3.528L15.649,60.775A17.984,17.984,0,0,0,19.177,64.3Zm46.294,8.774a1.776,1.776,0,0,1-1.774,1.774H23.946a1.774,1.774,0,1,1,0-3.548H51.735A1.776,1.776,0,0,1,53.509,85.039Zm-6.473-4.73H28.646l1.378-5.321H45.658ZM68.29,72.031H15.63l6.114-6.114a17.8,17.8,0,0,0,18.964-1.686H72.725V67.6a4.439,4.439,0,0,1-4.434,4.434Z" transform="translate(0 -20)" fill="#182e68"/>
              <path id="XMLID_1509_" d="M134.275,186.472a13.074,13.074,0,0,0,11.623-7.052,1.478,1.478,0,0,0,0-1.368,13.105,13.105,0,0,0-23.246,0,1.478,1.478,0,0,0,0,1.368A13.074,13.074,0,0,0,134.275,186.472Zm0-10.15a2.414,2.414,0,1,1-2.414,2.414A2.417,2.417,0,0,1,134.275,176.322Zm8.612,2.414a10.124,10.124,0,0,1-5.305,4.228,5.361,5.361,0,0,0,0-8.456A10.124,10.124,0,0,1,142.887,178.737Zm-11.918-4.228a5.361,5.361,0,0,0,0,8.456,10.123,10.123,0,0,1-5.306-4.228A10.125,10.125,0,0,1,130.969,174.509Z" transform="translate(-104.379 -148.681)" fill="#182e68"/>
              <path id="XMLID_1518_" d="M347.4,134.635a1.478,1.478,0,0,0,1.478,1.478h14.871a1.478,1.478,0,0,0,0-2.956H348.874A1.478,1.478,0,0,0,347.4,134.635Z" transform="translate(-296.046 -116.431)" fill="#182e68"/>
              <path id="XMLID_1519_" d="M400.144,88.113a1.478,1.478,0,0,0,0-2.956h-8.557a1.478,1.478,0,0,0,0,2.956Z" transform="translate(-332.445 -75.526)" fill="#182e68"/>
              <path id="XMLID_1520_" d="M348.037,85.16a1.481,1.481,0,1,0,1.045.433A1.489,1.489,0,0,0,348.037,85.16Z" transform="translate(-295.333 -75.528)" fill="#182e68"/>
              <path id="XMLID_1521_" d="M450.523,183.684a1.477,1.477,0,1,0-1.045.433A1.489,1.489,0,0,0,450.523,183.684Z" transform="translate(-381.779 -157.339)" fill="#182e68"/>
              <path id="XMLID_1522_" d="M399.178,184.116a1.479,1.479,0,1,0-1.045-.433A1.488,1.488,0,0,0,399.178,184.116Z" transform="translate(-338.914 -157.338)" fill="#182e68"/>
              <path id="XMLID_1523_" d="M349.923,183.684a1.479,1.479,0,1,0-1.045.433A1.488,1.488,0,0,0,349.923,183.684Z" transform="translate(-296.049 -157.339)" fill="#182e68"/>
              <path id="XMLID_1524_" d="M348.874,232.113h4.745a1.478,1.478,0,1,0,0-2.956h-4.745a1.478,1.478,0,0,0,0,2.956Z" transform="translate(-296.046 -198.24)" fill="#182e68"/>
              <path id="XMLID_1525_" d="M423.5,230.635a1.478,1.478,0,0,0,1.478,1.478h4.869a1.478,1.478,0,0,0,0-2.956h-4.869A1.478,1.478,0,0,0,423.5,230.635Z" transform="translate(-360.9 -198.24)" fill="#182e68"/>
              <path id="XMLID_1526_" d="M247.478,22.956a1.479,1.479,0,1,0-1.045-.433A1.488,1.488,0,0,0,247.478,22.956Z" transform="translate(-209.638 -20)" fill="#182e68"/>
            </g>
          </g>
        </g>
      </g>
    </g>
  </g>
</svg>
