<svg xmlns="http://www.w3.org/2000/svg" xmlns:xlink="http://www.w3.org/1999/xlink" width="109" height="109" viewBox="0 0 109 109">
  <defs>
    <linearGradient id="linear-gradient" x1="0.5" x2="0.5" y2="1" gradientUnits="objectBoundingBox">
      <stop offset="0" stop-color="#ddf1ff"/>
      <stop offset="1" stop-color="#fff"/>
    </linearGradient>
  </defs>
  <g id="Group_1122487" data-name="Group 1122487" transform="translate(-950.878 -9141.342)">
    <g id="Group_1099855" data-name="Group 1099855" transform="translate(955.878 9146.342)">
      <g id="Group_1099808" data-name="Group 1099808" transform="translate(0 0)">
        <g id="Group_1099775" data-name="Group 1099775" transform="translate(0 0)">
          <g id="Group_1099770" data-name="Group 1099770">
            <g id="Rectangle_401345" data-name="Rectangle 401345" stroke="#614c8d" stroke-width="5" fill="url(#linear-gradient)">
              <rect width="99" height="99" rx="10" stroke="none"/>
              <rect x="-2.5" y="-2.5" width="104" height="104" rx="12.5" fill="none"/>
            </g>
          </g>
        </g>
        <g id="Group_1099776" data-name="Group 1099776" transform="translate(11.22 11.103)">
          <g id="Group_1099618" data-name="Group 1099618" transform="translate(0 0)">
            <rect id="Rectangle_401104" data-name="Rectangle 401104" width="75.681" height="76.593" transform="translate(0)" fill="none"/>
          </g>
          <g id="Group_1122619" data-name="Group 1122619" transform="translate(0 -7.815)">
            <path id="Path_957686" data-name="Path 957686" d="M96.731,120.086a1.109,1.109,0,0,0-2.2.232,23.995,23.995,0,1,0,0-5.062,1.109,1.109,0,0,0,2.2.232,21.756,21.756,0,0,1,2.477-8.058h38.334a22.017,22.017,0,0,1,0,20.714H99.209A21.754,21.754,0,0,1,96.731,120.086Zm20.55-23.946v9.072h-7.3c1.739-5.071,4.418-8.388,7.3-9.072Zm2.217,0c2.885.684,5.563,4,7.3,9.072h-7.3Zm-7.426.793a22.122,22.122,0,0,0-4.429,8.279h-7.063A21.728,21.728,0,0,1,112.072,96.933Zm17.062,8.279a22.146,22.146,0,0,0-4.416-8.266,21.865,21.865,0,0,1,11.442,8.266ZM119.5,139.433v-9.072h7.3C125.061,135.432,122.383,138.749,119.5,139.433Zm-2.217,0c-2.885-.684-5.563-4-7.3-9.072h7.3Zm7.438-.807a22.146,22.146,0,0,0,4.416-8.266h7.026A21.864,21.864,0,0,1,124.719,138.626Zm-17.075-8.265a22.12,22.12,0,0,0,4.429,8.279,21.728,21.728,0,0,1-11.492-8.279Z" transform="translate(-80.549 -71.658)" fill="#182e68"/>
            <path id="Path_957687" data-name="Path 957687" d="M74.617,43.261l-4.22-6a3.586,3.586,0,0,1-.657-2.134l.111-7.334a5.812,5.812,0,0,0-3.944-5.6l-6.94-2.373a3.585,3.585,0,0,1-1.786-1.34l-4.22-6a5.816,5.816,0,0,0-6.485-2.217l-6.127,1.889A1.109,1.109,0,0,0,41,14.273l6.126-1.889a3.6,3.6,0,0,1,4.019,1.374l4.22,6a5.79,5.79,0,0,0,2.882,2.163l6.94,2.373a3.6,3.6,0,0,1,2.444,3.472L67.524,35.1a5.788,5.788,0,0,0,1.061,3.444l4.22,6a3.6,3.6,0,0,1-.064,4.246l-4.4,5.867a5.781,5.781,0,0,0-1.165,3.408l-.112,7.334a3.6,3.6,0,0,1-2.547,3.4l-7.009,2.161a5.786,5.786,0,0,0-2.946,2.073l-4.4,5.866A3.605,3.605,0,0,1,46.1,80.14l-6.939-2.372a5.8,5.8,0,0,0-3.6-.055l-7.009,2.161A3.6,3.6,0,0,1,24.533,78.5l-4.22-6a5.79,5.79,0,0,0-2.882-2.163l-6.94-2.373A3.6,3.6,0,0,1,8.048,64.5l.111-7.333A5.788,5.788,0,0,0,7.1,53.719l-4.22-6a3.6,3.6,0,0,1,.064-4.246l4.4-5.867A5.781,5.781,0,0,0,8.507,34.2l.112-7.334a3.6,3.6,0,0,1,2.547-3.4l7.009-2.161a5.786,5.786,0,0,0,2.946-2.073l4.4-5.866a3.605,3.605,0,0,1,4.06-1.251l5.908,2.019a1.109,1.109,0,1,0,.717-2.1L30.3,10.021a5.818,5.818,0,0,0-6.55,2.019l-4.4,5.867a3.583,3.583,0,0,1-1.824,1.284l-7.009,2.161A5.812,5.812,0,0,0,6.4,26.832L6.29,34.167a3.579,3.579,0,0,1-.721,2.111l-4.4,5.868A5.816,5.816,0,0,0,1.065,49l4.22,6a3.586,3.586,0,0,1,.657,2.134l-.111,7.334a5.812,5.812,0,0,0,3.944,5.6l6.94,2.373a3.585,3.585,0,0,1,1.786,1.34l4.22,6A5.815,5.815,0,0,0,29.2,81.992l7.008-2.161a3.594,3.594,0,0,1,2.232.034l6.939,2.372a6.1,6.1,0,0,0,6.55-2.019l4.4-5.867a3.583,3.583,0,0,1,1.824-1.284l7.009-2.161a5.812,5.812,0,0,0,4.111-5.481l.112-7.335a3.579,3.579,0,0,1,.721-2.111l4.4-5.868a5.817,5.817,0,0,0,.1-6.852Z" fill="#182e68"/>
            <path id="Path_957688" data-name="Path 957688" d="M118.5,89.8a1.108,1.108,0,0,0,1.008-1.2,28.622,28.622,0,1,0-28.512,31.132,28.918,28.918,0,0,0,28.512-26.109,1.109,1.109,0,1,0-2.209-.193,26.4,26.4,0,1,1,0-4.638A1.108,1.108,0,0,0,118.5,89.8Z" transform="translate(-53.153 -44.986)" fill="#182e68"/>
            <path id="Path_957689" data-name="Path 957689" d="M154.286,222.383V210.9a1.108,1.108,0,0,0-2.217,0v11.478a1.108,1.108,0,1,0,2.217,0Z" transform="translate(-129.591 -170.515)" fill="#182e68"/>
            <path id="Path_957690" data-name="Path 957690" d="M190.808,221.269a4.327,4.327,0,0,1-3.178-1.337,1.109,1.109,0,0,0-1.643,1.489,6.576,6.576,0,0,0,4.821,2.066,4.465,4.465,0,0,0,4.509-3.4c.263-1.47-.421-3.4-3.128-4.4-1.463-.54-2.821-1.129-3.18-1.286a1.115,1.115,0,0,1-.437-1.076,1.507,1.507,0,0,1,1.142-1.186,4.154,4.154,0,0,1,3.459.79,1.109,1.109,0,0,0,1.422-1.7,6.34,6.34,0,0,0-5.521-1.213,3.715,3.715,0,0,0-2.7,2.994,3.325,3.325,0,0,0,1.483,3.292,1.1,1.1,0,0,0,.154.084c.066.029,1.637.729,3.407,1.382,1.227.452,1.851,1.154,1.713,1.926a2.263,2.263,0,0,1-2.326,1.574Z" transform="translate(-158.25 -170.51)" fill="#182e68"/>
            <path id="Path_957691" data-name="Path 957691" d="M280.979,216.643a6.847,6.847,0,1,0-6.847,6.848A6.855,6.855,0,0,0,280.979,216.643Zm-11.478,0a4.63,4.63,0,1,1,4.63,4.63A4.636,4.636,0,0,1,269.5,216.643Z" transform="translate(-227.775 -170.514)" fill="#182e68"/>
          </g>
        </g>
      </g>
    </g>
  </g>
</svg>
