<svg xmlns="http://www.w3.org/2000/svg" xmlns:xlink="http://www.w3.org/1999/xlink" width="109" height="109" viewBox="0 0 109 109">
  <defs>
    <linearGradient id="linear-gradient" x1="0.5" x2="0.5" y2="1" gradientUnits="objectBoundingBox">
      <stop offset="0" stop-color="#ddf1ff"/>
      <stop offset="1" stop-color="#fff"/>
    </linearGradient>
  </defs>
  <g id="Group_1122483" data-name="Group 1122483" transform="translate(-950.878 -9141.342)">
    <g id="Group_1099855" data-name="Group 1099855" transform="translate(955.878 9146.342)">
      <g id="Group_1099808" data-name="Group 1099808" transform="translate(0 0)">
        <g id="Group_1099775" data-name="Group 1099775" transform="translate(0 0)">
          <g id="Group_1099770" data-name="Group 1099770">
            <g id="Rectangle_401345" data-name="Rectangle 401345" stroke="#614c8d" stroke-width="5" fill="url(#linear-gradient)">
              <rect width="99" height="99" rx="10" stroke="none"/>
              <rect x="-2.5" y="-2.5" width="104" height="104" rx="12.5" fill="none"/>
            </g>
          </g>
        </g>
        <g id="Group_1099776" data-name="Group 1099776" transform="translate(11.22 11.103)">
          <g id="Group_1099618" data-name="Group 1099618" transform="translate(0 0)">
            <rect id="Rectangle_401104" data-name="Rectangle 401104" width="75.681" height="76.593" transform="translate(0)" fill="none"/>
          </g>
          <g id="folder" transform="translate(-6 -5.087)">
            <path id="Path_957680" data-name="Path 957680" d="M80.106,26.343H75.746V7.453A1.453,1.453,0,0,0,74.293,6H13.265a1.453,1.453,0,0,0-1.453,1.453V36.514H7.453A1.453,1.453,0,0,0,6,37.967V74.293a7.265,7.265,0,0,0,7.265,7.265H74.293a7.265,7.265,0,0,0,7.265-7.265V27.8A1.453,1.453,0,0,0,80.106,26.343ZM14.718,8.906H72.84V69.934H69.934V32.155A1.453,1.453,0,0,0,68.481,30.7c-18.541,0-17.858-.189-18.468.421l-5.376,5.391H14.718ZM13.265,78.652a4.359,4.359,0,0,1-4.359-4.359V39.42H45.232c.814,0,.61,0,6.408-5.812H67.028c0,45.321-.436,42.516,1.453,45.045Zm65.387-4.359a4.359,4.359,0,1,1-8.718,0V72.84h4.359a1.453,1.453,0,0,0,1.453-1.453V29.249h2.906Z" transform="translate(0 0)" fill="#182e68"/>
            <path id="Path_957681" data-name="Path 957681" d="M40.8,42.624V39.718a8.718,8.718,0,1,0-17.437,0v2.906A4.359,4.359,0,0,0,19,46.984V58.608a4.359,4.359,0,0,0,4.359,4.359H40.8a4.359,4.359,0,0,0,4.359-4.359V46.984A4.359,4.359,0,0,0,40.8,42.624Zm-14.53-2.906a5.812,5.812,0,1,1,11.624,0v2.906H26.265Zm15.984,18.89A1.453,1.453,0,0,1,40.8,60.061H23.359a1.453,1.453,0,0,1-1.453-1.453V46.984a1.453,1.453,0,0,1,1.453-1.453H40.8a1.453,1.453,0,0,1,1.453,1.453Z" transform="translate(5.89 11.326)" fill="#182e68"/>
            <path id="Path_957682" data-name="Path 957682" d="M33.142,43.423l-4.781,4.8-1.874-1.889a1.459,1.459,0,1,0-2.063,2.063c4.781,4.766,2.906,4.94,10.782-2.906a1.459,1.459,0,1,0-2.063-2.063Z" transform="translate(8.153 16.761)" fill="#182e68"/>
            <path id="Path_957683" data-name="Path 957683" d="M28.921,20.815a5.812,5.812,0,1,0-8.4,0c-4.345,2.4-5.972,9.082-3.066,9.082h14.53C34.893,29.9,33.28,23.213,28.921,20.815Zm-7.105-4a2.906,2.906,0,1,1,2.906,2.906A2.906,2.906,0,0,1,21.815,16.819ZM19.1,26.991a5.812,5.812,0,0,1,11.247,0Z" transform="translate(4.527 2.258)" fill="#182e68"/>
            <path id="Path_957684" data-name="Path 957684" d="M36.453,15.906H52.437a1.453,1.453,0,1,0,0-2.906H36.453a1.453,1.453,0,0,0,0,2.906Z" transform="translate(13.138 3.171)" fill="#182e68"/>
            <path id="Path_957685" data-name="Path 957685" d="M36.453,20.906H52.437a1.453,1.453,0,1,0,0-2.906H36.453a1.453,1.453,0,0,0,0,2.906Z" transform="translate(13.138 5.437)" fill="#182e68"/>
          </g>
        </g>
      </g>
    </g>
  </g>
</svg>
