<svg xmlns="http://www.w3.org/2000/svg" xmlns:xlink="http://www.w3.org/1999/xlink" width="109" height="109" viewBox="0 0 109 109">
  <defs>
    <linearGradient id="linear-gradient" x1="0.5" x2="0.5" y2="1" gradientUnits="objectBoundingBox">
      <stop offset="0" stop-color="#ddf1ff"/>
      <stop offset="1" stop-color="#fff"/>
    </linearGradient>
  </defs>
  <g id="Group_1122486" data-name="Group 1122486" transform="translate(-950.878 -9141.342)">
    <g id="Group_1099855" data-name="Group 1099855" transform="translate(955.878 9146.342)">
      <g id="Group_1099808" data-name="Group 1099808" transform="translate(0 0)">
        <g id="Group_1099775" data-name="Group 1099775" transform="translate(0 0)">
          <g id="Group_1099770" data-name="Group 1099770">
            <g id="Rectangle_401345" data-name="Rectangle 401345" stroke="#614c8d" stroke-width="5" fill="url(#linear-gradient)">
              <rect width="99" height="99" rx="10" stroke="none"/>
              <rect x="-2.5" y="-2.5" width="104" height="104" rx="12.5" fill="none"/>
            </g>
          </g>
        </g>
        <g id="Group_1099776" data-name="Group 1099776" transform="translate(11.22 11.103)">
          <g id="Group_1099618" data-name="Group 1099618" transform="translate(0 0)">
            <rect id="Rectangle_401104" data-name="Rectangle 401104" width="75.681" height="76.593" transform="translate(0)" fill="none"/>
          </g>
          <path id="Path_957692" data-name="Path 957692" d="M73.565,82.75H69.252V44.227a3.872,3.872,0,0,0-3.865-3.87H50.641a13.019,13.019,0,0,0,.115-1.72,12.927,12.927,0,1,0-25.854,0,13.021,13.021,0,0,0,.117,1.72H10.274a3.871,3.871,0,0,0-3.865,3.87V82.75H2.095a2.108,2.108,0,0,0-2.1,2.1v3.41a5.527,5.527,0,0,0,5.521,5.521H70.155a5.524,5.524,0,0,0,5.516-5.521v-3.41a2.11,2.11,0,0,0-2.106-2.1ZM29.122,48.2A12.834,12.834,0,0,0,37.83,51.57a1.179,1.179,0,0,0,.146-.009A12.825,12.825,0,0,0,46.535,48.2H61.523a.616.616,0,0,1,.606.609V76.09a.615.615,0,0,1-.606.606H14.141a.615.615,0,0,1-.606-.606V48.806a.615.615,0,0,1,.606-.609Zm1.24-17.026A10.562,10.562,0,0,1,45.3,46.11l-.05.049-.027.025a10.482,10.482,0,0,1-7.39,3.011,1.313,1.313,0,0,0-.133.007,10.488,10.488,0,0,1-7.257-3.018l-.025-.024-.05-.049a10.524,10.524,0,0,1-2.752-4.8,1.019,1.019,0,0,0-.035-.136,10.66,10.66,0,0,1-.306-2.538,10.5,10.5,0,0,1,3.092-7.469ZM8.776,44.227a1.5,1.5,0,0,1,1.5-1.5H25.562a12.815,12.815,0,0,0,1.519,3.1H14.141a2.977,2.977,0,0,0-2.972,2.977V76.09a2.975,2.975,0,0,0,2.972,2.972H61.523A2.975,2.975,0,0,0,64.5,76.09V48.806a2.977,2.977,0,0,0-2.972-2.977H48.578a12.815,12.815,0,0,0,1.519-3.1H65.385a1.5,1.5,0,0,1,1.5,1.5V82.75H8.776Zm15.033,40.89H51.855v.853a.862.862,0,0,1-.853.848H24.657a.849.849,0,0,1-.848-.848ZM73.3,88.266a3.155,3.155,0,0,1-3.148,3.153H5.511a3.157,3.157,0,0,1-3.153-3.153V85.117H21.442v.853a3.22,3.22,0,0,0,3.216,3.216H51a3.221,3.221,0,0,0,3.219-3.216v-.853H73.3ZM20.567,73.909H35.11a2.108,2.108,0,0,0,2.1-2.1V67.838a7.767,7.767,0,0,0-3.89-6.746,6.543,6.543,0,1,0-10.973,0,7.767,7.767,0,0,0-3.893,6.746V71.8A2.109,2.109,0,0,0,20.567,73.909Zm7.269-20.555a4.178,4.178,0,1,1-4.176,4.176A4.183,4.183,0,0,1,27.837,53.354Zm-7.01,14.482a5.5,5.5,0,0,1,3.24-4.963,6.518,6.518,0,0,0,7.548,0,5.415,5.415,0,0,1,3.235,4.965v3.705H20.826ZM42.248,54.417a1.184,1.184,0,0,1,1.184-1.184H56.017a1.184,1.184,0,1,1,0,2.368H43.432A1.185,1.185,0,0,1,42.248,54.417Zm0,8.032a1.184,1.184,0,0,1,1.184-1.184H56.017a1.184,1.184,0,1,1,0,2.368H43.432A1.185,1.185,0,0,1,42.248,62.449Zm0,8.032A1.184,1.184,0,0,1,43.432,69.3H56.017a1.184,1.184,0,1,1,0,2.368H43.432A1.185,1.185,0,0,1,42.248,70.48ZM29.978,43.5a1.183,1.183,0,0,0,.871.551,1.048,1.048,0,0,0,.136.007,1.178,1.178,0,0,0,.837-.347L42.9,32.627a1.185,1.185,0,0,0-.214-1.845A9.238,9.238,0,0,0,29.978,43.5Zm3-9.714a6.864,6.864,0,0,1,7.068-1.645l-8.715,8.715a6.874,6.874,0,0,1,1.647-7.07Zm-.559,11.841a1.185,1.185,0,0,0,.553.871,9.227,9.227,0,0,0,4.75,1.379c.035,0,.071,0,.108,0a9.238,9.238,0,0,0,7.854-14.1,1.182,1.182,0,0,0-1.842-.214L32.757,44.651A1.181,1.181,0,0,0,32.419,45.625Zm11.915-9.2a6.876,6.876,0,0,1-6.41,9.086c-.031,0-.062,0-.093,0a6.879,6.879,0,0,1-2.214-.365Z" transform="translate(0.01 -21.451)" fill="#182e68"/>
        </g>
      </g>
    </g>
  </g>
</svg>
