<svg xmlns="http://www.w3.org/2000/svg" xmlns:xlink="http://www.w3.org/1999/xlink" width="109" height="109" viewBox="0 0 109 109">
  <defs>
    <linearGradient id="linear-gradient" x1="0.5" x2="0.5" y2="1" gradientUnits="objectBoundingBox">
      <stop offset="0" stop-color="#ddf1ff"/>
      <stop offset="1" stop-color="#fff"/>
    </linearGradient>
  </defs>
  <g id="Group_1122482" data-name="Group 1122482" transform="translate(-950.878 -9141.342)">
    <g id="Group_1099855" data-name="Group 1099855" transform="translate(955.878 9146.342)">
      <g id="Group_1099808" data-name="Group 1099808" transform="translate(0 0)">
        <g id="Group_1099775" data-name="Group 1099775" transform="translate(0 0)">
          <g id="Group_1099770" data-name="Group 1099770">
            <g id="Rectangle_401345" data-name="Rectangle 401345" stroke="#614c8d" stroke-width="5" fill="url(#linear-gradient)">
              <rect width="99" height="99" rx="10" stroke="none"/>
              <rect x="-2.5" y="-2.5" width="104" height="104" rx="12.5" fill="none"/>
            </g>
          </g>
        </g>
        <g id="Group_1099776" data-name="Group 1099776" transform="translate(11.22 11.103)">
          <g id="Group_1099618" data-name="Group 1099618" transform="translate(0 0)">
            <rect id="Rectangle_401104" data-name="Rectangle 401104" width="75.681" height="76.593" transform="translate(0)" fill="none"/>
          </g>
          <g id="Page-1" transform="translate(0 3.432)">
            <g id="_055---Refresh-Page" data-name="055---Refresh-Page">
              <path id="Shape" d="M27.259,6.519h7.556a1.259,1.259,0,1,0,0-2.519H27.259a1.259,1.259,0,1,0,0,2.519Z" transform="translate(6.742 1.037)" fill="#182e68"/>
              <path id="Shape-2" data-name="Shape" d="M44.259,6.519H58.112a1.259,1.259,0,1,0,0-2.519H44.259a1.259,1.259,0,1,0,0,2.519Z" transform="translate(11.15 1.037)" fill="#182e68"/>
              <path id="Shape-3" data-name="Shape" d="M69.262,0H6.3A6.3,6.3,0,0,0,0,6.3V54.15a6.3,6.3,0,0,0,6.3,6.3H17.64a25.131,25.131,0,0,0,40.243,0H69.262a6.3,6.3,0,0,0,6.3-6.3V6.3A6.3,6.3,0,0,0,69.262,0ZM6.3,2.519H69.262A3.778,3.778,0,0,1,73.04,6.3v3.778H2.519V6.3A3.778,3.778,0,0,1,6.3,2.519ZM37.779,68a22.781,22.781,0,0,1-18.337-9.339,1.259,1.259,0,0,1-.034-1.458c.029-.03.059-.063.086-.094a1.2,1.2,0,0,1,.947-.451h.033a1.341,1.341,0,0,1,1.046.56,20.023,20.023,0,0,0,2.543,2.849l.023.02a20.072,20.072,0,0,0,27.376.008c.015-.014.03-.028.044-.043a20.063,20.063,0,0,0,5.7-9.345,1.259,1.259,0,0,0-1.214-1.6H54.2l-.019-.2,3.4-4.143a1.026,1.026,0,0,0,.072-.1l1.558-1.842L64.2,48.914l.973-.8-.985.995H61.162a1.259,1.259,0,0,0-1.23,1A22.755,22.755,0,0,1,37.779,68Zm-9-7.556H46.831A17.426,17.426,0,0,1,28.783,60.447Zm40.479-2.519h-9.7a24.808,24.808,0,0,0,2.6-6.3h2.015a2.54,2.54,0,0,0,2.306-1.475,2.645,2.645,0,0,0-.337-2.837l-4.987-6.082a2.542,2.542,0,0,0-3.93-.005l-1.588,1.929c-.029.037-.057.073-.082.112l-3.322,4.05a2.651,2.651,0,0,0-.335,2.835A2.541,2.541,0,0,0,54.2,51.632h.05a17.575,17.575,0,0,1-4.156,6.3H25.5a17.6,17.6,0,0,1-1.951-2.195,3.837,3.837,0,0,0-3.008-1.591,3.66,3.66,0,0,0-2.91,1.279c-.029.029-.059.062-.086.093a3.778,3.778,0,0,0-.855,2.413H6.3A3.778,3.778,0,0,1,2.519,54.15V12.593H73.04V54.15A3.778,3.778,0,0,1,69.262,57.928Z" fill="#182e68"/>
              <ellipse id="Oval" cx="1.5" cy="1" rx="1.5" ry="1" transform="translate(4.779 5.261)" fill="#182e68"/>
              <ellipse id="Oval-2" data-name="Oval" cx="1.5" cy="1" rx="1.5" ry="1" transform="translate(9.779 5.261)" fill="#182e68"/>
              <ellipse id="Oval-3" data-name="Oval" cx="1.5" cy="1" rx="1.5" ry="1" transform="translate(14.779 5.261)" fill="#182e68"/>
              <path id="Shape-4" data-name="Shape" d="M35.964,16A25.053,25.053,0,0,0,11.282,36.149H9.569a2.541,2.541,0,0,0-2.306,1.473A2.653,2.653,0,0,0,7.6,40.461l4.987,6.084a2.546,2.546,0,0,0,3.937,0l4.989-6.086a2.651,2.651,0,0,0,.335-2.835,2.541,2.541,0,0,0-2.306-1.475h-.479A17.63,17.63,0,0,1,50.6,31.364a3.817,3.817,0,0,0,3.01,1.7,3.683,3.683,0,0,0,3.051-1.356l.006-.008.006-.009a3.762,3.762,0,0,0,.218-4.5A25.1,25.1,0,0,0,35.964,16ZM54.719,30.1a1.179,1.179,0,0,1-.994.446,1.318,1.318,0,0,1-1.039-.6,20.149,20.149,0,0,0-36.468,7.2,1.259,1.259,0,0,0,1.234,1.511h2.093l.019.2-5.03,6.082L9.548,38.867l-.973.8.995-1h2.77a1.259,1.259,0,0,0,1.244-1.062,22.654,22.654,0,0,1,41.211-9.013,1.271,1.271,0,0,1-.071,1.5l.975.8Z" transform="translate(1.815 4.149)" fill="#182e68"/>
              <path id="Shape-5" data-name="Shape" d="M5.259,15.519H7.778a1.259,1.259,0,1,0,0-2.519H5.259a1.259,1.259,0,1,0,0,2.519Z" transform="translate(1.037 3.371)" fill="#182e68"/>
              <path id="Shape-6" data-name="Shape" d="M11.259,15.519H22.593a1.259,1.259,0,1,0,0-2.519H11.259a1.259,1.259,0,0,0,0,2.519Z" transform="translate(2.593 3.371)" fill="#182e68"/>
              <path id="Shape-7" data-name="Shape" d="M16.593,18.259A1.259,1.259,0,0,0,15.334,17H5.259a1.259,1.259,0,1,0,0,2.519H15.334A1.259,1.259,0,0,0,16.593,18.259Z" transform="translate(1.037 4.408)" fill="#182e68"/>
              <path id="Shape-8" data-name="Shape" d="M55.778,13H53.259a1.259,1.259,0,1,0,0,2.519h2.519a1.259,1.259,0,1,0,0-2.519Z" transform="translate(13.484 3.371)" fill="#182e68"/>
              <path id="Shape-9" data-name="Shape" d="M40.259,15.519H51.593a1.259,1.259,0,0,0,0-2.519H40.259a1.259,1.259,0,1,0,0,2.519Z" transform="translate(10.113 3.371)" fill="#182e68"/>
              <path id="Shape-10" data-name="Shape" d="M57.334,17H47.259a1.259,1.259,0,1,0,0,2.519H57.334a1.259,1.259,0,1,0,0-2.519Z" transform="translate(11.928 4.408)" fill="#182e68"/>
            </g>
          </g>
        </g>
      </g>
    </g>
  </g>
</svg>
