<svg xmlns="http://www.w3.org/2000/svg" xmlns:xlink="http://www.w3.org/1999/xlink" width="295" height="318.97" viewBox="0 0 295 318.97">
  <defs>
    <clipPath id="clip-path">
      <rect id="Rectangle_416196" data-name="Rectangle 416196" width="192.275" height="142.115" fill="none"/>
    </clipPath>
    <clipPath id="clip-path-2">
      <rect id="Rectangle_416198" data-name="Rectangle 416198" width="139.038" height="251.113" fill="none"/>
    </clipPath>
    <clipPath id="clip-path-3">
      <rect id="Rectangle_416199" data-name="Rectangle 416199" width="60.79" height="87.108" fill="none"/>
    </clipPath>
    <clipPath id="clip-path-4">
      <rect id="Rectangle_416200" data-name="Rectangle 416200" width="35.213" height="40.252" fill="none"/>
    </clipPath>
  </defs>
  <g id="Group_1122692" data-name="Group 1122692" transform="translate(-180 -8536.829)">
    <rect id="Rectangle_416205" data-name="Rectangle 416205" width="295" height="223.47" rx="30" transform="translate(180 8632.329)" fill="#182e68"/>
    <g id="Group_1122547" data-name="Group 1122547" transform="translate(222 8536.829)">
      <g id="Group_1122681" data-name="Group 1122681" transform="translate(0 0)">
        <path id="Path_957871" data-name="Path 957871" d="M192.174,423.838l82.141.992-.538,17.221-87.112-.168Z" transform="translate(-134.68 -305.803)" fill="#fff" fill-rule="evenodd"/>
        <g id="Group_1122680" data-name="Group 1122680">
          <g id="Group_1122679" data-name="Group 1122679" clip-path="url(#clip-path)">
            <path id="Path_957872" data-name="Path 957872" d="M185.028,489.573l-176.567.263a7.626,7.626,0,0,1-7.637-7.615l191.817-.285a7.626,7.626,0,0,1-7.614,7.637" transform="translate(-0.595 -347.721)" fill="#5e9bd3" fill-rule="evenodd"/>
            <path id="Path_957873" data-name="Path 957873" d="M163.246,358.616l-134.44.223a16.586,16.586,0,0,0-1.7.09,13.435,13.435,0,0,0-1.507.245,6.617,6.617,0,0,0-1.16.363,1.6,1.6,0,0,0-.651.447L.183,393.169a.765.765,0,0,0-.118.794,1.527,1.527,0,0,0,.756.653,5.7,5.7,0,0,0,1.5.444,12.689,12.689,0,0,0,2.113.16h.011l183.389-.313a12.525,12.525,0,0,0,2.116-.167,5.708,5.708,0,0,0,1.5-.448,1.511,1.511,0,0,0,.754-.658.762.762,0,0,0-.123-.795l-23.824-33.1a1.6,1.6,0,0,0-.653-.444,6.435,6.435,0,0,0-1.162-.359,13.3,13.3,0,0,0-1.508-.24,16.369,16.369,0,0,0-1.7-.086M59.973,394.035a5.259,5.259,0,0,1-.846-.062,3.149,3.149,0,0,1-.659-.171,1.079,1.079,0,0,1-.4-.255.323.323,0,0,1-.086-.311l4.23-15.055a.461.461,0,0,1,.219-.243,1.924,1.924,0,0,1,.474-.2,4.492,4.492,0,0,1,.658-.134,5.846,5.846,0,0,1,.771-.05l63.531-.108h0s0,0,0,0,0,0,0,0,0,0,0,0a5.894,5.894,0,0,1,.77.047,4.275,4.275,0,0,1,.655.132,1.974,1.974,0,0,1,.471.2.476.476,0,0,1,.222.243l4.332,15.04a.321.321,0,0,1-.085.311,1.076,1.076,0,0,1-.4.255,3.089,3.089,0,0,1-.657.173,5.263,5.263,0,0,1-.85.065Z" transform="translate(0 -258.745)" fill="#a4ccec" fill-rule="evenodd"/>
            <path id="Path_957874" data-name="Path 957874" d="M227.693,100.065l-133.987.2a4.849,4.849,0,0,1-4.856-4.84L88.716,5.054A4.847,4.847,0,0,1,93.556.2L227.545,0A4.847,4.847,0,0,1,232.4,4.84l.135,90.371a4.848,4.848,0,0,1-4.842,4.854" transform="translate(-64.009 0)" fill="#a4ccec" fill-rule="evenodd"/>
            <path id="Path_957875" data-name="Path 957875" d="M236.019,108.521l-124.922.185a4.421,4.421,0,0,1-4.429-4.415l-.12-80.62a4.421,4.421,0,0,1,4.416-4.428l124.923-.186a4.422,4.422,0,0,1,4.428,4.416l.12,80.619a4.423,4.423,0,0,1-4.416,4.429" transform="translate(-76.875 -13.75)" fill="#fff" fill-rule="evenodd"/>
            <path id="Path_957876" data-name="Path 957876" d="M285.647,429.609h-.01L229.3,429.7a5.478,5.478,0,0,0-.685.044,3.871,3.871,0,0,0-.583.12,1.7,1.7,0,0,0-.42.175.41.41,0,0,0-.2.217l-3.752,13.351a.286.286,0,0,0,.076.276.984.984,0,0,0,.359.226,2.9,2.9,0,0,0,.584.151,4.758,4.758,0,0,0,.751.055l64.164-.11a4.68,4.68,0,0,0,.754-.057,2.782,2.782,0,0,0,.583-.153.963.963,0,0,0,.356-.226.286.286,0,0,0,.075-.277l-3.842-13.337a.421.421,0,0,0-.2-.215,1.765,1.765,0,0,0-.419-.174,4.009,4.009,0,0,0-.581-.118,5.593,5.593,0,0,0-.683-.042" transform="translate(-161.369 -309.967)" fill="#fff" fill-rule="evenodd"/>
            <path id="Path_957877" data-name="Path 957877" d="M200.421,365.565l-7.525.012a2.127,2.127,0,0,0-.247.014,1.082,1.082,0,0,0-.19.04.309.309,0,0,0-.116.057.06.06,0,0,0-.022.069l.4.977a.173.173,0,0,0,.083.07.776.776,0,0,0,.166.056,1.745,1.745,0,0,0,.225.039,2.44,2.44,0,0,0,.261.014l7.62-.013a1.958,1.958,0,0,0,.25-.015.961.961,0,0,0,.189-.039.3.3,0,0,0,.113-.057.056.056,0,0,0,.014-.07l-.487-.978a.175.175,0,0,0-.086-.068.775.775,0,0,0-.167-.056,1.676,1.676,0,0,0-.225-.038c-.082-.008-.169-.013-.259-.013m-97.065.213-7.957-.039-.661.109-.62,1.049.544.181,7.634-.012.746-.183c.429-.932.571-1.025.314-1.105m121.287,13.767-8.058.013a1.662,1.662,0,0,0-.221.014.834.834,0,0,0-.164.04.231.231,0,0,0-.095.058.062.062,0,0,0-.006.072l.636,1.111a.211.211,0,0,0,.088.073.776.776,0,0,0,.162.06,1.66,1.66,0,0,0,.211.04,2.119,2.119,0,0,0,.241.014l8.16-.013a1.861,1.861,0,0,0,.223-.015.706.706,0,0,0,.164-.041.189.189,0,0,0,.089-.06.059.059,0,0,0,0-.073l-.723-1.111a.232.232,0,0,0-.093-.071.877.877,0,0,0-.163-.059,1.847,1.847,0,0,0-.213-.04,2.152,2.152,0,0,0-.24-.013m-11.147-1.43-7.958.013a1.6,1.6,0,0,0-.218.015.83.83,0,0,0-.166.039.237.237,0,0,0-.1.056.058.058,0,0,0-.013.07l.523,1.086a.2.2,0,0,0,.079.07.793.793,0,0,0,.154.058,1.684,1.684,0,0,0,.423.052,1.684,1.684,0,0,0-.2.015.834.834,0,0,0-.169.04.232.232,0,0,0-.1.059.063.063,0,0,0-.013.071l.532,1.113a.186.186,0,0,0,.082.073.719.719,0,0,0,.158.06,1.435,1.435,0,0,0,.208.04,1.825,1.825,0,0,0,.238.014l8.161-.013a1.5,1.5,0,0,0,.224-.015.71.71,0,0,0,.168-.041.214.214,0,0,0,.094-.06.062.062,0,0,0,.006-.074l-.619-1.111a.211.211,0,0,0-.086-.072.835.835,0,0,0-.159-.058,1.474,1.474,0,0,0-.209-.038,2,2,0,0,0-.218-.014,1.85,1.85,0,0,0,.2-.015.888.888,0,0,0,.165-.039.24.24,0,0,0,.095-.059.058.058,0,0,0,.007-.071l-.61-1.086a.186.186,0,0,0-.085-.069.82.82,0,0,0-.155-.057,1.868,1.868,0,0,0-.207-.038,2.238,2.238,0,0,0-.233-.013m-7.254,1.46,8.058-.013Zm8.058-.013-8.058.013Zm.019,0Zm-10.49.017h0a1.8,1.8,0,0,1,.236.014,1.367,1.367,0,0,1,.205.038.714.714,0,0,1,.153.059.181.181,0,0,1,.08.071l.52,1.114a.065.065,0,0,1-.013.073.244.244,0,0,1-.1.059.843.843,0,0,1-.171.041,1.714,1.714,0,0,1-.227.015l-8.161.013a1.858,1.858,0,0,1-.237-.014,1.449,1.449,0,0,1-.206-.04.654.654,0,0,1-.15-.06.168.168,0,0,1-.076-.073l-.431-1.114a.067.067,0,0,1,.019-.072.281.281,0,0,1,.1-.057.8.8,0,0,1,.172-.04,1.5,1.5,0,0,1,.226-.016Zm11.8-14.039-3.585.007a1.475,1.475,0,0,0-.195.012.856.856,0,0,0-.147.029.226.226,0,0,0-.084.046.041.041,0,0,0-.008.055l.631,1.05a.172.172,0,0,0,.075.056.734.734,0,0,0,.141.045,1.6,1.6,0,0,0,.186.032,1.965,1.965,0,0,0,.214.01l3.632-.007a1.541,1.541,0,0,0,.2-.011.773.773,0,0,0,.146-.031.192.192,0,0,0,.084-.046.044.044,0,0,0,0-.057l-.679-1.05a.2.2,0,0,0-.079-.054.8.8,0,0,0-.141-.045c-.055-.012-.118-.022-.184-.03s-.138-.011-.209-.011m-102.957.171-7.528.013a2.516,2.516,0,0,0-.258.014,1.844,1.844,0,0,0-.224.038.739.739,0,0,0-.164.057.167.167,0,0,0-.081.068l-.439.98a.059.059,0,0,0,.02.07.305.305,0,0,0,.114.058,1.047,1.047,0,0,0,.191.039,2.188,2.188,0,0,0,.25.014l7.621-.013a2.312,2.312,0,0,0,.262-.015,1.962,1.962,0,0,0,.225-.039.776.776,0,0,0,.163-.059.154.154,0,0,0,.079-.071l.352-.978a.061.061,0,0,0-.025-.068.325.325,0,0,0-.119-.056,1,1,0,0,0-.192-.038,1.942,1.942,0,0,0-.248-.014m97.5-.16-7.525.012a2.01,2.01,0,0,0-.246.014.937.937,0,0,0-.186.038.257.257,0,0,0-.11.056.055.055,0,0,0-.016.07l.5.977a.194.194,0,0,0,.088.071.781.781,0,0,0,.17.057,1.663,1.663,0,0,0,.228.038,2.228,2.228,0,0,0,.263.013l7.619-.012a1.815,1.815,0,0,0,.248-.014,1.026,1.026,0,0,0,.187-.038.3.3,0,0,0,.109-.058.056.056,0,0,0,.01-.071l-.586-.978a.2.2,0,0,0-.091-.068.95.95,0,0,0-.172-.056,1.936,1.936,0,0,0-.229-.037,2.445,2.445,0,0,0-.26-.013M91.9,367.31l-6.923.012a2.331,2.331,0,0,0-.267.015,1.8,1.8,0,0,0-.234.039.937.937,0,0,0-.18.06.235.235,0,0,0-.1.072l-1.227,1.926a.057.057,0,0,0,0,.074.255.255,0,0,0,.106.06.981.981,0,0,0,.188.041,2.19,2.19,0,0,0,.252.014l7.077-.012a2.516,2.516,0,0,0,.273-.015,1.975,1.975,0,0,0,.238-.042,1.045,1.045,0,0,0,.18-.061.211.211,0,0,0,.095-.075l1.072-1.924a.055.055,0,0,0-.011-.072.283.283,0,0,0-.11-.058,1.019,1.019,0,0,0-.189-.04,2.235,2.235,0,0,0-.249-.014M170.121,378.3l-49.087.082a2.129,2.129,0,0,0-.29.018,1.547,1.547,0,0,0-.243.048.685.685,0,0,0-.175.072.167.167,0,0,0-.08.087l-.618,2.366a.093.093,0,0,0,.034.092.407.407,0,0,0,.14.075,1.228,1.228,0,0,0,.224.05,2.327,2.327,0,0,0,.287.018l50.3-.084a2.163,2.163,0,0,0,.29-.019,1.384,1.384,0,0,0,.23-.051.459.459,0,0,0,.147-.076.1.1,0,0,0,.043-.092l-.426-2.364a.145.145,0,0,0-.074-.087.728.728,0,0,0-.171-.071,1.676,1.676,0,0,0-.241-.048,2.445,2.445,0,0,0-.29-.016Zm22.92-.04-7.666.013a2.142,2.142,0,0,0-.279.018,1.182,1.182,0,0,0-.218.05.387.387,0,0,0-.136.072.083.083,0,0,0-.029.088l.707,2.364a.178.178,0,0,0,.087.09.718.718,0,0,0,.183.074,1.9,1.9,0,0,0,.254.051,2.357,2.357,0,0,0,.3.019l7.853-.014a2.057,2.057,0,0,0,.285-.019,1.078,1.078,0,0,0,.218-.051.334.334,0,0,0,.131-.075.082.082,0,0,0,.024-.091l-.9-2.364a.188.188,0,0,0-.09-.087.738.738,0,0,0-.183-.071,1.6,1.6,0,0,0-.25-.049,2.477,2.477,0,0,0-.291-.018m-10.4.02-9.958.015a2.423,2.423,0,0,0-.281.018,1.331,1.331,0,0,0-.222.048.459.459,0,0,0-.143.072.094.094,0,0,0-.041.088l.451,2.365a.146.146,0,0,0,.076.09.675.675,0,0,0,.174.075,1.577,1.577,0,0,0,.248.049,2.213,2.213,0,0,0,.292.018l10.2-.017a2.093,2.093,0,0,0,.287-.019,1.221,1.221,0,0,0,.222-.05.382.382,0,0,0,.139-.075.09.09,0,0,0,.032-.091l-.686-2.363a.167.167,0,0,0-.082-.088.713.713,0,0,0-.177-.071,1.887,1.887,0,0,0-.246-.048,2.428,2.428,0,0,0-.289-.015m-64.112.106-9.96.016a2.37,2.37,0,0,0-.291.018,1.808,1.808,0,0,0-.25.049.862.862,0,0,0-.182.072.205.205,0,0,0-.091.088l-.876,2.367a.085.085,0,0,0,.025.093.344.344,0,0,0,.131.074,1.308,1.308,0,0,0,.219.051,2.262,2.262,0,0,0,.284.017l10.206-.017a2.22,2.22,0,0,0,.3-.019,1.728,1.728,0,0,0,.252-.052.686.686,0,0,0,.179-.075.178.178,0,0,0,.085-.091l.639-2.367a.088.088,0,0,0-.033-.088.391.391,0,0,0-.137-.07,1.235,1.235,0,0,0-.218-.047,2.024,2.024,0,0,0-.28-.018m-12.5.021-7.637.012a2.254,2.254,0,0,0-.293.019,1.957,1.957,0,0,0-.256.048.891.891,0,0,0-.19.073.214.214,0,0,0-.1.087l-1.086,2.367a.081.081,0,0,0,.018.092.306.306,0,0,0,.127.075,1.125,1.125,0,0,0,.216.05,2.248,2.248,0,0,0,.284.018l7.825-.013a2.381,2.381,0,0,0,.3-.019,1.936,1.936,0,0,0,.257-.051.8.8,0,0,0,.188-.075.2.2,0,0,0,.093-.091l.9-2.367a.082.082,0,0,0-.025-.088.339.339,0,0,0-.129-.071,1.055,1.055,0,0,0-.213-.049,1.97,1.97,0,0,0-.278-.016m-10.181.018h0a2.113,2.113,0,0,1,.275.018,1.1,1.1,0,0,1,.209.047.307.307,0,0,1,.123.072.074.074,0,0,1,.016.087l-1.109,2.367a.231.231,0,0,1-.1.093.848.848,0,0,1-.194.075,1.876,1.876,0,0,1-.262.05,2.4,2.4,0,0,1-.3.02l-7.832.013a1.991,1.991,0,0,1-.281-.019.981.981,0,0,1-.209-.05.276.276,0,0,1-.119-.074.077.077,0,0,1-.008-.092l1.3-2.368a.258.258,0,0,1,.106-.087.924.924,0,0,1,.195-.072,2,2,0,0,1,.259-.048,2.473,2.473,0,0,1,.293-.018Zm-10.224.018-7.637.013a2.37,2.37,0,0,0-.3.019,1.745,1.745,0,0,0-.264.048,1.081,1.081,0,0,0-.2.071.289.289,0,0,0-.113.088l-1.508,2.367a.077.077,0,0,0,0,.092.247.247,0,0,0,.113.074,1,1,0,0,0,.207.05,1.987,1.987,0,0,0,.281.019l7.825-.012a2.7,2.7,0,0,0,.3-.02,2.044,2.044,0,0,0,.266-.051,1.056,1.056,0,0,0,.2-.075.272.272,0,0,0,.109-.092l1.326-2.368a.07.07,0,0,0-.01-.087.246.246,0,0,0-.118-.07.919.919,0,0,0-.206-.049,2.1,2.1,0,0,0-.276-.018Zm13.805-3.022-19.553.034a2.453,2.453,0,0,0-.288.016,2.16,2.16,0,0,0-.255.045,1.2,1.2,0,0,0-.195.068.269.269,0,0,0-.108.084l-1.43,2.244a.069.069,0,0,0,0,.086.243.243,0,0,0,.11.07.963.963,0,0,0,.2.047,1.967,1.967,0,0,0,.272.017l20.023-.032a2.662,2.662,0,0,0,.291-.019,1.845,1.845,0,0,0,.253-.048.8.8,0,0,0,.187-.072.212.212,0,0,0,.1-.086l1.007-2.242a.072.072,0,0,0-.019-.084.3.3,0,0,0-.12-.067.963.963,0,0,0-.2-.047,2.037,2.037,0,0,0-.27-.016M95.9,372.577l-14.22.023a2.336,2.336,0,0,0-.28.017,1.873,1.873,0,0,0-.248.044.96.96,0,0,0-.19.064.271.271,0,0,0-.1.079L79.5,374.935a.065.065,0,0,0,0,.082.246.246,0,0,0,.108.067.95.95,0,0,0,.2.044,1.926,1.926,0,0,0,.264.017l14.555-.024a2.411,2.411,0,0,0,.284-.018,1.781,1.781,0,0,0,.247-.045.915.915,0,0,0,.185-.067.206.206,0,0,0,.1-.083l1.05-2.128a.066.066,0,0,0-.015-.079.278.278,0,0,0-.116-.064,1.079,1.079,0,0,0-.2-.043,2.026,2.026,0,0,0-.263-.016m13.9,2.821-7.467.013a2.656,2.656,0,0,0-.284.016,2.147,2.147,0,0,0-.246.046.924.924,0,0,0-.181.068.2.2,0,0,0-.092.083l-.982,2.244a.073.073,0,0,0,.021.085.319.319,0,0,0,.123.07.906.906,0,0,0,.209.048,1.765,1.765,0,0,0,.272.018h.01l7.645-.011a2.211,2.211,0,0,0,.291-.019,1.754,1.754,0,0,0,.248-.048.738.738,0,0,0,.18-.072.185.185,0,0,0,.088-.086l.8-2.243a.079.079,0,0,0-.03-.083.356.356,0,0,0-.129-.067,1.1,1.1,0,0,0-.21-.046,2.17,2.17,0,0,0-.271-.016m9.97-.016-7.472.012a2.32,2.32,0,0,0-.282.018,1.488,1.488,0,0,0-.243.046.806.806,0,0,0-.175.067.184.184,0,0,0-.085.083l-.776,2.243a.078.078,0,0,0,.026.086.335.335,0,0,0,.131.071,1.006,1.006,0,0,0,.215.047,1.963,1.963,0,0,0,.277.018l7.652-.013a2.415,2.415,0,0,0,.288-.017,1.566,1.566,0,0,0,.245-.049.727.727,0,0,0,.174-.07.162.162,0,0,0,.08-.087l.6-2.242a.078.078,0,0,0-.033-.082.356.356,0,0,0-.133-.067,1.111,1.111,0,0,0-.214-.046,2.1,2.1,0,0,0-.272-.016m9.965-.017-7.468.013a2.316,2.316,0,0,0-.281.017,1.547,1.547,0,0,0-.238.046.689.689,0,0,0-.171.067.147.147,0,0,0-.075.084l-.58,2.242a.081.081,0,0,0,.035.086.391.391,0,0,0,.139.07,1.134,1.134,0,0,0,.22.047,2.113,2.113,0,0,0,.28.018l7.647-.013a2.32,2.32,0,0,0,.286-.018,1.54,1.54,0,0,0,.239-.049.632.632,0,0,0,.169-.072.14.14,0,0,0,.072-.086l.4-2.242a.088.088,0,0,0-.041-.083.423.423,0,0,0-.14-.067,1.213,1.213,0,0,0-.217-.045,2.132,2.132,0,0,0-.273-.017m9.964-.018-7.466.012a2.189,2.189,0,0,0-.28.018,1.5,1.5,0,0,0-.234.046.7.7,0,0,0-.164.068.143.143,0,0,0-.07.084l-.375,2.242a.091.091,0,0,0,.043.086.417.417,0,0,0,.143.071,1.169,1.169,0,0,0,.222.047,2.005,2.005,0,0,0,.28.016l7.652-.012a2.579,2.579,0,0,0,.283-.017,1.557,1.557,0,0,0,.236-.048.627.627,0,0,0,.163-.07.129.129,0,0,0,.065-.087l.2-2.242a.1.1,0,0,0-.05-.082.432.432,0,0,0-.148-.069,1.225,1.225,0,0,0-.223-.045,2.093,2.093,0,0,0-.276-.017m9.969-.016-7.467.013a2.256,2.256,0,0,0-.279.016,1.467,1.467,0,0,0-.23.046.581.581,0,0,0-.158.068.112.112,0,0,0-.059.084l-.181,2.24a.1.1,0,0,0,.051.086.5.5,0,0,0,.151.073,1.53,1.53,0,0,0,.229.047,2.422,2.422,0,0,0,.284.017l7.647-.012a2.234,2.234,0,0,0,.283-.019,1.407,1.407,0,0,0,.23-.048.635.635,0,0,0,.157-.071.118.118,0,0,0,.056-.088l0-2.241a.108.108,0,0,0-.055-.083.567.567,0,0,0-.152-.067,1.433,1.433,0,0,0-.226-.045,2.208,2.208,0,0,0-.277-.016m9.964-.017-7.466.013a2.081,2.081,0,0,0-.277.017,1.466,1.466,0,0,0-.226.045.563.563,0,0,0-.152.068.106.106,0,0,0-.054.084l.025,2.241a.113.113,0,0,0,.057.087.624.624,0,0,0,.156.07,1.558,1.558,0,0,0,.231.049,2.317,2.317,0,0,0,.283.016l7.647-.013a2.3,2.3,0,0,0,.284-.018,1.439,1.439,0,0,0,.228-.048.471.471,0,0,0,.15-.072.1.1,0,0,0,.049-.087l-.2-2.241a.125.125,0,0,0-.064-.082.569.569,0,0,0-.16-.067,1.379,1.379,0,0,0-.231-.045,2.219,2.219,0,0,0-.279-.017m9.968-.016-7.466.012a2.187,2.187,0,0,0-.277.017,1.327,1.327,0,0,0-.223.046.493.493,0,0,0-.148.067.1.1,0,0,0-.047.083l.226,2.241a.127.127,0,0,0,.065.087.6.6,0,0,0,.165.071,1.545,1.545,0,0,0,.237.047,2.263,2.263,0,0,0,.287.017l7.645-.013a2.376,2.376,0,0,0,.28-.017,1.376,1.376,0,0,0,.223-.048.446.446,0,0,0,.143-.071.091.091,0,0,0,.04-.087l-.4-2.241a.135.135,0,0,0-.07-.083.661.661,0,0,0-.164-.067,1.561,1.561,0,0,0-.234-.045,2.3,2.3,0,0,0-.281-.016Zm9.963-.016-7.466.012a1.937,1.937,0,0,0-.274.018,1.2,1.2,0,0,0-.217.045.433.433,0,0,0-.139.067.089.089,0,0,0-.04.084l.426,2.241a.144.144,0,0,0,.073.086.69.69,0,0,0,.169.07,1.764,1.764,0,0,0,.241.047,2.6,2.6,0,0,0,.286.016l7.644-.013a2.232,2.232,0,0,0,.281-.018,1.355,1.355,0,0,0,.219-.047.435.435,0,0,0,.139-.07.088.088,0,0,0,.034-.087l-.606-2.241a.153.153,0,0,0-.078-.082.689.689,0,0,0-.172-.067,1.877,1.877,0,0,0-.239-.046,2.133,2.133,0,0,0-.282-.015m9.977-.017h-.009l-7.467.011a2.3,2.3,0,0,0-.272.016,1.437,1.437,0,0,0-.215.046.409.409,0,0,0-.135.069.081.081,0,0,0-.034.084l.627,2.24a.165.165,0,0,0,.083.087.778.778,0,0,0,.176.071,1.732,1.732,0,0,0,.247.046,2.224,2.224,0,0,0,.289.016l7.644-.012a2.16,2.16,0,0,0,.278-.017,1.079,1.079,0,0,0,.214-.049.344.344,0,0,0,.13-.071.078.078,0,0,0,.026-.087l-.805-2.24a.185.185,0,0,0-.085-.083.779.779,0,0,0-.174-.067,1.594,1.594,0,0,0-.238-.044,2.2,2.2,0,0,0-.28-.017m9.951-.018-7.464.012a2.2,2.2,0,0,0-.271.017,1.164,1.164,0,0,0-.209.046.374.374,0,0,0-.126.068.074.074,0,0,0-.025.084l.827,2.24a.18.18,0,0,0,.088.086.794.794,0,0,0,.181.07,1.785,1.785,0,0,0,.249.047,2.3,2.3,0,0,0,.29.017l7.644-.013a1.9,1.9,0,0,0,.277-.019,1.03,1.03,0,0,0,.211-.048.322.322,0,0,0,.126-.071.077.077,0,0,0,.019-.088l-1.006-2.237a.2.2,0,0,0-.094-.084.822.822,0,0,0-.184-.067,1.774,1.774,0,0,0-.247-.046,2.386,2.386,0,0,0-.287-.016m22.217-.036-19.715.032a2.257,2.257,0,0,0-.269.016,1.159,1.159,0,0,0-.207.046.32.32,0,0,0-.122.068.069.069,0,0,0-.019.082L202.4,377.7a.22.22,0,0,0,.1.087.863.863,0,0,0,.189.071,1.945,1.945,0,0,0,.255.049,2.538,2.538,0,0,0,.293.016l20.186-.034a2.033,2.033,0,0,0,.273-.019.978.978,0,0,0,.2-.047.246.246,0,0,0,.111-.07.069.069,0,0,0,0-.086l-1.452-2.24a.268.268,0,0,0-.11-.082.934.934,0,0,0-.2-.068,1.87,1.87,0,0,0-.255-.045,2.809,2.809,0,0,0-.289-.016m-116.255-2.652h0a1.94,1.94,0,0,1,.263.016,1.106,1.106,0,0,1,.2.043.322.322,0,0,1,.123.065.069.069,0,0,1,.022.079l-.864,2.129a.189.189,0,0,1-.088.082.8.8,0,0,1-.179.067,1.7,1.7,0,0,1-.243.046,2.545,2.545,0,0,1-.283.017l-7.447.013a1.944,1.944,0,0,1-.27-.017,1.046,1.046,0,0,1-.2-.045.3.3,0,0,1-.12-.067.068.068,0,0,1-.016-.082l1.033-2.13a.213.213,0,0,1,.093-.079.918.918,0,0,1,.181-.064,1.821,1.821,0,0,1,.244-.044,2.315,2.315,0,0,1,.279-.016Zm9.71-.016-7.276.013a2.361,2.361,0,0,0-.277.016,2.041,2.041,0,0,0-.237.044.827.827,0,0,0-.174.065.181.181,0,0,0-.085.079l-.843,2.128a.076.076,0,0,0,.023.083.327.327,0,0,0,.124.066,1.122,1.122,0,0,0,.207.046,2.03,2.03,0,0,0,.269.016l7.447-.013a2.331,2.331,0,0,0,.282-.018,1.682,1.682,0,0,0,.241-.045.828.828,0,0,0,.175-.068.17.17,0,0,0,.083-.083l.672-2.127a.072.072,0,0,0-.03-.078.375.375,0,0,0-.129-.065,1.172,1.172,0,0,0-.208-.043,1.844,1.844,0,0,0-.266-.015Zm9.715-.016-7.275.012a2.259,2.259,0,0,0-.277.017,1.788,1.788,0,0,0-.235.043.8.8,0,0,0-.169.065.156.156,0,0,0-.079.078l-.651,2.129a.077.077,0,0,0,.03.083.378.378,0,0,0,.132.067,1.171,1.171,0,0,0,.214.045,2.03,2.03,0,0,0,.271.017l7.447-.012a2.47,2.47,0,0,0,.28-.018,1.729,1.729,0,0,0,.236-.046.6.6,0,0,0,.166-.068.14.14,0,0,0,.074-.081l.483-2.129a.078.078,0,0,0-.036-.078.393.393,0,0,0-.133-.065,1.318,1.318,0,0,0-.209-.042,2.171,2.171,0,0,0-.267-.016m9.71-.015-7.276.012a2.424,2.424,0,0,0-.273.015,2.064,2.064,0,0,0-.229.043.7.7,0,0,0-.162.065.148.148,0,0,0-.072.079l-.462,2.128a.085.085,0,0,0,.038.083.408.408,0,0,0,.136.066,1.212,1.212,0,0,0,.215.045,2.164,2.164,0,0,0,.272.016l7.447-.013a2.581,2.581,0,0,0,.279-.016,1.524,1.524,0,0,0,.233-.047.606.606,0,0,0,.162-.067c.04-.025.064-.052.067-.082l.293-2.128a.086.086,0,0,0-.044-.078.472.472,0,0,0-.141-.065,1.6,1.6,0,0,0-.216-.043,2.557,2.557,0,0,0-.268-.014m9.715-.016-7.276.012a2.349,2.349,0,0,0-.273.017,1.57,1.57,0,0,0-.227.043.623.623,0,0,0-.158.065.122.122,0,0,0-.065.079l-.272,2.127a.093.093,0,0,0,.046.083.465.465,0,0,0,.144.066,1.387,1.387,0,0,0,.22.046,2.623,2.623,0,0,0,.276.016l7.446-.013a2.152,2.152,0,0,0,.277-.017,1.293,1.293,0,0,0,.227-.047.562.562,0,0,0,.155-.066.119.119,0,0,0,.06-.082l.1-2.127a.093.093,0,0,0-.051-.079.49.49,0,0,0-.144-.065,1.4,1.4,0,0,0-.217-.041,2.179,2.179,0,0,0-.268-.016m9.709-.018-7.276.013a2.366,2.366,0,0,0-.27.015,1.512,1.512,0,0,0-.221.044.585.585,0,0,0-.151.065.111.111,0,0,0-.057.079l-.081,2.128a.1.1,0,0,0,.053.082.5.5,0,0,0,.148.066,1.237,1.237,0,0,0,.223.045,2.176,2.176,0,0,0,.275.016l7.446-.013a2.459,2.459,0,0,0,.277-.015,1.723,1.723,0,0,0,.224-.046.525.525,0,0,0,.151-.067.1.1,0,0,0,.053-.082l-.089-2.128c0-.029-.021-.054-.058-.079a.56.56,0,0,0-.152-.064,1.468,1.468,0,0,0-.224-.044,2.348,2.348,0,0,0-.271-.015m9.714-.016-7.275.012a2,2,0,0,0-.27.017,1.289,1.289,0,0,0-.219.044.536.536,0,0,0-.146.065.1.1,0,0,0-.05.079l.107,2.125a.119.119,0,0,0,.061.082.594.594,0,0,0,.157.069,1.445,1.445,0,0,0,.229.044,2.128,2.128,0,0,0,.278.017l7.446-.012a2.263,2.263,0,0,0,.273-.017,1.534,1.534,0,0,0,.221-.046.472.472,0,0,0,.142-.068.093.093,0,0,0,.045-.082l-.278-2.124a.125.125,0,0,0-.065-.08.593.593,0,0,0-.157-.064,1.4,1.4,0,0,0-.225-.044,2.3,2.3,0,0,0-.272-.016m9.708-.017-7.274.013a2.27,2.27,0,0,0-.267.016,1.306,1.306,0,0,0-.214.045.438.438,0,0,0-.14.064.086.086,0,0,0-.043.078l.3,2.127a.131.131,0,0,0,.066.082.635.635,0,0,0,.162.068,1.625,1.625,0,0,0,.23.045,2.227,2.227,0,0,0,.279.015l7.446-.012a2.334,2.334,0,0,0,.272-.016,1.292,1.292,0,0,0,.217-.046.441.441,0,0,0,.139-.068.081.081,0,0,0,.037-.082l-.468-2.127a.137.137,0,0,0-.073-.079.682.682,0,0,0-.163-.064,1.622,1.622,0,0,0-.231-.043,2.435,2.435,0,0,0-.274-.016m9.713-.015-7.274.012a2.249,2.249,0,0,0-.268.016,1.336,1.336,0,0,0-.212.043.418.418,0,0,0-.134.065.08.08,0,0,0-.038.079l.489,2.125a.143.143,0,0,0,.075.082.681.681,0,0,0,.168.067,1.787,1.787,0,0,0,.237.045,2.5,2.5,0,0,0,.281.017l7.446-.012a2.154,2.154,0,0,0,.27-.017,1.349,1.349,0,0,0,.211-.046.363.363,0,0,0,.13-.068.075.075,0,0,0,.031-.082l-.659-2.126a.162.162,0,0,0-.079-.079.692.692,0,0,0-.168-.064,1.63,1.63,0,0,0-.233-.043,2.459,2.459,0,0,0-.275-.015m9.708-.017-7.274.013a2.169,2.169,0,0,0-.266.016,1.16,1.16,0,0,0-.2.044.346.346,0,0,0-.128.064.074.074,0,0,0-.03.079l.68,2.125a.165.165,0,0,0,.082.082.746.746,0,0,0,.173.067,1.67,1.67,0,0,0,.239.045,2.311,2.311,0,0,0,.281.015l7.445-.012a1.854,1.854,0,0,0,.272-.018,1.075,1.075,0,0,0,.208-.044.368.368,0,0,0,.127-.067.072.072,0,0,0,.023-.083l-.85-2.125a.172.172,0,0,0-.086-.079.805.805,0,0,0-.175-.063,1.666,1.666,0,0,0-.239-.043,2.42,2.42,0,0,0-.277-.017m27.028-.045-14.7.024a2.062,2.062,0,0,0-.262.017,1.076,1.076,0,0,0-.2.044.31.31,0,0,0-.118.065.066.066,0,0,0-.015.08l1.062,2.123a.221.221,0,0,0,.1.084.908.908,0,0,0,.187.067,2.158,2.158,0,0,0,.249.044,2.344,2.344,0,0,0,.284.016l15.046-.026a1.97,1.97,0,0,0,.267-.016.925.925,0,0,0,.2-.046.237.237,0,0,0,.108-.067.064.064,0,0,0,0-.082l-1.374-2.125a.254.254,0,0,0-.106-.079,1.1,1.1,0,0,0-.192-.065,2.084,2.084,0,0,0-.25-.043,2.222,2.222,0,0,0-.28-.016m-17.305.03h-.009l-7.275.011a2.171,2.171,0,0,0-.264.016,1.086,1.086,0,0,0-.2.044.332.332,0,0,0-.123.065.07.07,0,0,0-.022.079l.869,2.125a.191.191,0,0,0,.089.082.892.892,0,0,0,.182.067,1.875,1.875,0,0,0,.245.044,2.056,2.056,0,0,0,.283.016l7.444-.012a1.96,1.96,0,0,0,.268-.017,1.117,1.117,0,0,0,.2-.045.288.288,0,0,0,.119-.067.072.072,0,0,0,.017-.083L203.36,372.6a.2.2,0,0,0-.091-.078.876.876,0,0,0-.177-.064,1.868,1.868,0,0,0-.238-.043,2.469,2.469,0,0,0-.275-.015M94.97,369.876l-11.614.019c-.093,0-.185.006-.272.015a2,2,0,0,0-.241.042.957.957,0,0,0-.183.062.239.239,0,0,0-.1.076l-1.287,2.022a.06.06,0,0,0,0,.078.251.251,0,0,0,.107.064.886.886,0,0,0,.19.043,2.019,2.019,0,0,0,.26.017l11.88-.021a2.174,2.174,0,0,0,.278-.017,1.727,1.727,0,0,0,.24-.043.973.973,0,0,0,.181-.064.206.206,0,0,0,.095-.079l1.041-2.022a.06.06,0,0,0-.013-.075.273.273,0,0,0-.113-.06.961.961,0,0,0-.193-.042,2.265,2.265,0,0,0-.256-.014m9.644-.018-7.095.012a2.536,2.536,0,0,0-.271.016,1.976,1.976,0,0,0-.236.043.827.827,0,0,0-.175.062.2.2,0,0,0-.091.075l-1.023,2.023a.065.065,0,0,0,.017.079.309.309,0,0,0,.117.063,1.1,1.1,0,0,0,.2.042,1.916,1.916,0,0,0,.261.015l7.258-.012a2.493,2.493,0,0,0,.275-.015,1.912,1.912,0,0,0,.238-.044.832.832,0,0,0,.174-.064.2.2,0,0,0,.088-.077l.862-2.024a.063.063,0,0,0-.021-.075.351.351,0,0,0-.12-.06,1.012,1.012,0,0,0-.2-.041,1.645,1.645,0,0,0-.258-.015Zm9.474-.014-7.1.011a2.152,2.152,0,0,0-.269.017,1.687,1.687,0,0,0-.231.042.766.766,0,0,0-.17.06.187.187,0,0,0-.085.076l-.837,2.022a.067.067,0,0,0,.022.078.329.329,0,0,0,.12.064,1.077,1.077,0,0,0,.2.043,2.028,2.028,0,0,0,.262.016l7.262-.012a2.2,2.2,0,0,0,.274-.017,1.715,1.715,0,0,0,.234-.044.692.692,0,0,0,.17-.065.155.155,0,0,0,.08-.077l.676-2.022a.068.068,0,0,0-.026-.075.34.34,0,0,0-.124-.061,1.167,1.167,0,0,0-.2-.042,2.076,2.076,0,0,0-.258-.014m9.468-.016-7.1.013a2.326,2.326,0,0,0-.268.015,1.56,1.56,0,0,0-.228.041.785.785,0,0,0-.165.06.153.153,0,0,0-.077.076l-.662,2.023a.073.073,0,0,0,.032.077.356.356,0,0,0,.128.064,1.075,1.075,0,0,0,.206.043,1.717,1.717,0,0,0,.263.016l7.257-.012a2.115,2.115,0,0,0,.273-.017,1.5,1.5,0,0,0,.23-.043.638.638,0,0,0,.163-.064.151.151,0,0,0,.074-.078l.5-2.023a.076.076,0,0,0-.035-.075.4.4,0,0,0-.131-.061,1.15,1.15,0,0,0-.206-.041,2.151,2.151,0,0,0-.26-.015m9.473-.016-7.1.012a2.5,2.5,0,0,0-.265.015,1.6,1.6,0,0,0-.225.042.583.583,0,0,0-.158.062.144.144,0,0,0-.071.074l-.476,2.023a.079.079,0,0,0,.035.078.377.377,0,0,0,.133.063,1.17,1.17,0,0,0,.209.043,2.208,2.208,0,0,0,.265.016l7.261-.013a2.385,2.385,0,0,0,.272-.016,1.548,1.548,0,0,0,.226-.043.633.633,0,0,0,.157-.064.131.131,0,0,0,.067-.078l.314-2.022a.08.08,0,0,0-.041-.075.407.407,0,0,0-.135-.06,1.1,1.1,0,0,0-.207-.041,2.1,2.1,0,0,0-.261-.016m9.468-.016-7.095.012a2.064,2.064,0,0,0-.266.017,1.4,1.4,0,0,0-.22.041.563.563,0,0,0-.153.062.119.119,0,0,0-.064.074l-.3,2.023a.087.087,0,0,0,.044.078.465.465,0,0,0,.14.063,1.334,1.334,0,0,0,.214.043,2.463,2.463,0,0,0,.267.016l7.257-.012a1.991,1.991,0,0,0,.27-.018,1.231,1.231,0,0,0,.223-.043.532.532,0,0,0,.152-.064.11.11,0,0,0,.059-.077l.139-2.022c0-.026-.015-.052-.048-.075a.488.488,0,0,0-.141-.061,1.276,1.276,0,0,0-.214-.041,2.139,2.139,0,0,0-.263-.016m9.482-.015h-.01l-7.1.011a1.987,1.987,0,0,0-.263.016,1.336,1.336,0,0,0-.217.041.584.584,0,0,0-.148.062c-.037.024-.057.05-.057.075l-.114,2.022a.09.09,0,0,0,.048.079.45.45,0,0,0,.144.062,1.3,1.3,0,0,0,.217.043,2.065,2.065,0,0,0,.268.015l7.261-.012a2.314,2.314,0,0,0,.27-.016,1.286,1.286,0,0,0,.217-.043.478.478,0,0,0,.146-.064.1.1,0,0,0,.053-.077l-.046-2.022a.105.105,0,0,0-.055-.075.536.536,0,0,0-.142-.061,1.327,1.327,0,0,0-.213-.041,2.241,2.241,0,0,0-.261-.015Zm9.458-.017-7.095.012a2.121,2.121,0,0,0-.262.016,1.327,1.327,0,0,0-.213.042.566.566,0,0,0-.143.061.1.1,0,0,0-.05.076l.061,2.021a.1.1,0,0,0,.058.077.578.578,0,0,0,.151.064,1.345,1.345,0,0,0,.223.041,1.989,1.989,0,0,0,.27.017l7.256-.012a2,2,0,0,0,.268-.018,1.211,1.211,0,0,0,.214-.043.453.453,0,0,0,.14-.064.09.09,0,0,0,.046-.078l-.228-2.02c0-.026-.023-.052-.061-.076a.618.618,0,0,0-.152-.061,1.415,1.415,0,0,0-.218-.041,2.185,2.185,0,0,0-.265-.016m9.473-.016-7.1.012a2.162,2.162,0,0,0-.261.015,1.528,1.528,0,0,0-.21.042.461.461,0,0,0-.136.062.08.08,0,0,0-.043.074l.247,2.021a.119.119,0,0,0,.063.079.559.559,0,0,0,.155.064,1.553,1.553,0,0,0,.225.043,2.341,2.341,0,0,0,.27.016l7.261-.013a2.016,2.016,0,0,0,.267-.016,1.322,1.322,0,0,0,.211-.043.456.456,0,0,0,.135-.064.082.082,0,0,0,.039-.08l-.409-2.019c0-.028-.029-.053-.068-.076a.7.7,0,0,0-.158-.061,1.872,1.872,0,0,0-.223-.041,2.254,2.254,0,0,0-.263-.014m9.466-.015-7.094.012a2.058,2.058,0,0,0-.26.016,1.13,1.13,0,0,0-.207.042.4.4,0,0,0-.132.061.074.074,0,0,0-.036.075l.423,2.021a.135.135,0,0,0,.07.077.659.659,0,0,0,.164.064,1.442,1.442,0,0,0,.229.043,2.354,2.354,0,0,0,.273.016l7.255-.011a1.96,1.96,0,0,0,.264-.016,1.107,1.107,0,0,0,.207-.045.4.4,0,0,0,.13-.064.075.075,0,0,0,.031-.078l-.589-2.021a.144.144,0,0,0-.075-.074.734.734,0,0,0-.162-.061,1.62,1.62,0,0,0-.226-.04,2.316,2.316,0,0,0-.267-.015m9.471-.016-7.1.012a2.066,2.066,0,0,0-.259.016,1.291,1.291,0,0,0-.2.041.381.381,0,0,0-.127.061.072.072,0,0,0-.03.075l.609,2.021a.146.146,0,0,0,.076.077.734.734,0,0,0,.168.064,1.883,1.883,0,0,0,.231.043,2.668,2.668,0,0,0,.274.014l7.256-.012a2.135,2.135,0,0,0,.265-.015,1.188,1.188,0,0,0,.2-.044.337.337,0,0,0,.125-.064.07.07,0,0,0,.024-.079l-.77-2.02a.169.169,0,0,0-.082-.075.841.841,0,0,0-.17-.061,1.654,1.654,0,0,0-.229-.041,2.492,2.492,0,0,0-.267-.014m9.474-.016h-.009l-7.093.011a2.1,2.1,0,0,0-.259.015,1.155,1.155,0,0,0-.2.042.335.335,0,0,0-.122.062.066.066,0,0,0-.024.075l.79,2.019a.171.171,0,0,0,.085.079.84.84,0,0,0,.174.062,1.7,1.7,0,0,0,.237.043,2.5,2.5,0,0,0,.277.016l7.255-.012a2.28,2.28,0,0,0,.261-.016,1.088,1.088,0,0,0,.2-.043.3.3,0,0,0,.117-.064.062.062,0,0,0,.018-.078l-.95-2.02a.19.19,0,0,0-.087-.075.876.876,0,0,0-.171-.061,2.07,2.07,0,0,0-.231-.041,2.546,2.546,0,0,0-.267-.014m18.83-.032-7.093.012a1.911,1.911,0,0,0-.255.016.962.962,0,0,0-.193.042.28.28,0,0,0-.112.061.059.059,0,0,0-.011.075l1.148,2.017a.24.24,0,0,0,.1.079,1.009,1.009,0,0,0,.186.064,1.823,1.823,0,0,0,.246.043,2.25,2.25,0,0,0,.278.015l7.255-.012a2.044,2.044,0,0,0,.259-.016,1.039,1.039,0,0,0,.192-.043.267.267,0,0,0,.106-.064.065.065,0,0,0,0-.079l-1.31-2.019a.246.246,0,0,0-.1-.075.86.86,0,0,0-.183-.061,1.873,1.873,0,0,0-.24-.041,2.7,2.7,0,0,0-.273-.014m-9.373.015h0a2.361,2.361,0,0,1,.271.014,1.676,1.676,0,0,1,.239.041.891.891,0,0,1,.181.061.208.208,0,0,1,.1.075l1.13,2.017a.064.064,0,0,1-.01.079.274.274,0,0,1-.113.065,1.029,1.029,0,0,1-.2.044,2.278,2.278,0,0,1-.262.017l-7.256.011a2.731,2.731,0,0,1-.276-.014,2.131,2.131,0,0,1-.239-.043.939.939,0,0,1-.179-.063.19.19,0,0,1-.09-.078l-.972-2.02a.065.065,0,0,1,.018-.076.329.329,0,0,1,.116-.061,1,1,0,0,1,.194-.042,1.911,1.911,0,0,1,.255-.016Zm-107.631-2.392h0a1.94,1.94,0,0,1,.25.015,1.016,1.016,0,0,1,.19.039.279.279,0,0,1,.114.059.056.056,0,0,1,.018.07l-.9,1.925a.193.193,0,0,1-.088.074.89.89,0,0,1-.173.063,2.08,2.08,0,0,1-.233.041,2.4,2.4,0,0,1-.27.016l-7.078.012a1.956,1.956,0,0,1-.254-.016,1.071,1.071,0,0,1-.193-.04.285.285,0,0,1-.113-.062.06.06,0,0,1-.012-.074l1.055-1.925a.208.208,0,0,1,.091-.072.879.879,0,0,1,.175-.059,1.763,1.763,0,0,1,.233-.039,2.256,2.256,0,0,1,.264-.015Zm9.239-.014-6.922.011a2.15,2.15,0,0,0-.264.016,1.971,1.971,0,0,0-.228.038.837.837,0,0,0-.166.059.18.18,0,0,0-.085.071l-.882,1.926a.059.059,0,0,0,.018.073.313.313,0,0,0,.114.062,1.116,1.116,0,0,0,.192.041,2.15,2.15,0,0,0,.252.014h.009l7.077-.011a2.553,2.553,0,0,0,.268-.017,1.7,1.7,0,0,0,.232-.041.835.835,0,0,0,.168-.06.166.166,0,0,0,.082-.075l.73-1.925a.064.064,0,0,0-.025-.072.37.37,0,0,0-.12-.057,1.114,1.114,0,0,0-.2-.038,1.96,1.96,0,0,0-.252-.014m9.243-.016-6.923.012a2.564,2.564,0,0,0-.263.014,1.675,1.675,0,0,0-.224.04.713.713,0,0,0-.164.059.151.151,0,0,0-.079.072l-.711,1.923a.065.065,0,0,0,.026.075.357.357,0,0,0,.123.061,1.174,1.174,0,0,0,.2.04,2.086,2.086,0,0,0,.258.014l7.077-.011a2.649,2.649,0,0,0,.267-.015,1.91,1.91,0,0,0,.226-.041.713.713,0,0,0,.162-.062.148.148,0,0,0,.074-.074l.558-1.925a.067.067,0,0,0-.031-.07.4.4,0,0,0-.124-.059,1.205,1.205,0,0,0-.2-.039,2.21,2.21,0,0,0-.253-.014m9.238-.015-6.923.012a2.217,2.217,0,0,0-.261.015,1.585,1.585,0,0,0-.219.039.766.766,0,0,0-.157.058.136.136,0,0,0-.072.072l-.539,1.925a.071.071,0,0,0,.032.074.4.4,0,0,0,.127.06,1.273,1.273,0,0,0,.2.04,1.862,1.862,0,0,0,.258.014l7.077-.011a2.313,2.313,0,0,0,.267-.016,1.573,1.573,0,0,0,.224-.042.68.68,0,0,0,.157-.06.131.131,0,0,0,.069-.075l.384-1.925c.006-.024-.008-.048-.037-.07a.448.448,0,0,0-.131-.058,1.256,1.256,0,0,0-.2-.04,2.3,2.3,0,0,0-.255-.014m9.243-.015-6.922.011a2.132,2.132,0,0,0-.26.015,1.591,1.591,0,0,0-.218.04.649.649,0,0,0-.154.059.121.121,0,0,0-.066.071l-.366,1.924c-.006.026.009.052.04.075a.4.4,0,0,0,.133.06,1.351,1.351,0,0,0,.208.041,2.325,2.325,0,0,0,.26.014l7.076-.012a2.177,2.177,0,0,0,.264-.015,1.566,1.566,0,0,0,.218-.041.573.573,0,0,0,.151-.062.106.106,0,0,0,.061-.074l.214-1.924a.084.084,0,0,0-.044-.072.437.437,0,0,0-.135-.058,1.238,1.238,0,0,0-.2-.038,2.052,2.052,0,0,0-.256-.014m9.239-.014-6.923.011a2.131,2.131,0,0,0-.258.014,1.583,1.583,0,0,0-.214.04.663.663,0,0,0-.146.058c-.036.023-.057.048-.06.073l-.194,1.921a.086.086,0,0,0,.044.075.507.507,0,0,0,.139.061,1.211,1.211,0,0,0,.209.041,2.156,2.156,0,0,0,.261.015l7.076-.012a2.052,2.052,0,0,0,.265-.016,1.36,1.36,0,0,0,.216-.041.539.539,0,0,0,.146-.062c.035-.023.055-.048.055-.074l.041-1.924c0-.025-.018-.049-.051-.071a.522.522,0,0,0-.141-.058,1.529,1.529,0,0,0-.21-.039,2.075,2.075,0,0,0-.257-.013m9.241-.017-6.922.012a2.14,2.14,0,0,0-.258.015,1.367,1.367,0,0,0-.21.039.522.522,0,0,0-.145.058.1.1,0,0,0-.053.072l-.022,1.923a.094.094,0,0,0,.052.074.461.461,0,0,0,.142.061,1.326,1.326,0,0,0,.212.041,2.069,2.069,0,0,0,.26.014h.009l7.076-.01a2.14,2.14,0,0,0,.261-.016,1.326,1.326,0,0,0,.212-.042.461.461,0,0,0,.139-.062.088.088,0,0,0,.048-.074l-.131-1.924c0-.025-.022-.048-.056-.07a.557.557,0,0,0-.145-.058,1.41,1.41,0,0,0-.21-.039,2.234,2.234,0,0,0-.259-.014m9.237-.014-6.921.011a1.989,1.989,0,0,0-.256.016,1.258,1.258,0,0,0-.206.038.492.492,0,0,0-.136.058c-.032.022-.049.046-.046.072l.151,1.923a.1.1,0,0,0,.058.074.547.547,0,0,0,.148.061,1.452,1.452,0,0,0,.217.04,2.006,2.006,0,0,0,.263.014l7.076-.011a2.349,2.349,0,0,0,.261-.016,1.284,1.284,0,0,0,.209-.041.452.452,0,0,0,.136-.06c.031-.025.046-.05.042-.075l-.3-1.923a.119.119,0,0,0-.064-.071.61.61,0,0,0-.151-.057,1.5,1.5,0,0,0-.217-.039,2.183,2.183,0,0,0-.26-.014m9.242-.014-6.921.011a1.968,1.968,0,0,0-.255.014,1.442,1.442,0,0,0-.2.04.441.441,0,0,0-.132.057c-.03.023-.045.046-.042.072l.323,1.924a.127.127,0,0,0,.065.074.615.615,0,0,0,.155.06,1.494,1.494,0,0,0,.222.041,2.3,2.3,0,0,0,.267.016l7.075-.013a1.913,1.913,0,0,0,.259-.016,1.112,1.112,0,0,0,.2-.041.368.368,0,0,0,.129-.061.072.072,0,0,0,.035-.074l-.476-1.922a.129.129,0,0,0-.07-.072.736.736,0,0,0-.154-.057,1.531,1.531,0,0,0-.219-.039,2.132,2.132,0,0,0-.26-.013m9.237-.018-6.922.012a2.238,2.238,0,0,0-.252.014,1.191,1.191,0,0,0-.2.041.4.4,0,0,0-.127.059.072.072,0,0,0-.033.072l.494,1.922a.139.139,0,0,0,.071.074.649.649,0,0,0,.16.06,1.555,1.555,0,0,0,.224.041,2.183,2.183,0,0,0,.266.014l7.076-.011a1.826,1.826,0,0,0,.258-.017,1.076,1.076,0,0,0,.2-.041.36.36,0,0,0,.125-.059.069.069,0,0,0,.028-.075l-.647-1.922a.147.147,0,0,0-.077-.072.725.725,0,0,0-.162-.057,1.68,1.68,0,0,0-.223-.04,2.61,2.61,0,0,0-.262-.014m9.241-.014-6.922.011a2.177,2.177,0,0,0-.251.014,1.2,1.2,0,0,0-.2.041.338.338,0,0,0-.122.058.063.063,0,0,0-.028.072l.665,1.92a.155.155,0,0,0,.078.075.794.794,0,0,0,.168.059,1.531,1.531,0,0,0,.229.041,2.113,2.113,0,0,0,.268.015l7.076-.012a2.2,2.2,0,0,0,.255-.014,1.076,1.076,0,0,0,.2-.042.325.325,0,0,0,.118-.061.064.064,0,0,0,.022-.075l-.819-1.922a.181.181,0,0,0-.083-.07.755.755,0,0,0-.165-.059,1.859,1.859,0,0,0-.226-.04,2.474,2.474,0,0,0-.263-.013M216.5,367.1l-11.616.02a2.159,2.159,0,0,0-.249.014,1.148,1.148,0,0,0-.189.04.285.285,0,0,0-.111.059.058.058,0,0,0-.014.072l1.006,1.921a.2.2,0,0,0,.092.074.8.8,0,0,0,.175.059,1.726,1.726,0,0,0,.235.042c.086.008.177.014.271.014l11.875-.02a1.909,1.909,0,0,0,.252-.016.948.948,0,0,0,.187-.042.242.242,0,0,0,.1-.06.055.055,0,0,0,0-.074l-1.246-1.921a.231.231,0,0,0-.1-.071.924.924,0,0,0-.18-.059,1.871,1.871,0,0,0-.234-.038,2.649,2.649,0,0,0-.267-.014m-13.719.023h0a2.532,2.532,0,0,1,.265.013,1.864,1.864,0,0,1,.231.04.812.812,0,0,1,.172.057.194.194,0,0,1,.089.072l.991,1.921a.059.059,0,0,1-.015.074.291.291,0,0,1-.115.062,1.065,1.065,0,0,1-.194.042,2.312,2.312,0,0,1-.255.015l-7.075.011a2.369,2.369,0,0,1-.269-.014,1.842,1.842,0,0,1-.233-.041.8.8,0,0,1-.17-.06.178.178,0,0,1-.085-.074l-.838-1.923a.059.059,0,0,1,.021-.072.317.317,0,0,1,.116-.057.983.983,0,0,1,.193-.04,2.069,2.069,0,0,1,.25-.014ZM93.17,365.743l-7.523.012a2.266,2.266,0,0,0-.262.015,1.808,1.808,0,0,0-.233.039.869.869,0,0,0-.177.057.217.217,0,0,0-.1.07l-.625.978a.054.054,0,0,0,.006.069.252.252,0,0,0,.1.059,1.025,1.025,0,0,0,.181.039,2.032,2.032,0,0,0,.245.013h.009l7.625-.012a2.5,2.5,0,0,0,.265-.015,2.093,2.093,0,0,0,.23-.04.871.871,0,0,0,.173-.058.2.2,0,0,0,.09-.072l.54-.979a.053.053,0,0,0-.012-.068.264.264,0,0,0-.108-.056.849.849,0,0,0-.184-.038,1.86,1.86,0,0,0-.245-.014m29.255-.05-7.527.013a2.388,2.388,0,0,0-.258.014,1.852,1.852,0,0,0-.219.039.8.8,0,0,0-.159.057.146.146,0,0,0-.076.069l-.347.978c-.01.025,0,.048.026.071a.349.349,0,0,0,.121.058,1.218,1.218,0,0,0,.2.038,2.146,2.146,0,0,0,.251.014l7.622-.013a2.41,2.41,0,0,0,.26-.014,1.5,1.5,0,0,0,.22-.04.638.638,0,0,0,.158-.058.133.133,0,0,0,.069-.072l.262-.978a.065.065,0,0,0-.032-.069.391.391,0,0,0-.123-.056,1.267,1.267,0,0,0-.2-.038,2.116,2.116,0,0,0-.248-.014m9.746-.014-7.522.011c-.089,0-.176.007-.255.015a1.74,1.74,0,0,0-.216.038.677.677,0,0,0-.154.057.133.133,0,0,0-.068.069l-.253.978a.07.07,0,0,0,.033.072.4.4,0,0,0,.128.056,1.173,1.173,0,0,0,.2.038,2.023,2.023,0,0,0,.253.015l7.62-.013a2.151,2.151,0,0,0,.259-.014,1.72,1.72,0,0,0,.216-.038.606.606,0,0,0,.15-.059.116.116,0,0,0,.064-.07l.17-.979c0-.024-.01-.047-.04-.068a.409.409,0,0,0-.13-.056,1.193,1.193,0,0,0-.2-.038,2.262,2.262,0,0,0-.251-.013m9.751-.016-7.522.013a2.305,2.305,0,0,0-.255.013,1.525,1.525,0,0,0-.211.038.574.574,0,0,0-.148.057c-.036.021-.059.044-.062.069l-.161.979c0,.025.011.049.041.07a.456.456,0,0,0,.132.057,1.39,1.39,0,0,0,.2.038,2.22,2.22,0,0,0,.255.013l7.621-.012a2.05,2.05,0,0,0,.257-.016,1.477,1.477,0,0,0,.211-.037.56.56,0,0,0,.145-.058c.035-.022.055-.047.057-.071l.076-.979a.082.082,0,0,0-.045-.069.52.52,0,0,0-.136-.057,1.438,1.438,0,0,0-.205-.036,1.916,1.916,0,0,0-.252-.014Zm9.751-.016-7.521.012c-.09,0-.177.006-.255.014a1.805,1.805,0,0,0-.208.037.569.569,0,0,0-.142.058c-.035.021-.054.044-.056.069l-.067.979c0,.025.016.048.047.07a.475.475,0,0,0,.139.057,1.438,1.438,0,0,0,.207.039,2.346,2.346,0,0,0,.255.014l7.621-.012c.09,0,.177-.006.255-.014a1.646,1.646,0,0,0,.208-.04.5.5,0,0,0,.139-.059.093.093,0,0,0,.051-.07l-.019-.977c0-.026-.019-.049-.052-.07a.548.548,0,0,0-.142-.055,1.4,1.4,0,0,0-.208-.038,2.245,2.245,0,0,0-.253-.013m9.75-.017-7.521.013a2.079,2.079,0,0,0-.254.014,1.491,1.491,0,0,0-.207.039.477.477,0,0,0-.138.057c-.033.021-.051.044-.05.068l.031.977a.1.1,0,0,0,.054.072.516.516,0,0,0,.142.058,1.57,1.57,0,0,0,.209.039,2.076,2.076,0,0,0,.257.013l7.624-.012a1.97,1.97,0,0,0,.256-.016,1.315,1.315,0,0,0,.2-.04.458.458,0,0,0,.133-.057c.031-.023.046-.046.045-.072l-.113-.977c0-.024-.023-.047-.059-.068a.549.549,0,0,0-.147-.056,1.271,1.271,0,0,0-.212-.039,2.187,2.187,0,0,0-.255-.013m9.749-.016-7.521.012a2.449,2.449,0,0,0-.251.016,1.2,1.2,0,0,0-.2.037.5.5,0,0,0-.134.057c-.03.021-.046.044-.042.068l.126.978c0,.026.023.049.06.071a.553.553,0,0,0,.148.057,1.409,1.409,0,0,0,.214.039,2.4,2.4,0,0,0,.258.014l7.625-.013a2.3,2.3,0,0,0,.252-.014,1.263,1.263,0,0,0,.2-.04.378.378,0,0,0,.128-.057c.029-.022.042-.046.036-.07l-.21-.979c0-.024-.028-.047-.065-.069a.664.664,0,0,0-.151-.056,1.851,1.851,0,0,0-.214-.037c-.079-.008-.165-.013-.256-.013m9.751-.016-7.522.012a2.219,2.219,0,0,0-.25.015,1.213,1.213,0,0,0-.2.038.38.38,0,0,0-.128.056.07.07,0,0,0-.036.07l.219.978a.126.126,0,0,0,.067.07.623.623,0,0,0,.153.057,1.52,1.52,0,0,0,.217.038,2.3,2.3,0,0,0,.259.013l7.619-.012a2.17,2.17,0,0,0,.253-.014,1.163,1.163,0,0,0,.2-.041.351.351,0,0,0,.125-.057.062.062,0,0,0,.03-.071l-.3-.977a.139.139,0,0,0-.073-.069.674.674,0,0,0-.156-.056,1.565,1.565,0,0,0-.218-.038,2.414,2.414,0,0,0-.256-.013m9.749-.018-7.527.013a2.106,2.106,0,0,0-.248.014,1.065,1.065,0,0,0-.193.038.38.38,0,0,0-.123.057.066.066,0,0,0-.029.07l.313.976a.138.138,0,0,0,.074.071.664.664,0,0,0,.158.058,1.533,1.533,0,0,0,.222.038,2.4,2.4,0,0,0,.26.014l7.619-.013a2.141,2.141,0,0,0,.251-.014,1.178,1.178,0,0,0,.2-.04.336.336,0,0,0,.119-.059c.024-.022.034-.045.023-.07l-.4-.976a.15.15,0,0,0-.078-.07.77.77,0,0,0-.161-.055,1.416,1.416,0,0,0-.222-.038,2.382,2.382,0,0,0-.259-.014Z" transform="translate(-54.539 -263.74)" fill="#fff" fill-rule="evenodd"/>
            <path id="Path_957878" data-name="Path 957878" d="M239.9,23.56l0,2.288-133.93.2,0-2.287a4.7,4.7,0,0,1,5-4.858l123.909-.184c3.334,0,5.012,1.668,5.018,4.843" transform="translate(-76.455 -13.504)" fill="#bcdbf3" fill-rule="evenodd"/>
            <path id="Path_957879" data-name="Path 957879" d="M523.233,28.06a1.35,1.35,0,1,1-1.352-1.348,1.349,1.349,0,0,1,1.352,1.348m9.7-.014a1.35,1.35,0,1,1-1.353-1.348,1.35,1.35,0,0,1,1.353,1.348m-4.849.007a1.35,1.35,0,1,1-1.352-1.347,1.35,1.35,0,0,1,1.352,1.347" transform="translate(-375.57 -19.262)" fill="#fff" fill-rule="evenodd"/>
            <rect id="Rectangle_416194" data-name="Rectangle 416194" width="96.135" height="64.696" transform="translate(48.805 28.227)" fill="#a4ccec"/>
            <path id="Path_957880" data-name="Path 957880" d="M448.549,197.783h-1.1a.55.55,0,1,1,0-1.1h1.1a.55.55,0,1,1,0,1.1m-6.61,0h-1.1a.55.55,0,0,1,0-1.1h1.1a.55.55,0,1,1,0,1.1m-6.61,0h-1.1a.55.55,0,0,1,0-1.1h1.1a.55.55,0,0,1,0,1.1m-6.611,0h-1.1a.551.551,0,0,1-.55-.55v-1.1a.55.55,0,1,1,1.1,0v.548h.552a.55.55,0,0,1,0,1.1m23.963-1.378a.551.551,0,0,1-.551-.55v-1.1a.55.55,0,0,1,1.1,0v1.1a.551.551,0,0,1-.55.55m-25.066-5.231a.551.551,0,0,1-.55-.55v-1.1a.55.55,0,0,1,1.1,0v1.1a.551.551,0,0,1-.551.55m25.066-1.38a.551.551,0,0,1-.551-.551v-1.1a.55.55,0,1,1,1.1,0v1.1a.551.551,0,0,1-.55.551m-25.066-5.231a.551.551,0,0,1-.55-.55v-1.1a.55.55,0,1,1,1.1,0v1.1a.551.551,0,0,1-.551.55m25.066-1.38a.551.551,0,0,1-.551-.551v-1.1a.55.55,0,0,1,1.1,0v1.1a.551.551,0,0,1-.55.551m-25.066-5.233a.551.551,0,0,1-.55-.551v-1.1a.55.55,0,1,1,1.1,0v1.1a.551.551,0,0,1-.551.551m25.066-1.38a.551.551,0,0,1-.551-.55v-1.1a.55.55,0,0,1,1.1,0v1.1a.551.551,0,0,1-.55.55m-2.756-3.855h-1.1a.55.55,0,1,1,0-1.1h1.1a.55.55,0,1,1,0,1.1m-6.611,0h-1.1a.55.55,0,1,1,0-1.1h1.1a.55.55,0,1,1,0,1.1m-6.61,0h-1.1a.55.55,0,0,1,0-1.1h1.1a.55.55,0,0,1,0,1.1m-6.613,0h-1.1a.55.55,0,0,1,0-1.1h1.1a.55.55,0,0,1,0,1.1" transform="translate(-308.131 -123.822)" fill="#70aadc"/>
            <path id="Path_957881" data-name="Path 957881" d="M445.686,158.689H471.32A1.312,1.312,0,0,1,472.63,160v21.126a1.312,1.312,0,0,1-1.309,1.309H445.686a1.312,1.312,0,0,1-1.308-1.309V160a1.311,1.311,0,0,1,1.308-1.308" transform="translate(-320.623 -114.495)" fill="#c4d2ec" fill-rule="evenodd"/>
            <path id="Path_957882" data-name="Path 957882" d="M474.992,183.267l-3.453-6.372-3.453,6.372-3.452,6.372H481.6l-2.415-4.458-2.416-4.458-1.579,2.915Zm-.845-6.672a1.637,1.637,0,1,1,1.637,1.636,1.637,1.637,0,0,1-1.637-1.636" transform="translate(-335.237 -126.234)" fill="#70aadc" fill-rule="evenodd"/>
            <rect id="Rectangle_416195" data-name="Rectangle 416195" width="96.135" height="14.667" transform="translate(48.805 28.044)" fill="#88bae4"/>
            <path id="Path_957883" data-name="Path 957883" d="M193.171,175.974a5.687,5.687,0,1,0-5.688-5.686,5.7,5.7,0,0,0,5.688,5.686" transform="translate(-135.271 -118.76)" fill="#deecf8" fill-rule="evenodd"/>
            <path id="Path_957884" data-name="Path 957884" d="M193.171,226.209a5.687,5.687,0,1,0-5.688-5.687,5.7,5.7,0,0,0,5.688,5.687" transform="translate(-135.271 -155.005)" fill="#deecf8" fill-rule="evenodd"/>
            <path id="Path_957885" data-name="Path 957885" d="M193.171,276.442a5.687,5.687,0,1,0-5.688-5.686,5.7,5.7,0,0,0,5.688,5.686" transform="translate(-135.271 -191.249)" fill="#deecf8" fill-rule="evenodd"/>
            <path id="Path_957886" data-name="Path 957886" d="M267.531,176.315h31.805a2.431,2.431,0,0,1,2.425,2.425h0a2.432,2.432,0,0,1-2.425,2.425H267.531a2.432,2.432,0,0,1-2.425-2.425h0a2.431,2.431,0,0,1,2.425-2.425" transform="translate(-191.276 -127.213)" fill="#deecf8" fill-rule="evenodd"/>
            <path id="Path_957887" data-name="Path 957887" d="M267.531,226.549h31.805a2.431,2.431,0,0,1,2.425,2.425h0a2.431,2.431,0,0,1-2.425,2.425H267.531a2.431,2.431,0,0,1-2.425-2.425h0a2.431,2.431,0,0,1,2.425-2.425" transform="translate(-191.276 -163.457)" fill="#deecf8" fill-rule="evenodd"/>
            <path id="Path_957888" data-name="Path 957888" d="M267.531,276.783h31.805a2.432,2.432,0,0,1,2.425,2.425h0a2.432,2.432,0,0,1-2.425,2.425H267.531a2.432,2.432,0,0,1-2.425-2.425h0a2.431,2.431,0,0,1,2.425-2.425" transform="translate(-191.276 -199.701)" fill="#deecf8" fill-rule="evenodd"/>
            <path id="Path_957889" data-name="Path 957889" d="M405.833,98.433a1.826,1.826,0,0,0,1.826,1.827h40.9a1.827,1.827,0,0,0,1.826-1.827V92.92a1.827,1.827,0,0,0-1.826-1.827h-40.9a1.827,1.827,0,0,0-1.827,1.827Z" transform="translate(-292.811 -65.724)" fill="#a4ccec" fill-rule="evenodd"/>
            <path id="Path_957890" data-name="Path 957890" d="M542.056,98.433a1.827,1.827,0,0,1-1.826,1.827h-5.517a1.826,1.826,0,0,1-1.824-1.827V92.92a1.826,1.826,0,0,1,1.824-1.827h5.517a1.827,1.827,0,0,1,1.826,1.827Z" transform="translate(-384.484 -65.724)" fill="#5e9bd3" fill-rule="evenodd"/>
            <path id="Path_957891" data-name="Path 957891" d="M540.69,97.982a1.6,1.6,0,0,1,.566,1.6,1.571,1.571,0,0,1-.311.656,1.6,1.6,0,1,1-.255-2.252m-2.766-.151a2.259,2.259,0,0,0,3,3.3l1.99,1.584a.706.706,0,0,0,.521.146.689.689,0,0,0,.475-.261.71.71,0,0,0-.112-1l-1.99-1.584a2.258,2.258,0,0,0-3.886-2.187" transform="translate(-387.761 -69.97)" fill="#f1f2f3" fill-rule="evenodd"/>
            <path id="Path_957892" data-name="Path 957892" d="M414.6,105.718a1.511,1.511,0,0,0,.984.428c.429,0,.659-.191.659-.486,0-.312-.243-.41-.584-.556l-.521-.225a1.09,1.09,0,0,1-.763-1.006,1.151,1.151,0,0,1,1.272-1.066,1.675,1.675,0,0,1,1.163.481l-.343.426a1.235,1.235,0,0,0-.82-.324c-.358,0-.6.168-.6.446,0,.294.289.405.6.532l.514.214a1.057,1.057,0,0,1,.763,1.023,1.2,1.2,0,0,1-1.358,1.122,1.951,1.951,0,0,1-1.364-.555Zm20.395.109a.452.452,0,1,1-.433.451.429.429,0,0,1,.433-.451m-1.589,0a.452.452,0,1,1-.434.451.435.435,0,0,1,.434-.451m-1.59,0a.452.452,0,1,1-.434.451.43.43,0,0,1,.434-.451m-3.6-3.249h.666v1.052l-.023.549a1.3,1.3,0,0,1,.907-.427c.608,0,.874.411.874,1.128v1.78h-.664v-1.694c0-.468-.133-.641-.446-.641a.9.9,0,0,0-.648.353v1.983h-.666Zm-1.433,1.174a1.168,1.168,0,0,1,.833.33l-.319.422a.7.7,0,0,0-.478-.209c-.458,0-.777.376-.777.949s.312.942.758.942a.929.929,0,0,0,.583-.243l.28.422a1.43,1.43,0,0,1-.932.365,1.351,1.351,0,0,1-1.369-1.486,1.4,1.4,0,0,1,1.421-1.492m-3.335.07H424l.046.5h.024a.964.964,0,0,1,.8-.573.719.719,0,0,1,.324.058l-.116.578a.927.927,0,0,0-.3-.046c-.225,0-.5.155-.67.584v1.734h-.664Zm-2.094,2.388a.886.886,0,0,0,.619-.312v-.636c-.769.1-1.023.3-1.023.584,0,.255.168.363.4.363m.619-1.364c-.005-.3-.133-.555-.514-.555a1.577,1.577,0,0,0-.8.278l-.241-.445a2.2,2.2,0,0,1,1.161-.37c.712,0,1.058.434,1.058,1.227v1.682h-.543l-.052-.313h-.017a1.383,1.383,0,0,1-.88.382.8.8,0,0,1-.844-.833c0-.607.51-.924,1.671-1.052m-2.694.145c0-.452-.191-.723-.579-.723-.335,0-.625.248-.682.723Zm-.6-1.238c.769,0,1.174.556,1.174,1.347a1.3,1.3,0,0,1-.03.312h-1.8a.814.814,0,0,0,.836.8,1.186,1.186,0,0,0,.661-.209l.224.418a1.8,1.8,0,0,1-.972.306,1.5,1.5,0,0,1-.091-2.978" transform="translate(-298.856 -74.011)" fill="#fff" fill-rule="evenodd"/>
          </g>
        </g>
      </g>
      <g id="Group_1122683" data-name="Group 1122683" transform="translate(25.442 36.599)">
        <g id="Group_1122682" data-name="Group 1122682" clip-path="url(#clip-path-2)">
          <path id="Path_957893" data-name="Path 957893" d="M81.084,392.516c-.3-1.057-1.171-2.248-1.7-3.943-4.1-13.2-13.456-42.96-13.456-42.96s-6.7-23.941-12.26-38.418a48.848,48.848,0,0,1-8.178,2.4c-6.046,1.2-10.68.556-16.974.366,1.871,13.174,5.261,37.376,5.261,37.376s1.847,4.586-3.56,7.344c-4.745,2.42-17.008,31.107-19.8,35.867,1.042,1.089,2.85,1.768,3.96,2.8,3.953-8.981,30.906-38.751,30.906-38.751L44.016,325.07s14.922,29.393,13.761,32.878,18.492,34.914,19.193,36.667c.086.216,2.463-1.305,4.115-2.1" transform="translate(-5.854 -155.211)" fill="#f9af79" fill-rule="evenodd"/>
          <path id="Path_957894" data-name="Path 957894" d="M79.673,314.495S95.147,347.513,95,349.991s.478,6.167,4.542,14.2,12.05,21.618,12.05,21.618l7.066-3.292-13.206-41.55L93,302.544l-.254-.817-12.64-3.184Z" transform="translate(-44.77 -150.839)" fill="#3155a5" fill-rule="evenodd"/>
          <path id="Path_957895" data-name="Path 957895" d="M15.017,378.815l5.572,4.7S44.251,359,48.145,351.178c1.5-3,.645-33.212.645-33.212l3.41-13.61-2.111-5.512-18.925.216S28.343,309.278,28.4,312.8c.129,8.779,7.908,33.984,7.908,33.984s-.141-1.058-4.808,3.253-16.481,28.778-16.481,28.778" transform="translate(-8.438 -150.992)" fill="#4361ac" fill-rule="evenodd"/>
          <path id="Path_957896" data-name="Path 957896" d="M10.67,470.33s-2.4-.411-2.929-1.073c-.532-.678-.789-2.9-1.737-2.956S.874,470.568.389,471.567a3.357,3.357,0,0,0,.082,3.311c.54.672,12.417,10.706,14.479,11.7s2.279-3.63.32-5.444-2.734-7.336-4.6-10.8" transform="translate(0 -235.6)" fill="#8f006f" fill-rule="evenodd"/>
          <path id="Path_957897" data-name="Path 957897" d="M162.011,471.937s-1.506,2.14-2.278,2.339c-.777.183-2.62-.66-3.133.24s.76,7.152,1.282,8.111a2.593,2.593,0,0,0,2.587,1.559c.793-.192,14.384-6.9,16.165-8.424s-1.672-4.038-4.033-3.012-7-.945-10.591-.812" transform="translate(-87.929 -238.445)" fill="#8f006f" fill-rule="evenodd"/>
          <path id="Path_957898" data-name="Path 957898" d="M72.807,196.566c-5.277,15.833-7.787,24.9-15.035,32.51q-3.888-1.364-6.877-6.063.049,9.678-.307,19.295-6.178,6.35-21.9,9.349l-3.074-4.33c-.906-.206-2.972.911-3.969,2.63-8.23-7.184-13.762-14.882-17.009-22.512q1.465-24.509,6.109-38.652,2.33-3.99,10.888-7.805,14.093,6.937,13.96.522a80.53,80.53,0,0,1,11,5.528q5.7,4.954,9.612,26.706c3.95-6.991,8.094-13.826,13.289-19.882a6.986,6.986,0,0,1,3.314,2.7M23.74,242.881q4.193-15.238-4.335-37.7-2.238,11.041-4.824,21.729,2.929,1.6,9.159,15.975" transform="translate(-2.607 -91.444)" fill="#c2a4ff" fill-rule="evenodd"/>
          <path id="Path_957899" data-name="Path 957899" d="M107.73,241.456a172.138,172.138,0,0,0-1.944-23.967q4.078,19.871,7.966,26.391c1.654-.046,3.541-1.234,6.088-3.371a35.289,35.289,0,0,1-5.233,7.009q-3.888-1.364-6.877-6.063" transform="translate(-59.443 -109.887)" fill="#a88cea" fill-rule="evenodd"/>
          <path id="Path_957900" data-name="Path 957900" d="M44.558,272.029a41.538,41.538,0,0,0-1.878-4.446q4.193-15.238-4.335-37.7,12.471,20.289,6.9,43.118Z" transform="translate(-21.547 -116.147)" fill="#a88cea" fill-rule="evenodd"/>
          <path id="Path_957901" data-name="Path 957901" d="M63.1,210.264a76.212,76.212,0,0,0-21.617,2.972,62.9,62.9,0,0,0-3.65-6.822q20.046-4.215,29.118-1.7Zm-16.912,20.1c1.064-.216,2.179-.4,3.352-.569l-.248.356-2.856,4.114q-.052-1.961-.248-3.9m12.038,7.6,4.825-6.948a26.126,26.126,0,0,1,6.25.677q-.034,3.252-.118,6.5a48.607,48.607,0,0,0-10.957-.226m-2.8-16.656,4.482-6.454a74.568,74.568,0,0,0-16.554,2.987,53.769,53.769,0,0,1,2.088,7.545q4.381-.887,8.113-1.384Zm5.024-33.183q-8.962-1.686-20.332.788a23.857,23.857,0,0,1,3.467-5.075q9.851,4.16,10.4-.405a31.386,31.386,0,0,1,6.461,4.692m-22.267,5.742a38.343,38.343,0,0,0-.724,8.053c14.457-2.972,22.156-3.7,30.007-1.1a34.188,34.188,0,0,0-2.992-7.967c-8.2-1.8-17.146-1.026-26.29,1.011" transform="translate(-21.035 -92.683)" fill="#a88cea" fill-rule="evenodd"/>
          <path id="Path_957902" data-name="Path 957902" d="M51.287,187.211a31.515,31.515,0,0,1-7.448-9.17,8.246,8.246,0,0,1,1.864-3.477c3.9,3.319,6.337,5.128,8.563,6.09.014.006.026.013.039.017.011-.109.022-.22.035-.329a64.551,64.551,0,0,0,.665-7.18,7.289,7.289,0,0,1,2.271,2.77,23.951,23.951,0,0,1,2.221,9.084,25.909,25.909,0,0,0-2.272-2.3,13.947,13.947,0,0,0-2.92-2.044,15.8,15.8,0,0,0-1.78,3.106,28.092,28.092,0,0,0-1.238,3.433" transform="translate(-24.634 -87.491)" fill="#a88cea" fill-rule="evenodd"/>
          <path id="Path_957903" data-name="Path 957903" d="M43.3,153.348a10.278,10.278,0,0,0,.891-3.146c-.28-.609-.591-1.392-.932-2.34q-6.106-3.392-2.312-6.085.883.388,2.423,2.864c.642-.132-.236-1.913.006-2.681-1.14-2.88-.623-3.906-1.089-5.742,1.45-3.366,5.9-5.012,11.678-5.083,1.321,5.778,4.916,19.324-1.43,20.028l.065.783a64.168,64.168,0,0,1-.664,7.177l-.074.315c-2.226-.963-4.665-2.772-8.564-6.09" transform="translate(-22.19 -66.256)" fill="#f9af79" fill-rule="evenodd"/>
          <path id="Path_957904" data-name="Path 957904" d="M48.95,123.857c-5.774.071-10,1.188-11.453,4.554.466,1.835.169,3.063,1.311,5.942-.244.769.413,2.35-.229,2.482q-1.544-2.476-2.423-2.864-3.8,2.693,2.312,6.085c.341.949.652,1.732.932,2.341-7.023-3.077-11.312-12.867-6.166-18.774-.043-8.76,11.957-2.915,16.981-7.938,2.628,3.086.442,7.824-1.264,8.172" transform="translate(-17.401 -58.45)" fill="#263c84" fill-rule="evenodd"/>
          <path id="Path_957905" data-name="Path 957905" d="M59.339,171.8a16.212,16.212,0,0,0,4.348-.186l.065.783c0,.476-.013.956-.04,1.436a.318.318,0,0,1-.039-.007,8.158,8.158,0,0,1-4.334-2.025" transform="translate(-33.344 -86.71)" fill="#ed7d57" fill-rule="evenodd"/>
          <path id="Path_957906" data-name="Path 957906" d="M31.663,135.565a1.941,1.941,0,0,0-.2-2.278,3.008,3.008,0,0,0-2.96,1.6q.869-.424,3.163.677" transform="translate(-16.015 -67.341)" fill="#263c84" fill-rule="evenodd"/>
          <path id="Path_957907" data-name="Path 957907" d="M35.643,129.26q-.646,1.145-1.385.706a4.4,4.4,0,0,1,0-3.391,5.249,5.249,0,0,0,1.381,2.684" transform="translate(-19.06 -63.953)" fill="#263c84" fill-rule="evenodd"/>
          <path id="Path_957908" data-name="Path 957908" d="M62.742,129q-.332-2.786,1.436-3.673a5.814,5.814,0,0,1,4.163,4.485q-1.247-1.24-5.6-.813" transform="translate(-35.226 -63.324)" fill="#263c84" fill-rule="evenodd"/>
          <path id="Path_957909" data-name="Path 957909" d="M52.074,119.866c.362.739.185,1.828,1.2,1.886,1.139,3.27,2.85-1.738,2.621-2.993q-.553.649-3.825,1.107" transform="translate(-29.261 -60.003)" fill="#263c84" fill-rule="evenodd"/>
          <path id="Path_957910" data-name="Path 957910" d="M213.184,8.506c-15.36-13.6-37.571-10.566-49.616,6.779-10.87,15.653-9.739,37.612,1.876,51.744l-.168.24a2.475,2.475,0,0,0,.343,3.182l5.637,5a1.864,1.864,0,0,0,2.819-.385l.167-.242c14.92,9.368,34.073,5.374,44.943-10.281,12.044-17.344,9.358-42.43-6-56.032m-3.045,4.385c13.214,11.7,15.526,33.287,5.164,48.209s-29.474,17.533-42.688,5.832-15.527-33.288-5.165-48.212,29.475-17.533,42.689-5.83" transform="translate(-87.679 0)" fill="#2570b7" fill-rule="evenodd"/>
          <path id="Path_957965" data-name="Path 957965" d="M.607,1.485,20.083.352l-.45,7.518L.157,9Z" transform="matrix(0.617, -0.787, 0.787, 0.617, 65.268, 86.039)" fill="#5e9bd3"/>
          <path id="Path_957911" data-name="Path 957911" d="M88.816,164.133l-5.638-4.992a1.861,1.861,0,0,0-2.817.384L70.213,174.14l-.016.021L48.28,205.726l0,0-6.07,8.742-21.92,31.569a2.476,2.476,0,0,0,.341,3.183l5.637,4.992a1.859,1.859,0,0,0,2.817-.384l10.151-14.616.013-.019,21.92-31.569,6.07-8.743v0l21.919-31.567a2.476,2.476,0,0,0-.341-3.183" transform="translate(-11.159 -80.164)" fill="#2570b7" fill-rule="evenodd"/>
          <path id="Path_957912" data-name="Path 957912" d="M173.778,24.412c-10.363,14.924-8.05,36.508,5.165,48.212s32.324,9.09,42.688-5.832,8.05-36.508-5.164-48.209-32.327-9.091-42.689,5.83" transform="translate(-94.007 -5.691)" fill="#eef8fd" fill-rule="evenodd"/>
          <path id="Path_957913" data-name="Path 957913" d="M201.5,80.353l29.318-48.2q-.555-1.418-1.21-2.757L198.785,80.062a26.762,26.762,0,0,0,2.71.291m-14.813-5.334a32.781,32.781,0,0,1-9.954-11.677l31.146-51.2a28.8,28.8,0,0,1,13.221,6.3Zm9.837,4.584a28.018,28.018,0,0,1-5.191-1.848l33.7-55.393a33.67,33.67,0,0,1,3.386,4.811Z" transform="translate(-99.306 -6.137)" fill="#fff" fill-rule="evenodd"/>
          <path id="Path_957914" data-name="Path 957914" d="M43.905,318.074h0a18.935,18.935,0,0,0-3.219-5.128c.258-2.035,1.712-4.035,2.608-4.282l3.422,1.9a27.321,27.321,0,0,1,7.182,1.5q-1.923,1.777-3.621,1.155,2.2,1.8,2.3,2.49-3.014,6.6-5.19,6.33-2.937-2.236-3.482-3.971" transform="translate(-22.861 -155.954)" fill="#f9af79" fill-rule="evenodd"/>
          <path id="Path_957915" data-name="Path 957915" d="M11.388,282.076a67.269,67.269,0,0,0,14.053,16.636c.739-1.365,2.591-4.646,3.594-4.575-1.021-1.054-.749-.956-1.505-2.5Q23,281.183,20.217,277.485a81.838,81.838,0,0,1-8.829,4.591" transform="translate(-6.399 -140.2)" fill="#c2a4ff" fill-rule="evenodd"/>
          <path id="Path_957916" data-name="Path 957916" d="M156.166,197.935c.178-.492.822-2.453,1.526-4.378,1.726-.987,3.445-4.068,3.226-5.859-.6-2.263-.191-3.431-2.17-4.009-.583.231-1.513,1.685-2.106,3.993.678,1.471-.551,2.67-1.241,3.67-.808,1.466-.258.374-1.189,2.013-.363.846-1.044,1.577-1.225,2.04a6.52,6.52,0,0,1,3.178,2.531" transform="translate(-85.966 -92.81)" fill="#f9af79" fill-rule="evenodd"/>
          <path id="Path_957917" data-name="Path 957917" d="M56.405,143.221a.95.95,0,0,0-.85,1.024.932.932,0,0,0,.908.959.949.949,0,0,0,.847-1.025.93.93,0,0,0-.906-.958" transform="translate(-31.217 -72.363)" fill="#f9af79" fill-rule="evenodd"/>
          <path id="Path_957918" data-name="Path 957918" d="M56.462,145.2a.932.932,0,0,1-.909-.957.953.953,0,0,1,.851-1.027.808.808,0,0,1,.545.188l-.067-.006a.308.308,0,0,0-.275.333.3.3,0,0,0,.295.309.306.306,0,0,0,.275-.331l0-.037a1.077,1.077,0,0,1,.138.5.949.949,0,0,1-.849,1.026" transform="translate(-31.216 -72.361)" fill="#f9af79" fill-rule="evenodd"/>
          <path id="Path_957919" data-name="Path 957919" d="M53.295,140.9c.021.015.038.029.058.045a1.633,1.633,0,0,0-.187-.257.453.453,0,0,1,.11.088.787.787,0,0,1,.1.153.9.9,0,0,0-.043-.171.453.453,0,0,1,.075.183.728.728,0,0,0-.12-.36.584.584,0,0,1,.178.317.433.433,0,0,0,0-.16.324.324,0,0,1,.049.164l.039-.08c0,.047-.014.061-.016.1a.8.8,0,0,0,.169-.495.7.7,0,0,1-.055.2,1.173,1.173,0,0,0-.01-.311,2.366,2.366,0,0,0-.006.244.741.741,0,0,1-.051.221,1.122,1.122,0,0,0-.028-.471v.046a1.458,1.458,0,0,1,.017.255c-.037-.144-.041-.284-.163-.378a1.114,1.114,0,0,1,.089.16c-.068-.06-.106-.182-.2-.182a1.246,1.246,0,0,1,.148.154.356.356,0,0,1,.093.238.548.548,0,0,0-.417-.41c.048.021.2.115.219.178v.012c0,.073-.017-.065,0,.016a.443.443,0,0,1,.1.118.645.645,0,0,1,.047.093.324.324,0,0,1,.018.055.125.125,0,0,1,0,.028l0,.018a.651.651,0,0,0-.254-.349.833.833,0,0,0-.333-.138s.005,0,.006.006l.08.028a.714.714,0,0,1,.47.428c-.011-.009,0,0-.019-.018l-.01-.014a1.208,1.208,0,0,0-.159-.2.9.9,0,0,0-.213-.146,1.012,1.012,0,0,0-.5-.074,1.863,1.863,0,0,1,.342.051.611.611,0,0,1,.3.164.839.839,0,0,1-.12-.044,2.13,2.13,0,0,0-.9-.143,1.725,1.725,0,0,1,.49.108l-.095-.008c.027.01.05.024.08.033s.049.018.077.031a1.033,1.033,0,0,1,.426.314c-.037-.031-.085-.06-.127-.09s-.084-.058-.131-.086a1.964,1.964,0,0,0-.275-.141,2.271,2.271,0,0,0-.592-.148.193.193,0,0,1,.086.044,6.389,6.389,0,0,0-.884-.051c.095.023.244.013.351.032l.1.027a2.662,2.662,0,0,1-.317-.021,3.84,3.84,0,0,0-.988.023,1.665,1.665,0,0,0-.718.233,1.852,1.852,0,0,0-.412.363,1.472,1.472,0,0,0-.095.134c.093-.071.286-.356.5-.442a3.685,3.685,0,0,0-.762.853c.06-.056.138-.167.2-.241s.146-.158.224-.234a2.236,2.236,0,0,1,.548-.413,2.409,2.409,0,0,1-.206.18,8.434,8.434,0,0,0-1.082,1.113c-.039.048-.115.166-.143.195a3.09,3.09,0,0,0,.223-.236,3,3,0,0,1,.8-.645,7.609,7.609,0,0,0-.814.684l.483-.376a2.47,2.47,0,0,1,.568-.331,5.113,5.113,0,0,0-1.051.759c.079-.044.187-.139.27-.195.1-.068.194-.13.3-.189a3.081,3.081,0,0,1,.649-.3,3.3,3.3,0,0,1,.9-.145,2.86,2.86,0,0,0,.287-.011.816.816,0,0,0-.257-.015,3.2,3.2,0,0,0-.526.034c-.071.01-.21.05-.268.048a3.442,3.442,0,0,1,.542-.145.046.046,0,0,1-.024,0,.1.1,0,0,1-.022-.007,1.482,1.482,0,0,1,.434,0c.125.013.382.085.393.085a.681.681,0,0,1-.088-.055l.305.033-.382-.094a2.079,2.079,0,0,1,.251.035,3.568,3.568,0,0,1,.357.058,1.3,1.3,0,0,0,.376.013,1.4,1.4,0,0,0-.214-.05l-.205-.047c-.039-.012-.071-.015-.1-.028a2.641,2.641,0,0,0-.3-.095,1.894,1.894,0,0,0-.872-.055,1.606,1.606,0,0,1,.9.024l.416.123c.038.009.066.022.1.033a3.039,3.039,0,0,0,.309.079l-.009-.023,0-.006v0s0,0,0,0a.553.553,0,0,0,.191.046c-.106-.088-.354-.133-.452-.251a1.247,1.247,0,0,1,.273.127c.029.015.057.024.085.038a1.058,1.058,0,0,0-.333-.275l-.125-.061a.566.566,0,0,1,.306.141,1.889,1.889,0,0,1,.228.216.1.1,0,0,0,.015.014c.015.013.007.007.02.011l-.11-.161c.02.033.159.153.17.2a.83.83,0,0,0-.127-.218l.062.038a1.453,1.453,0,0,0-.492-.34.942.942,0,0,1,.509.3c.051.06.09.139.136.186l-.059-.129.007,0,.075.077a.906.906,0,0,0-.259-.338.218.218,0,0,1,.111.057.8.8,0,0,1,.1.1,1.313,1.313,0,0,1,.16.253.538.538,0,0,0-.053-.16c.028,0,0,0,.031.01a.514.514,0,0,1,.111.13l-.029-.1.074.094a1.5,1.5,0,0,0-.087-.218.365.365,0,0,1,.121.171.3.3,0,0,0-.03-.123l.082.072c.02.027.043.055.062.081a.82.82,0,0,0-.113-.194c.081.043.118.12.184.2a.834.834,0,0,0-.173-.3c.085,0,.165.242.212.287l-.016-.105c.007,0,0,0,.017.014l.064.1-.021-.135a.518.518,0,0,1,.075.127.841.841,0,0,0-.038-.174c.019.008,0,0,.026.015.042.035.062.09.1.125l-.051-.1a.043.043,0,0,1,.02.012Z" transform="translate(-27.231 -70.834)" fill="#f9af79" fill-rule="evenodd"/>
          <path id="Path_957920" data-name="Path 957920" d="M70.029,140.9a.931.931,0,0,1,.906.96.948.948,0,0,1-.848,1.023.929.929,0,0,1-.907-.957.951.951,0,0,1,.849-1.027" transform="translate(-38.873 -71.189)" fill="#f9af79" fill-rule="evenodd"/>
          <path id="Path_957921" data-name="Path 957921" d="M70.086,142.881a.951.951,0,0,0,.849-1.026.933.933,0,0,0-.909-.96.828.828,0,0,0-.533.231l.067-.013a.3.3,0,0,1,.294.312.287.287,0,1,1-.569.022v-.039a1.115,1.115,0,0,0-.109.513.935.935,0,0,0,.91.959" transform="translate(-38.871 -71.188)" fill="#f9af79" fill-rule="evenodd"/>
          <path id="Path_957922" data-name="Path 957922" d="M69.8,138.015l.011.046-.022,0,.024.011.019.085a1.058,1.058,0,0,0-.232-.071,1.877,1.877,0,0,0,.215.114l.029.016.086.392a.366.366,0,0,0-.065,0,.651.651,0,0,1,.068.012l.025.121a1.791,1.791,0,0,0-.218-.017,2.577,2.577,0,0,0-.806.115c-.077.021-.177.06-.251.072a.744.744,0,0,1,.219-.089,2.779,2.779,0,0,1,.463-.118,2.11,2.11,0,0,0,.241-.028,2.93,2.93,0,0,0-.5.011c.014,0,.007,0,.02-.008a.085.085,0,0,0,.018-.013,1.205,1.205,0,0,0-.377.119c-.106.05-.312.189-.323.195a.8.8,0,0,0,.065-.079l-.257.118.31-.2a1.934,1.934,0,0,0-.209.106c-.075.036-.23.11-.3.156a1.076,1.076,0,0,1-.322.122,1.3,1.3,0,0,1,.174-.111l.169-.105a.963.963,0,0,0,.085-.059,2.581,2.581,0,0,1,.239-.173,1.622,1.622,0,0,1,.743-.3,1.382,1.382,0,0,0-.778.281l-.335.237c-.03.02-.052.042-.082.061a2.637,2.637,0,0,1-.254.166l0-.026s0,0,0,0a.009.009,0,0,1,0,0s0,0,0,0a.517.517,0,0,1-.158.1c.073-.115.279-.231.339-.373a1.277,1.277,0,0,0-.21.2c-.021.024-.045.041-.065.061a1.168,1.168,0,0,1,.231-.36l.095-.1c-.085.022-.177.142-.235.226a2.228,2.228,0,0,0-.154.272.1.1,0,0,1-.009.02c-.011.018,0,.009-.015.014l.061-.185a1.508,1.508,0,0,0-.106.242.916.916,0,0,1,.065-.248l-.047.054a1.542,1.542,0,0,1,.357-.47.947.947,0,0,0-.38.435c-.032.072-.048.159-.079.221l.024-.143s0,0,0,.007l-.049.1a1.013,1.013,0,0,1,.155-.4.205.205,0,0,0-.084.089.81.81,0,0,0-.062.117,1.355,1.355,0,0,0-.087.291.5.5,0,0,1,.012-.169c-.024.012,0,0-.025.018a.517.517,0,0,0-.068.158l0-.1-.045.111a2.076,2.076,0,0,1,.029-.236.437.437,0,0,0-.068.2.361.361,0,0,1,0-.129l-.054.094c-.014.031-.026.067-.039.1a.918.918,0,0,1,.06-.222.777.777,0,0,0-.118.251.9.9,0,0,1,.088-.343c-.073.027-.093.282-.124.338l-.009-.108a.053.053,0,0,0-.013.02l-.034.114-.008-.14a.54.54,0,0,0-.04.147.974.974,0,0,1,0-.181c-.014.014,0,0-.02.023-.028.044-.033.105-.06.148l.023-.114a.077.077,0,0,0-.016.017l-.035.048a.517.517,0,0,0-.042.062,2.022,2.022,0,0,1,.109-.3.557.557,0,0,0-.078.119.958.958,0,0,0-.052.175,1.424,1.424,0,0,1,0-.18.6.6,0,0,0-.028.2.875.875,0,0,1,.029-.384.666.666,0,0,0-.088.356.432.432,0,0,1-.035-.152.358.358,0,0,0-.008.174l-.049-.067c.011.043.024.054.033.089a.761.761,0,0,1-.249-.428.825.825,0,0,0,.089.183,1.352,1.352,0,0,1-.055-.305c.028.065.032.162.055.234a.7.7,0,0,0,.092.2,1.163,1.163,0,0,1-.073-.463l.01.042a1.6,1.6,0,0,0,.038.253.685.685,0,0,1,.063-.414,1.411,1.411,0,0,0-.044.181c.045-.077.053-.2.139-.232a1.366,1.366,0,0,0-.1.191.427.427,0,0,0-.032.256.6.6,0,0,1,.277-.515.576.576,0,0,0-.154.233l0,.012c.015.072,0-.067,0,.017a.426.426,0,0,0-.066.142.917.917,0,0,0-.023.1c0,.016,0,.046,0,.06a.215.215,0,0,0,0,.028l.006.017a.772.772,0,0,1,.146-.412.79.79,0,0,1,.262-.226s0,0-.006.005l-.063.051a.786.786,0,0,0-.318.547c.009-.011,0,0,.012-.024a.064.064,0,0,0,.006-.016,1.249,1.249,0,0,1,.1-.237.891.891,0,0,1,.153-.2.911.911,0,0,1,.412-.215,1.875,1.875,0,0,0-.285.148.656.656,0,0,0-.227.245.653.653,0,0,0,.1-.077,1.911,1.911,0,0,1,.747-.394,1.559,1.559,0,0,0-.4.245l.078-.033c-.021.015-.037.036-.062.055s-.039.031-.06.05a1.094,1.094,0,0,0-.3.427c.026-.041.06-.084.091-.126s.062-.079.1-.12a1.992,1.992,0,0,1,.208-.214,2.1,2.1,0,0,1,.483-.313.175.175,0,0,0-.066.068,5.084,5.084,0,0,1,.754-.3c-.077.05-.21.084-.3.131l-.079.055a2.463,2.463,0,0,0,.269-.112,3.239,3.239,0,0,1,.86-.26,1.326,1.326,0,0,1,.672.023Z" transform="translate(-37.234 -69.701)" fill="#f9af79" fill-rule="evenodd"/>
          <path id="Path_957923" data-name="Path 957923" d="M64.852,145.368a.187.187,0,0,1-.015-.242.141.141,0,0,1,.214-.016,9.714,9.714,0,0,1,.836,1.921,16.294,16.294,0,0,1,.759,2.468c-.041.989-.691,1.061-1.132,1.11a.754.754,0,0,0-.246.046.14.14,0,0,1-.211-.034.186.186,0,0,1,.029-.241.747.747,0,0,1,.4-.11c.337-.039.834-.094.859-.786a17.91,17.91,0,0,0-.736-2.323,10.71,10.71,0,0,0-.755-1.792" transform="translate(-36.412 -73.296)" fill="#f9af79" fill-rule="evenodd"/>
          <path id="Path_957924" data-name="Path 957924" d="M67.335,159.684c-1.845.926-1.747.957-3.264,1.02-.785.034-1.926-.3-1.062.274,2.352,1.569,4.681-.5,4.326-1.293" transform="translate(-35.232 -80.681)" fill="#f9af79" fill-rule="evenodd"/>
          <path id="Path_957925" data-name="Path 957925" d="M56.4,143.218a.952.952,0,0,0-.849,1.026.931.931,0,0,0,.908.958.949.949,0,0,0,.848-1.025.933.933,0,0,0-.906-.96" transform="translate(-31.217 -72.361)" fill="#bcdbf3" fill-rule="evenodd"/>
          <path id="Path_957926" data-name="Path 957926" d="M56.462,145.2a.932.932,0,0,1-.909-.957.953.953,0,0,1,.851-1.027.808.808,0,0,1,.545.188l-.067-.006a.308.308,0,0,0-.275.333.3.3,0,0,0,.295.309.306.306,0,0,0,.275-.331l0-.037a1.077,1.077,0,0,1,.138.5.949.949,0,0,1-.849,1.026" transform="translate(-31.216 -72.361)" fill="#00549b" fill-rule="evenodd"/>
          <path id="Path_957927" data-name="Path 957927" d="M53.295,140.9a.493.493,0,0,1,.056.046,1.661,1.661,0,0,0-.185-.259.421.421,0,0,1,.11.089.787.787,0,0,1,.1.153.9.9,0,0,0-.043-.171.475.475,0,0,1,.076.183.742.742,0,0,0-.121-.36.583.583,0,0,1,.178.317.433.433,0,0,0,0-.16.324.324,0,0,1,.049.164l.039-.08c0,.047-.014.061-.016.1a.8.8,0,0,0,.169-.495.7.7,0,0,1-.055.2,1.173,1.173,0,0,0-.01-.311,2.366,2.366,0,0,0-.006.244.694.694,0,0,1-.051.221,1.122,1.122,0,0,0-.028-.471v.046a1.458,1.458,0,0,1,.017.255c-.037-.144-.04-.284-.163-.378a1.114,1.114,0,0,1,.089.16c-.068-.06-.105-.18-.2-.182a1.246,1.246,0,0,1,.148.154.364.364,0,0,1,.095.237.549.549,0,0,0-.418-.409c.048.021.2.115.219.178v.012c0,.073-.017-.065,0,.016a.443.443,0,0,1,.1.118.645.645,0,0,1,.047.093.324.324,0,0,1,.018.055.125.125,0,0,1,0,.028l0,.018a.651.651,0,0,0-.254-.349.833.833,0,0,0-.333-.138s.005,0,.005,0l.081.03a.714.714,0,0,1,.47.428c-.011-.009,0,0-.019-.018l-.01-.014a1.208,1.208,0,0,0-.159-.2.844.844,0,0,0-.212-.144,1,1,0,0,0-.5-.076,1.863,1.863,0,0,1,.342.051.639.639,0,0,1,.3.163.737.737,0,0,1-.122-.043,2.13,2.13,0,0,0-.9-.143,1.725,1.725,0,0,1,.49.108l-.095-.008c.027.01.05.024.08.034s.048.016.076.03a1.014,1.014,0,0,1,.425.316,1.3,1.3,0,0,0-.126-.092c-.045-.032-.084-.058-.131-.086a1.964,1.964,0,0,0-.275-.141,2.345,2.345,0,0,0-.592-.148.193.193,0,0,1,.086.044,6.389,6.389,0,0,0-.884-.051c.095.023.244.013.351.032l.1.027a2.662,2.662,0,0,1-.317-.021,3.84,3.84,0,0,0-.988.023,1.665,1.665,0,0,0-.718.233,1.852,1.852,0,0,0-.412.363,1.472,1.472,0,0,0-.095.134c.093-.071.286-.356.5-.442a3.685,3.685,0,0,0-.762.853c.06-.056.138-.167.2-.241s.146-.158.224-.234a2.236,2.236,0,0,1,.548-.413,2.409,2.409,0,0,1-.206.18,8.434,8.434,0,0,0-1.082,1.113c-.039.048-.115.166-.143.195.037-.023.176-.189.223-.236a3,3,0,0,1,.8-.645,7.609,7.609,0,0,0-.814.684l.483-.376a2.47,2.47,0,0,1,.568-.331,5.113,5.113,0,0,0-1.051.759c.079-.044.187-.139.27-.195.1-.068.194-.13.3-.189a3.081,3.081,0,0,1,.649-.3,3.3,3.3,0,0,1,.9-.145,2.86,2.86,0,0,0,.287-.011.833.833,0,0,0-.257-.015,3.2,3.2,0,0,0-.526.034c-.071.01-.21.05-.268.048a3.217,3.217,0,0,1,.542-.145.046.046,0,0,1-.024,0,.1.1,0,0,1-.022-.007,1.482,1.482,0,0,1,.434,0c.125.013.382.085.4.084a.465.465,0,0,1-.089-.055l.3.033-.382-.094a2.079,2.079,0,0,1,.251.035c.09.012.274.035.357.057a1.273,1.273,0,0,0,.377.014,1.4,1.4,0,0,0-.214-.05l-.205-.047c-.039-.012-.071-.015-.1-.028a3.031,3.031,0,0,0-.3-.095,1.894,1.894,0,0,0-.872-.055,1.606,1.606,0,0,1,.9.024l.416.123c.037.007.066.022.1.033a3.039,3.039,0,0,0,.309.079l-.009-.023,0-.006v0s0,0,0,0a.553.553,0,0,0,.191.046c-.1-.086-.354-.133-.452-.251a1.247,1.247,0,0,1,.273.127c.029.015.057.024.085.038a1.058,1.058,0,0,0-.333-.275l-.125-.061a.566.566,0,0,1,.306.141,1.961,1.961,0,0,1,.228.215.078.078,0,0,0,.016.016c.015.013.007.007.02.011l-.11-.161c.02.033.159.153.17.2a.9.9,0,0,0-.127-.218l.062.038a1.453,1.453,0,0,0-.492-.34.932.932,0,0,1,.509.3c.051.06.09.139.136.186l-.059-.129.007,0,.075.077a.906.906,0,0,0-.259-.338.213.213,0,0,1,.112.059.7.7,0,0,1,.094.094,1.414,1.414,0,0,1,.16.253.538.538,0,0,0-.053-.16c.028,0,0,0,.031.01a.464.464,0,0,1,.109.131l-.027-.1.074.094a1.5,1.5,0,0,0-.087-.218.365.365,0,0,1,.121.171.3.3,0,0,0-.03-.123l.082.072c.02.027.041.056.062.081a.845.845,0,0,0-.113-.194c.081.043.119.122.184.2a.834.834,0,0,0-.173-.3c.085,0,.165.242.212.287l-.016-.105a.062.062,0,0,1,.017.014l.064.1-.021-.135a.518.518,0,0,1,.075.127.845.845,0,0,0-.038-.174c.019.008,0,0,.026.015.042.035.062.09.1.125l-.051-.1c.014.006.007,0,.019.01Z" transform="translate(-27.231 -70.834)" fill="#00549b" fill-rule="evenodd"/>
          <path id="Path_957928" data-name="Path 957928" d="M70.029,140.9a.933.933,0,0,1,.906.96.948.948,0,0,1-.848,1.023.928.928,0,0,1-.907-.957.951.951,0,0,1,.849-1.027" transform="translate(-38.873 -71.189)" fill="#bcdbf3" fill-rule="evenodd"/>
          <path id="Path_957929" data-name="Path 957929" d="M70.086,142.881a.951.951,0,0,0,.849-1.026.933.933,0,0,0-.909-.96.823.823,0,0,0-.533.231l.067-.013a.3.3,0,0,1,.294.312.287.287,0,1,1-.569.022v-.04a1.106,1.106,0,0,0-.11.514.935.935,0,0,0,.91.959" transform="translate(-38.871 -71.188)" fill="#00549b" fill-rule="evenodd"/>
          <path id="Path_957930" data-name="Path 957930" d="M66.763,139.011a.407.407,0,0,0-.053.05,1.851,1.851,0,0,1,.165-.27.5.5,0,0,0-.1.1.884.884,0,0,0-.085.157,1.14,1.14,0,0,1,.038-.174.571.571,0,0,0-.067.189.838.838,0,0,1,.1-.367.627.627,0,0,0-.155.325.429.429,0,0,1,0-.157.358.358,0,0,0-.042.166l-.035-.076c0,.045.012.059.015.095a.808.808,0,0,1-.159-.479.863.863,0,0,0,.052.2,1.336,1.336,0,0,1,.006-.312c.014.071,0,.166.008.242a.756.756,0,0,0,.05.218,1.221,1.221,0,0,1,.019-.47v.044a1.861,1.861,0,0,0-.012.256c.032-.147.033-.287.142-.388a1.261,1.261,0,0,0-.078.165c.059-.064.092-.187.181-.191a1.287,1.287,0,0,0-.132.162.415.415,0,0,0-.081.242c.083-.267.22-.4.371-.433-.042.021-.177.125-.2.189v.012c0,.074.015-.063,0,.018a.4.4,0,0,0-.092.123.79.79,0,0,0-.042.093c0,.015-.014.044-.016.058a.247.247,0,0,0,0,.028l0,.018a.724.724,0,0,1,.223-.365.736.736,0,0,1,.3-.155l-.007,0-.071.034a.727.727,0,0,0-.417.456c.011-.011,0,0,.016-.022a.085.085,0,0,0,.009-.014,1.157,1.157,0,0,1,.142-.206.842.842,0,0,1,.188-.157.861.861,0,0,1,.445-.107,1.707,1.707,0,0,0-.307.073.6.6,0,0,0-.27.182.643.643,0,0,0,.11-.051,1.814,1.814,0,0,1,.806-.2,1.471,1.471,0,0,0-.438.14l.083-.013c-.024.009-.043.026-.069.038a.447.447,0,0,0-.07.034,1.02,1.02,0,0,0-.379.339c.034-.032.075-.065.113-.1s.075-.061.117-.092a1.81,1.81,0,0,1,.777-.341.162.162,0,0,0-.078.05,4.973,4.973,0,0,1,.794-.108c-.084.03-.221.029-.315.053l-.088.034a2.375,2.375,0,0,0,.284-.042,3.164,3.164,0,0,1,.89-.04,1.35,1.35,0,0,1,.65.188,1.712,1.712,0,0,1,.375.335c.039.049.058.085.087.128-.086-.064-.262-.335-.457-.408a3.205,3.205,0,0,1,.7.8c-.054-.054-.126-.159-.185-.228s-.133-.149-.2-.221a1.849,1.849,0,0,0-.5-.376,2.136,2.136,0,0,0,.187.164A7.572,7.572,0,0,1,71,139.695c.035.046.1.158.131.186-.034-.022-.161-.174-.2-.221a2.557,2.557,0,0,0-.729-.593,6.644,6.644,0,0,1,.74.63l-.438-.344a2.053,2.053,0,0,0-.517-.292,4.188,4.188,0,0,1,.955.69c-.071-.039-.17-.127-.244-.177s-.177-.117-.268-.17a2.523,2.523,0,0,0-.587-.262,2.657,2.657,0,0,0-.809-.089,2.416,2.416,0,0,1-.258.007.718.718,0,0,1,.231-.031,2.666,2.666,0,0,1,.474,0,2.1,2.1,0,0,0,.241.032,3.06,3.06,0,0,0-.489-.113c.014,0,.006,0,.021,0a.077.077,0,0,0,.02-.008,1.173,1.173,0,0,0-.39.021c-.113.023-.342.107-.354.11a.772.772,0,0,0,.079-.06l-.273.051.341-.118a1.823,1.823,0,0,0-.224.052,3.227,3.227,0,0,0-.32.077,1.04,1.04,0,0,1-.34.039,1.246,1.246,0,0,1,.192-.064l.185-.061a.878.878,0,0,0,.095-.036,2.444,2.444,0,0,1,.267-.11,1.558,1.558,0,0,1,.785-.111,1.338,1.338,0,0,0-.814.08l-.373.15a.629.629,0,0,0-.092.037,2.513,2.513,0,0,1-.28.1l.01-.025v0a.007.007,0,0,1,0,0s0,0,0,0a.484.484,0,0,1-.173.058c.094-.094.317-.155.4-.279a1.143,1.143,0,0,0-.244.144c-.025.018-.052.028-.076.044a1.069,1.069,0,0,1,.3-.294l.111-.07a.539.539,0,0,0-.273.161,2.089,2.089,0,0,0-.2.227.081.081,0,0,1-.013.017c-.014.015-.006.008-.018.01l.1-.164c-.018.032-.141.161-.15.209a.869.869,0,0,1,.112-.226l-.057.041a1.427,1.427,0,0,1,.439-.369.878.878,0,0,0-.455.329c-.046.063-.078.143-.121.2l.052-.134s0,0-.006.005l-.065.081a.94.94,0,0,1,.228-.352.2.2,0,0,0-.1.065.755.755,0,0,0-.083.1,1.36,1.36,0,0,0-.142.262.5.5,0,0,1,.045-.162c-.026.006,0-.005-.028.012a.5.5,0,0,0-.1.137l.024-.1-.065.1a1.9,1.9,0,0,1,.074-.223.417.417,0,0,0-.106.178.361.361,0,0,1,.025-.126l-.072.079c-.018.026-.038.058-.057.083a.88.88,0,0,1,.1-.2A.684.684,0,0,0,67,139.1a.846.846,0,0,1,.152-.313c-.077.008-.145.251-.187.3l.013-.107c-.008.006,0,0-.017.016l-.056.1.02-.137a.528.528,0,0,0-.068.13,1.027,1.027,0,0,1,.032-.176c-.016.01,0,0-.024.017-.036.037-.053.094-.088.13l.045-.106a.1.1,0,0,0-.019.013Z" transform="translate(-37.301 -69.852)" fill="#00549b" fill-rule="evenodd"/>
          <path id="Path_957931" data-name="Path 957931" d="M64.852,145.368a.187.187,0,0,1-.015-.242.141.141,0,0,1,.214-.016,9.714,9.714,0,0,1,.836,1.921,16.294,16.294,0,0,1,.759,2.468c-.039.988-.691,1.061-1.132,1.11a.754.754,0,0,0-.246.046.14.14,0,0,1-.211-.034.188.188,0,0,1,.029-.241.731.731,0,0,1,.4-.11c.337-.039.834-.094.859-.786a17.91,17.91,0,0,0-.736-2.323,10.71,10.71,0,0,0-.755-1.792" transform="translate(-36.412 -73.296)" fill="#f5916f" fill-rule="evenodd"/>
          <path id="Path_957932" data-name="Path 957932" d="M67.335,159.685c-1.843.925-1.745.959-3.263,1.02-.787.034-1.928-.3-1.064.275,2.352,1.568,4.681-.5,4.327-1.294" transform="translate(-35.232 -80.681)" fill="#fff" fill-rule="evenodd"/>
        </g>
      </g>
      <g id="Group_1122685" data-name="Group 1122685" transform="translate(151 190.681)">
        <g id="Group_1122684" data-name="Group 1122684" clip-path="url(#clip-path-3)">
          <path id="Path_957933" data-name="Path 957933" d="M58.126,19.109a9.15,9.15,0,0,0-6.871-8.833,9.145,9.145,0,0,1,8.31,9.078v10.28l-1.44.038Zm-26.784,11.3V19.354A19.109,19.109,0,0,1,52.928.406,18.973,18.973,0,0,0,49.014,0,19.166,19.166,0,0,0,29.9,19.109V30.447Z" transform="translate(-18.265 0)" fill="#5e9bd3" fill-rule="evenodd"/>
          <path id="Path_957934" data-name="Path 957934" d="M61.825,19.738a9.114,9.114,0,1,0-18.228,0V30.8l-10,.274V19.738a19.109,19.109,0,1,1,38.219,0v10.29l-10,.274Z" transform="translate(-20.524 -0.384)" fill="#97c1e7" fill-rule="evenodd"/>
          <path id="Path_957935" data-name="Path 957935" d="M27.374,72.291l48.6,1.331,1.378,57.467H27.374Z" transform="translate(-16.72 -44.155)" fill="#e6e7e8" fill-rule="evenodd"/>
          <path id="Path_957936" data-name="Path 957936" d="M13.46,72.291l-8.2.225-.671,58.573H13.46Z" transform="translate(-2.806 -44.155)" fill="#e6e7e8" fill-rule="evenodd"/>
          <path id="Path_957937" data-name="Path 957937" d="M55.6,73.065l-18.228-.5-10-.274v58.8h49.98L75.976,73.623l-10.383-.285Z" transform="translate(-16.72 -44.155)" fill="#eef8fd" fill-rule="evenodd"/>
          <path id="Path_957938" data-name="Path 957938" d="M55.355,72.971l-18.227-.5L27.289,72.2V130.69h49.67l-1.37-57.165-10.236-.279Zm-18.219-.806,18.229.5,10,.274,10.382.285.144,0,.005.145,1.378,57.466,0,.157H26.984V71.887l.157,0Z" transform="translate(-16.482 -43.908)" fill="#4189c9" fill-rule="evenodd"/>
          <path id="Path_957939" data-name="Path 957939" d="M10.937,131.089v-58.8l-8.2.225L.463,131.089Z" transform="translate(-0.283 -44.155)" fill="#97c1e7" fill-rule="evenodd"/>
          <path id="Path_957940" data-name="Path 957940" d="M10.48,130.639V72.191l-7.855.214L.36,130.639Zm.348-58.626v58.972H0l.008-.181L2.287,72.231l.006-.162.162,0,8.2-.225.179,0Z" transform="translate(0 -43.877)" fill="#4189c9" fill-rule="evenodd"/>
          <path id="Path_957941" data-name="Path 957941" d="M147.791,87.13a.173.173,0,1,1,.346-.008l.485,20.27a.171.171,0,0,1-.168.177.174.174,0,0,1-.177-.17Z" transform="translate(-90.27 -53.111)" fill="#4189c9" fill-rule="evenodd"/>
          <path id="Path_957942" data-name="Path 957942" d="M35.449,215.713a.174.174,0,1,1,0-.348H55.72a.174.174,0,0,1,0,.348Z" transform="translate(-21.546 -131.544)" fill="#4189c9" fill-rule="evenodd"/>
          <path id="Path_957943" data-name="Path 957943" d="M30.5,77.163a.172.172,0,0,1,.172-.172.174.174,0,0,1,.175.172L30.811,93.9a.173.173,0,0,1-.347,0Z" transform="translate(-18.607 -47.026)" fill="#4189c9" fill-rule="evenodd"/>
          <path id="Path_957944" data-name="Path 957944" d="M19.765,172.8l-.03,16.739h-.306L19.46,172.8Z" transform="translate(-11.867 -105.547)" fill="#4189c9" fill-rule="evenodd"/>
          <path id="Path_957945" data-name="Path 957945" d="M94.756,153.119l-3.23-16.83a6.116,6.116,0,0,1-1.317.948l3.051,15.891Z" transform="translate(-55.099 -83.245)" fill="#97c1e7" fill-rule="evenodd"/>
          <path id="Path_957946" data-name="Path 957946" d="M78.161,107.821a6.062,6.062,0,0,1,4.317,10.316,6.062,6.062,0,1,0-7.331-9.514,6.03,6.03,0,0,1,3.013-.8" transform="translate(-45.9 -65.242)" fill="#97c1e7" fill-rule="evenodd"/>
          <path id="Path_957947" data-name="Path 957947" d="M76.546,106.509A6.18,6.18,0,0,1,79.527,118.1l3.226,16.806.026.14h-.141l-11.832.074h-.149l.034-.145,3.792-16.462a6.18,6.18,0,0,1,2.064-12.006m4.2,1.977a5.943,5.943,0,1,0-6.089,9.839l.1.036-.024.1-3.782,16.42,11.538-.072-3.216-16.75-.015-.085.077-.042a5.946,5.946,0,0,0,1.409-9.45" transform="translate(-42.979 -65.055)" fill="#4189c9" fill-rule="evenodd"/>
          <path id="Path_957948" data-name="Path 957948" d="M81.672,115.462A6.063,6.063,0,0,0,72.988,110c-.094.082-.185.168-.273.256a5.944,5.944,0,0,0,2.316,9.839l.1.036-.025.1-3.782,16.42,10.161-.063L78.46,120.814a6.15,6.15,0,0,0,1.215-.854l-.026-.132-.015-.084.077-.042a6,6,0,0,0,.516-.309,6.035,6.035,0,0,0,1.446-3.931" transform="translate(-43.35 -66.822)" fill="#5e9bd3" fill-rule="evenodd"/>
        </g>
      </g>
      <g id="Group_1122687" data-name="Group 1122687" transform="translate(0 16.473)">
        <g id="Group_1122686" data-name="Group 1122686" transform="translate(0 0)" clip-path="url(#clip-path-4)">
          <path id="Path_957949" data-name="Path 957949" d="M2.139,17.221H29.985a2.148,2.148,0,0,1,2.14,2.142V47.207a2.145,2.145,0,0,1-2.14,2.139H2.139A2.145,2.145,0,0,1,0,47.207V19.363a2.147,2.147,0,0,1,2.139-2.142" transform="translate(0 -9.094)" fill="#97c1e7" fill-rule="evenodd"/>
          <path id="Path_957950" data-name="Path 957950" d="M20.33,31.914l11.828-19.4,4.877-8a2.966,2.966,0,1,0-5.064-3.09l-4.445,7.3L17.511,25.146,9.645,14.33a2.967,2.967,0,0,0-4.806,3.482L15.323,32.229a2.969,2.969,0,0,0,4.146.661,2.912,2.912,0,0,0,.861-.976" transform="translate(-2.257 0)" fill="#5e9bd3" fill-rule="evenodd"/>
        </g>
      </g>
    </g>
  </g>
</svg>
